<svg version="1.1" viewBox="0.0 0.0 2276.0 1560.0" fill="none" stroke="none" stroke-linecap="square" stroke-miterlimit="10" xmlns:xlink="http://www.w3.org/1999/xlink" xmlns="http://www.w3.org/2000/svg"><clipPath id="p.0"><path d="m0 0l2276.0 0l0 1560.0l-2276.0 0l0 -1560.0z" clip-rule="nonzero"/></clipPath><g clip-path="url(#p.0)"><path fill="#000000" fill-opacity="0.0" d="m0 0l2276.0 0l0 1560.0l-2276.0 0z" fill-rule="evenodd"/><path fill="#000000" fill-opacity="0.0" d="m864.0 161.10779l0 0c0 -77.304016 -62.667297 -139.97131 -139.97131 -139.97131l-559.8684 0l0 0c-37.122696 0 -72.724945 14.746937 -98.974655 40.996647c-26.249714 26.249714 -40.996647 61.851963 -40.996647 98.974655l0 1230.9236c0 77.303955 62.667286 139.97131 139.9713 139.97131l559.8684 0c77.304016 0 139.97131 -62.66736 139.97131 -139.97131z" fill-rule="evenodd"/><path stroke="#cccccc" stroke-width="1.0" stroke-linejoin="round" stroke-linecap="butt" d="m864.0 161.10779l0 0c0 -77.304016 -62.667297 -139.97131 -139.97131 -139.97131l-559.8684 0l0 0c-37.122696 0 -72.724945 14.746937 -98.974655 40.996647c-26.249714 26.249714 -40.996647 61.851963 -40.996647 98.974655l0 1230.9236c0 77.303955 62.667286 139.97131 139.9713 139.97131l559.8684 0c77.304016 0 139.97131 -62.66736 139.97131 -139.97131z" fill-rule="evenodd"/><path fill="#351c75" d="m96.56017 167.90456q-5.578125 0 -10.015625 -2.1875q-4.4375 -2.203125 -6.96875 -6.375q-2.53125 -4.1875 -2.53125 -10.0625q0 -6.015625 2.71875 -10.1875q2.71875 -4.1875 7.21875 -6.375q4.515625 -2.203125 9.9375 -2.203125q4.40625 0 7.59375 1.546875q3.1875 1.53125 5.390625 3.65625l-3.015625 3.890625q-2.1875 -1.90625 -4.546875 -3.0q-2.34375 -1.109375 -5.203125 -1.109375q-4.09375 0 -7.25 1.734375q-3.15625 1.71875 -4.890625 4.828125q-1.71875 3.109375 -1.71875 7.21875q0 4.03125 1.6875 7.125q1.6875 3.078125 4.796875 4.796875q3.125 1.71875 7.234375 1.71875q3.296875 0 6.046875 -1.3125q2.75 -1.328125 4.953125 -3.15625l2.71875 3.890625q-2.9375 2.640625 -6.578125 4.109375q-3.625 1.453125 -7.578125 1.453125zm48.38743 0q-5.640625 0 -8.65625 -3.25q-3.0 -3.265625 -3.0 -9.578125l0 -35.343758l-12.171867 0l0 -4.90625l18.187492 0l0 40.687508q0 3.890625 1.90625 5.65625q1.90625 1.75 5.0625 1.75q1.53125 0 3.140625 -0.390625q1.625 -0.40625 3.609375 -1.296875l1.53125 4.546875q-2.421875 0.890625 -4.546875 1.5q-2.125 0.625 -5.0625 0.625zm32.262436 0q-3.296875 0 -6.078125 -1.203125q-2.78125 -1.21875 -4.40625 -3.484375q-1.609375 -2.28125 -1.609375 -5.421875q0 -6.015625 6.015625 -9.125q6.015625 -3.125 19.796875 -4.21875q-0.078125 -2.421875 -1.0 -4.46875q-0.90625 -2.0625 -2.96875 -3.265625q-2.046875 -1.21875 -5.484375 -1.21875q-2.28125 0 -4.515625 0.625q-2.234375 0.625 -4.25 1.625q-2.015625 0.984375 -3.703125 2.0l-2.34375 -4.109375q1.75 -1.171875 4.28125 -2.375q2.53125 -1.21875 5.46875 -1.984375q2.9375 -0.765625 6.078125 -0.765625q4.921875 0 8.109375 1.84375q3.1875 1.828125 4.765625 5.09375q1.578125 3.25 1.578125 7.71875l0 21.859375l-4.921875 0l-0.5 -4.84375l-0.21875 0q-2.9375 2.34375 -6.609375 4.03125q-3.65625 1.6875 -7.484375 1.6875zm1.625 -4.828125q3.078125 0 6.078125 -1.390625q3.015625 -1.40625 6.015625 -3.890625l0 -9.390625q-7.625 0.65625 -11.984375 1.828125q-4.359375 1.171875 -6.15625 2.96875q-1.796875 1.796875 -1.796875 4.15625q0 1.96875 1.09375 3.25q1.09375 1.28125 2.890625 1.875q1.796875 0.59375 3.859375 0.59375zm47.074936 4.828125q-5.203125 0 -9.75 -1.6875q-4.546875 -1.6875 -7.78125 -3.875l2.796875 -3.96875q3.078125 2.203125 6.8125 3.53125q3.734375 1.3125 8.65625 1.3125q4.546875 0 6.78125 -1.6875q2.234375 -1.6875 2.234375 -3.890625q0 -1.015625 -0.40625 -1.890625q-0.40625 -0.890625 -1.546875 -1.6875q-1.125 -0.8125 -3.328125 -1.546875q-2.203125 -0.734375 -5.859375 -1.46875q-6.96875 -1.46875 -10.453125 -3.953125q-3.484375 -2.5 -3.484375 -6.453125q0 -4.328125 3.734375 -7.21875q3.75 -2.90625 11.078125 -2.90625q4.109375 0 7.921875 1.359375q3.8125 1.359375 6.453125 3.1875l-2.9375 3.890625q-2.421875 -1.765625 -5.5 -2.75q-3.078125 -1.0 -6.453125 -1.0q-3.078125 0 -4.875 0.703125q-1.796875 0.6875 -2.5625 1.875q-0.765625 1.171875 -0.765625 2.5625q0 2.265625 2.453125 3.546875q2.453125 1.28125 7.875 2.390625q5.9375 1.25 9.125 2.796875q3.203125 1.53125 4.40625 3.515625q1.21875 1.96875 1.21875 4.6875q0 2.9375 -1.84375 5.328125q-1.828125 2.375 -5.359375 3.84375q-3.515625 1.453125 -8.640625 1.453125zm43.996826 0q-5.203125 0 -9.75 -1.6875q-4.5468903 -1.6875 -7.7812653 -3.875l2.796875 -3.96875q3.0781403 2.203125 6.8125153 3.53125q3.734375 1.3125 8.65625 1.3125q4.546875 0 6.78125 -1.6875q2.234375 -1.6875 2.234375 -3.890625q0 -1.015625 -0.40625 -1.890625q-0.40625 -0.890625 -1.546875 -1.6875q-1.125 -0.8125 -3.328125 -1.546875q-2.203125 -0.734375 -5.859375 -1.46875q-6.96875 -1.46875 -10.453125 -3.953125q-3.4843903 -2.5 -3.4843903 -6.453125q0 -4.328125 3.7343903 -7.21875q3.75 -2.90625 11.078125 -2.90625q4.109375 0 7.921875 1.359375q3.8125 1.359375 6.453125 3.1875l-2.9375 3.890625q-2.421875 -1.765625 -5.5 -2.75q-3.078125 -1.0 -6.453125 -1.0q-3.078125 0 -4.875 0.703125q-1.796875 0.6875 -2.5625 1.875q-0.765625 1.171875 -0.765625 2.5625q0 2.265625 2.453125 3.546875q2.453125 1.28125 7.875 2.390625q5.9375 1.25 9.125 2.796875q3.203125 1.53125 4.40625 3.515625q1.21875 1.96875 1.21875 4.6875q0 2.9375 -1.84375 5.328125q-1.828125 2.375 -5.359375 3.84375q-3.515625 1.453125 -8.640625 1.453125z" fill-rule="nonzero"/><path fill="#000000" d="m344.91605 167.02956l0 -48.109383l29.546875 0l0 5.140625l-23.390625 0l0 16.281258l19.796875 0l0 5.125l-19.796875 0l0 21.5625l-6.15625 0zm56.246796 0.875q-4.6875 0 -8.6875 -2.1875q-4.0 -2.203125 -6.453125 -6.375q-2.453125 -4.1875 -2.453125 -10.0625q0 -6.015625 2.453125 -10.1875q2.453125 -4.1875 6.453125 -6.375q4.0 -2.203125 8.6875 -2.203125q4.6875 0 8.6875 2.203125q4.0 2.1875 6.453125 6.375q2.453125 4.171875 2.453125 10.1875q0 5.875 -2.453125 10.0625q-2.453125 4.171875 -6.453125 6.375q-4.0 2.1875 -8.6875 2.1875zm0 -4.984375q3.4375 0 6.0 -1.71875q2.578125 -1.71875 3.96875 -4.796875q1.390625 -3.09375 1.390625 -7.125q0 -4.109375 -1.390625 -7.21875q-1.390625 -3.109375 -3.96875 -4.828125q-2.5625 -1.734375 -6.0 -1.734375q-3.453125 0 -5.984375 1.734375q-2.515625 1.71875 -3.953125 4.828125q-1.4375 3.109375 -1.4375 7.21875q0 4.03125 1.4375 7.125q1.4375 3.078125 3.953125 4.796875q2.53125 1.71875 5.984375 1.71875zm43.996826 4.984375q-4.6875 0 -8.6875 -2.1875q-4.0 -2.203125 -6.453125 -6.375q-2.453125 -4.1875 -2.453125 -10.0625q0 -6.015625 2.453125 -10.1875q2.453125 -4.1875 6.453125 -6.375q4.0 -2.203125 8.6875 -2.203125q4.6875 0 8.6875 2.203125q4.0 2.1875 6.453125 6.375q2.453125 4.171875 2.453125 10.1875q0 5.875 -2.453125 10.0625q-2.453125 4.171875 -6.453125 6.375q-4.0 2.1875 -8.6875 2.1875zm0 -4.984375q3.4375 0 6.0 -1.71875q2.578125 -1.71875 3.96875 -4.796875q1.390625 -3.09375 1.390625 -7.125q0 -4.109375 -1.390625 -7.21875q-1.390625 -3.109375 -3.96875 -4.828125q-2.5625 -1.734375 -6.0 -1.734375q-3.453125 0 -5.984375 1.734375q-2.515625 1.71875 -3.953125 4.828125q-1.4375 3.109375 -1.4375 7.21875q0 4.03125 1.4375 7.125q1.4375 3.078125 3.953125 4.796875q2.53125 1.71875 5.984375 1.71875z" fill-rule="nonzero"/><path fill="#000000" d="m500.67212 178.57643q-7.140625 0 -10.609375 -2.125q-3.453125 -2.125 -3.453125 -7.984375q0 -2.8125 0.15625 -5.15625q0.15625 -2.359375 0.34375 -4.671875q0.1875 -2.328125 0.1875 -4.828125q0 -1.53125 -0.875 -2.859375q-0.875 -1.328125 -3.265625 -2.203125q-2.390625 -0.875 -6.875 -0.875l0 -3.953125q4.484375 0 6.875 -0.875q2.390625 -0.875 3.265625 -2.234375q0.875 -1.375 0.875 -2.8125q0 -2.359375 -0.1875 -4.75q-0.1875 -2.390625 -0.34375 -4.828125q-0.15625 -2.4375076 -0.15625 -5.0937576q0 -5.84375 3.453125 -7.96875q3.46875 -2.140625 10.609375 -2.140625l4.640625 0l0 3.578125l-3.953125 0q-3.875 0 -5.890625 0.71875q-2.015625 0.71875 -2.78125 2.203125q-0.75 1.484375 -0.75 4.0q0 3.265625 0.21875 6.7187576q0.234375 3.453125 0.234375 7.03125q0 3.640625 -1.484375 5.625q-1.484375 1.96875 -5.4375 2.65625l0 0.3125q3.953125 0.671875 5.4375 2.65625q1.484375 1.96875 1.484375 5.625q0 3.796875 -0.234375 7.03125q-0.21875 3.21875 -0.21875 6.71875q0 2.4375 0.75 3.953125q0.765625 1.515625 2.78125 2.234375q2.015625 0.734375 5.890625 0.734375l3.953125 0l0 3.5625l-4.640625 0z" fill-rule="nonzero"/><path fill="#000000" d="m171.59142 377.02957l0 -36.9375l5.015625 0l0.53125 4.859375l0.15625 0q1.4375 -2.578125 3.34375 -4.171875q1.90625 -1.59375 5.09375 -1.59375q2.734375 0 4.484375 1.59375q1.75 1.59375 2.5 4.78125q1.59375 -2.953125 3.53125 -4.65625q1.953125 -1.71875 5.140625 -1.71875q3.875 0 6.03125 2.921875q2.171875 2.921875 2.171875 8.46875l0 26.453125l-6.234375 0l0 -25.984375q0 -6.46875 -3.953125 -6.46875q-1.890625 0 -3.15625 1.40625q-1.25 1.40625 -2.765625 4.296875l0 26.75l-5.78125 0l0 -25.984375q0 -3.203125 -0.875 -4.828125q-0.875 -1.640625 -2.921875 -1.640625q-1.90625 0 -3.3125 1.40625q-1.390625 1.40625 -2.765625 4.296875l0 26.75l-6.234375 0zm74.09999 13.375q-7.90625 -6.234375 -12.5 -14.859375q-4.59375 -8.625 -4.59375 -19.640625q0 -11.015625 4.59375 -19.671875q4.59375 -8.671875 12.5 -14.828125l3.421875 3.1875q-7.59375 6.375 -11.25 14.0625q-3.640625 7.671875 -3.640625 17.25q0 9.578125 3.640625 17.21875q3.65625 7.625 11.25 14.09375l-3.421875 3.1875zm25.381256 0l-3.421875 -3.1875q7.609375 -6.46875 11.25 -14.09375q3.65625 -7.640625 3.65625 -17.21875q0 -9.578125 -3.65625 -17.25q-3.640625 -7.6875 -11.25 -14.0625l3.421875 -3.1875q7.984375 6.15625 12.546875 14.828125q4.5625 8.65625 4.5625 19.671875q0 11.015625 -4.5625 19.640625q-4.5625 8.625 -12.546875 14.859375zm66.42813 -1.828125q-7.140625 0 -10.609375 -2.125q-3.453125 -2.125 -3.453125 -7.984375q0 -2.8125 0.15625 -5.15625q0.15625 -2.359375 0.34375 -4.671875q0.1875 -2.328125 0.1875 -4.828125q0 -1.53125 -0.875 -2.859375q-0.875 -1.328125 -3.2656555 -2.203125q-2.390625 -0.875 -6.875 -0.875l0 -3.953125q4.484375 0 6.875 -0.875q2.3906555 -0.875 3.2656555 -2.234375q0.875 -1.375 0.875 -2.8125q0 -2.359375 -0.1875 -4.75q-0.1875 -2.390625 -0.34375 -4.828125q-0.15625 -2.4375 -0.15625 -5.09375q0 -5.84375 3.453125 -7.96875q3.46875 -2.140625 10.609375 -2.140625l4.640625 0l0 3.578125l-3.953125 0q-3.875 0 -5.890625 0.71875q-2.015625 0.71875 -2.78125 2.203125q-0.75 1.484375 -0.75 4.0q0 3.265625 0.21875 6.71875q0.234375 3.453125 0.234375 7.03125q0 3.640625 -1.484375 5.625q-1.484375 1.96875 -5.4375 2.65625l0 0.3125q3.953125 0.671875 5.4375 2.65625q1.484375 1.96875 1.484375 5.625q0 3.796875 -0.234375 7.03125q-0.21875 3.21875 -0.21875 6.71875q0 2.4375 0.75 3.953125q0.765625 1.515625 2.78125 2.234375q2.015625 0.734375 5.890625 0.734375l3.953125 0l0 3.5625l-4.640625 0z" fill-rule="nonzero"/><path fill="#000000" d="m367.582 482.93582q-2.5 0 -4.328125 -1.78125q-1.828125 -1.78125 -1.828125 -4.59375q0 -2.890625 1.828125 -4.671875q1.828125 -1.796875 4.328125 -1.796875q2.59375 0 4.375 1.796875q1.78125 1.78125 1.78125 4.671875q0 2.8125 -1.78125 4.59375q-1.78125 1.78125 -4.375 1.78125zm45.600006 0q-2.5 0 -4.328125 -1.78125q-1.828125 -1.78125 -1.828125 -4.59375q0 -2.890625 1.828125 -4.671875q1.828125 -1.796875 4.328125 -1.796875q2.59375 0 4.375 1.796875q1.78125 1.78125 1.78125 4.671875q0 2.8125 -1.78125 4.59375q-1.78125 1.78125 -4.375 1.78125zm45.599976 0q-2.5 0 -4.328125 -1.78125q-1.828125 -1.78125 -1.828125 -4.59375q0 -2.890625 1.828125 -4.671875q1.828125 -1.796875 4.328125 -1.796875q2.59375 0 4.375 1.796875q1.78125 1.78125 1.78125 4.671875q0 2.8125 -1.78125 4.59375q-1.78125 1.78125 -4.375 1.78125z" fill-rule="nonzero"/><path fill="#f4cccc" d="m71.18517 514.0696l410.3999 0l0 91.20001l-410.3999 0l0 -91.20001z" fill-rule="nonzero"/><path fill="#000000" fill-opacity="0.0" d="m71.18517 512.2456l45.59999 0l0 95.53198l-45.59999 0l0 -95.53198z" fill-rule="nonzero"/><path fill="#990000" d="m77.6383 564.31085l0 -4.71875l32.6875 0l0 4.71875l-32.6875 0z" fill-rule="nonzero"/><path fill="#010000" fill-opacity="0.0" d="m116.785164 512.2456l364.79993 0l0 95.53198l-364.79993 0l0 -95.53198z" fill-rule="nonzero"/><path fill="#000000" d="m367.582 587.93585q-2.5 0 -4.328125 -1.78125q-1.828125 -1.78125 -1.828125 -4.59375q0 -2.890625 1.828125 -4.671875q1.828125 -1.796875 4.328125 -1.796875q2.59375 0 4.375 1.796875q1.78125 1.78125 1.78125 4.671875q0 2.8125 -1.78125 4.59375q-1.78125 1.78125 -4.375 1.78125zm45.600006 0q-2.5 0 -4.328125 -1.78125q-1.828125 -1.78125 -1.828125 -4.59375q0 -2.890625 1.828125 -4.671875q1.828125 -1.796875 4.328125 -1.796875q2.59375 0 4.375 1.796875q1.78125 1.78125 1.78125 4.671875q0 2.8125 -1.78125 4.59375q-1.78125 1.78125 -4.375 1.78125zm45.599976 0q-2.5 0 -4.328125 -1.78125q-1.828125 -1.78125 -1.828125 -4.59375q0 -2.890625 1.828125 -4.671875q1.828125 -1.796875 4.328125 -1.796875q2.59375 0 4.375 1.796875q1.78125 1.78125 1.78125 4.671875q0 2.8125 -1.78125 4.59375q-1.78125 1.78125 -4.375 1.78125z" fill-rule="nonzero"/><path fill="#f4cccc" d="m71.18517 619.0696l410.3999 0l0 91.20001l-410.3999 0l0 -91.20001z" fill-rule="nonzero"/><path fill="#000000" fill-opacity="0.0" d="m71.18517 617.2456l45.59999 0l0 95.53198l-45.59999 0l0 -95.53198z" fill-rule="nonzero"/><path fill="#990000" d="m77.6383 669.31085l0 -4.71875l32.6875 0l0 4.71875l-32.6875 0z" fill-rule="nonzero"/><path fill="#010000" fill-opacity="0.0" d="m116.785164 617.2456l364.79993 0l0 95.53198l-364.79993 0l0 -95.53198z" fill-rule="nonzero"/><path fill="#000000" d="m367.582 692.93585q-2.5 0 -4.328125 -1.78125q-1.828125 -1.78125 -1.828125 -4.59375q0 -2.890625 1.828125 -4.671875q1.828125 -1.796875 4.328125 -1.796875q2.59375 0 4.375 1.796875q1.78125 1.78125 1.78125 4.671875q0 2.8125 -1.78125 4.59375q-1.78125 1.78125 -4.375 1.78125zm45.600006 0q-2.5 0 -4.328125 -1.78125q-1.828125 -1.78125 -1.828125 -4.59375q0 -2.890625 1.828125 -4.671875q1.828125 -1.796875 4.328125 -1.796875q2.59375 0 4.375 1.796875q1.78125 1.78125 1.78125 4.671875q0 2.8125 -1.78125 4.59375q-1.78125 1.78125 -4.375 1.78125zm45.599976 0q-2.5 0 -4.328125 -1.78125q-1.828125 -1.78125 -1.828125 -4.59375q0 -2.890625 1.828125 -4.671875q1.828125 -1.796875 4.328125 -1.796875q2.59375 0 4.375 1.796875q1.78125 1.78125 1.78125 4.671875q0 2.8125 -1.78125 4.59375q-1.78125 1.78125 -4.375 1.78125z" fill-rule="nonzero"/><path fill="#000000" d="m174.71642 808.5765l0 -3.5625l3.875 0q3.953125 0 5.953125 -0.734375q2.015625 -0.71875 2.78125 -2.234375q0.765625 -1.515625 0.765625 -3.953125q0 -3.5 -0.234375 -6.71875q-0.234375 -3.234375 -0.234375 -7.03125q0 -3.65625 1.4375 -5.625q1.453125 -1.984375 5.40625 -2.65625l0 -0.3125q-3.953125 -0.6875 -5.40625 -2.65625q-1.4375 -1.984375 -1.4375 -5.625q0 -3.578125 0.234375 -7.03125q0.234375 -3.453125 0.234375 -6.71875q0 -2.515625 -0.765625 -4.0q-0.765625 -1.484375 -2.78125 -2.203125q-2.0 -0.71875 -5.953125 -0.71875l-3.875 0l0 -3.578125l4.625 0q7.140625 0 10.5625 2.140625q3.421875 2.125 3.421875 7.96875q0 2.65625 -0.15625 5.09375q-0.140625 2.4375 -0.34375 4.828125q-0.1875 2.390625 -0.1875 4.75q0 1.4375 0.875 2.8125q0.875 1.359375 3.265625 2.234375q2.40625 0.875 6.890625 0.875l0 3.953125q-4.484375 0 -6.890625 0.875q-2.390625 0.875 -3.265625 2.203125q-0.875 1.328125 -0.875 2.859375q0 2.5 0.1875 4.828125q0.203125 2.3125 0.34375 4.671875q0.15625 2.34375 0.15625 5.15625q0 5.859375 -3.421875 7.984375q-3.421875 2.125 -10.5625 2.125l-4.625 0z" fill-rule="nonzero"/><path fill="#d9ead3" d="m71.18517 934.0696l343.19992 0l0 91.19995l-343.19992 0l0 -91.19995z" fill-rule="nonzero"/><path fill="#000000" fill-opacity="0.0" d="m71.18517 932.2456l45.59999 0l0 95.53198l-45.59999 0l0 -95.53198z" fill-rule="nonzero"/><path fill="#38761d" d="m91.48205 999.12335l0 -14.8125l-13.84375 0l0 -4.71875l13.84375 0l0 -14.8125l5.015625 0l0 14.8125l13.828125 0l0 4.71875l-13.828125 0l0 14.8125l-5.015625 0z" fill-rule="nonzero"/><path fill="#010000" fill-opacity="0.0" d="m116.785164 932.2456l136.79996 0l0 95.53198l-136.79996 0l0 -95.53198z" fill-rule="nonzero"/><path fill="#000000" d="m212.39139 1007.0296l0 -36.9375l5.015625 0l0.53125 4.859375l0.15625 0q1.4375 -2.578125 3.34375 -4.171875q1.90625 -1.59375 5.09375 -1.59375q2.734375 0 4.484375 1.59375q1.75 1.59375 2.5 4.78125q1.59375 -2.953125 3.53125 -4.65625q1.953125 -1.71875 5.140625 -1.71875q3.875 0 6.03125 2.921875q2.171875 2.921875 2.171875 8.46875l0 26.453125l-6.234375 0l0 -25.984375q0 -6.46875 -3.953125 -6.46875q-1.890625 0 -3.15625 1.40625q-1.25 1.40625 -2.765625 4.296875l0 26.75l-5.78125 0l0 -25.984375q0 -3.203125 -0.875 -4.828125q-0.875 -1.640625 -2.921875 -1.640625q-1.90625 0 -3.3125 1.40625q-1.390625 1.40625 -2.765625 4.296875l0 26.75l-6.234375 0z" fill-rule="nonzero"/><path fill="#000000" fill-opacity="0.0" d="m253.58513 967.6696l23.999985 0l0 50.27997l-23.999985 0l0 -50.27997z" fill-rule="nonzero"/><path fill="#000000" d="m257.46014 1007.0296l0 -2.71875l7.359375 0l0 -18.796875l-5.71875 0l0 -2.125q1.53125 -0.203125 2.6875 -0.484375q1.15625 -0.28125 2.109375 -0.609375q0.96875 -0.34375 1.765625 -0.78125l2.4375 0l0 22.796875l6.6875 0l0 2.71875l-17.328125 0z" fill-rule="nonzero"/><path fill="#010000" fill-opacity="0.0" d="m277.5851 932.2456l136.79999 0l0 95.53198l-136.79999 0l0 -95.53198z" fill-rule="nonzero"/><path fill="#000000" d="m310.49136 1020.4046q-7.90625 -6.234375 -12.5 -14.859375q-4.59375 -8.625 -4.59375 -19.640625q0 -11.015625 4.59375 -19.671875q4.59375 -8.671875 12.5 -14.828125l3.421875 3.1875q-7.59375 6.375 -11.25 14.0625q-3.640625 7.671875 -3.640625 17.25q0 9.578125 3.640625 17.21875q3.65625 7.625 11.25 14.09375l-3.421875 3.1875zm25.381256 0l-3.421875 -3.1875q7.609375 -6.46875 11.25 -14.09375q3.65625 -7.640625 3.65625 -17.21875q0 -9.578125 -3.65625 -17.25q-3.640625 -7.6875 -11.25 -14.0625l3.421875 -3.1875q7.984375 6.15625 12.546875 14.828125q4.5625 8.65625 4.5625 19.671875q0 11.015625 -4.5625 19.640625q-4.5625 8.625 -12.546875 14.859375zm66.4281 -1.828125q-7.140625 0 -10.609375 -2.125q-3.453125 -2.125 -3.453125 -7.984375q0 -2.8125 0.15625 -5.15625q0.15625 -2.359375 0.34375 -4.671875q0.1875 -2.328125 0.1875 -4.828125q0 -1.53125 -0.875 -2.859375q-0.875 -1.328125 -3.265625 -2.203125q-2.390625 -0.875 -6.875 -0.875l0 -3.953125q4.484375 0 6.875 -0.875q2.390625 -0.875 3.265625 -2.234375q0.875 -1.375 0.875 -2.8125q0 -2.359375 -0.1875 -4.75q-0.1875 -2.390625 -0.34375 -4.828125q-0.15625 -2.4375 -0.15625 -5.09375q0 -5.84375 3.453125 -7.96875q3.46875 -2.140625 10.609375 -2.140625l4.640625 0l0 3.578125l-3.953125 0q-3.875 0 -5.890625 0.71875q-2.015625 0.71875 -2.78125 2.203125q-0.75 1.484375 -0.75 4.0q0 3.265625 0.21875 6.71875q0.234375 3.453125 0.234375 7.03125q0 3.640625 -1.484375 5.625q-1.484375 1.96875 -5.4375 2.65625l0 0.3125q3.953125 0.671875 5.4375 2.65625q1.484375 1.96875 1.484375 5.625q0 3.796875 -0.234375 7.03125q-0.21875 3.21875 -0.21875 6.71875q0 2.4375 0.75 3.953125q0.765625 1.515625 2.78125 2.234375q2.015625 0.734375 5.890625 0.734375l3.953125 0l0 3.5625l-4.640625 0z" fill-rule="nonzero"/><path fill="#010000" fill-opacity="0.0" d="m414.3851 932.2456l0 0l0 95.53198l0 0l0 -95.53198z" fill-rule="nonzero"/><path fill="#d9ead3" d="m71.18517 1039.0696l319.19995 0l0 91.19995l-319.19995 0l0 -91.19995z" fill-rule="nonzero"/><path fill="#000000" fill-opacity="0.0" d="m71.18517 1037.2455l45.59999 0l0 95.53198l-45.59999 0l0 -95.53198z" fill-rule="nonzero"/><path fill="#38761d" d="m91.48205 1104.1233l0 -14.8125l-13.84375 0l0 -4.71875l13.84375 0l0 -14.8125l5.015625 0l0 14.8125l13.828125 0l0 4.71875l-13.828125 0l0 14.8125l-5.015625 0z" fill-rule="nonzero"/><path fill="#010000" fill-opacity="0.0" d="m116.785164 1037.2455l45.599983 0l0 95.53198l-45.599983 0l0 -95.53198z" fill-rule="nonzero"/><path fill="#000000" fill-opacity="0.0" d="m162.38515 1037.2455l91.19998 0l0 95.53198l-91.19998 0l0 -95.53198z" fill-rule="nonzero"/><path fill="#010000" fill-opacity="0.0" d="m253.58513 1037.2455l136.8 0l0 95.53198l-136.8 0l0 -95.53198z" fill-rule="nonzero"/><path fill="#000000" d="m276.38202 1112.9358q-2.5 0 -4.328125 -1.78125q-1.828125 -1.78125 -1.828125 -4.59375q0 -2.890625 1.828125 -4.671875q1.828125 -1.796875 4.328125 -1.796875q2.59375 0 4.375 1.796875q1.78125 1.78125 1.78125 4.671875q0 2.8125 -1.78125 4.59375q-1.78125 1.78125 -4.375 1.78125zm45.599976 0q-2.5 0 -4.328125 -1.78125q-1.828125 -1.78125 -1.828125 -4.59375q0 -2.890625 1.828125 -4.671875q1.828125 -1.796875 4.328125 -1.796875q2.59375 0 4.375 1.796875q1.78125 1.78125 1.78125 4.671875q0 2.8125 -1.78125 4.59375q-1.78125 1.78125 -4.375 1.78125zm45.600006 0q-2.5 0 -4.328125 -1.78125q-1.828125 -1.78125 -1.828125 -4.59375q0 -2.890625 1.828125 -4.671875q1.828125 -1.796875 4.328125 -1.796875q2.59375 0 4.375 1.796875q1.78125 1.78125 1.78125 4.671875q0 2.8125 -1.78125 4.59375q-1.78125 1.78125 -4.375 1.78125z" fill-rule="nonzero"/><path fill="#010000" fill-opacity="0.0" d="m390.38513 1037.2455l0 0l0 95.53198l0 0l0 -95.53198z" fill-rule="nonzero"/><path fill="#d9ead3" d="m71.18517 1144.0696l182.39996 0l0 91.19995l-182.39996 0l0 -91.19995z" fill-rule="nonzero"/><path fill="#000000" fill-opacity="0.0" d="m71.18517 1142.2456l45.59999 0l0 95.53198l-45.59999 0l0 -95.53198z" fill-rule="nonzero"/><path fill="#38761d" d="m91.48205 1209.1233l0 -14.8125l-13.84375 0l0 -4.71875l13.84375 0l0 -14.8125l5.015625 0l0 14.8125l13.828125 0l0 4.71875l-13.828125 0l0 14.8125l-5.015625 0z" fill-rule="nonzero"/><path fill="#010000" fill-opacity="0.0" d="m116.785164 1142.2456l136.79996 0l0 95.53198l-136.79996 0l0 -95.53198z" fill-rule="nonzero"/><path fill="#000000" d="m215.51639 1228.5764l0 -3.5625l3.875 0q3.953125 0 5.953125 -0.734375q2.015625 -0.71875 2.78125 -2.234375q0.765625 -1.515625 0.765625 -3.953125q0 -3.5 -0.234375 -6.71875q-0.234375 -3.234375 -0.234375 -7.03125q0 -3.65625 1.4375 -5.625q1.453125 -1.984375 5.40625 -2.65625l0 -0.3125q-3.953125 -0.6875 -5.40625 -2.65625q-1.4375 -1.984375 -1.4375 -5.625q0 -3.578125 0.234375 -7.03125q0.234375 -3.453125 0.234375 -6.71875q0 -2.515625 -0.765625 -4.0q-0.765625 -1.484375 -2.78125 -2.203125q-2.0 -0.71875 -5.953125 -0.71875l-3.875 0l0 -3.578125l4.625 0q7.140625 0 10.5625 2.140625q3.421875 2.125 3.421875 7.96875q0 2.65625 -0.15625 5.09375q-0.140625 2.4375 -0.34375 4.828125q-0.1875 2.390625 -0.1875 4.75q0 1.4375 0.875 2.8125q0.875 1.359375 3.265625 2.234375q2.40625 0.875 6.890625 0.875l0 3.953125q-4.484375 0 -6.890625 0.875q-2.390625 0.875 -3.265625 2.203125q-0.875 1.328125 -0.875 2.859375q0 2.5 0.1875 4.828125q0.203125 2.3125 0.34375 4.671875q0.15625 2.34375 0.15625 5.15625q0 5.859375 -3.421875 7.984375q-3.421875 2.125 -10.5625 2.125l-4.625 0z" fill-rule="nonzero"/><path fill="#010000" fill-opacity="0.0" d="m253.58513 1142.2456l91.2 0l0 95.53198l-91.2 0l0 -95.53198z" fill-rule="nonzero"/><path fill="#000000" fill-opacity="0.0" d="m344.78513 1142.2456l45.600006 0l0 95.53198l-45.600006 0l0 -95.53198z" fill-rule="nonzero"/><path fill="#000000" fill-opacity="0.0" d="m390.38513 1142.2456l0 0l0 95.53198l0 0l0 -95.53198z" fill-rule="nonzero"/><path fill="#000000" d="m78.71642 1438.5764l0 -3.5625l3.875 0q3.953125 0 5.953125 -0.734375q2.015625 -0.71875 2.78125 -2.234375q0.765625 -1.515625 0.765625 -3.953125q0 -3.5 -0.234375 -6.71875q-0.234375 -3.234375 -0.234375 -7.03125q0 -3.65625 1.4375 -5.625q1.453125 -1.984375 5.40625 -2.65625l0 -0.3125q-3.953125 -0.6875 -5.40625 -2.65625q-1.4375 -1.984375 -1.4375 -5.625q0 -3.578125 0.234375 -7.03125q0.234375 -3.453125 0.234375 -6.71875q0 -2.515625 -0.765625 -4.0q-0.765625 -1.484375 -2.78125 -2.203125q-2.0 -0.71875 -5.953125 -0.71875l-3.875 0l0 -3.578125l4.625 0q7.140625 0 10.5625 2.140625q3.421875 2.125 3.421875 7.96875q0 2.65625 -0.15625 5.09375q-0.140625 2.4375 -0.34375 4.828125q-0.1875 2.390625 -0.1875 4.75q0 1.4375 0.875 2.8125q0.875 1.359375 3.265625 2.234375q2.40625 0.875 6.890625 0.875l0 3.953125q-4.484375 0 -6.890625 0.875q-2.390625 0.875 -3.265625 2.203125q-0.875 1.328125 -0.875 2.859375q0 2.5 0.1875 4.828125q0.203125 2.3125 0.34375 4.671875q0.15625 2.34375 0.15625 5.15625q0 5.859375 -3.421875 7.984375q-3.421875 2.125 -10.5625 2.125l-4.625 0z" fill-rule="nonzero"/><path fill="#000000" fill-opacity="0.0" d="m2229.9841 163.9713l0 0c0 -77.30401 -62.667236 -139.9713 -139.97119 -139.9713l-559.8684 0l0 0c-37.12268 0 -72.724976 14.746933 -98.97461 40.996643c-26.249756 26.24971 -40.996704 61.85196 -40.996704 98.974655l0 1230.9236c0 77.303955 62.66736 139.97119 139.97131 139.97119l559.8684 0c77.303955 0 139.97119 -62.667236 139.97119 -139.97119z" fill-rule="evenodd"/><path stroke="#cccccc" stroke-width="1.0" stroke-linejoin="round" stroke-linecap="butt" d="m2229.9841 163.9713l0 0c0 -77.30401 -62.667236 -139.9713 -139.97119 -139.9713l-559.8684 0l0 0c-37.12268 0 -72.724976 14.746933 -98.97461 40.996643c-26.249756 26.24971 -40.996704 61.85196 -40.996704 98.974655l0 1230.9236c0 77.303955 62.66736 139.97119 139.97131 139.97119l559.8684 0c77.303955 0 139.97119 -62.667236 139.97119 -139.97119z" fill-rule="evenodd"/><path fill="#351c75" d="m1462.5444 170.76807q-5.578125 0 -10.015625 -2.1875q-4.4375 -2.203125 -6.96875 -6.375q-2.53125 -4.1875 -2.53125 -10.0625q0 -6.015625 2.71875 -10.1875q2.71875 -4.1875 7.21875 -6.375q4.515625 -2.203125 9.9375 -2.203125q4.40625 0 7.59375 1.546875q3.1875 1.53125 5.390625 3.65625l-3.015625 3.890625q-2.1875 -1.90625 -4.546875 -3.0q-2.34375 -1.109375 -5.203125 -1.109375q-4.09375 0 -7.25 1.734375q-3.15625 1.71875 -4.890625 4.828125q-1.71875 3.109375 -1.71875 7.21875q0 4.03125 1.6875 7.125q1.6875 3.078125 4.796875 4.796875q3.125 1.71875 7.234375 1.71875q3.296875 0 6.046875 -1.3125q2.75 -1.328125 4.953125 -3.15625l2.71875 3.890625q-2.9375 2.640625 -6.578125 4.109375q-3.625 1.453125 -7.578125 1.453125zm48.38745 0q-5.640625 0 -8.65625 -3.25q-3.0 -3.265625 -3.0 -9.578125l0 -35.34375l-12.171875 0l0 -4.90625l18.1875 0l0 40.6875q0 3.890625 1.90625 5.65625q1.90625 1.75 5.0625 1.75q1.53125 0 3.140625 -0.390625q1.625 -0.40625 3.609375 -1.296875l1.53125 4.546875q-2.421875 0.890625 -4.546875 1.5q-2.125 0.625 -5.0625 0.625zm32.26245 0q-3.296875 0 -6.078125 -1.203125q-2.78125 -1.21875 -4.40625 -3.484375q-1.609375 -2.28125 -1.609375 -5.421875q0 -6.015625 6.015625 -9.125q6.015625 -3.125 19.796875 -4.21875q-0.078125 -2.421875 -1.0 -4.46875q-0.90625 -2.0625 -2.96875 -3.265625q-2.046875 -1.21875 -5.484375 -1.21875q-2.28125 0 -4.515625 0.625q-2.234375 0.625 -4.25 1.625q-2.015625 0.984375 -3.703125 2.0l-2.34375 -4.109375q1.75 -1.171875 4.28125 -2.375q2.53125 -1.21875 5.46875 -1.984375q2.9375 -0.765625 6.078125 -0.765625q4.921875 0 8.109375 1.84375q3.1875 1.828125 4.765625 5.09375q1.578125 3.25 1.578125 7.71875l0 21.859375l-4.921875 0l-0.5 -4.84375l-0.21875 0q-2.9375 2.34375 -6.609375 4.03125q-3.65625 1.6875 -7.484375 1.6875zm1.625 -4.828125q3.078125 0 6.078125 -1.390625q3.015625 -1.40625 6.015625 -3.890625l0 -9.390625q-7.625 0.65625 -11.984375 1.828125q-4.359375 1.171875 -6.15625 2.96875q-1.796875 1.796875 -1.796875 4.15625q0 1.96875 1.09375 3.25q1.09375 1.28125 2.890625 1.875q1.796875 0.59375 3.859375 0.59375zm47.07495 4.828125q-5.203125 0 -9.75 -1.6875q-4.546875 -1.6875 -7.78125 -3.875l2.796875 -3.96875q3.078125 2.203125 6.8125 3.53125q3.734375 1.3125 8.65625 1.3125q4.546875 0 6.78125 -1.6875q2.234375 -1.6875 2.234375 -3.890625q0 -1.015625 -0.40625 -1.890625q-0.40625 -0.890625 -1.546875 -1.6875q-1.125 -0.8125 -3.328125 -1.546875q-2.203125 -0.734375 -5.859375 -1.46875q-6.96875 -1.46875 -10.453125 -3.953125q-3.484375 -2.5 -3.484375 -6.453125q0 -4.328125 3.734375 -7.21875q3.75 -2.90625 11.078125 -2.90625q4.109375 0 7.921875 1.359375q3.8125 1.359375 6.453125 3.1875l-2.9375 3.890625q-2.421875 -1.765625 -5.5 -2.75q-3.078125 -1.0 -6.453125 -1.0q-3.078125 0 -4.875 0.703125q-1.796875 0.6875 -2.5625 1.875q-0.765625 1.171875 -0.765625 2.5625q0 2.265625 2.453125 3.546875q2.453125 1.28125 7.875 2.390625q5.9375 1.25 9.125 2.796875q3.203125 1.53125 4.40625 3.515625q1.21875 1.96875 1.21875 4.6875q0 2.9375 -1.84375 5.328125q-1.828125 2.375 -5.359375 3.84375q-3.515625 1.453125 -8.640625 1.453125zm43.996704 0q-5.203125 0 -9.75 -1.6875q-4.546875 -1.6875 -7.78125 -3.875l2.796875 -3.96875q3.078125 2.203125 6.8125 3.53125q3.734375 1.3125 8.65625 1.3125q4.546875 0 6.78125 -1.6875q2.234375 -1.6875 2.234375 -3.890625q0 -1.015625 -0.40625 -1.890625q-0.40625 -0.890625 -1.546875 -1.6875q-1.125 -0.8125 -3.328125 -1.546875q-2.203125 -0.734375 -5.859375 -1.46875q-6.96875 -1.46875 -10.453125 -3.953125q-3.484375 -2.5 -3.484375 -6.453125q0 -4.328125 3.734375 -7.21875q3.75 -2.90625 11.078125 -2.90625q4.109375 0 7.921875 1.359375q3.8125 1.359375 6.453125 3.1875l-2.9375 3.890625q-2.421875 -1.765625 -5.5 -2.75q-3.078125 -1.0 -6.453125 -1.0q-3.078125 0 -4.875 0.703125q-1.796875 0.6875 -2.5625 1.875q-0.765625 1.171875 -0.765625 2.5625q0 2.265625 2.453125 3.546875q2.453125 1.28125 7.875 2.390625q5.9375 1.25 9.125 2.796875q3.203125 1.53125 4.40625 3.515625q1.21875 1.96875 1.21875 4.6875q0 2.9375 -1.84375 5.328125q-1.828125 2.375 -5.359375 3.84375q-3.515625 1.453125 -8.640625 1.453125z" fill-rule="nonzero"/><path fill="#000000" d="m1708.4159 169.89307l0 -48.109375l13.640625 0q4.90625 0 8.609375 1.1875q3.703125 1.171875 5.78125 3.734375q2.09375 2.5625 2.09375 6.8125q0 3.59375 -2.046875 6.5q-2.046875 2.890625 -6.375 3.984375l0 0.296875q5.28125 0.8125 8.203125 3.671875q2.9375 2.859375 2.9375 7.84375q0 4.6875 -2.28125 7.84375q-2.265625 3.15625 -6.34375 4.703125q-4.0625 1.53125 -9.484375 1.53125l-14.734375 0zm6.078125 -27.859375l6.53125 0q6.15625 0 8.828125 -1.984375q2.6875 -1.984375 2.6875 -6.015625q0 -3.890625 -2.828125 -5.5q-2.828125 -1.609375 -8.390625 -1.609375l-6.828125 0l0 15.109375zm0 22.71875l7.78125 0q6.15625 0 9.5625 -2.15625q3.40625 -2.15625 3.40625 -7.078125q0 -4.46875 -3.34375 -6.40625q-3.328125 -1.953125 -9.625 -1.953125l-7.78125 0l0 17.59375zm48.684326 6.015625q-3.296875 0 -6.078125 -1.203125q-2.78125 -1.21875 -4.40625 -3.484375q-1.609375 -2.28125 -1.609375 -5.421875q0 -6.015625 6.015625 -9.125q6.015625 -3.125 19.796875 -4.21875q-0.078125 -2.421875 -1.0 -4.46875q-0.90625 -2.0625 -2.96875 -3.265625q-2.046875 -1.21875 -5.484375 -1.21875q-2.28125 0 -4.515625 0.625q-2.234375 0.625 -4.25 1.625q-2.015625 0.984375 -3.703125 2.0l-2.34375 -4.109375q1.75 -1.171875 4.28125 -2.375q2.53125 -1.21875 5.46875 -1.984375q2.9375 -0.765625 6.078125 -0.765625q4.921875 0 8.109375 1.84375q3.1875 1.828125 4.765625 5.09375q1.578125 3.25 1.578125 7.71875l0 21.859375l-4.921875 0l-0.5 -4.84375l-0.21875 0q-2.9375 2.34375 -6.609375 4.03125q-3.65625 1.6875 -7.484375 1.6875zm1.625 -4.828125q3.078125 0 6.078125 -1.390625q3.015625 -1.40625 6.015625 -3.890625l0 -9.390625q-7.625 0.65625 -11.984375 1.828125q-4.359375 1.171875 -6.15625 2.96875q-1.796875 1.796875 -1.796875 4.15625q0 1.96875 1.09375 3.25q1.09375 1.28125 2.890625 1.875q1.796875 0.59375 3.859375 0.59375zm35.0437 3.953125l0 -35.640625l4.984375 0l0.515625 8.4375l0.21875 0q2.796875 -4.328125 6.890625 -6.8125q4.109375 -2.5 9.03125 -2.5q1.96875 0 3.6875 0.328125q1.734375 0.328125 3.34375 1.140625l-1.390625 5.203125q-1.828125 -0.65625 -3.15625 -0.953125q-1.3125 -0.296875 -3.4375 -0.296875q-4.046875 0 -7.75 2.3125q-3.703125 2.3125 -6.921875 7.875l0 20.90625l-6.015625 0z" fill-rule="nonzero"/><path fill="#000000" d="m1866.6564 181.43994q-7.140625 0 -10.609375 -2.125q-3.453125 -2.125 -3.453125 -7.984375q0 -2.8125 0.15625 -5.15625q0.15625 -2.359375 0.34375 -4.671875q0.1875 -2.328125 0.1875 -4.828125q0 -1.53125 -0.875 -2.859375q-0.875 -1.328125 -3.265625 -2.203125q-2.390625 -0.875 -6.875 -0.875l0 -3.953125q4.484375 0 6.875 -0.875q2.390625 -0.875 3.265625 -2.234375q0.875 -1.375 0.875 -2.8125q0 -2.359375 -0.1875 -4.75q-0.1875 -2.390625 -0.34375 -4.828125q-0.15625 -2.4375 -0.15625 -5.09375q0 -5.84375 3.453125 -7.96875q3.46875 -2.140625 10.609375 -2.140625l4.640625 0l0 3.578125l-3.953125 0q-3.875 0 -5.890625 0.71875q-2.015625 0.71875 -2.78125 2.203125q-0.75 1.484375 -0.75 4.0q0 3.265625 0.21875 6.71875q0.234375 3.453125 0.234375 7.03125q0 3.640625 -1.484375 5.625q-1.484375 1.96875 -5.4375 2.65625l0 0.3125q3.953125 0.671875 5.4375 2.65625q1.484375 1.96875 1.484375 5.625q0 3.796875 -0.234375 7.03125q-0.21875 3.21875 -0.21875 6.71875q0 2.4375 0.75 3.953125q0.765625 1.515625 2.78125 2.234375q2.015625 0.734375 5.890625 0.734375l3.953125 0l0 3.5625l-4.640625 0z" fill-rule="nonzero"/><path fill="#d9ead3" d="m1437.1694 306.93307l343.19995 0l0 91.20001l-343.19995 0l0 -91.20001z" fill-rule="nonzero"/><path fill="#000000" fill-opacity="0.0" d="m1437.1694 305.1091l45.599976 0l0 95.53198l-45.599976 0l0 -95.53198z" fill-rule="nonzero"/><path fill="#38761d" d="m1457.4663 371.98682l0 -14.8125l-13.84375 0l0 -4.71875l13.84375 0l0 -14.8125l5.015625 0l0 14.8125l13.828125 0l0 4.71875l-13.828125 0l0 14.8125l-5.015625 0z" fill-rule="nonzero"/><path fill="#010000" fill-opacity="0.0" d="m1482.7694 305.1091l136.79993 0l0 95.53198l-136.79993 0l0 -95.53198z" fill-rule="nonzero"/><path fill="#000000" d="m1578.3756 379.89307l0 -36.9375l5.015625 0l0.53125 4.859375l0.15625 0q1.4375 -2.578125 3.34375 -4.171875q1.90625 -1.59375 5.09375 -1.59375q2.734375 0 4.484375 1.59375q1.75 1.59375 2.5 4.78125q1.59375 -2.953125 3.53125 -4.65625q1.953125 -1.71875 5.140625 -1.71875q3.875 0 6.03125 2.921875q2.171875 2.921875 2.171875 8.46875l0 26.453125l-6.234375 0l0 -25.984375q0 -6.46875 -3.953125 -6.46875q-1.890625 0 -3.15625 1.40625q-1.25 1.40625 -2.765625 4.296875l0 26.75l-5.78125 0l0 -25.984375q0 -3.203125 -0.875 -4.828125q-0.875 -1.640625 -2.921875 -1.640625q-1.90625 0 -3.3125 1.40625q-1.390625 1.40625 -2.765625 4.296875l0 26.75l-6.234375 0z" fill-rule="nonzero"/><path fill="#000000" fill-opacity="0.0" d="m1619.5693 340.5331l24.0 0l0 50.27997l-24.0 0l0 -50.27997z" fill-rule="nonzero"/><path fill="#000000" d="m1622.4912 379.89307l0 -1.953125q4.3125 -3.8125 7.296875 -6.703125q2.984375 -2.90625 4.53125 -5.21875q1.5625 -2.328125 1.5625 -4.4375q0 -2.203125 -1.359375 -3.59375q-1.359375 -1.40625 -4.1875 -1.40625q-1.8125 0 -3.359375 0.875q-1.53125 0.875 -2.765625 2.203125l-1.875 -1.890625q1.71875 -1.75 3.6875 -2.8125q1.984375 -1.0625 4.703125 -1.0625q2.5625 0 4.421875 0.9375q1.859375 0.9375 2.875 2.625q1.03125 1.671875 1.03125 3.953125q0 2.40625 -1.484375 4.84375q-1.484375 2.4375 -4.140625 5.140625q-2.65625 2.703125 -6.140625 5.90625q1.203125 -0.125 2.390625 -0.1875q1.203125 -0.0625 2.375 -0.0625l8.390625 0l0 2.84375l-17.953125 0z" fill-rule="nonzero"/><path fill="#010000" fill-opacity="0.0" d="m1643.5693 305.1091l136.80005 0l0 95.53198l-136.80005 0l0 -95.53198z" fill-rule="nonzero"/><path fill="#000000" d="m1676.4756 393.26807q-7.90625 -6.234375 -12.5 -14.859375q-4.59375 -8.625 -4.59375 -19.640625q0 -11.015625 4.59375 -19.671875q4.59375 -8.671875 12.5 -14.828125l3.421875 3.1875q-7.59375 6.375 -11.25 14.0625q-3.640625 7.671875 -3.640625 17.25q0 9.578125 3.640625 17.21875q3.65625 7.625 11.25 14.09375l-3.421875 3.1875zm25.381226 0l-3.421875 -3.1875q7.609375 -6.46875 11.25 -14.09375q3.65625 -7.640625 3.65625 -17.21875q0 -9.578125 -3.65625 -17.25q-3.640625 -7.6875 -11.25 -14.0625l3.421875 -3.1875q7.984375 6.15625 12.546875 14.828125q4.5625 8.65625 4.5625 19.671875q0 11.015625 -4.5625 19.640625q-4.5625 8.625 -12.546875 14.859375zm66.4281 -1.828125q-7.140625 0 -10.609375 -2.125q-3.453125 -2.125 -3.453125 -7.984375q0 -2.8125 0.15625 -5.15625q0.15625 -2.359375 0.34375 -4.671875q0.1875 -2.328125 0.1875 -4.828125q0 -1.53125 -0.875 -2.859375q-0.875 -1.328125 -3.265625 -2.203125q-2.390625 -0.875 -6.875 -0.875l0 -3.953125q4.484375 0 6.875 -0.875q2.390625 -0.875 3.265625 -2.234375q0.875 -1.375 0.875 -2.8125q0 -2.359375 -0.1875 -4.75q-0.1875 -2.390625 -0.34375 -4.828125q-0.15625 -2.4375 -0.15625 -5.09375q0 -5.84375 3.453125 -7.96875q3.46875 -2.140625 10.609375 -2.140625l4.640625 0l0 3.578125l-3.953125 0q-3.875 0 -5.890625 0.71875q-2.015625 0.71875 -2.78125 2.203125q-0.75 1.484375 -0.75 4.0q0 3.265625 0.21875 6.71875q0.234375 3.453125 0.234375 7.03125q0 3.640625 -1.484375 5.625q-1.484375 1.96875 -5.4375 2.65625l0 0.3125q3.953125 0.671875 5.4375 2.65625q1.484375 1.96875 1.484375 5.625q0 3.796875 -0.234375 7.03125q-0.21875 3.21875 -0.21875 6.71875q0 2.4375 0.75 3.953125q0.765625 1.515625 2.78125 2.234375q2.015625 0.734375 5.890625 0.734375l3.953125 0l0 3.5625l-4.640625 0z" fill-rule="nonzero"/><path fill="#010000" fill-opacity="0.0" d="m1780.3694 305.1091l0 0l0 95.53198l0 0l0 -95.53198z" fill-rule="nonzero"/><path fill="#d9ead3" d="m1437.1694 411.93307l319.19995 0l0 91.20001l-319.19995 0l0 -91.20001z" fill-rule="nonzero"/><path fill="#000000" fill-opacity="0.0" d="m1437.1694 410.1091l45.599976 0l0 95.53198l-45.599976 0l0 -95.53198z" fill-rule="nonzero"/><path fill="#38761d" d="m1457.4663 476.98682l0 -14.8125l-13.84375 0l0 -4.71875l13.84375 0l0 -14.8125l5.015625 0l0 14.8125l13.828125 0l0 4.71875l-13.828125 0l0 14.8125l-5.015625 0z" fill-rule="nonzero"/><path fill="#010000" fill-opacity="0.0" d="m1482.7694 410.1091l45.599976 0l0 95.53198l-45.599976 0l0 -95.53198z" fill-rule="nonzero"/><path fill="#000000" fill-opacity="0.0" d="m1528.3694 410.1091l91.19995 0l0 95.53198l-91.19995 0l0 -95.53198z" fill-rule="nonzero"/><path fill="#010000" fill-opacity="0.0" d="m1619.5693 410.1091l136.80005 0l0 95.53198l-136.80005 0l0 -95.53198z" fill-rule="nonzero"/><path fill="#000000" d="m1642.3662 485.79932q-2.5 0 -4.328125 -1.78125q-1.828125 -1.78125 -1.828125 -4.59375q0 -2.890625 1.828125 -4.671875q1.828125 -1.796875 4.328125 -1.796875q2.59375 0 4.375 1.796875q1.78125 1.78125 1.78125 4.671875q0 2.8125 -1.78125 4.59375q-1.78125 1.78125 -4.375 1.78125zm45.599976 0q-2.499878 0 -4.328003 -1.78125q-1.828125 -1.78125 -1.828125 -4.59375q0 -2.890625 1.828125 -4.671875q1.828125 -1.796875 4.328003 -1.796875q2.59375 0 4.375 1.796875q1.78125 1.78125 1.78125 4.671875q0 2.8125 -1.78125 4.59375q-1.78125 1.78125 -4.375 1.78125zm45.600098 0q-2.5 0 -4.328125 -1.78125q-1.828125 -1.78125 -1.828125 -4.59375q0 -2.890625 1.828125 -4.671875q1.828125 -1.796875 4.328125 -1.796875q2.59375 0 4.375 1.796875q1.78125 1.78125 1.78125 4.671875q0 2.8125 -1.78125 4.59375q-1.78125 1.78125 -4.375 1.78125z" fill-rule="nonzero"/><path fill="#010000" fill-opacity="0.0" d="m1756.3694 410.1091l0 0l0 95.53198l0 0l0 -95.53198z" fill-rule="nonzero"/><path fill="#d9ead3" d="m1437.1694 516.9331l182.3999 0l0 91.20001l-182.3999 0l0 -91.20001z" fill-rule="nonzero"/><path fill="#000000" fill-opacity="0.0" d="m1437.1694 515.10913l45.599976 0l0 95.53198l-45.599976 0l0 -95.53198z" fill-rule="nonzero"/><path fill="#38761d" d="m1457.4663 581.9869l0 -14.8125l-13.84375 0l0 -4.71875l13.84375 0l0 -14.8125l5.015625 0l0 14.8125l13.828125 0l0 4.71875l-13.828125 0l0 14.8125l-5.015625 0z" fill-rule="nonzero"/><path fill="#010000" fill-opacity="0.0" d="m1482.7694 515.10913l91.19995 0l0 95.53198l-91.19995 0l0 -95.53198z" fill-rule="nonzero"/><path fill="#000000" fill-opacity="0.0" d="m1573.9694 515.10913l45.599976 0l0 95.53198l-45.599976 0l0 -95.53198z" fill-rule="nonzero"/><path fill="#000000" d="m1581.5006 601.44l0 -3.5625l3.875 0q3.953125 0 5.953125 -0.734375q2.015625 -0.71875 2.78125 -2.234375q0.765625 -1.515625 0.765625 -3.953125q0 -3.5 -0.234375 -6.71875q-0.234375 -3.234375 -0.234375 -7.03125q0 -3.65625 1.4375 -5.625q1.453125 -1.984375 5.40625 -2.65625l0 -0.3125q-3.953125 -0.6875 -5.40625 -2.65625q-1.4375 -1.984375 -1.4375 -5.625q0 -3.578125 0.234375 -7.03125q0.234375 -3.453125 0.234375 -6.71875q0 -2.515625 -0.765625 -4.0q-0.765625 -1.484375 -2.78125 -2.203125q-2.0 -0.71875 -5.953125 -0.71875l-3.875 0l0 -3.578125l4.625 0q7.140625 0 10.5625 2.140625q3.421875 2.125 3.421875 7.96875q0 2.65625 -0.15625 5.09375q-0.140625 2.4375 -0.34375 4.828125q-0.1875 2.390625 -0.1875 4.75q0 1.4375 0.875 2.8125q0.875 1.359375 3.265625 2.234375q2.40625 0.875 6.890625 0.875l0 3.953125q-4.484375 0 -6.890625 0.875q-2.390625 0.875 -3.265625 2.203125q-0.875 1.328125 -0.875 2.859375q0 2.5 0.1875 4.828125q0.203125 2.3125 0.34375 4.671875q0.15625 2.34375 0.15625 5.15625q0 5.859375 -3.421875 7.984375q-3.421875 2.125 -10.5625 2.125l-4.625 0z" fill-rule="nonzero"/><path fill="#000000" fill-opacity="0.0" d="m1619.5693 515.10913l136.80005 0l0 95.53198l-136.80005 0l0 -95.53198z" fill-rule="nonzero"/><path fill="#000000" fill-opacity="0.0" d="m1756.3694 515.10913l0 0l0 95.53198l0 0l0 -95.53198z" fill-rule="nonzero"/><path fill="#000000" fill-opacity="0.0" d="m1437.1694 620.10913l0 0l0 95.53198l0 0l0 -95.53198z" fill-rule="nonzero"/><path fill="#000000" d="m1459.9663 800.7994q-2.5 0 -4.328125 -1.78125q-1.828125 -1.78125 -1.828125 -4.59375q0 -2.890625 1.828125 -4.671875q1.828125 -1.796875 4.328125 -1.796875q2.59375 0 4.375 1.796875q1.78125 1.78125 1.78125 4.671875q0 2.8125 -1.78125 4.59375q-1.78125 1.78125 -4.375 1.78125zm45.599976 0q-2.5 0 -4.328125 -1.78125q-1.828125 -1.78125 -1.828125 -4.59375q0 -2.890625 1.828125 -4.671875q1.828125 -1.796875 4.328125 -1.796875q2.59375 0 4.375 1.796875q1.78125 1.78125 1.78125 4.671875q0 2.8125 -1.78125 4.59375q-1.78125 1.78125 -4.375 1.78125zm45.599976 0q-2.5 0 -4.328125 -1.78125q-1.828125 -1.78125 -1.828125 -4.59375q0 -2.890625 1.828125 -4.671875q1.828125 -1.796875 4.328125 -1.796875q2.59375 0 4.375 1.796875q1.78125 1.78125 1.78125 4.671875q0 2.8125 -1.78125 4.59375q-1.78125 1.78125 -4.375 1.78125z" fill-rule="nonzero"/><path fill="#010000" fill-opacity="0.0" d="m1573.9694 725.10913l0 0l0 95.53198l0 0l0 -95.53198z" fill-rule="nonzero"/><path fill="#000000" d="m1444.7007 1441.44l0 -3.5625l3.875 0q3.953125 0 5.953125 -0.734375q2.015625 -0.71875 2.78125 -2.234375q0.765625 -1.515625 0.765625 -3.953125q0 -3.5 -0.234375 -6.71875q-0.234375 -3.234375 -0.234375 -7.03125q0 -3.65625 1.4375 -5.625q1.453125 -1.984375 5.40625 -2.65625l0 -0.3125q-3.953125 -0.6875 -5.40625 -2.65625q-1.4375 -1.984375 -1.4375 -5.625q0 -3.578125 0.234375 -7.03125q0.234375 -3.453125 0.234375 -6.71875q0 -2.515625 -0.765625 -4.0q-0.765625 -1.484375 -2.78125 -2.203125q-2.0 -0.71875 -5.953125 -0.71875l-3.875 0l0 -3.578125l4.625 0q7.140625 0 10.5625 2.140625q3.421875 2.125 3.421875 7.96875q0 2.65625 -0.15625 5.09375q-0.140625 2.4375 -0.34375 4.828125q-0.1875 2.390625 -0.1875 4.75q0 1.4375 0.875 2.8125q0.875 1.359375 3.265625 2.234375q2.40625 0.875 6.890625 0.875l0 3.953125q-4.484375 0 -6.890625 0.875q-2.390625 0.875 -3.265625 2.203125q-0.875 1.328125 -0.875 2.859375q0 2.5 0.1875 4.828125q0.203125 2.3125 0.34375 4.671875q0.15625 2.34375 0.15625 5.15625q0 5.859375 -3.421875 7.984375q-3.421875 2.125 -10.5625 2.125l-4.625 0z" fill-rule="nonzero"/><path fill="#000000" fill-opacity="0.0" d="m598.8594 851.8468l257.07086 0.22052002l0 83.93701l-257.07086 -0.22052002z" fill-rule="evenodd"/><path fill="#000000" d="m625.4531 912.71027q-3.890625 -0.0032958984 -7.0625 -1.5997925q-3.171875 -1.6121216 -5.046875 -4.6762085q-1.859375 -3.064087 -1.859375 -7.392212q0 -4.203125 1.859375 -7.232788q1.875 -3.045288 4.890625 -4.6676636q3.015625 -1.6380615 6.484375 -1.6350708q3.71875 0.0031738281 6.359375 1.5366821q2.640625 1.5178833 4.046875 4.237854q1.421875 2.7199707 1.421875 6.3918457q0 0.75 -0.0625 1.453064q-0.046875 0.6875 -0.140625 1.2186279l-21.921875 -0.018798828l0 -3.40625l19.296875 0.016540527l-1.109375 1.2178345q0 -4.578125 -2.109375 -6.876831q-2.109375 -2.298706 -5.6875 -2.3017578q-2.390625 -0.0020141602 -4.453125 1.1680908q-2.046875 1.170105 -3.28125 3.4190063q-1.21875 2.2333374 -1.21875 5.4833374q0 3.359375 1.328125 5.6105347q1.34375 2.2355347 3.625 3.3937378q2.296875 1.1425781 5.171875 1.1450806q2.359375 0.0020141602 4.25 -0.6682739q1.890625 -0.67022705 3.65625 -1.7780762l1.59375 2.8763428q-1.921875 1.279602 -4.40625 2.1837158q-2.46875 0.9041748 -5.625 0.9014282zm17.809265 -0.6253052l9.875 -13.429077l-9.125 -12.4921875l4.859375 0.0041503906l4.109375 5.706665q0.6875 1.0162354 1.484375 2.1419067q0.796875 1.1256714 1.546875 2.2357178l0.21875 1.8310547E-4q0.6875 -1.1088257 1.453125 -2.2487793q0.78125 -1.1555786 1.484375 -2.2174683l3.890625 -5.606018l4.640625 0.003967285l-9.234375 12.85144l9.921875 13.071045l-4.796875 -0.0041503906l-4.53125 -5.9726562q-0.8125 -1.1256714 -1.6875 -2.3451538q-0.875 -1.2351685 -1.734375 -2.3609009l-0.203125 -1.8310547E-4q-0.8125 1.1243286 -1.609375 2.2955322q-0.796875 1.1712036 -1.59375 2.4049072l-4.265625 5.965088l-4.703125 -0.0040283203zm49.6062 0.6831665q-3.796875 -0.0032958984 -5.984375 -1.364563q-2.171875 -1.361206 -3.109375 -3.7526245q-0.9375 -2.4070435 -0.9375 -5.6101685l0 -12.265686l-7.3125 -0.006225586l0 -3.3125l7.46875 -0.2592163l0.59375 -8.312012l3.625 0.003112793l0 8.3125l12.75 0.010925293l0 3.578125l-12.75 -0.010925293l0 12.3125q0 2.296875 0.578125 3.9067383q0.59375 1.5942993 2.03125 2.392395q1.4375 0.7980957 3.953125 0.80023193q1.859375 0.0015869141 3.34375 -0.30963135q1.5 -0.32684326 2.890625 -0.85687256l0.953125 3.2039185q-1.75 0.63916016 -3.703125 1.0905762q-1.9375 0.45147705 -4.390625 0.44940186zm18.762451 -0.62457275l0 -25.921875l3.625 0.003112793l0.375 6.14093l0.171875 1.8310547E-4q2.015625 -3.154541 5.0 -4.9644775q2.984375 -1.8099365 6.5625 -1.8068848q1.4375 0.0012207031 2.6875 0.25231934q1.265625 0.23547363 2.4375 0.8302002l-1.015625 3.7803955q-1.328125 -0.48553467 -2.296875 -0.6894531q-0.953125 -0.21960449 -2.5 -0.22094727q-2.9375 -0.0025024414 -5.640625 1.6826782q-2.6875 1.6695557 -5.03125 5.7144775l0 15.203125l-4.375 -0.0037841797zm37.340576 0.67266846q-2.40625 -0.0020751953 -4.4375 -0.8787842q-2.015625 -0.892395 -3.203125 -2.5339966q-1.171875 -1.6572876 -1.171875 -3.9541626q0 -4.375 4.375 -6.636902q4.375 -2.2618408 14.40625 -3.0501099q-0.0625 -1.765686 -0.734375 -3.2506104q-0.65625 -1.5006104 -2.15625 -2.376892q-1.484375 -0.89190674 -3.984375 -0.89404297q-1.65625 -0.0014038086 -3.28125 0.45031738q-1.625 0.4517212 -3.09375 1.1848755q-1.46875 0.71746826 -2.703125 1.4508057l-1.703125 -2.9858398q1.28125 -0.84265137 3.125 -1.7160645q1.84375 -0.8890381 3.96875 -1.4497681q2.140625 -0.56066895 4.421875 -0.5586548q3.578125 0.0030517578 5.890625 1.3487549q2.328125 1.3301392 3.46875 3.7061157q1.15625 2.3759766 1.15625 5.6259766l0 15.890625l-3.578125 -0.0030517578l-0.375 -3.5159302l-0.15625 -1.2207031E-4q-2.140625 1.701294 -4.8125 2.9333496q-2.65625 1.2164917 -5.421875 1.2141113zm1.171875 -3.5146484q2.234375 0.001953125 4.421875 -1.0118408q2.1875 -1.0137329 4.375 -2.8243408l0 -6.828125q-5.546875 0.47961426 -8.71875 1.3362427q-3.171875 0.84106445 -4.484375 2.1524048q-1.3125 1.2957764 -1.3125 2.9989014q0 1.453125 0.796875 2.3912964q0.8125 0.9226074 2.109375 1.361206q1.3125 0.42297363 2.8125 0.42425537zm36.153076 3.5466309q-4.046875 -0.003479004 -7.28125 -1.5999756q-3.21875 -1.6121216 -5.0625 -4.6449585q-1.84375 -3.048462 -1.84375 -7.314087q0 -4.375 1.96875 -7.404541q1.984375 -3.045227 5.25 -4.6361694q3.28125 -1.6065674 7.234375 -1.6031494q3.203125 0.002746582 5.515625 1.1296997q2.328125 1.1270142 3.921875 2.675293l-2.1875 2.826233q-1.59375 -1.3920288 -3.3125 -2.1903687q-1.703125 -0.81396484 -3.78125 -0.81573486q-2.984375 -0.0025634766 -5.28125 1.2611084q-2.28125 1.2480469 -3.546875 3.5125732q-1.25 2.2645874 -1.25 5.2489624q0 2.9375 1.21875 5.1729126q1.234375 2.2354126 3.5 3.5029907q2.265625 1.2519531 5.25 1.2545166q2.40625 0.0020751953 4.40625 -0.9493408q2.0 -0.967041 3.59375 -2.2938232l1.984375 2.829834q-2.140625 1.904419 -4.78125 2.9802856q-2.640625 1.0602417 -5.515625 1.0577393zm34.559265 0.029663086q-3.796875 -0.0032348633 -5.984375 -1.364502q-2.171875 -1.3612671 -3.109375 -3.7526855q-0.9375 -2.4070435 -0.9375 -5.6101685l0 -12.265625l-7.312439 -0.006286621l0 -3.3125l7.468689 -0.2592163l0.59375 -8.312012l3.625 0.003112793l0 8.3125l12.75 0.010925293l0 3.578186l-12.75 -0.010986328l0 12.3125q0 2.296875 0.578125 3.9067993q0.59375 1.5942383 2.03125 2.392334q1.4375 0.7980957 3.953125 0.80029297q1.859375 0.0015869141 3.34375 -0.30963135q1.5 -0.32684326 2.890625 -0.8569336l0.953125 3.2039795q-1.75 0.6390991 -3.703125 1.0905762q-1.9375 0.45141602 -4.390625 0.44934082z" fill-rule="nonzero"/><path fill="#000000" fill-opacity="0.0" d="m947.2913 299.24127l289.85834 -11.24411l5.7321777 144.34647l-289.85822 11.24411z" fill-rule="evenodd"/><path fill="#000000" d="m1000.3105 358.07095q-3.8876953 0.15081787 -7.1204224 -1.3187256q-3.2333984 -1.4851685 -5.2285156 -4.472595q-1.9794922 -2.9880066 -2.151245 -7.3127136q-0.16674805 -4.199829 1.5709229 -7.3007507q1.7526855 -3.117157 4.701599 -4.857788q2.9482422 -1.7562256 6.4143677 -1.890686q3.7159424 -0.14413452 6.415344 1.2835388q2.6987915 1.4120789 4.211853 4.074188q1.5286865 2.661499 1.6744385 6.330475q0.029724121 0.74942017 -0.0048217773 1.4544067q-0.01953125 0.68878174 -0.092163086 1.2232361l-21.905396 0.84976196l-0.13513184 -3.403595l19.282349 -0.74798584l-1.0601807 1.2608032q-0.18164062 -4.574524 -2.3806152 -6.787842q-2.1989136 -2.2132874 -5.774353 -2.074585q-2.388794 0.09265137 -4.4032593 1.3435669q-1.9988403 1.2502747 -3.1430054 3.5463562q-1.1291504 2.2798767 -1.0002441 5.527313q0.13336182 3.35672 1.5497437 5.553467q1.4313965 2.180542 3.756836 3.2474365q2.340393 1.0506897 5.213257 0.93927q2.357544 -0.09146118 4.220093 -0.8360901q1.8625488 -0.7446289 3.5828247 -1.9215698l1.706665 2.8109436q-1.8696289 1.3547363 -4.316162 2.3565674q-2.4309082 1.0012512 -5.584778 1.1235962zm17.770508 -1.3304749l9.334412 -13.809692l-9.613586 -12.12085l4.855713 -0.18835449l4.3325806 5.539337q0.7272949 0.9881897 1.5682373 2.081421q0.8409424 1.0932312 1.6343994 2.172638l0.21850586 -0.008453369q0.6430664 -1.1351624 1.362793 -2.3045654q0.7347412 -1.1856384 1.3952637 -2.2745361l3.665039 -5.755768l4.637207 -0.17990112l-8.717163 13.207214l10.432739 12.667603l-4.793335 0.1859436l-4.7646484 -5.788391q-0.8565674 -1.0926208 -1.7792969 -2.2764893q-0.9232178 -1.1994934 -1.8266602 -2.2903137l-0.20300293 0.007873535q-0.7672119 1.1556091 -1.5169678 2.3574524q-0.74975586 1.2018433 -1.4970703 2.466156l-4.0255737 6.1293945l-4.699585 0.1822815zm49.5943 -1.2827148q-3.7939453 0.14715576 -6.0338135 -1.1263428q-2.224121 -1.2741089 -3.2558594 -3.6265259q-1.0322266 -2.3680115 -1.1593018 -5.568634l-0.48669434 -12.255951l-7.307007 0.28344727l-0.13146973 -3.309906l7.4526367 -0.5549011l0.26342773 -8.3289795l3.6221924 -0.14050293l0.32995605 8.305939l12.740356 -0.49423218l0.14196777 3.5753174l-12.740356 0.49423218l0.4885254 12.302795q0.09118652 2.2950745 0.732666 3.8807678q0.6566162 1.5694885 2.1246338 2.3099976q1.4680176 0.74053955 3.9818115 0.6430359q1.8579102 -0.07208252 3.3287354 -0.441864q1.4859619 -0.38601685 2.85437 -0.97076416l1.0795898 3.1636658q-1.7232666 0.7079468 -3.6569824 1.2364197q-1.9180908 0.52789307 -4.369385 0.62298584zm18.723022 -1.3674011l-1.0286865 -25.90149l3.6223145 -0.14050293l0.6184082 6.1212463l0.17175293 -0.006652832q1.888794 -3.231903 4.7990723 -5.158661q2.9101562 -1.9267578 6.4855957 -2.0654602q1.4364014 -0.055725098 2.6954346 0.14562988q1.2739258 0.18515015 2.4685059 0.7330017l-0.86486816 3.817627q-1.3463135 -0.43249512 -2.3223877 -0.5979004q-0.9610596 -0.18164062 -2.506836 -0.121673584q-2.9353027 0.113861084 -5.569336 1.9048157q-2.6191406 1.7747192 -4.800537 5.9092712l0.6032715 15.191162l-4.371704 0.16958618zm37.33789 -0.807312q-2.404419 0.09326172 -4.468872 -0.702301q-2.0494385 -0.8117981 -3.3011475 -2.4050903q-1.2368164 -1.6095276 -1.3278809 -3.904602q-0.17358398 -4.3715515 4.1081543 -6.804962q4.2818604 -2.4334412 14.273926 -3.6185303q-0.13244629 -1.7618103 -0.86279297 -3.2189636q-0.71520996 -1.4733887 -2.2489014 -2.2895508q-1.5185547 -0.83239746 -4.0167236 -0.73547363q-1.6549072 0.06417847 -3.2607422 0.57995605q-1.605835 0.5157471 -3.0443115 1.306488q-1.4390869 0.77511597 -2.6434326 1.5567627l-1.8203125 -2.9160156q1.2468262 -0.89276123 3.0544434 -1.8385315q1.8071289 -0.96139526 3.9082031 -1.605835q2.1166992 -0.64501953 4.39624 -0.7334595q3.5754395 -0.13867188 5.939453 1.1143799q2.3790283 1.2368164 3.613037 3.5657349q1.2496338 2.328308 1.3786621 5.575775l0.63049316 15.878113l-3.5754395 0.13867188l-0.51416016 -3.4983215l-0.15612793 0.006072998q-2.0714111 1.7847595 -4.692383 3.1217346q-2.605835 1.3207397 -5.369385 1.427948zm1.0314941 -3.5582886q2.232666 -0.08660889 4.378174 -1.1862183q2.14563 -1.0996094 4.2595215 -2.9954834l-0.27087402 -6.822754q-5.5235596 0.6990051 -8.658936 1.6806641q-3.1359863 0.96603394 -4.3953857 2.3283691q-1.2601318 1.3467407 -1.1925049 3.048523q0.057617188 1.4519653 0.8911133 2.3578491q0.84851074 0.88964844 2.1617432 1.2765503q1.3282471 0.3706665 2.8271484 0.3125zm36.26538 2.1114807q-4.0438232 0.15686035 -7.3389893 -1.3102417q-3.2801514 -1.4833679 -5.242798 -4.440735q-1.9633789 -2.9730225 -2.1325684 -7.2352905q-0.17358398 -4.3715515 1.6733398 -7.4767456q1.8620605 -3.1213684 5.0618896 -4.840454q3.2149658 -1.735321 7.165161 -1.8885498q3.2006836 -0.12414551 5.5560303 0.91033936q2.3710938 1.033844 4.0250244 2.5177307l-2.0736084 2.9107056q-1.6478271 -1.3277588 -3.3968506 -2.057373q-1.7341309 -0.7458496 -3.810669 -0.6653137q-2.9821777 0.11569214 -5.227051 1.4693604q-2.2299805 1.3374329 -3.404663 3.6503296q-1.1591797 2.312317 -1.0407715 5.294342q0.11657715 2.9351807 1.4230957 5.1205444q1.3220215 2.184784 3.6362305 3.3615723q2.3134766 1.1611938 5.2956543 1.0455322q2.404419 -0.09329224 4.3651123 -1.123169q1.960083 -1.0455322 3.499878 -2.4343872l2.0950928 2.748993q-2.0633545 1.9877014 -4.6591797 3.1673584q-2.5965576 1.1640015 -5.4693604 1.2754517zm34.533325 -1.3395996q-3.7939453 0.14715576 -6.0338135 -1.1263428q-2.224121 -1.2741089 -3.2558594 -3.6265259q-1.0322266 -2.3680115 -1.1593018 -5.5686035l-0.48669434 -12.255981l-7.307007 0.28344727l-0.13146973 -3.3098755l7.4526367 -0.55493164l0.26342773 -8.3289795l3.6223145 -0.14050293l0.32983398 8.305939l12.740356 -0.49420166l0.14196777 3.5752869l-12.740356 0.49423218l0.4885254 12.302795q0.09118652 2.2950745 0.732666 3.8807678q0.6566162 1.5694885 2.1246338 2.310028q1.4680176 0.74050903 3.9818115 0.6430054q1.8579102 -0.07208252 3.3287354 -0.441864q1.4859619 -0.38601685 2.85437 -0.97073364l1.0795898 3.1636353q-1.7232666 0.7079773 -3.6569824 1.2364502q-1.9180908 0.52786255 -4.369385 0.6229553z" fill-rule="nonzero"/><path fill="#000000" d="m982.79504 432.80606q-2.404419 0.09326172 -4.468872 -0.702301q-2.0494385 -0.8117981 -3.3011475 -2.4050903q-1.2367554 -1.6095276 -1.3278809 -3.904602q-0.17358398 -4.3715515 4.1082153 -6.8049927q4.2817993 -2.4334106 14.273926 -3.6184998q-0.13250732 -1.7618103 -0.86279297 -3.2189636q-0.715271 -1.4733887 -2.2489014 -2.2895508q-1.5185547 -0.83239746 -4.0167236 -0.73550415q-1.6549683 0.064208984 -3.2608032 0.5799866q-1.6057739 0.5157471 -3.0443115 1.3064575q-1.4390869 0.77511597 -2.6434326 1.5567627l-1.8202515 -2.915985q1.2468262 -0.89276123 3.0544434 -1.8385315q1.8070679 -0.96139526 3.908142 -1.605835q2.1166992 -0.64501953 4.39624 -0.7334595q3.5754395 -0.1387024 5.939514 1.1143494q2.3790283 1.2368469 3.613037 3.5657654q1.2496338 2.328308 1.3786011 5.5757446l0.6305542 15.878113l-3.5754395 0.1387024l-0.5142212 -3.4983215l-0.15612793 0.006072998q-2.0714111 1.7847595 -4.692322 3.1217346q-2.605896 1.3207397 -5.369446 1.427948zm1.0314941 -3.5582886q2.232727 -0.08660889 4.378235 -1.1862183q2.1455688 -1.0996399 4.2595215 -2.9954834l-0.27093506 -6.822754q-5.5234985 0.6990051 -8.6588745 1.6806335q-3.1360474 0.96606445 -4.395447 2.3283997q-1.2600708 1.3467102 -1.1925049 3.0484924q0.057678223 1.4519958 0.8911743 2.3578796q0.8484497 0.88964844 2.1617432 1.2765198q1.3282471 0.3706665 2.8270874 0.31253052zm22.750122 1.9946594l-1.0285645 -25.90149l3.6222534 -0.14050293l0.5508423 4.419464l0.2185669 -0.008483887q1.9429321 -2.2644958 4.227844 -3.7917175q2.2843628 -1.5428467 5.3289185 -1.6609497q4.574646 -0.17745972 6.866516 2.4075317q2.2919922 2.584961 2.494629 7.690338l0.6392822 16.09668l-4.371704 0.16958618l-0.61572266 -15.503418q-0.14624023 -3.6846008 -1.6065674 -5.4105225q-1.4446411 -1.7265625 -4.6453247 -1.6023865q-2.295166 0.089019775 -4.0598145 1.3302307q-1.7646484 1.2412109 -3.9667969 3.6721497l0.7174072 18.063904l-4.371765 0.16958618zm41.49109 -0.9684143q-5.058716 0.19622803 -8.290894 -3.2279358q-3.2321777 -3.4241638 -3.4881592 -9.872192q-0.16748047 -4.2154236 1.3815918 -7.340332q1.5648193 -3.1254883 4.1845703 -4.884613q2.635376 -1.7597351 5.6643066 -1.8772278q2.295166 -0.089019775 4.2197266 0.7276001q1.9238281 0.8010254 3.6420898 2.3293152l0.15612793 -0.0060424805l-0.39331055 -4.7852173l-0.3955078 -9.960907l4.356079 -0.16897583l1.5065918 37.938843l-3.6221924 0.14053345l-0.5098877 -3.389038l-0.15612793 0.0060424805q-1.4807129 1.6993103 -3.6500244 2.9874878q-2.1536865 1.2875671 -4.6049805 1.3826599zm0.75927734 -3.7197266q1.9204102 -0.07449341 3.692505 -1.1283569q1.7720947 -1.0538635 3.460083 -3.0426636l-0.51208496 -12.896088q-1.8294678 -1.5708923 -3.5429688 -2.1924438q-1.6984863 -0.63775635 -3.4003906 -0.5717468q-2.248291 0.08721924 -4.0410156 1.4077148q-1.7772217 1.3198853 -2.7821045 3.5792847q-1.0048828 2.2593994 -0.8864746 5.2414246q0.1842041 4.636963 2.3031006 7.1973877q2.1339111 2.5441895 5.7093506 2.405487zm51.81006 1.0393677l-1.0286865 -25.901459l3.5130615 -0.1362915l0.51049805 3.404663l0.10925293 -0.0042419434q0.94299316 -1.8504639 2.2254639 -3.0260315q1.2824707 -1.1755981 3.5307617 -1.2628174q1.9204102 -0.07449341 3.1828613 1.0023804q1.2781982 1.0762634 1.8977051 3.288269q1.026001 -2.1194763 2.33667 -3.3743591q1.3261719 -1.2554626 3.558838 -1.3420715q2.7167969 -0.105407715 4.3131104 1.8967285q1.5957031 1.9865112 1.7501221 5.8740845l0.73657227 18.547882l-4.356201 0.16897583l-0.72351074 -18.220001q-0.17980957 -4.52771 -2.9589844 -4.4198914q-1.3271484 0.051483154 -2.1779785 1.0696106q-0.83532715 1.0175171 -1.8164062 3.0883484l0.7446289 18.750854l-4.0438232 0.15686035l-0.72351074 -18.220001q-0.08935547 -2.24823 -0.7591553 -3.363739q-0.6541748 -1.1161194 -2.0905762 -1.0603943q-1.3271484 0.051483154 -2.2873535 1.0738525q-0.944458 1.021759 -1.8162842 3.0883484l0.7446289 18.750854l-4.371704 0.16958618zm44.894653 -1.1004333q-3.4191895 0.1326294 -6.3865967 -1.3471985q-2.9678955 -1.4954529 -4.868042 -4.4552917q-1.9008789 -2.9754028 -2.0700684 -7.237671q-0.17370605 -4.371582 1.4859619 -7.4694824q1.6590576 -3.1135254 4.499878 -4.8186646q2.84021 -1.7207642 6.2595215 -1.8533936q3.4036865 -0.13204956 6.371582 1.3634033q2.9672852 1.4798584 4.868164 4.455261q1.9157715 2.9592285 2.0893555 7.33078q0.16931152 4.262268 -1.5053711 7.376404q-1.659668 3.0979004 -4.499756 4.8186646q-2.8409424 1.7051392 -6.244629 1.8371887zm-0.14379883 -3.6221619q2.498169 -0.09689331 4.3065186 -1.4179688q1.8233643 -1.3373108 2.7495117 -3.609314q0.92626953 -2.2719727 0.8096924 -5.2071533q-0.1184082 -2.9820251 -1.2231445 -5.2065125q-1.1048584 -2.2244873 -3.027954 -3.4008179q-1.9082031 -1.1925354 -4.406372 -1.0956421q-2.5136719 0.09750366 -4.305908 1.4336243q-1.7770996 1.3198547 -2.7332764 3.624298q-0.94055176 2.3038025 -0.82214355 5.2858276q0.11657715 2.9351807 1.2357178 5.127838q1.1346436 2.1920166 3.0117188 3.3858032q1.8919678 1.1775513 4.4056396 1.0800171zm29.749268 1.8326111l-11.957886 -25.477509l4.418457 -0.17138672l6.563965 14.475189q0.8725586 1.8894653 1.6669922 3.781952q0.79455566 1.8925171 1.5552979 3.7237854l0.21850586 -0.008483887q0.61328125 -1.884552 1.223999 -3.8315735q0.6263428 -1.9476318 1.2994385 -3.8970642l5.380249 -14.938507l4.215576 -0.1635437l-9.682129 26.316956l-4.902466 0.19018555zm35.93274 -0.7527771q-3.8876953 0.15078735 -7.1204834 -1.3187561q-3.2333984 -1.4851379 -5.2285156 -4.4725647q-1.9794922 -2.9880066 -2.151245 -7.3127136q-0.16674805 -4.199829 1.5709229 -7.3007507q1.7526855 -3.117157 4.70166 -4.857788q2.9482422 -1.7562256 6.4144287 -1.890686q3.7159424 -0.14413452 6.415283 1.2835388q2.6988525 1.4120789 4.211914 4.074188q1.5286865 2.661499 1.6743164 6.330475q0.029785156 0.74938965 -0.004760742 1.4544067q-0.01953125 0.68878174 -0.092163086 1.2232361l-21.905396 0.84973145l-0.13513184 -3.4035645l19.282349 -0.74798584l-1.0601807 1.2608032q-0.18164062 -4.574524 -2.3806152 -6.787842q-2.1989746 -2.2132874 -5.774292 -2.074585q-2.388916 0.09265137 -4.4033203 1.3435669q-1.9989014 1.2502747 -3.1430664 3.5463562q-1.1291504 2.2798462 -1.0001221 5.527313q0.13330078 3.35672 1.5496826 5.553467q1.4313965 2.180542 3.756836 3.2474365q2.340332 1.0506897 5.213257 0.93927q2.357544 -0.09146118 4.220093 -0.8360901q1.8625488 -0.7446289 3.5828857 -1.9215698l1.706543 2.8109436q-1.8695068 1.3547363 -4.31604 2.3565674q-2.4310303 1.0012512 -5.584839 1.1235962z" fill-rule="nonzero"/><path fill="#000000" fill-opacity="0.0" d="m496.0 583.59125c100.215576 -13.309021 446.61298 -42.588806 601.2936 -79.854004c154.68066 -37.265198 272.32507 -119.781006 326.79004 -143.73718" fill-rule="evenodd"/><path stroke="#999999" stroke-width="8.0" stroke-linejoin="round" stroke-linecap="butt" d="m496.0 583.59125c100.215576 -13.309021 446.61304 -42.588806 601.2936 -79.854004c77.34033 -18.632599 145.42151 -48.57785 200.97583 -76.85947c27.777222 -14.140808 52.422607 -27.865723 73.52783 -39.552673c2.6381836 -1.4608765 5.2209473 -2.8898926 7.7476807 -4.2839355l1.880127 -1.0355835" fill-rule="evenodd"/><path fill="#999999" stroke="#999999" stroke-width="8.0" stroke-linecap="butt" d="m1387.4829 393.74902l26.20691 -28.38733l-38.32263 4.9004517z" fill-rule="evenodd"/><path fill="#000000" fill-opacity="0.0" d="m505.1391 684.00525c15.333313 28.0 105.33331 118.0 92.0 168.0c-13.333313 50.0 -143.33331 110.0 -172.0 132.0" fill-rule="evenodd"/><path stroke="#999999" stroke-width="8.0" stroke-linejoin="round" stroke-linecap="butt" d="m505.1391 684.00525c15.333313 28.0 105.33331 118.0 92.0 168.0c-6.666687 25.0 -42.5 52.5 -80.25 76.5c-9.4375 6.0 -18.994781 11.78125 -28.246094 17.25c-4.6256714 2.734436 -9.174774 5.390564 -13.594238 7.9570312c-2.2096863 1.2832031 -4.3869934 2.5439453 -6.525177 3.7807617l-2.46286 1.4239502" fill-rule="evenodd"/><path fill="#999999" stroke="#999999" stroke-width="8.0" stroke-linecap="butt" d="m459.15424 947.65173l-24.044556 30.240784l37.857574 -7.710266z" fill-rule="evenodd"/></g></svg>