<svg version="1.1" viewBox="0.0 0.0 3712.942257217848 1261.1758530183727" fill="none" stroke="none" stroke-linecap="square" stroke-miterlimit="10" xmlns:xlink="http://www.w3.org/1999/xlink" xmlns="http://www.w3.org/2000/svg"><clipPath id="p.0"><path d="m0 0l3712.9421 0l0 1261.1759l-3712.9421 0l0 -1261.1759z" clip-rule="nonzero"/></clipPath><g clip-path="url(#p.0)"><path fill="#000000" fill-opacity="0.0" d="m0 0l3712.9421 0l0 1261.1759l-3712.9421 0z" fill-rule="evenodd"/><path fill="#000000" fill-opacity="0.0" d="m1939.5958 90.90977l0 0c0 -45.009933 -36.487793 -81.497696 -81.49768 -81.497696l-690.0126 0c-21.614502 0 -42.34375 8.58634 -57.627563 23.870123c-15.283691 15.283783 -23.870117 36.01304 -23.870117 57.62757l0 325.981c0 45.00995 36.487793 81.49771 81.49768 81.49771l690.0126 0c45.009888 0 81.49768 -36.487762 81.49768 -81.49771z" fill-rule="evenodd"/><path stroke="#cccccc" stroke-width="1.0" stroke-linejoin="round" stroke-linecap="butt" d="m1939.5958 90.90977l0 0c0 -45.009933 -36.487793 -81.497696 -81.49768 -81.497696l-690.0126 0c-21.614502 0 -42.34375 8.58634 -57.627563 23.870123c-15.283691 15.283783 -23.870117 36.01304 -23.870117 57.62757l0 325.981c0 45.00995 36.487793 81.49771 81.49768 81.49771l690.0126 0c45.009888 0 81.49768 -36.487762 81.49768 -81.49771z" fill-rule="evenodd"/><path fill="#351c75" d="m1141.8328 117.73526q-5.578125 0 -10.015625 -2.1875q-4.4375 -2.203125 -6.96875 -6.375q-2.53125 -4.1875 -2.53125 -10.0625q0 -6.015625 2.71875 -10.1875q2.71875 -4.1875 7.21875 -6.375q4.515625 -2.203125 9.9375 -2.203125q4.40625 0 7.59375 1.546875q3.1875 1.53125 5.390625 3.65625l-3.015625 3.890625q-2.1875 -1.90625 -4.546875 -3.0q-2.34375 -1.109375 -5.203125 -1.109375q-4.09375 0 -7.25 1.734375q-3.15625 1.71875 -4.890625 4.828125q-1.71875 3.109375 -1.71875 7.21875q0 4.03125 1.6875 7.125q1.6875 3.078125 4.796875 4.796875q3.125 1.71875 7.234375 1.71875q3.296875 0 6.046875 -1.3125q2.75 -1.328125 4.953125 -3.15625l2.71875 3.890625q-2.9375 2.640625 -6.578125 4.109375q-3.625 1.453125 -7.578125 1.453125zm48.38745 0q-5.640625 0 -8.65625 -3.25q-3.0 -3.265625 -3.0 -9.578125l0 -35.34375l-12.171875 0l0 -4.90625l18.1875 0l0 40.6875q0 3.890625 1.90625 5.65625q1.90625 1.75 5.0625 1.75q1.53125 0 3.140625 -0.390625q1.625 -0.40625 3.609375 -1.296875l1.53125 4.546875q-2.421875 0.890625 -4.546875 1.5q-2.125 0.625 -5.0625 0.625zm32.26245 0q-3.296875 0 -6.078125 -1.203125q-2.78125 -1.21875 -4.40625 -3.484375q-1.609375 -2.28125 -1.609375 -5.421875q0 -6.015625 6.015625 -9.125q6.015625 -3.125 19.796875 -4.21875q-0.078125 -2.421875 -1.0 -4.46875q-0.90625 -2.0625 -2.96875 -3.265625q-2.046875 -1.21875 -5.484375 -1.21875q-2.28125 0 -4.515625 0.625q-2.234375 0.625 -4.25 1.625q-2.015625 0.984375 -3.703125 2.0l-2.34375 -4.109375q1.75 -1.171875 4.28125 -2.375q2.53125 -1.21875 5.46875 -1.984375q2.9375 -0.765625 6.078125 -0.765625q4.921875 0 8.109375 1.84375q3.1875 1.828125 4.765625 5.09375q1.578125 3.25 1.578125 7.71875l0 21.859375l-4.921875 0l-0.5 -4.84375l-0.21875 0q-2.9375 2.34375 -6.609375 4.03125q-3.65625 1.6875 -7.484375 1.6875zm1.625 -4.828125q3.078125 0 6.078125 -1.390625q3.015625 -1.40625 6.015625 -3.890625l0 -9.390625q-7.625 0.65625 -11.984375 1.828125q-4.359375 1.171875 -6.15625 2.96875q-1.796875 1.796875 -1.796875 4.15625q0 1.96875 1.09375 3.25q1.09375 1.28125 2.890625 1.875q1.796875 0.59375 3.859375 0.59375zm47.07495 4.828125q-5.203125 0 -9.75 -1.6875q-4.546875 -1.6875 -7.78125 -3.875l2.796875 -3.96875q3.078125 2.203125 6.8125 3.53125q3.734375 1.3125 8.65625 1.3125q4.546875 0 6.78125 -1.6875q2.234375 -1.6875 2.234375 -3.890625q0 -1.015625 -0.40625 -1.890625q-0.40625 -0.890625 -1.546875 -1.6875q-1.125 -0.8125 -3.328125 -1.546875q-2.203125 -0.734375 -5.859375 -1.46875q-6.96875 -1.46875 -10.453125 -3.953125q-3.484375 -2.5 -3.484375 -6.453125q0 -4.328125 3.734375 -7.21875q3.75 -2.90625 11.078125 -2.90625q4.109375 0 7.921875 1.359375q3.8125 1.359375 6.453125 3.1875l-2.9375 3.890625q-2.421875 -1.765625 -5.5 -2.75q-3.078125 -1.0 -6.453125 -1.0q-3.078125 0 -4.875 0.703125q-1.796875 0.6875 -2.5625 1.875q-0.765625 1.171875 -0.765625 2.5625q0 2.265625 2.453125 3.546875q2.453125 1.28125 7.875 2.390625q5.9375 1.25 9.125 2.796875q3.203125 1.53125 4.40625 3.515625q1.21875 1.96875 1.21875 4.6875q0 2.9375 -1.84375 5.328125q-1.828125 2.375 -5.359375 3.84375q-3.515625 1.453125 -8.640625 1.453125zm43.996826 0q-5.203125 0 -9.75 -1.6875q-4.546875 -1.6875 -7.78125 -3.875l2.796875 -3.96875q3.078125 2.203125 6.8125 3.53125q3.734375 1.3125 8.65625 1.3125q4.546875 0 6.78125 -1.6875q2.234375 -1.6875 2.234375 -3.890625q0 -1.015625 -0.40625 -1.890625q-0.40625 -0.890625 -1.546875 -1.6875q-1.125 -0.8125 -3.328125 -1.546875q-2.203125 -0.734375 -5.859375 -1.46875q-6.96875 -1.46875 -10.453125 -3.953125q-3.484375 -2.5 -3.484375 -6.453125q0 -4.328125 3.734375 -7.21875q3.75 -2.90625 11.078125 -2.90625q4.109375 0 7.921875 1.359375q3.8125 1.359375 6.453125 3.1875l-2.9375 3.890625q-2.421875 -1.765625 -5.5 -2.75q-3.078125 -1.0 -6.453125 -1.0q-3.078125 0 -4.875 0.703125q-1.796875 0.6875 -2.5625 1.875q-0.765625 1.171875 -0.765625 2.5625q0 2.265625 2.453125 3.546875q2.453125 1.28125 7.875 2.390625q5.9375 1.25 9.125 2.796875q3.203125 1.53125 4.40625 3.515625q1.21875 1.96875 1.21875 4.6875q0 2.9375 -1.84375 5.328125q-1.828125 2.375 -5.359375 3.84375q-3.515625 1.453125 -8.640625 1.453125z" fill-rule="nonzero"/><path fill="#000000" d="m1402.798 117.73526q-5.28125 0 -9.71875 -1.9375q-4.421875 -1.9375 -7.734375 -5.171875l3.671875 -4.25q2.71875 2.71875 6.34375 4.375q3.625 1.640625 7.734375 1.640625q4.984375 0 7.734375 -2.125q2.75 -2.125 2.75 -5.5q0 -2.578125 -1.140625 -4.109375q-1.125 -1.546875 -3.078125 -2.5625q-1.9375 -1.03125 -4.4375 -2.0625l-6.890625 -3.0q-2.421875 -1.03125 -4.8125 -2.5625q-2.375 -1.546875 -3.984375 -3.921875q-1.609375 -2.390625 -1.609375 -5.90625q0 -3.671875 2.015625 -6.5625q2.015625 -2.90625 5.609375 -4.546875q3.59375 -1.65625 8.140625 -1.65625q4.546875 0 8.359375 1.65625q3.8125 1.640625 6.453125 4.28125l-3.234375 3.96875q-2.34375 -2.125 -5.203125 -3.328125q-2.859375 -1.21875 -6.59375 -1.21875q-4.1875 0 -6.75 1.875q-2.5625 1.859375 -2.5625 5.15625q0 2.28125 1.28125 3.75q1.28125 1.453125 3.25 2.40625q1.984375 0.953125 4.046875 1.84375l6.75 2.921875q3.0 1.1875 5.421875 2.84375q2.421875 1.640625 3.8125 4.0625q1.390625 2.40625 1.390625 5.9375q0 3.8125 -2.0625 6.9375q-2.046875 3.109375 -5.859375 4.9375q-3.8125 1.828125 -9.09375 1.828125zm39.6687 0q-6.375 0 -9.390625 -3.65625q-3.0 -3.671875 -3.0 -10.71875l0 -22.140625l6.09375 0l0 21.34375q0 5.0625 1.859375 7.515625q1.875 2.453125 6.34375 2.453125q3.09375 0 5.609375 -1.578125q2.53125 -1.578125 5.46875 -5.015625l0 -24.71875l6.015625 0l0 35.640625l-4.90625 0l-0.515625 -6.234375l-0.296875 0q-2.71875 3.078125 -5.953125 5.09375q-3.21875 2.015625 -7.328125 2.015625zm32.778076 14.15625l0 -50.671875l5.0 0l0.5 4.546875l0.234375 0q2.484375 -2.34375 5.75 -3.875q3.265625 -1.546875 6.5625 -1.546875q4.84375 0 8.09375 2.234375q3.265625 2.234375 4.953125 6.3125q1.6875 4.0625 1.6875 9.640625q0 6.015625 -2.28125 10.34375q-2.265625 4.3125 -5.9375 6.59375q-3.65625 2.265625 -7.984375 2.265625q-2.421875 0 -5.328125 -1.203125q-2.890625 -1.21875 -5.296875 -3.40625l-0.21875 0l0.28125 6.734375l0 12.03125l-6.015625 0zm15.546875 -19.21875q3.15625 0 5.640625 -1.671875q2.5 -1.6875 3.921875 -4.875q1.4375 -3.203125 1.4375 -7.59375q0 -3.890625 -1.03125 -6.859375q-1.015625 -2.96875 -3.21875 -4.609375q-2.203125 -1.65625 -5.796875 -1.65625q-2.40625 0 -5.09375 1.28125q-2.671875 1.28125 -5.390625 4.0625l0 17.75q2.578125 2.265625 5.171875 3.21875q2.609375 0.953125 4.359375 0.953125zm45.840576 5.0625q-5.359375 0 -9.71875 -2.1875q-4.359375 -2.203125 -6.9375 -6.421875q-2.5625 -4.21875 -2.5625 -10.15625q0 -5.796875 2.5625 -9.96875q2.578125 -4.1875 6.71875 -6.421875q4.140625 -2.234375 8.90625 -2.234375q5.125 0 8.75 2.09375q3.640625 2.078125 5.578125 5.828125q1.953125 3.734375 1.953125 8.796875q0 1.03125 -0.078125 1.984375q-0.078125 0.953125 -0.21875 1.6875l-30.140625 0l0 -4.703125l26.546875 0l-1.53125 1.6875q0 -6.296875 -2.90625 -9.453125q-2.890625 -3.15625 -7.8125 -3.15625q-3.296875 0 -6.125 1.609375q-2.8125 1.609375 -4.5 4.703125q-1.6875 3.078125 -1.6875 7.546875q0 4.625 1.828125 7.703125q1.84375 3.078125 4.984375 4.65625q3.15625 1.578125 7.125 1.578125q3.21875 0 5.8125 -0.921875q2.609375 -0.921875 5.03125 -2.453125l2.203125 3.953125q-2.640625 1.765625 -6.046875 3.015625q-3.40625 1.234375 -7.734375 1.234375zm30.496826 -0.875l0 -35.640625l4.984375 0l0.515625 8.4375l0.21875 0q2.796875 -4.328125 6.890625 -6.8125q4.109375 -2.5 9.03125 -2.5q1.96875 0 3.6875 0.328125q1.734375 0.328125 3.34375 1.140625l-1.390625 5.203125q-1.828125 -0.65625 -3.15625 -0.953125q-1.3125 -0.296875 -3.4375 -0.296875q-4.046875 0 -7.75 2.3125q-3.703125 2.3125 -6.921875 7.875l0 20.90625l-6.015625 0zm43.0437 0l0 -48.109375l29.546875 0l0 5.140625l-23.390625 0l0 16.28125l19.796875 0l0 5.125l-19.796875 0l0 21.5625l-6.15625 0zm56.246826 0.875q-4.6875 0 -8.6875 -2.1875q-4.0 -2.203125 -6.453125 -6.375q-2.453125 -4.1875 -2.453125 -10.0625q0 -6.015625 2.453125 -10.1875q2.453125 -4.1875 6.453125 -6.375q4.0 -2.203125 8.6875 -2.203125q4.6875 0 8.6875 2.203125q4.0 2.1875 6.453125 6.375q2.453125 4.171875 2.453125 10.1875q0 5.875 -2.453125 10.0625q-2.453125 4.171875 -6.453125 6.375q-4.0 2.1875 -8.6875 2.1875zm0 -4.984375q3.4375 0 6.0 -1.71875q2.578125 -1.71875 3.96875 -4.796875q1.390625 -3.09375 1.390625 -7.125q0 -4.109375 -1.390625 -7.21875q-1.390625 -3.109375 -3.96875 -4.828125q-2.5625 -1.734375 -6.0 -1.734375q-3.453125 0 -5.984375 1.734375q-2.515625 1.71875 -3.953125 4.828125q-1.4375 3.109375 -1.4375 7.21875q0 4.03125 1.4375 7.125q1.4375 3.078125 3.953125 4.796875q2.53125 1.71875 5.984375 1.71875zm43.996704 4.984375q-4.6875 0 -8.6875 -2.1875q-4.0 -2.203125 -6.453125 -6.375q-2.453125 -4.1875 -2.453125 -10.0625q0 -6.015625 2.453125 -10.1875q2.453125 -4.1875 6.453125 -6.375q4.0 -2.203125 8.6875 -2.203125q4.6875 0 8.6875 2.203125q4.0 2.1875 6.453125 6.375q2.453125 4.171875 2.453125 10.1875q0 5.875 -2.453125 10.0625q-2.453125 4.171875 -6.453125 6.375q-4.0 2.1875 -8.6875 2.1875zm0 -4.984375q3.4375 0 6.0 -1.71875q2.578125 -1.71875 3.96875 -4.796875q1.390625 -3.09375 1.390625 -7.125q0 -4.109375 -1.390625 -7.21875q-1.390625 -3.109375 -3.96875 -4.828125q-2.5625 -1.734375 -6.0 -1.734375q-3.453125 0 -5.984375 1.734375q-2.515625 1.71875 -3.953125 4.828125q-1.4375 3.109375 -1.4375 7.21875q0 4.03125 1.4375 7.125q1.4375 3.078125 3.953125 4.796875q2.53125 1.71875 5.984375 1.71875z" fill-rule="nonzero"/><path fill="#000000" d="m1765.9287 128.40714q-7.140625 0 -10.609375 -2.125q-3.453125 -2.125 -3.453125 -7.984375q0 -2.8125 0.15625 -5.15625q0.15625 -2.359375 0.34375 -4.671875q0.1875 -2.328125 0.1875 -4.828125q0 -1.53125 -0.875 -2.859375q-0.875 -1.328125 -3.265625 -2.203125q-2.390625 -0.875 -6.875 -0.875l0 -3.953125q4.484375 0 6.875 -0.875q2.390625 -0.875 3.265625 -2.234375q0.875 -1.375 0.875 -2.8125q0 -2.359375 -0.1875 -4.75q-0.1875 -2.390625 -0.34375 -4.828125q-0.15625 -2.4375 -0.15625 -5.09375q0 -5.84375 3.453125 -7.96875q3.46875 -2.1406212 10.609375 -2.1406212l4.640625 0l0 3.5781212l-3.953125 0q-3.875 0 -5.890625 0.71875q-2.015625 0.71875 -2.78125 2.203125q-0.75 1.484375 -0.75 4.0q0 3.265625 0.21875 6.71875q0.234375 3.453125 0.234375 7.03125q0 3.640625 -1.484375 5.625q-1.484375 1.96875 -5.4375 2.65625l0 0.3125q3.953125 0.671875 5.4375 2.65625q1.484375 1.96875 1.484375 5.625q0 3.796875 -0.234375 7.03125q-0.21875 3.21875 -0.21875 6.71875q0 2.4375 0.75 3.953125q0.765625 1.515625 2.78125 2.234375q2.015625 0.734375 5.890625 0.734375l3.953125 0l0 3.5625l-4.640625 0z" fill-rule="nonzero"/><path fill="#d9ead3" d="m1116.4578 148.90027l319.19995 0l0 91.2l-319.19995 0l0 -91.2z" fill-rule="nonzero"/><path fill="#000000" fill-opacity="0.0" d="m1116.4578 147.0763l45.599976 0l0 95.53197l-45.599976 0l0 -95.53197z" fill-rule="nonzero"/><path fill="#38761d" d="m1136.7546 213.95403l0 -14.8125l-13.84375 0l0 -4.71875l13.84375 0l0 -14.8125l5.015625 0l0 14.8125l13.828125 0l0 4.71875l-13.828125 0l0 14.8125l-5.015625 0z" fill-rule="nonzero"/><path fill="#010000" fill-opacity="0.0" d="m1162.0577 147.0763l273.59998 0l0 95.53197l-273.59998 0l0 -95.53197z" fill-rule="nonzero"/><path fill="#000000" d="m1303.264 221.86028l0 -36.9375l5.015625 0l0.53125 4.859375l0.15625 0q1.4375 -2.578125 3.34375 -4.171875q1.90625 -1.59375 5.09375 -1.59375q2.734375 0 4.484375 1.59375q1.75 1.59375 2.5 4.78125q1.59375 -2.953125 3.53125 -4.65625q1.953125 -1.71875 5.140625 -1.71875q3.875 0 6.03125 2.921875q2.171875 2.921875 2.171875 8.46875l0 26.453125l-6.234375 0l0 -25.984375q0 -6.46875 -3.953125 -6.46875q-1.890625 0 -3.15625 1.40625q-1.25 1.40625 -2.765625 4.296875l0 26.75l-5.78125 0l0 -25.984375q0 -3.203125 -0.875 -4.828125q-0.875 -1.640625 -2.921875 -1.640625q-1.90625 0 -3.3125 1.40625q-1.390625 1.40625 -2.765625 4.296875l0 26.75l-6.234375 0zm74.099976 13.375q-7.90625 -6.234375 -12.5 -14.859375q-4.59375 -8.625 -4.59375 -19.640625q0 -11.015625 4.59375 -19.671875q4.59375 -8.671875 12.5 -14.828125l3.421875 3.1875q-7.59375 6.375 -11.25 14.0625q-3.640625 7.671875 -3.640625 17.25q0 9.578125 3.640625 17.21875q3.65625 7.625 11.25 14.09375l-3.421875 3.1875zm25.381226 0l-3.421875 -3.1875q7.609375 -6.46875 11.25 -14.09375q3.65625 -7.640625 3.65625 -17.21875q0 -9.578125 -3.65625 -17.25q-3.640625 -7.6875 -11.25 -14.0625l3.421875 -3.1875q7.984375 6.15625 12.546875 14.828125q4.5625 8.65625 4.5625 19.671875q0 11.015625 -4.5625 19.640625q-4.5625 8.625 -12.546875 14.859375z" fill-rule="nonzero"/><path fill="#000000" d="m1230.4546 327.7665q-2.5 0 -4.328125 -1.78125q-1.828125 -1.78125 -1.828125 -4.59375q0 -2.890625 1.828125 -4.671875q1.828125 -1.796875 4.328125 -1.796875q2.59375 0 4.375 1.796875q1.78125 1.78125 1.78125 4.671875q0 2.8125 -1.78125 4.59375q-1.78125 1.78125 -4.375 1.78125zm45.600098 0q-2.5 0 -4.328125 -1.78125q-1.828125 -1.78125 -1.828125 -4.59375q0 -2.890625 1.828125 -4.671875q1.828125 -1.796875 4.328125 -1.796875q2.59375 0 4.375 1.796875q1.78125 1.78125 1.78125 4.671875q0 2.8125 -1.78125 4.59375q-1.78125 1.78125 -4.375 1.78125zm45.599976 0q-2.5 0 -4.328125 -1.78125q-1.828125 -1.78125 -1.828125 -4.59375q0 -2.890625 1.828125 -4.671875q1.828125 -1.796875 4.328125 -1.796875q2.59375 0 4.375 1.796875q1.78125 1.78125 1.78125 4.671875q0 2.8125 -1.78125 4.59375q-1.78125 1.78125 -4.375 1.78125z" fill-rule="nonzero"/><path fill="#000000" d="m1123.989 443.40714l0 -3.5625l3.875 0q3.953125 0 5.953125 -0.734375q2.015625 -0.71875 2.78125 -2.234375q0.765625 -1.515625 0.765625 -3.953125q0 -3.5 -0.234375 -6.71875q-0.234375 -3.234375 -0.234375 -7.03125q0 -3.65625 1.4375 -5.625q1.453125 -1.984375 5.40625 -2.65625l0 -0.3125q-3.953125 -0.6875 -5.40625 -2.65625q-1.4375 -1.984375 -1.4375 -5.625q0 -3.578125 0.234375 -7.03125q0.234375 -3.453125 0.234375 -6.71875q0 -2.515625 -0.765625 -4.0q-0.765625 -1.484375 -2.78125 -2.203125q-2.0 -0.71875 -5.953125 -0.71875l-3.875 0l0 -3.578125l4.625 0q7.140625 0 10.5625 2.140625q3.421875 2.125 3.421875 7.96875q0 2.65625 -0.15625 5.09375q-0.140625 2.4375 -0.34375 4.828125q-0.1875 2.390625 -0.1875 4.75q0 1.4375 0.875 2.8125q0.875 1.359375 3.265625 2.234375q2.40625 0.875 6.890625 0.875l0 3.953125q-4.484375 0 -6.890625 0.875q-2.390625 0.875 -3.265625 2.203125q-0.875 1.328125 -0.875 2.859375q0 2.5 0.1875 4.828125q0.203125 2.3125 0.34375 4.671875q0.15625 2.34375 0.15625 5.15625q0 5.859375 -3.421875 7.984375q-3.421875 2.125 -10.5625 2.125l-4.625 0z" fill-rule="nonzero"/><path fill="#000000" fill-opacity="0.0" d="m853.0079 772.7916l0 0c0 -45.009888 -36.487732 -81.49768 -81.49768 -81.49768l-690.0125 0c-21.614536 0 -42.343792 8.586365 -57.627575 23.870117c-15.283782 15.283813 -23.870121 36.01306 -23.870121 57.627563l0 325.98108c0 45.009888 36.48776 81.49768 81.497696 81.49768l690.0125 0c45.00995 0 81.49768 -36.487793 81.49768 -81.49768z" fill-rule="evenodd"/><path stroke="#cccccc" stroke-width="1.0" stroke-linejoin="round" stroke-linecap="butt" d="m853.0079 772.7916l0 0c0 -45.009888 -36.487732 -81.49768 -81.49768 -81.49768l-690.0125 0c-21.614536 0 -42.343792 8.586365 -57.627575 23.870117c-15.283782 15.283813 -23.870121 36.01306 -23.870121 57.627563l0 325.98108c0 45.009888 36.48776 81.49768 81.497696 81.49768l690.0125 0c45.00995 0 81.49768 -36.487793 81.49768 -81.49768z" fill-rule="evenodd"/><path fill="#351c75" d="m55.244858 799.6171q-5.578125 0 -10.015625 -2.1875q-4.4375 -2.203125 -6.96875 -6.375q-2.53125 -4.1875 -2.53125 -10.0625q0 -6.015625 2.71875 -10.1875q2.71875 -4.1875 7.21875 -6.375q4.515625 -2.203125 9.9375 -2.203125q4.40625 0 7.59375 1.546875q3.1875 1.53125 5.390625 3.65625l-3.015625 3.890625q-2.1875 -1.90625 -4.546875 -3.0q-2.34375 -1.109375 -5.203125 -1.109375q-4.09375 0 -7.25 1.734375q-3.15625 1.71875 -4.890625 4.828125q-1.71875 3.109375 -1.71875 7.21875q0 4.03125 1.6875 7.125q1.6875 3.078125 4.796875 4.796875q3.125 1.71875 7.234375 1.71875q3.296875 0 6.046875 -1.3125q2.75 -1.328125 4.953125 -3.15625l2.71875 3.890625q-2.9375 2.640625 -6.578125 4.109375q-3.625 1.453125 -7.578125 1.453125zm48.387436 0q-5.640625 0 -8.65625 -3.25q-3.0 -3.265625 -3.0 -9.578125l0 -35.34375l-12.171875 0l0 -4.90625l18.1875 0l0 40.6875q0 3.890625 1.90625 5.65625q1.90625 1.75 5.0625 1.75q1.53125 0 3.140625 -0.390625q1.625 -0.40625 3.609375 -1.296875l1.53125 4.546875q-2.421875 0.890625 -4.546875 1.5q-2.125 0.625 -5.0625 0.625zm32.262436 0q-3.296875 0 -6.078125 -1.203125q-2.78125 -1.21875 -4.40625 -3.484375q-1.609375 -2.28125 -1.609375 -5.421875q0 -6.015625 6.015625 -9.125q6.015625 -3.125 19.796875 -4.21875q-0.078125 -2.421875 -1.0 -4.46875q-0.90625 -2.0625 -2.96875 -3.265625q-2.046875 -1.21875 -5.484375 -1.21875q-2.28125 0 -4.515625 0.625q-2.234375 0.625 -4.25 1.625q-2.015625 0.984375 -3.703125 2.0l-2.34375 -4.109375q1.75 -1.171875 4.28125 -2.375q2.53125 -1.21875 5.46875 -1.984375q2.9375 -0.765625 6.078125 -0.765625q4.921875 0 8.109375 1.84375q3.1875 1.828125 4.765625 5.09375q1.578125 3.25 1.578125 7.71875l0 21.859375l-4.921875 0l-0.5 -4.84375l-0.21875 0q-2.9375 2.34375 -6.609375 4.03125q-3.65625 1.6875 -7.484375 1.6875zm1.625 -4.828125q3.078125 0 6.078125 -1.390625q3.015625 -1.40625 6.015625 -3.890625l0 -9.390625q-7.625 0.65625 -11.984375 1.828125q-4.359375 1.171875 -6.15625 2.96875q-1.796875 1.796875 -1.796875 4.15625q0 1.96875 1.09375 3.25q1.09375 1.28125 2.890625 1.875q1.796875 0.59375 3.859375 0.59375zm47.074936 4.828125q-5.203125 0 -9.75 -1.6875q-4.546875 -1.6875 -7.78125 -3.875l2.796875 -3.96875q3.078125 2.203125 6.8125 3.53125q3.734375 1.3125 8.65625 1.3125q4.546875 0 6.78125 -1.6875q2.234375 -1.6875 2.234375 -3.890625q0 -1.015625 -0.40625 -1.890625q-0.40625 -0.890625 -1.546875 -1.6875q-1.125 -0.8125 -3.328125 -1.546875q-2.203125 -0.734375 -5.859375 -1.46875q-6.96875 -1.46875 -10.453125 -3.953125q-3.484375 -2.5 -3.484375 -6.453125q0 -4.328125 3.734375 -7.21875q3.75 -2.90625 11.078125 -2.90625q4.109375 0 7.921875 1.359375q3.8125 1.359375 6.453125 3.1875l-2.9375 3.890625q-2.421875 -1.765625 -5.5 -2.75q-3.078125 -1.0 -6.453125 -1.0q-3.078125 0 -4.875 0.703125q-1.796875 0.6875 -2.5625 1.875q-0.765625 1.171875 -0.765625 2.5625q0 2.265625 2.453125 3.546875q2.453125 1.28125 7.875 2.390625q5.9375 1.25 9.125 2.796875q3.203125 1.53125 4.40625 3.515625q1.21875 1.96875 1.21875 4.6875q0 2.9375 -1.84375 5.328125q-1.828125 2.375 -5.359375 3.84375q-3.515625 1.453125 -8.640625 1.453125zm43.99681 0q-5.203125 0 -9.75 -1.6875q-4.546875 -1.6875 -7.78125 -3.875l2.796875 -3.96875q3.078125 2.203125 6.8125 3.53125q3.734375 1.3125 8.65625 1.3125q4.546875 0 6.78125 -1.6875q2.234375 -1.6875 2.234375 -3.890625q0 -1.015625 -0.40625 -1.890625q-0.40625 -0.890625 -1.546875 -1.6875q-1.125 -0.8125 -3.328125 -1.546875q-2.203125 -0.734375 -5.859375 -1.46875q-6.96875 -1.46875 -10.453125 -3.953125q-3.484375 -2.5 -3.484375 -6.453125q0 -4.328125 3.734375 -7.21875q3.75 -2.90625 11.078125 -2.90625q4.109375 0 7.921875 1.359375q3.8125 1.359375 6.453125 3.1875l-2.9375 3.890625q-2.421875 -1.765625 -5.5 -2.75q-3.078125 -1.0 -6.453125 -1.0q-3.078125 0 -4.875 0.703125q-1.796875 0.6875 -2.5625 1.875q-0.765625 1.171875 -0.765625 2.5625q0 2.265625 2.453125 3.546875q2.453125 1.28125 7.875 2.390625q5.9375 1.25 9.125 2.796875q3.203125 1.53125 4.40625 3.515625q1.21875 1.96875 1.21875 4.6875q0 2.9375 -1.84375 5.328125q-1.828125 2.375 -5.359375 3.84375q-3.515625 1.453125 -8.640625 1.453125z" fill-rule="nonzero"/><path fill="#000000" d="m316.2101 799.6171q-5.28125 0 -9.71875 -1.9375q-4.421875 -1.9375 -7.734375 -5.171875l3.671875 -4.25q2.71875 2.71875 6.34375 4.375q3.625 1.640625 7.734375 1.640625q4.984375 0 7.734375 -2.125q2.75 -2.125 2.75 -5.5q0 -2.578125 -1.140625 -4.109375q-1.125 -1.546875 -3.078125 -2.5625q-1.9375 -1.03125 -4.4375 -2.0625l-6.890625 -3.0q-2.421875 -1.03125 -4.8125 -2.5625q-2.375 -1.546875 -3.984375 -3.921875q-1.609375 -2.390625 -1.609375 -5.90625q0 -3.671875 2.015625 -6.5625q2.015625 -2.90625 5.609375 -4.546875q3.59375 -1.65625 8.140625 -1.65625q4.546875 0 8.359375 1.65625q3.8125 1.640625 6.453125 4.28125l-3.234375 3.96875q-2.34375 -2.125 -5.203125 -3.328125q-2.859375 -1.21875 -6.59375 -1.21875q-4.1875 0 -6.75 1.875q-2.5625 1.859375 -2.5625 5.15625q0 2.28125 1.28125 3.75q1.28125 1.453125 3.25 2.40625q1.984375 0.953125 4.046875 1.84375l6.75 2.921875q3.0 1.1875 5.421875 2.84375q2.421875 1.640625 3.8125 4.0625q1.390625 2.40625 1.390625 5.9375q0 3.8125 -2.0625 6.9375q-2.046875 3.109375 -5.859375 4.9375q-3.8125 1.828125 -9.09375 1.828125zm39.66867 0q-6.375 0 -9.390625 -3.65625q-3.0 -3.671875 -3.0 -10.71875l0 -22.140625l6.09375 0l0 21.34375q0 5.0625 1.859375 7.515625q1.875 2.453125 6.34375 2.453125q3.09375 0 5.609375 -1.578125q2.53125 -1.578125 5.46875 -5.015625l0 -24.71875l6.015625 0l0 35.640625l-4.90625 0l-0.515625 -6.234375l-0.296875 0q-2.71875 3.078125 -5.953125 5.09375q-3.21875 2.015625 -7.328125 2.015625zm49.434326 0q-2.640625 0 -5.609375 -1.28125q-2.96875 -1.28125 -5.46875 -3.546875l-0.21875 0l-0.515625 3.953125l-4.84375 0l0 -52.203125l6.015625 0l0 14.21875l-0.21875 6.890625l0.21875 0q2.421875 -2.484375 5.609375 -3.953125q3.1875 -1.46875 6.34375 -1.46875q4.84375 0 8.140625 2.234375q3.296875 2.234375 4.984375 6.3125q1.6875 4.0625 1.6875 9.5625q0 6.09375 -2.234375 10.421875q-2.234375 4.3125 -5.90625 6.59375q-3.65625 2.265625 -7.984375 2.265625zm-0.953125 -5.0625q3.078125 0 5.53125 -1.671875q2.453125 -1.6875 3.875 -4.875q1.4375 -3.203125 1.4375 -7.59375q0 -3.890625 -1.03125 -6.859375q-1.015625 -2.96875 -3.21875 -4.609375q-2.203125 -1.65625 -5.796875 -1.65625q-2.40625 0 -5.09375 1.28125q-2.671875 1.28125 -5.390625 4.0625l0 17.75q2.578125 2.265625 5.171875 3.21875q2.609375 0.953125 4.515625 0.953125zm31.231201 4.1875l0 -48.109375l29.546875 0l0 5.140625l-23.390625 0l0 16.28125l19.796875 0l0 5.125l-19.796875 0l0 21.5625l-6.15625 0zm56.246796 0.875q-4.6875 0 -8.6875 -2.1875q-4.0 -2.203125 -6.453125 -6.375q-2.453125 -4.1875 -2.453125 -10.0625q0 -6.015625 2.453125 -10.1875q2.453125 -4.1875 6.453125 -6.375q4.0 -2.203125 8.6875 -2.203125q4.6875 0 8.6875 2.203125q4.0 2.1875 6.453125 6.375q2.453125 4.171875 2.453125 10.1875q0 5.875 -2.453125 10.0625q-2.453125 4.171875 -6.453125 6.375q-4.0 2.1875 -8.6875 2.1875zm0 -4.984375q3.4375 0 6.0 -1.71875q2.578125 -1.71875 3.96875 -4.796875q1.390625 -3.09375 1.390625 -7.125q0 -4.109375 -1.390625 -7.21875q-1.390625 -3.109375 -3.96875 -4.828125q-2.5625 -1.734375 -6.0 -1.734375q-3.453125 0 -5.984375 1.734375q-2.515625 1.71875 -3.953125 4.828125q-1.4375 3.109375 -1.4375 7.21875q0 4.03125 1.4375 7.125q1.4375 3.078125 3.953125 4.796875q2.53125 1.71875 5.984375 1.71875zm43.996796 4.984375q-4.6875 0 -8.6875 -2.1875q-4.0 -2.203125 -6.453125 -6.375q-2.453125 -4.1875 -2.453125 -10.0625q0 -6.015625 2.453125 -10.1875q2.453125 -4.1875 6.453125 -6.375q4.0 -2.203125 8.6875 -2.203125q4.6875 0 8.6875 2.203125q4.0 2.1875 6.453125 6.375q2.453125 4.171875 2.453125 10.1875q0 5.875 -2.453125 10.0625q-2.453125 4.171875 -6.453125 6.375q-4.0 2.1875 -8.6875 2.1875zm0 -4.984375q3.4375 0 6.0 -1.71875q2.578125 -1.71875 3.96875 -4.796875q1.390625 -3.09375 1.390625 -7.125q0 -4.109375 -1.390625 -7.21875q-1.390625 -3.109375 -3.96875 -4.828125q-2.5625 -1.734375 -6.0 -1.734375q-3.453125 0 -5.984375 1.734375q-2.515625 1.71875 -3.953125 4.828125q-1.4375 3.109375 -1.4375 7.21875q0 4.03125 1.4375 7.125q1.4375 3.078125 3.953125 4.796875q2.53125 1.71875 5.984375 1.71875z" fill-rule="nonzero"/><path fill="#000000" d="m561.7066 798.7421l0 -2.71875l7.359375 0l0 -18.796875l-5.71875 0l0 -2.125q1.53125 -0.203125 2.6875 -0.484375q1.15625 -0.28125 2.109375 -0.609375q0.96875 -0.34375 1.765625 -0.78125l2.4375 0l0 22.796875l6.6875 0l0 2.71875l-17.328125 0z" fill-rule="nonzero"/><path fill="#000000" d="m615.3472 810.289q-7.140625 0 -10.609375 -2.125q-3.453125 -2.125 -3.453125 -7.984375q0 -2.8125 0.15625 -5.15625q0.15625 -2.359375 0.34375 -4.671875q0.1875 -2.328125 0.1875 -4.828125q0 -1.53125 -0.875 -2.859375q-0.875 -1.328125 -3.265625 -2.203125q-2.390625 -0.875 -6.875 -0.875l0 -3.953125q4.484375 0 6.875 -0.875q2.390625 -0.875 3.265625 -2.234375q0.875 -1.375 0.875 -2.8125q0 -2.359375 -0.1875 -4.75q-0.1875 -2.390625 -0.34375 -4.828125q-0.15625 -2.4375 -0.15625 -5.09375q0 -5.84375 3.453125 -7.96875q3.46875 -2.140625 10.609375 -2.140625l4.640625 0l0 3.578125l-3.953125 0q-3.875 0 -5.890625 0.71875q-2.015625 0.71875 -2.78125 2.203125q-0.75 1.484375 -0.75 4.0q0 3.265625 0.21875 6.71875q0.234375 3.453125 0.234375 7.03125q0 3.640625 -1.484375 5.625q-1.484375 1.96875 -5.4375 2.65625l0 0.3125q3.953125 0.671875 5.4375 2.65625q1.484375 1.96875 1.484375 5.625q0 3.796875 -0.234375 7.03125q-0.21875 3.21875 -0.21875 6.71875q0 2.4375 0.75 3.953125q0.765625 1.515625 2.78125 2.234375q2.015625 0.734375 5.890625 0.734375l3.953125 0l0 3.5625l-4.640625 0z" fill-rule="nonzero"/><path fill="#f4cccc" d="m29.86986 830.78217l319.19995 0l0 91.20001l-319.19995 0l0 -91.20001z" fill-rule="nonzero"/><path fill="#000000" fill-opacity="0.0" d="m29.86986 828.9582l45.59999 0l0 95.53198l-45.59999 0l0 -95.53198z" fill-rule="nonzero"/><path fill="#990000" d="m36.322983 881.02344l0 -4.71875l32.6875 0l0 4.71875l-32.6875 0z" fill-rule="nonzero"/><path fill="#010000" fill-opacity="0.0" d="m75.46985 828.9582l273.59998 0l0 95.53198l-273.59998 0l0 -95.53198z" fill-rule="nonzero"/><path fill="#000000" d="m216.67607 903.7422l0 -36.9375l5.015625 0l0.53125 4.859375l0.15625 0q1.4375 -2.578125 3.34375 -4.171875q1.90625 -1.59375 5.09375 -1.59375q2.734375 0 4.484375 1.59375q1.75 1.59375 2.5 4.78125q1.59375 -2.953125 3.53125 -4.65625q1.953125 -1.71875 5.140625 -1.71875q3.875 0 6.03125 2.921875q2.171875 2.921875 2.171875 8.46875l0 26.453125l-6.234375 0l0 -25.984375q0 -6.46875 -3.953125 -6.46875q-1.890625 0 -3.15625 1.40625q-1.25 1.40625 -2.765625 4.296875l0 26.75l-5.78125 0l0 -25.984375q0 -3.203125 -0.875 -4.828125q-0.875 -1.640625 -2.921875 -1.640625q-1.90625 0 -3.3125 1.40625q-1.390625 1.40625 -2.765625 4.296875l0 26.75l-6.234375 0zm74.09999 13.375q-7.90625 -6.234375 -12.5 -14.859375q-4.59375 -8.625 -4.59375 -19.640625q0 -11.015625 4.59375 -19.671875q4.59375 -8.671875 12.5 -14.828125l3.421875 3.1875q-7.59375 6.375 -11.25 14.0625q-3.640625 7.671875 -3.640625 17.25q0 9.578125 3.640625 17.21875q3.65625 7.625 11.25 14.09375l-3.421875 3.1875zm25.381256 0l-3.421875 -3.1875q7.609375 -6.46875 11.25 -14.09375q3.65625 -7.640625 3.65625 -17.21875q0 -9.578125 -3.65625 -17.25q-3.640625 -7.6875 -11.25 -14.0625l3.421875 -3.1875q7.984375 6.15625 12.546875 14.828125q4.5625 8.65625 4.5625 19.671875q0 11.015625 -4.5625 19.640625q-4.5625 8.625 -12.546875 14.859375z" fill-rule="nonzero"/><path fill="#000000" d="m143.86671 1009.64844q-2.5 0 -4.328125 -1.78125q-1.828125 -1.78125 -1.828125 -4.59375q0 -2.890625 1.828125 -4.671875q1.828125 -1.796875 4.328125 -1.796875q2.59375 0 4.375 1.796875q1.78125 1.78125 1.78125 4.671875q0 2.8125 -1.78125 4.59375q-1.78125 1.78125 -4.375 1.78125zm45.59999 0q-2.5 0 -4.328125 -1.78125q-1.828125 -1.78125 -1.828125 -4.59375q0 -2.890625 1.828125 -4.671875q1.828125 -1.796875 4.328125 -1.796875q2.59375 0 4.375 1.796875q1.78125 1.78125 1.78125 4.671875q0 2.8125 -1.78125 4.59375q-1.78125 1.78125 -4.375 1.78125zm45.59999 0q-2.5 0 -4.328125 -1.78125q-1.828125 -1.78125 -1.828125 -4.59375q0 -2.890625 1.828125 -4.671875q1.828125 -1.796875 4.328125 -1.796875q2.59375 0 4.375 1.796875q1.78125 1.78125 1.78125 4.671875q0 2.8125 -1.78125 4.59375q-1.78125 1.78125 -4.375 1.78125z" fill-rule="nonzero"/><path fill="#000000" d="m37.401108 1125.2891l0 -3.5625l3.875 0q3.953125 0 5.953125 -0.734375q2.015625 -0.71875 2.78125 -2.234375q0.765625 -1.515625 0.765625 -3.953125q0 -3.5 -0.234375 -6.71875q-0.234375 -3.234375 -0.234375 -7.03125q0 -3.65625 1.4375 -5.625q1.453125 -1.984375 5.40625 -2.65625l0 -0.3125q-3.953125 -0.6875 -5.40625 -2.65625q-1.4375 -1.984375 -1.4375 -5.625q0 -3.578125 0.234375 -7.03125q0.234375 -3.453125 0.234375 -6.71875q0 -2.515625 -0.765625 -4.0q-0.765625 -1.484375 -2.78125 -2.203125q-2.0 -0.71875 -5.953125 -0.71875l-3.875 0l0 -3.578125l4.625 0q7.140625 0 10.5625 2.140625q3.421875 2.125 3.421875 7.96875q0 2.65625 -0.15625 5.09375q-0.140625 2.4375 -0.34375 4.828125q-0.1875 2.390625 -0.1875 4.75q0 1.4375 0.875 2.8125q0.875 1.359375 3.265625 2.234375q2.40625 0.875 6.890625 0.875l0 3.953125q-4.484375 0 -6.890625 0.875q-2.390625 0.875 -3.265625 2.203125q-0.875 1.328125 -0.875 2.859375q0 2.5 0.1875 4.828125q0.203125 2.3125 0.34375 4.671875q0.15625 2.34375 0.15625 5.15625q0 5.859375 -3.421875 7.984375q-3.421875 2.125 -10.5625 2.125l-4.625 0z" fill-rule="nonzero"/><path fill="#000000" fill-opacity="0.0" d="m2386.6536 772.7916l0 0c0 -45.009888 -36.487793 -81.49768 -81.4978 -81.49768l-690.01245 0c-21.614502 0 -42.34375 8.586365 -57.627563 23.870117c-15.283691 15.283813 -23.870117 36.01306 -23.870117 57.627563l0 325.98108c0 45.009888 36.487793 81.49768 81.49768 81.49768l690.01245 0c45.01001 0 81.4978 -36.487793 81.4978 -81.49768z" fill-rule="evenodd"/><path stroke="#cccccc" stroke-width="1.0" stroke-linejoin="round" stroke-linecap="butt" d="m2386.6536 772.7916l0 0c0 -45.009888 -36.487793 -81.49768 -81.4978 -81.49768l-690.01245 0c-21.614502 0 -42.34375 8.586365 -57.627563 23.870117c-15.283691 15.283813 -23.870117 36.01306 -23.870117 57.627563l0 325.98108c0 45.009888 36.487793 81.49768 81.49768 81.49768l690.01245 0c45.01001 0 81.4978 -36.487793 81.4978 -81.49768z" fill-rule="evenodd"/><path fill="#351c75" d="m1588.8905 799.6171q-5.578125 0 -10.015625 -2.1875q-4.4375 -2.203125 -6.96875 -6.375q-2.53125 -4.1875 -2.53125 -10.0625q0 -6.015625 2.71875 -10.1875q2.71875 -4.1875 7.21875 -6.375q4.515625 -2.203125 9.9375 -2.203125q4.40625 0 7.59375 1.546875q3.1875 1.53125 5.390625 3.65625l-3.015625 3.890625q-2.1875 -1.90625 -4.546875 -3.0q-2.34375 -1.109375 -5.203125 -1.109375q-4.09375 0 -7.25 1.734375q-3.15625 1.71875 -4.890625 4.828125q-1.71875 3.109375 -1.71875 7.21875q0 4.03125 1.6875 7.125q1.6875 3.078125 4.796875 4.796875q3.125 1.71875 7.234375 1.71875q3.296875 0 6.046875 -1.3125q2.75 -1.328125 4.953125 -3.15625l2.71875 3.890625q-2.9375 2.640625 -6.578125 4.109375q-3.625 1.453125 -7.578125 1.453125zm48.38745 0q-5.640625 0 -8.65625 -3.25q-3.0 -3.265625 -3.0 -9.578125l0 -35.34375l-12.171875 0l0 -4.90625l18.1875 0l0 40.6875q0 3.890625 1.90625 5.65625q1.90625 1.75 5.0625 1.75q1.53125 0 3.140625 -0.390625q1.625 -0.40625 3.609375 -1.296875l1.53125 4.546875q-2.421875 0.890625 -4.546875 1.5q-2.125 0.625 -5.0625 0.625zm32.26245 0q-3.296875 0 -6.078125 -1.203125q-2.78125 -1.21875 -4.40625 -3.484375q-1.609375 -2.28125 -1.609375 -5.421875q0 -6.015625 6.015625 -9.125q6.015625 -3.125 19.796875 -4.21875q-0.078125 -2.421875 -1.0 -4.46875q-0.90625 -2.0625 -2.96875 -3.265625q-2.046875 -1.21875 -5.484375 -1.21875q-2.28125 0 -4.515625 0.625q-2.234375 0.625 -4.25 1.625q-2.015625 0.984375 -3.703125 2.0l-2.34375 -4.109375q1.75 -1.171875 4.28125 -2.375q2.53125 -1.21875 5.46875 -1.984375q2.9375 -0.765625 6.078125 -0.765625q4.921875 0 8.109375 1.84375q3.1875 1.828125 4.765625 5.09375q1.578125 3.25 1.578125 7.71875l0 21.859375l-4.921875 0l-0.5 -4.84375l-0.21875 0q-2.9375 2.34375 -6.609375 4.03125q-3.65625 1.6875 -7.484375 1.6875zm1.625 -4.828125q3.078125 0 6.078125 -1.390625q3.015625 -1.40625 6.015625 -3.890625l0 -9.390625q-7.625 0.65625 -11.984375 1.828125q-4.359375 1.171875 -6.15625 2.96875q-1.796875 1.796875 -1.796875 4.15625q0 1.96875 1.09375 3.25q1.09375 1.28125 2.890625 1.875q1.796875 0.59375 3.859375 0.59375zm47.07495 4.828125q-5.203125 0 -9.75 -1.6875q-4.546875 -1.6875 -7.78125 -3.875l2.796875 -3.96875q3.078125 2.203125 6.8125 3.53125q3.734375 1.3125 8.65625 1.3125q4.546875 0 6.78125 -1.6875q2.234375 -1.6875 2.234375 -3.890625q0 -1.015625 -0.40625 -1.890625q-0.40625 -0.890625 -1.546875 -1.6875q-1.125 -0.8125 -3.328125 -1.546875q-2.203125 -0.734375 -5.859375 -1.46875q-6.96875 -1.46875 -10.453125 -3.953125q-3.484375 -2.5 -3.484375 -6.453125q0 -4.328125 3.734375 -7.21875q3.75 -2.90625 11.078125 -2.90625q4.109375 0 7.921875 1.359375q3.8125 1.359375 6.453125 3.1875l-2.9375 3.890625q-2.421875 -1.765625 -5.5 -2.75q-3.078125 -1.0 -6.453125 -1.0q-3.078125 0 -4.875 0.703125q-1.796875 0.6875 -2.5625 1.875q-0.765625 1.171875 -0.765625 2.5625q0 2.265625 2.453125 3.546875q2.453125 1.28125 7.875 2.390625q5.9375 1.25 9.125 2.796875q3.203125 1.53125 4.40625 3.515625q1.21875 1.96875 1.21875 4.6875q0 2.9375 -1.84375 5.328125q-1.828125 2.375 -5.359375 3.84375q-3.515625 1.453125 -8.640625 1.453125zm43.996826 0q-5.203125 0 -9.75 -1.6875q-4.546875 -1.6875 -7.78125 -3.875l2.796875 -3.96875q3.078125 2.203125 6.8125 3.53125q3.734375 1.3125 8.65625 1.3125q4.546875 0 6.78125 -1.6875q2.234375 -1.6875 2.234375 -3.890625q0 -1.015625 -0.40625 -1.890625q-0.40625 -0.890625 -1.546875 -1.6875q-1.125 -0.8125 -3.328125 -1.546875q-2.203125 -0.734375 -5.859375 -1.46875q-6.96875 -1.46875 -10.453125 -3.953125q-3.484375 -2.5 -3.484375 -6.453125q0 -4.328125 3.734375 -7.21875q3.75 -2.90625 11.078125 -2.90625q4.109375 0 7.921875 1.359375q3.8125 1.359375 6.453125 3.1875l-2.9375 3.890625q-2.421875 -1.765625 -5.5 -2.75q-3.078125 -1.0 -6.453125 -1.0q-3.078125 0 -4.875 0.703125q-1.796875 0.6875 -2.5625 1.875q-0.765625 1.171875 -0.765625 2.5625q0 2.265625 2.453125 3.546875q2.453125 1.28125 7.875 2.390625q5.9375 1.25 9.125 2.796875q3.203125 1.53125 4.40625 3.515625q1.21875 1.96875 1.21875 4.6875q0 2.9375 -1.84375 5.328125q-1.828125 2.375 -5.359375 3.84375q-3.515625 1.453125 -8.640625 1.453125z" fill-rule="nonzero"/><path fill="#000000" d="m1849.8557 799.6171q-5.28125 0 -9.71875 -1.9375q-4.421875 -1.9375 -7.734375 -5.171875l3.671875 -4.25q2.71875 2.71875 6.34375 4.375q3.625 1.640625 7.734375 1.640625q4.984375 0 7.734375 -2.125q2.75 -2.125 2.75 -5.5q0 -2.578125 -1.140625 -4.109375q-1.125 -1.546875 -3.078125 -2.5625q-1.9375 -1.03125 -4.4375 -2.0625l-6.890625 -3.0q-2.421875 -1.03125 -4.8125 -2.5625q-2.375 -1.546875 -3.984375 -3.921875q-1.609375 -2.390625 -1.609375 -5.90625q0 -3.671875 2.015625 -6.5625q2.015625 -2.90625 5.609375 -4.546875q3.59375 -1.65625 8.140625 -1.65625q4.546875 0 8.359375 1.65625q3.8125 1.640625 6.453125 4.28125l-3.234375 3.96875q-2.34375 -2.125 -5.203125 -3.328125q-2.859375 -1.21875 -6.59375 -1.21875q-4.1875 0 -6.75 1.875q-2.5625 1.859375 -2.5625 5.15625q0 2.28125 1.28125 3.75q1.28125 1.453125 3.25 2.40625q1.984375 0.953125 4.046875 1.84375l6.75 2.921875q3.0 1.1875 5.421875 2.84375q2.421875 1.640625 3.8125 4.0625q1.390625 2.40625 1.390625 5.9375q0 3.8125 -2.0625 6.9375q-2.046875 3.109375 -5.859375 4.9375q-3.8125 1.828125 -9.09375 1.828125zm39.6687 0q-6.375 0 -9.390625 -3.65625q-3.0 -3.671875 -3.0 -10.71875l0 -22.140625l6.09375 0l0 21.34375q0 5.0625 1.859375 7.515625q1.875 2.453125 6.34375 2.453125q3.09375 0 5.609375 -1.578125q2.53125 -1.578125 5.46875 -5.015625l0 -24.71875l6.015625 0l0 35.640625l-4.90625 0l-0.515625 -6.234375l-0.296875 0q-2.71875 3.078125 -5.953125 5.09375q-3.21875 2.015625 -7.328125 2.015625zm49.434326 0q-2.640625 0 -5.609375 -1.28125q-2.96875 -1.28125 -5.46875 -3.546875l-0.21875 0l-0.515625 3.953125l-4.84375 0l0 -52.203125l6.015625 0l0 14.21875l-0.21875 6.890625l0.21875 0q2.421875 -2.484375 5.609375 -3.953125q3.1875 -1.46875 6.34375 -1.46875q4.84375 0 8.140625 2.234375q3.296875 2.234375 4.984375 6.3125q1.6875 4.0625 1.6875 9.5625q0 6.09375 -2.234375 10.421875q-2.234375 4.3125 -5.90625 6.59375q-3.65625 2.265625 -7.984375 2.265625zm-0.953125 -5.0625q3.078125 0 5.53125 -1.671875q2.453125 -1.6875 3.875 -4.875q1.4375 -3.203125 1.4375 -7.59375q0 -3.890625 -1.03125 -6.859375q-1.015625 -2.96875 -3.21875 -4.609375q-2.203125 -1.65625 -5.796875 -1.65625q-2.40625 0 -5.09375 1.28125q-2.671875 1.28125 -5.390625 4.0625l0 17.75q2.578125 2.265625 5.171875 3.21875q2.609375 0.953125 4.515625 0.953125zm31.231201 4.1875l0 -48.109375l29.546875 0l0 5.140625l-23.390625 0l0 16.28125l19.796875 0l0 5.125l-19.796875 0l0 21.5625l-6.15625 0zm56.246826 0.875q-4.6875 0 -8.6875 -2.1875q-4.0 -2.203125 -6.453125 -6.375q-2.453125 -4.1875 -2.453125 -10.0625q0 -6.015625 2.453125 -10.1875q2.453125 -4.1875 6.453125 -6.375q4.0 -2.203125 8.6875 -2.203125q4.6875 0 8.6875 2.203125q4.0 2.1875 6.453125 6.375q2.453125 4.171875 2.453125 10.1875q0 5.875 -2.453125 10.0625q-2.453125 4.171875 -6.453125 6.375q-4.0 2.1875 -8.6875 2.1875zm0 -4.984375q3.4375 0 6.0 -1.71875q2.578125 -1.71875 3.96875 -4.796875q1.390625 -3.09375 1.390625 -7.125q0 -4.109375 -1.390625 -7.21875q-1.390625 -3.109375 -3.96875 -4.828125q-2.5625 -1.734375 -6.0 -1.734375q-3.453125 0 -5.984375 1.734375q-2.515625 1.71875 -3.953125 4.828125q-1.4375 3.109375 -1.4375 7.21875q0 4.03125 1.4375 7.125q1.4375 3.078125 3.953125 4.796875q2.53125 1.71875 5.984375 1.71875zm43.996826 4.984375q-4.6875 0 -8.6875 -2.1875q-4.0 -2.203125 -6.453125 -6.375q-2.453125 -4.1875 -2.453125 -10.0625q0 -6.015625 2.453125 -10.1875q2.453125 -4.1875 6.453125 -6.375q4.0 -2.203125 8.6875 -2.203125q4.6875 0 8.6875 2.203125q4.0 2.1875 6.453125 6.375q2.453125 4.171875 2.453125 10.1875q0 5.875 -2.453125 10.0625q-2.453125 4.171875 -6.453125 6.375q-4.0 2.1875 -8.6875 2.1875zm0 -4.984375q3.4375 0 6.0 -1.71875q2.578125 -1.71875 3.96875 -4.796875q1.390625 -3.09375 1.390625 -7.125q0 -4.109375 -1.390625 -7.21875q-1.390625 -3.109375 -3.96875 -4.828125q-2.5625 -1.734375 -6.0 -1.734375q-3.453125 0 -5.984375 1.734375q-2.515625 1.71875 -3.953125 4.828125q-1.4375 3.109375 -1.4375 7.21875q0 4.03125 1.4375 7.125q1.4375 3.078125 3.953125 4.796875q2.53125 1.71875 5.984375 1.71875z" fill-rule="nonzero"/><path fill="#000000" d="m2094.3992 798.7421l0 -1.953125q4.3125 -3.8125 7.296875 -6.703125q2.984375 -2.90625 4.53125 -5.21875q1.5625 -2.328125 1.5625 -4.4375q0 -2.203125 -1.359375 -3.59375q-1.359375 -1.40625 -4.1875 -1.40625q-1.8125 0 -3.359375 0.875q-1.53125 0.875 -2.765625 2.203125l-1.875 -1.890625q1.71875 -1.75 3.6875 -2.8125q1.984375 -1.0625 4.703125 -1.0625q2.5625 0 4.421875 0.9375q1.859375 0.9375 2.875 2.625q1.03125 1.671875 1.03125 3.953125q0 2.40625 -1.484375 4.84375q-1.484375 2.4375 -4.140625 5.140625q-2.65625 2.703125 -6.140625 5.90625q1.203125 -0.125 2.390625 -0.1875q1.203125 -0.0625 2.375 -0.0625l8.390625 0l0 2.84375l-17.953125 0z" fill-rule="nonzero"/><path fill="#000000" d="m2148.993 810.289q-7.140625 0 -10.609375 -2.125q-3.453125 -2.125 -3.453125 -7.984375q0 -2.8125 0.15625 -5.15625q0.15625 -2.359375 0.34375 -4.671875q0.1875 -2.328125 0.1875 -4.828125q0 -1.53125 -0.875 -2.859375q-0.875 -1.328125 -3.265625 -2.203125q-2.390625 -0.875 -6.875 -0.875l0 -3.953125q4.484375 0 6.875 -0.875q2.390625 -0.875 3.265625 -2.234375q0.875 -1.375 0.875 -2.8125q0 -2.359375 -0.1875 -4.75q-0.1875 -2.390625 -0.34375 -4.828125q-0.15625 -2.4375 -0.15625 -5.09375q0 -5.84375 3.453125 -7.96875q3.46875 -2.140625 10.609375 -2.140625l4.640625 0l0 3.578125l-3.953125 0q-3.875 0 -5.890625 0.71875q-2.015625 0.71875 -2.78125 2.203125q-0.75 1.484375 -0.75 4.0q0 3.265625 0.21875 6.71875q0.234375 3.453125 0.234375 7.03125q0 3.640625 -1.484375 5.625q-1.484375 1.96875 -5.4375 2.65625l0 0.3125q3.953125 0.671875 5.4375 2.65625q1.484375 1.96875 1.484375 5.625q0 3.796875 -0.234375 7.03125q-0.21875 3.21875 -0.21875 6.71875q0 2.4375 0.75 3.953125q0.765625 1.515625 2.78125 2.234375q2.015625 0.734375 5.890625 0.734375l3.953125 0l0 3.5625l-4.640625 0z" fill-rule="nonzero"/><path fill="#f4cccc" d="m1563.5155 830.78217l319.19995 0l0 91.20001l-319.19995 0l0 -91.20001z" fill-rule="nonzero"/><path fill="#000000" fill-opacity="0.0" d="m1563.5155 828.9582l45.599976 0l0 95.53198l-45.599976 0l0 -95.53198z" fill-rule="nonzero"/><path fill="#990000" d="m1569.9686 881.02344l0 -4.71875l32.6875 0l0 4.71875l-32.6875 0z" fill-rule="nonzero"/><path fill="#010000" fill-opacity="0.0" d="m1609.1155 828.9582l273.59998 0l0 95.53198l-273.59998 0l0 -95.53198z" fill-rule="nonzero"/><path fill="#000000" d="m1750.3218 903.7422l0 -36.9375l5.015625 0l0.53125 4.859375l0.15625 0q1.4375 -2.578125 3.34375 -4.171875q1.90625 -1.59375 5.09375 -1.59375q2.734375 0 4.484375 1.59375q1.75 1.59375 2.5 4.78125q1.59375 -2.953125 3.53125 -4.65625q1.953125 -1.71875 5.140625 -1.71875q3.875 0 6.03125 2.921875q2.171875 2.921875 2.171875 8.46875l0 26.453125l-6.234375 0l0 -25.984375q0 -6.46875 -3.953125 -6.46875q-1.890625 0 -3.15625 1.40625q-1.25 1.40625 -2.765625 4.296875l0 26.75l-5.78125 0l0 -25.984375q0 -3.203125 -0.875 -4.828125q-0.875 -1.640625 -2.921875 -1.640625q-1.90625 0 -3.3125 1.40625q-1.390625 1.40625 -2.765625 4.296875l0 26.75l-6.234375 0zm74.099976 13.375q-7.90625 -6.234375 -12.5 -14.859375q-4.59375 -8.625 -4.59375 -19.640625q0 -11.015625 4.59375 -19.671875q4.59375 -8.671875 12.5 -14.828125l3.421875 3.1875q-7.59375 6.375 -11.25 14.0625q-3.640625 7.671875 -3.640625 17.25q0 9.578125 3.640625 17.21875q3.65625 7.625 11.25 14.09375l-3.421875 3.1875zm25.381226 0l-3.421875 -3.1875q7.609375 -6.46875 11.25 -14.09375q3.65625 -7.640625 3.65625 -17.21875q0 -9.578125 -3.65625 -17.25q-3.640625 -7.6875 -11.25 -14.0625l3.421875 -3.1875q7.984375 6.15625 12.546875 14.828125q4.5625 8.65625 4.5625 19.671875q0 11.015625 -4.5625 19.640625q-4.5625 8.625 -12.546875 14.859375z" fill-rule="nonzero"/><path fill="#000000" d="m1677.5123 1009.64844q-2.5 0 -4.328125 -1.78125q-1.828125 -1.78125 -1.828125 -4.59375q0 -2.890625 1.828125 -4.671875q1.828125 -1.796875 4.328125 -1.796875q2.59375 0 4.375 1.796875q1.78125 1.78125 1.78125 4.671875q0 2.8125 -1.78125 4.59375q-1.78125 1.78125 -4.375 1.78125zm45.600098 0q-2.5 0 -4.328125 -1.78125q-1.828125 -1.78125 -1.828125 -4.59375q0 -2.890625 1.828125 -4.671875q1.828125 -1.796875 4.328125 -1.796875q2.59375 0 4.375 1.796875q1.78125 1.78125 1.78125 4.671875q0 2.8125 -1.78125 4.59375q-1.78125 1.78125 -4.375 1.78125zm45.599976 0q-2.5 0 -4.328125 -1.78125q-1.828125 -1.78125 -1.828125 -4.59375q0 -2.890625 1.828125 -4.671875q1.828125 -1.796875 4.328125 -1.796875q2.59375 0 4.375 1.796875q1.78125 1.78125 1.78125 4.671875q0 2.8125 -1.78125 4.59375q-1.78125 1.78125 -4.375 1.78125z" fill-rule="nonzero"/><path fill="#000000" d="m1571.0468 1125.2891l0 -3.5625l3.875 0q3.953125 0 5.953125 -0.734375q2.015625 -0.71875 2.78125 -2.234375q0.765625 -1.515625 0.765625 -3.953125q0 -3.5 -0.234375 -6.71875q-0.234375 -3.234375 -0.234375 -7.03125q0 -3.65625 1.4375 -5.625q1.453125 -1.984375 5.40625 -2.65625l0 -0.3125q-3.953125 -0.6875 -5.40625 -2.65625q-1.4375 -1.984375 -1.4375 -5.625q0 -3.578125 0.234375 -7.03125q0.234375 -3.453125 0.234375 -6.71875q0 -2.515625 -0.765625 -4.0q-0.765625 -1.484375 -2.78125 -2.203125q-2.0 -0.71875 -5.953125 -0.71875l-3.875 0l0 -3.578125l4.625 0q7.140625 0 10.5625 2.140625q3.421875 2.125 3.421875 7.96875q0 2.65625 -0.15625 5.09375q-0.140625 2.4375 -0.34375 4.828125q-0.1875 2.390625 -0.1875 4.75q0 1.4375 0.875 2.8125q0.875 1.359375 3.265625 2.234375q2.40625 0.875 6.890625 0.875l0 3.953125q-4.484375 0 -6.890625 0.875q-2.390625 0.875 -3.265625 2.203125q-0.875 1.328125 -0.875 2.859375q0 2.5 0.1875 4.828125q0.203125 2.3125 0.34375 4.671875q0.15625 2.34375 0.15625 5.15625q0 5.859375 -3.421875 7.984375q-3.421875 2.125 -10.5625 2.125l-4.625 0z" fill-rule="nonzero"/><path fill="#000000" fill-opacity="0.0" d="m3647.3623 772.7916l0 0c0 -45.009888 -36.487793 -81.49768 -81.4978 -81.49768l-690.01245 0c-21.614502 0 -42.34375 8.586365 -57.627686 23.870117c-15.283691 15.283813 -23.870117 36.01306 -23.870117 57.627563l0 325.98108c0 45.009888 36.487793 81.49768 81.4978 81.49768l690.01245 0c45.01001 0 81.4978 -36.487793 81.4978 -81.49768z" fill-rule="evenodd"/><path stroke="#cccccc" stroke-width="1.0" stroke-linejoin="round" stroke-linecap="butt" d="m3647.3623 772.7916l0 0c0 -45.009888 -36.487793 -81.49768 -81.4978 -81.49768l-690.01245 0c-21.614502 0 -42.34375 8.586365 -57.627686 23.870117c-15.283691 15.283813 -23.870117 36.01306 -23.870117 57.627563l0 325.98108c0 45.009888 36.487793 81.49768 81.4978 81.49768l690.01245 0c45.01001 0 81.4978 -36.487793 81.4978 -81.49768z" fill-rule="evenodd"/><path fill="#351c75" d="m2849.599 799.6171q-5.578125 0 -10.015625 -2.1875q-4.4375 -2.203125 -6.96875 -6.375q-2.53125 -4.1875 -2.53125 -10.0625q0 -6.015625 2.71875 -10.1875q2.71875 -4.1875 7.21875 -6.375q4.515625 -2.203125 9.9375 -2.203125q4.40625 0 7.59375 1.546875q3.1875 1.53125 5.390625 3.65625l-3.015625 3.890625q-2.1875 -1.90625 -4.546875 -3.0q-2.34375 -1.109375 -5.203125 -1.109375q-4.09375 0 -7.25 1.734375q-3.15625 1.71875 -4.890625 4.828125q-1.71875 3.109375 -1.71875 7.21875q0 4.03125 1.6875 7.125q1.6875 3.078125 4.796875 4.796875q3.125 1.71875 7.234375 1.71875q3.296875 0 6.046875 -1.3125q2.75 -1.328125 4.953125 -3.15625l2.71875 3.890625q-2.9375 2.640625 -6.578125 4.109375q-3.625 1.453125 -7.578125 1.453125zm48.38745 0q-5.640625 0 -8.65625 -3.25q-3.0 -3.265625 -3.0 -9.578125l0 -35.34375l-12.171875 0l0 -4.90625l18.1875 0l0 40.6875q0 3.890625 1.90625 5.65625q1.90625 1.75 5.0625 1.75q1.53125 0 3.140625 -0.390625q1.625 -0.40625 3.609375 -1.296875l1.53125 4.546875q-2.421875 0.890625 -4.546875 1.5q-2.125 0.625 -5.0625 0.625zm32.26245 0q-3.296875 0 -6.078125 -1.203125q-2.78125 -1.21875 -4.40625 -3.484375q-1.609375 -2.28125 -1.609375 -5.421875q0 -6.015625 6.015625 -9.125q6.015625 -3.125 19.796875 -4.21875q-0.078125 -2.421875 -1.0 -4.46875q-0.90625 -2.0625 -2.96875 -3.265625q-2.046875 -1.21875 -5.484375 -1.21875q-2.28125 0 -4.515625 0.625q-2.234375 0.625 -4.25 1.625q-2.015625 0.984375 -3.703125 2.0l-2.34375 -4.109375q1.75 -1.171875 4.28125 -2.375q2.53125 -1.21875 5.46875 -1.984375q2.9375 -0.765625 6.078125 -0.765625q4.921875 0 8.109375 1.84375q3.1875 1.828125 4.765625 5.09375q1.578125 3.25 1.578125 7.71875l0 21.859375l-4.921875 0l-0.5 -4.84375l-0.21875 0q-2.9375 2.34375 -6.609375 4.03125q-3.65625 1.6875 -7.484375 1.6875zm1.625 -4.828125q3.078125 0 6.078125 -1.390625q3.015625 -1.40625 6.015625 -3.890625l0 -9.390625q-7.625 0.65625 -11.984375 1.828125q-4.359375 1.171875 -6.15625 2.96875q-1.796875 1.796875 -1.796875 4.15625q0 1.96875 1.09375 3.25q1.09375 1.28125 2.890625 1.875q1.796875 0.59375 3.859375 0.59375zm47.07495 4.828125q-5.203125 0 -9.75 -1.6875q-4.546875 -1.6875 -7.78125 -3.875l2.796875 -3.96875q3.078125 2.203125 6.8125 3.53125q3.734375 1.3125 8.65625 1.3125q4.546875 0 6.78125 -1.6875q2.234375 -1.6875 2.234375 -3.890625q0 -1.015625 -0.40625 -1.890625q-0.40625 -0.890625 -1.546875 -1.6875q-1.125 -0.8125 -3.328125 -1.546875q-2.203125 -0.734375 -5.859375 -1.46875q-6.96875 -1.46875 -10.453125 -3.953125q-3.484375 -2.5 -3.484375 -6.453125q0 -4.328125 3.734375 -7.21875q3.75 -2.90625 11.078125 -2.90625q4.109375 0 7.921875 1.359375q3.8125 1.359375 6.453125 3.1875l-2.9375 3.890625q-2.421875 -1.765625 -5.5 -2.75q-3.078125 -1.0 -6.453125 -1.0q-3.078125 0 -4.875 0.703125q-1.796875 0.6875 -2.5625 1.875q-0.765625 1.171875 -0.765625 2.5625q0 2.265625 2.453125 3.546875q2.453125 1.28125 7.875 2.390625q5.9375 1.25 9.125 2.796875q3.203125 1.53125 4.40625 3.515625q1.21875 1.96875 1.21875 4.6875q0 2.9375 -1.84375 5.328125q-1.828125 2.375 -5.359375 3.84375q-3.515625 1.453125 -8.640625 1.453125zm43.996826 0q-5.203125 0 -9.75 -1.6875q-4.546875 -1.6875 -7.78125 -3.875l2.796875 -3.96875q3.078125 2.203125 6.8125 3.53125q3.734375 1.3125 8.65625 1.3125q4.546875 0 6.78125 -1.6875q2.234375 -1.6875 2.234375 -3.890625q0 -1.015625 -0.40625 -1.890625q-0.40625 -0.890625 -1.546875 -1.6875q-1.125 -0.8125 -3.328125 -1.546875q-2.203125 -0.734375 -5.859375 -1.46875q-6.96875 -1.46875 -10.453125 -3.953125q-3.484375 -2.5 -3.484375 -6.453125q0 -4.328125 3.734375 -7.21875q3.75 -2.90625 11.078125 -2.90625q4.109375 0 7.921875 1.359375q3.8125 1.359375 6.453125 3.1875l-2.9375 3.890625q-2.421875 -1.765625 -5.5 -2.75q-3.078125 -1.0 -6.453125 -1.0q-3.078125 0 -4.875 0.703125q-1.796875 0.6875 -2.5625 1.875q-0.765625 1.171875 -0.765625 2.5625q0 2.265625 2.453125 3.546875q2.453125 1.28125 7.875 2.390625q5.9375 1.25 9.125 2.796875q3.203125 1.53125 4.40625 3.515625q1.21875 1.96875 1.21875 4.6875q0 2.9375 -1.84375 5.328125q-1.828125 2.375 -5.359375 3.84375q-3.515625 1.453125 -8.640625 1.453125z" fill-rule="nonzero"/><path fill="#000000" d="m3110.5645 799.6171q-5.28125 0 -9.71875 -1.9375q-4.421875 -1.9375 -7.734375 -5.171875l3.671875 -4.25q2.71875 2.71875 6.34375 4.375q3.625 1.640625 7.734375 1.640625q4.984375 0 7.734375 -2.125q2.75 -2.125 2.75 -5.5q0 -2.578125 -1.140625 -4.109375q-1.125 -1.546875 -3.078125 -2.5625q-1.9375 -1.03125 -4.4375 -2.0625l-6.890625 -3.0q-2.421875 -1.03125 -4.8125 -2.5625q-2.375 -1.546875 -3.984375 -3.921875q-1.609375 -2.390625 -1.609375 -5.90625q0 -3.671875 2.015625 -6.5625q2.015625 -2.90625 5.609375 -4.546875q3.59375 -1.65625 8.140625 -1.65625q4.546875 0 8.359375 1.65625q3.8125 1.640625 6.453125 4.28125l-3.234375 3.96875q-2.34375 -2.125 -5.203125 -3.328125q-2.859375 -1.21875 -6.59375 -1.21875q-4.1875 0 -6.75 1.875q-2.5625 1.859375 -2.5625 5.15625q0 2.28125 1.28125 3.75q1.28125 1.453125 3.25 2.40625q1.984375 0.953125 4.046875 1.84375l6.75 2.921875q3.0 1.1875 5.421875 2.84375q2.421875 1.640625 3.8125 4.0625q1.390625 2.40625 1.390625 5.9375q0 3.8125 -2.0625 6.9375q-2.046875 3.109375 -5.859375 4.9375q-3.8125 1.828125 -9.09375 1.828125zm39.6687 0q-6.375 0 -9.390625 -3.65625q-3.0 -3.671875 -3.0 -10.71875l0 -22.140625l6.09375 0l0 21.34375q0 5.0625 1.859375 7.515625q1.875 2.453125 6.34375 2.453125q3.09375 0 5.609375 -1.578125q2.53125 -1.578125 5.46875 -5.015625l0 -24.71875l6.015625 0l0 35.640625l-4.90625 0l-0.515625 -6.234375l-0.296875 0q-2.71875 3.078125 -5.953125 5.09375q-3.21875 2.015625 -7.328125 2.015625zm49.434326 0q-2.640625 0 -5.609375 -1.28125q-2.96875 -1.28125 -5.46875 -3.546875l-0.21875 0l-0.515625 3.953125l-4.84375 0l0 -52.203125l6.015625 0l0 14.21875l-0.21875 6.890625l0.21875 0q2.421875 -2.484375 5.609375 -3.953125q3.1875 -1.46875 6.34375 -1.46875q4.84375 0 8.140625 2.234375q3.296875 2.234375 4.984375 6.3125q1.6875 4.0625 1.6875 9.5625q0 6.09375 -2.234375 10.421875q-2.234375 4.3125 -5.90625 6.59375q-3.65625 2.265625 -7.984375 2.265625zm-0.953125 -5.0625q3.078125 0 5.53125 -1.671875q2.453125 -1.6875 3.875 -4.875q1.4375 -3.203125 1.4375 -7.59375q0 -3.890625 -1.03125 -6.859375q-1.015625 -2.96875 -3.21875 -4.609375q-2.203125 -1.65625 -5.796875 -1.65625q-2.40625 0 -5.09375 1.28125q-2.671875 1.28125 -5.390625 4.0625l0 17.75q2.578125 2.265625 5.171875 3.21875q2.609375 0.953125 4.515625 0.953125zm31.231201 4.1875l0 -48.109375l29.546875 0l0 5.140625l-23.390625 0l0 16.28125l19.796875 0l0 5.125l-19.796875 0l0 21.5625l-6.15625 0zm56.246826 0.875q-4.6875 0 -8.6875 -2.1875q-4.0 -2.203125 -6.453125 -6.375q-2.453125 -4.1875 -2.453125 -10.0625q0 -6.015625 2.453125 -10.1875q2.453125 -4.1875 6.453125 -6.375q4.0 -2.203125 8.6875 -2.203125q4.6875 0 8.6875 2.203125q4.0 2.1875 6.453125 6.375q2.453125 4.171875 2.453125 10.1875q0 5.875 -2.453125 10.0625q-2.453125 4.171875 -6.453125 6.375q-4.0 2.1875 -8.6875 2.1875zm0 -4.984375q3.4375 0 6.0 -1.71875q2.578125 -1.71875 3.96875 -4.796875q1.390625 -3.09375 1.390625 -7.125q0 -4.109375 -1.390625 -7.21875q-1.390625 -3.109375 -3.96875 -4.828125q-2.5625 -1.734375 -6.0 -1.734375q-3.453125 0 -5.984375 1.734375q-2.515625 1.71875 -3.953125 4.828125q-1.4375 3.109375 -1.4375 7.21875q0 4.03125 1.4375 7.125q1.4375 3.078125 3.953125 4.796875q2.53125 1.71875 5.984375 1.71875zm43.996826 4.984375q-4.6875 0 -8.6875 -2.1875q-4.0 -2.203125 -6.453125 -6.375q-2.453125 -4.1875 -2.453125 -10.0625q0 -6.015625 2.453125 -10.1875q2.453125 -4.1875 6.453125 -6.375q4.0 -2.203125 8.6875 -2.203125q4.6875 0 8.6875 2.203125q4.0 2.1875 6.453125 6.375q2.453125 4.171875 2.453125 10.1875q0 5.875 -2.453125 10.0625q-2.453125 4.171875 -6.453125 6.375q-4.0 2.1875 -8.6875 2.1875zm0 -4.984375q3.4375 0 6.0 -1.71875q2.578125 -1.71875 3.96875 -4.796875q1.390625 -3.09375 1.390625 -7.125q0 -4.109375 -1.390625 -7.21875q-1.390625 -3.109375 -3.96875 -4.828125q-2.5625 -1.734375 -6.0 -1.734375q-3.453125 0 -5.984375 1.734375q-2.515625 1.71875 -3.953125 4.828125q-1.4375 3.109375 -1.4375 7.21875q0 4.03125 1.4375 7.125q1.4375 3.078125 3.953125 4.796875q2.53125 1.71875 5.984375 1.71875z" fill-rule="nonzero"/><path fill="#000000" d="m3363.6704 799.2265q-2.203125 0 -3.921875 -0.515625q-1.71875 -0.53125 -3.03125 -1.328125q-1.296875 -0.796875 -2.25 -1.765625l1.671875 -2.15625q1.28125 1.203125 3.078125 2.125q1.8125 0.921875 4.25 0.921875q1.765625 0 3.140625 -0.578125q1.375 -0.59375 2.171875 -1.640625q0.8125 -1.0625 0.8125 -2.46875q0 -1.515625 -0.921875 -2.65625q-0.921875 -1.140625 -2.96875 -1.78125q-2.03125 -0.640625 -5.390625 -0.640625l0 -2.515625q3.03125 0 4.875 -0.640625q1.84375 -0.640625 2.65625 -1.703125q0.828125 -1.0625 0.828125 -2.421875q0 -1.875 -1.421875 -2.953125q-1.421875 -1.078125 -3.78125 -1.078125q-1.796875 0 -3.421875 0.71875q-1.625 0.71875 -2.859375 1.875l-1.765625 -2.078125q1.609375 -1.40625 3.65625 -2.296875q2.0625 -0.90625 4.515625 -0.90625q2.390625 0 4.28125 0.765625q1.90625 0.75 3.03125 2.203125q1.125 1.4375 1.125 3.515625q0 2.3125 -1.546875 3.796875q-1.53125 1.484375 -3.890625 2.28125l0 0.15625q1.671875 0.359375 3.125 1.21875q1.46875 0.859375 2.328125 2.1875q0.859375 1.3125 0.859375 3.078125q0 2.28125 -1.265625 3.90625q-1.25 1.609375 -3.328125 2.5q-2.078125 0.875 -4.640625 0.875z" fill-rule="nonzero"/><path fill="#000000" d="m3409.7017 810.289q-7.140625 0 -10.609375 -2.125q-3.453125 -2.125 -3.453125 -7.984375q0 -2.8125 0.15625 -5.15625q0.15625 -2.359375 0.34375 -4.671875q0.1875 -2.328125 0.1875 -4.828125q0 -1.53125 -0.875 -2.859375q-0.875 -1.328125 -3.265625 -2.203125q-2.390625 -0.875 -6.875 -0.875l0 -3.953125q4.484375 0 6.875 -0.875q2.390625 -0.875 3.265625 -2.234375q0.875 -1.375 0.875 -2.8125q0 -2.359375 -0.1875 -4.75q-0.1875 -2.390625 -0.34375 -4.828125q-0.15625 -2.4375 -0.15625 -5.09375q0 -5.84375 3.453125 -7.96875q3.46875 -2.140625 10.609375 -2.140625l4.640625 0l0 3.578125l-3.953125 0q-3.875 0 -5.890625 0.71875q-2.015625 0.71875 -2.78125 2.203125q-0.75 1.484375 -0.75 4.0q0 3.265625 0.21875 6.71875q0.234375 3.453125 0.234375 7.03125q0 3.640625 -1.484375 5.625q-1.484375 1.96875 -5.4375 2.65625l0 0.3125q3.953125 0.671875 5.4375 2.65625q1.484375 1.96875 1.484375 5.625q0 3.796875 -0.234375 7.03125q-0.21875 3.21875 -0.21875 6.71875q0 2.4375 0.75 3.953125q0.765625 1.515625 2.78125 2.234375q2.015625 0.734375 5.890625 0.734375l3.953125 0l0 3.5625l-4.640625 0z" fill-rule="nonzero"/><path fill="#f4cccc" d="m2824.224 830.78217l319.19995 0l0 91.20001l-319.19995 0l0 -91.20001z" fill-rule="nonzero"/><path fill="#000000" fill-opacity="0.0" d="m2824.224 828.9582l45.600098 0l0 95.53198l-45.600098 0l0 -95.53198z" fill-rule="nonzero"/><path fill="#990000" d="m2830.6772 881.02344l0 -4.71875l32.6875 0l0 4.71875l-32.6875 0z" fill-rule="nonzero"/><path fill="#010000" fill-opacity="0.0" d="m2869.8242 828.9582l273.59985 0l0 95.53198l-273.59985 0l0 -95.53198z" fill-rule="nonzero"/><path fill="#000000" d="m3011.0305 903.7422l0 -36.9375l5.015625 0l0.53125 4.859375l0.15625 0q1.4375 -2.578125 3.34375 -4.171875q1.90625 -1.59375 5.09375 -1.59375q2.734375 0 4.484375 1.59375q1.75 1.59375 2.5 4.78125q1.59375 -2.953125 3.53125 -4.65625q1.953125 -1.71875 5.140625 -1.71875q3.875 0 6.03125 2.921875q2.171875 2.921875 2.171875 8.46875l0 26.453125l-6.234375 0l0 -25.984375q0 -6.46875 -3.953125 -6.46875q-1.890625 0 -3.15625 1.40625q-1.25 1.40625 -2.765625 4.296875l0 26.75l-5.78125 0l0 -25.984375q0 -3.203125 -0.875 -4.828125q-0.875 -1.640625 -2.921875 -1.640625q-1.90625 0 -3.3125 1.40625q-1.390625 1.40625 -2.765625 4.296875l0 26.75l-6.234375 0zm74.09985 13.375q-7.90625 -6.234375 -12.5 -14.859375q-4.59375 -8.625 -4.59375 -19.640625q0 -11.015625 4.59375 -19.671875q4.59375 -8.671875 12.5 -14.828125l3.421875 3.1875q-7.59375 6.375 -11.25 14.0625q-3.640625 7.671875 -3.640625 17.25q0 9.578125 3.640625 17.21875q3.65625 7.625 11.25 14.09375l-3.421875 3.1875zm25.381348 0l-3.421875 -3.1875q7.609375 -6.46875 11.25 -14.09375q3.65625 -7.640625 3.65625 -17.21875q0 -9.578125 -3.65625 -17.25q-3.640625 -7.6875 -11.25 -14.0625l3.421875 -3.1875q7.984375 6.15625 12.546875 14.828125q4.5625 8.65625 4.5625 19.671875q0 11.015625 -4.5625 19.640625q-4.5625 8.625 -12.546875 14.859375z" fill-rule="nonzero"/><path fill="#000000" d="m2938.221 1009.64844q-2.5 0 -4.328125 -1.78125q-1.828125 -1.78125 -1.828125 -4.59375q0 -2.890625 1.828125 -4.671875q1.828125 -1.796875 4.328125 -1.796875q2.59375 0 4.375 1.796875q1.78125 1.78125 1.78125 4.671875q0 2.8125 -1.78125 4.59375q-1.78125 1.78125 -4.375 1.78125zm45.600098 0q-2.5 0 -4.328125 -1.78125q-1.828125 -1.78125 -1.828125 -4.59375q0 -2.890625 1.828125 -4.671875q1.828125 -1.796875 4.328125 -1.796875q2.59375 0 4.375 1.796875q1.78125 1.78125 1.78125 4.671875q0 2.8125 -1.78125 4.59375q-1.78125 1.78125 -4.375 1.78125zm45.600098 0q-2.5 0 -4.328125 -1.78125q-1.828125 -1.78125 -1.828125 -4.59375q0 -2.890625 1.828125 -4.671875q1.828125 -1.796875 4.328125 -1.796875q2.59375 0 4.375 1.796875q1.78125 1.78125 1.78125 4.671875q0 2.8125 -1.78125 4.59375q-1.78125 1.78125 -4.375 1.78125z" fill-rule="nonzero"/><path fill="#000000" d="m2831.7554 1125.2891l0 -3.5625l3.875 0q3.953125 0 5.953125 -0.734375q2.015625 -0.71875 2.78125 -2.234375q0.765625 -1.515625 0.765625 -3.953125q0 -3.5 -0.234375 -6.71875q-0.234375 -3.234375 -0.234375 -7.03125q0 -3.65625 1.4375 -5.625q1.453125 -1.984375 5.40625 -2.65625l0 -0.3125q-3.953125 -0.6875 -5.40625 -2.65625q-1.4375 -1.984375 -1.4375 -5.625q0 -3.578125 0.234375 -7.03125q0.234375 -3.453125 0.234375 -6.71875q0 -2.515625 -0.765625 -4.0q-0.765625 -1.484375 -2.78125 -2.203125q-2.0 -0.71875 -5.953125 -0.71875l-3.875 0l0 -3.578125l4.625 0q7.140625 0 10.5625 2.140625q3.421875 2.125 3.421875 7.96875q0 2.65625 -0.15625 5.09375q-0.140625 2.4375 -0.34375 4.828125q-0.1875 2.390625 -0.1875 4.75q0 1.4375 0.875 2.8125q0.875 1.359375 3.265625 2.234375q2.40625 0.875 6.890625 0.875l0 3.953125q-4.484375 0 -6.890625 0.875q-2.390625 0.875 -3.265625 2.203125q-0.875 1.328125 -0.875 2.859375q0 2.5 0.1875 4.828125q0.203125 2.3125 0.34375 4.671875q0.15625 2.34375 0.15625 5.15625q0 5.859375 -3.421875 7.984375q-3.421875 2.125 -10.5625 2.125l-4.625 0z" fill-rule="nonzero"/><path fill="#000000" fill-opacity="0.0" d="m360.0 889.4124c89.804016 -0.39239502 440.00043 105.88098 538.82416 -2.35437c98.82367 -108.23535 21.177185 -530.58746 54.118103 -647.05774c32.940918 -116.47026 119.60632 -43.13649 143.52759 -51.76378" fill-rule="evenodd"/><path stroke="#999999" stroke-width="8.0" stroke-linejoin="round" stroke-linecap="butt" d="m360.0 889.4124c89.804016 -0.39239502 440.00043 105.88098 538.82416 -2.35437c98.82373 -108.23529 21.177185 -530.5875 54.118103 -647.05774c16.470459 -58.235138 46.37207 -69.01924 75.14612 -66.323c7.1936035 0.67407227 14.31665 2.1906586 21.141724 4.0189667l0.3876953 0.10520935" fill-rule="evenodd"/><path fill="#999999" stroke="#999999" stroke-width="8.0" stroke-linecap="butt" d="m1046.7451 190.69931l38.309204 -5.0052795l-32.563843 -20.790375z" fill-rule="evenodd"/><path fill="#000000" fill-opacity="0.0" d="m1555.294 887.05774c-19.215698 -2.744995 -89.41162 83.92212 -115.293945 -16.469788c-25.882324 -100.39197 -33.333374 -488.23492 -40.0 -585.88196" fill-rule="evenodd"/><path stroke="#999999" stroke-width="8.0" stroke-linejoin="round" stroke-linecap="butt" d="m1555.294 887.05774c-19.215698 -2.744995 -89.41162 83.92218 -115.293945 -16.469788c-12.941284 -50.196045 -21.274658 -172.25476 -27.205933 -293.97034c-2.9656982 -60.857788 -5.3308105 -121.62982 -7.371338 -173.29034c-1.0201416 -25.83023 -1.9591064 -49.38263 -2.8515625 -69.5289l-0.052001953 -1.1584778" fill-rule="evenodd"/><path fill="#999999" stroke="#999999" stroke-width="8.0" stroke-linecap="butt" d="m1415.7147 331.9464l-15.100952 -35.56128l-11.290283 36.948242z" fill-rule="evenodd"/><path fill="#000000" fill-opacity="0.0" d="m2825.8818 882.351c-51.76465 -1.1762695 -251.37231 92.94226 -310.5879 -7.0577393c-59.215576 -100.0 132.15674 -481.17758 -44.706055 -592.94226c-176.86255 -111.76465 -847.0581 -64.70471 -1016.4697 -77.64566" fill-rule="evenodd"/><path stroke="#999999" stroke-width="8.0" stroke-linejoin="round" stroke-linecap="butt" d="m2825.8818 882.3511c-51.76465 -1.1763916 -251.37207 92.94226 -310.5879 -7.0577393c-59.215576 -100.0 132.15674 -481.17764 -44.706055 -592.94226c-88.4314 -55.88234 -300.1958 -72.05852 -511.02905 -75.881744c-105.416626 -1.9115906 -210.60034 -0.7349701 -300.0182 0.11074829c-44.70874 0.42286682 -85.47632 0.7630005 -120.36047 0.5930176c-8.721191 -0.04248047 -17.074585 -0.116882324 -25.029907 -0.22979736c-3.9776611 -0.05647278 -7.855835 -0.12258911 -11.630737 -0.19917297l-0.444458 -0.009384155" fill-rule="evenodd"/><path fill="#999999" stroke="#999999" stroke-width="8.0" stroke-linecap="butt" d="m1502.6338 193.53265l-36.830933 11.66716l35.713623 14.736923z" fill-rule="evenodd"/><path fill="#000000" fill-opacity="0.0" d="m624.0763 519.9091l308.50397 0.25195312l0 69.13385l-308.50397 -0.25195312z" fill-rule="evenodd"/><path fill="#000000" d="m671.29254 591.0852l0 -36.859436l3.625 0.0029907227l0.375 3.3128052l0.171875 1.2207031E-4q1.8125 -1.7015991 4.171875 -2.824707q2.375 -1.1230469 4.78125 -1.1210938q3.515625 0.0028686523 5.890625 1.6454468q2.375 1.6269531 3.59375 4.5810547q1.234375 2.9541626 1.234375 7.0166626q0 4.375 -1.65625 7.514221q-1.65625 3.1392822 -4.328125 4.793396q-2.65625 1.6540527 -5.796875 1.6514893q-1.765625 -0.0014648438 -3.875 -0.8781738q-2.109375 -0.892334 -3.859375 -2.4874878l-0.15625 -1.8310547E-4l0.203125 4.906433l0 8.75l-4.375 -0.003540039zm11.3125 -13.975159q2.296875 0.0018920898 4.109375 -1.2153931q1.8125 -1.2329102 2.84375 -3.5445557q1.046875 -2.3116455 1.046875 -5.5147705q0 -2.828125 -0.75 -4.9849854q-0.75 -2.1724854 -2.34375 -3.361267q-1.59375 -1.2044678 -4.21875 -1.206604q-1.75 -0.0014038086 -3.703125 0.9345093q-1.9375 0.9202881 -3.921875 2.9498901l0 12.90625q1.875 1.6577759 3.765625 2.3468628q1.890625 0.6890259 3.171875 0.6900635zm28.856201 3.7110596q-4.640625 -0.0037841797 -6.828125 -2.6618042q-2.1875 -2.673706 -2.1875 -7.798706l0 -16.109375l4.421875 0.0036621094l0 15.515625q0 3.6875 1.359375 5.4854736q1.359375 1.7823486 4.609375 1.7850342q2.25 0.0018310547 4.078125 -1.1373291q1.84375 -1.1547241 3.984375 -3.6686401l0 -17.96875l4.375 0.0036010742l0 25.921875l-3.578125 -0.0029296875l-0.375 -4.531555l-0.21875 -1.8310547E-4q-1.96875 2.232788 -4.3125 3.699585q-2.34375 1.4668579 -5.328125 1.4644165zm40.528076 0.033081055q-4.109375 -0.0033569336 -6.296875 -2.380127q-2.1875 -2.37677 -2.1875 -6.954895l0 -25.703125l-8.859375 -0.0072631836l0 -3.578125l13.234375 0.010803223l0 29.59375q0 2.828125 1.375 4.1105347q1.390625 1.2823486 3.6875 1.2842407q1.125 9.1552734E-4 2.296875 -0.2949829q1.171875 -0.29589844 2.609375 -0.93536377l1.125 3.3134155q-1.765625 0.63916016 -3.3125 1.0910645q-1.546875 0.45184326 -3.671875 0.45007324zm31.996765 0.026184082q-4.109375 -0.0033569336 -6.296814 -2.380188q-2.1875 -2.37677 -2.1875 -6.954895l0 -25.703125l-8.859375 -0.0072631836l0 -3.578125l13.234314 0.010803223l0 29.593811q0 2.828125 1.375 4.1104736q1.390625 1.2824097 3.6875 1.2842407q1.125 9.1552734E-4 2.296875 -0.2949829q1.171875 -0.29589844 2.609375 -0.93536377l1.125 3.3134155q-1.765625 0.63916016 -3.3125 1.0910645q-1.546875 0.45184326 -3.671875 0.45013428zm55.462402 0.045288086q-4.640625 -0.0037841797 -6.828125 -2.6618652q-2.1875 -2.673645 -2.1875 -7.798645l0 -16.109375l4.421875 0.0036010742l0 15.515625q0 3.6875 1.359375 5.4854736q1.359375 1.7824097 4.609375 1.7850342q2.25 0.0018310547 4.078125 -1.1372681q1.84375 -1.1547852 3.984375 -3.6686401l0 -17.96875l4.375 0.003540039l0 25.921936l-3.578125 -0.0029296875l-0.375 -4.531555l-0.21875 -1.8310547E-4q-1.96875 2.232727 -4.3125 3.699585q-2.34375 1.4668579 -5.328125 1.4644165zm23.824951 10.316345l0 -36.859436l3.625 0.0029907227l0.375 3.3128052l0.171875 1.2207031E-4q1.8125 -1.7015991 4.171875 -2.824707q2.375 -1.1230469 4.78125 -1.1210938q3.515625 0.0028686523 5.890625 1.6454468q2.375 1.6269531 3.59375 4.5810547q1.234375 2.9541626 1.234375 7.0166626q0 4.375 -1.65625 7.514221q-1.65625 3.1392822 -4.328125 4.793396q-2.65625 1.6540527 -5.796875 1.6514893q-1.765625 -0.0014648438 -3.875 -0.8781738q-2.109375 -0.892334 -3.859375 -2.4874878l-0.15625 -1.8310547E-4l0.203125 4.906433l0 8.75l-4.375 -0.003540039zm11.3125 -13.975159q2.296875 0.0018920898 4.109375 -1.2153931q1.8125 -1.2329102 2.84375 -3.5445557q1.046875 -2.3116455 1.046875 -5.5147705q0 -2.828125 -0.75 -4.9849854q-0.75 -2.1724854 -2.34375 -3.361267q-1.59375 -1.2044678 -4.21875 -1.206604q-1.75 -0.0014038086 -3.703125 0.9345093q-1.9375 0.9202881 -3.921875 2.9498901l0 12.90625q1.875 1.6577759 3.765625 2.3468628q1.890625 0.6890259 3.171875 0.6900635z" fill-rule="nonzero"/><path fill="#000000" fill-opacity="0.0" d="m1425.9583 531.1322l308.5039 0.25195312l0 69.13385l-308.5039 -0.25195312z" fill-rule="evenodd"/><path fill="#000000" d="m1473.1744 602.3083l0 -36.859375l3.625 0.0029296875l0.375 3.3128052l0.171875 1.8310547E-4q1.8125 -1.7016602 4.171875 -2.824768q2.375 -1.1230469 4.78125 -1.1210938q3.515625 0.0028686523 5.890625 1.6454468q2.375 1.6269531 3.59375 4.5810547q1.234375 2.9541626 1.234375 7.0166626q0 4.375 -1.65625 7.514282q-1.65625 3.1392822 -4.328125 4.793335q-2.65625 1.6540527 -5.796875 1.6514893q-1.765625 -0.0014038086 -3.875 -0.8781738q-2.109375 -0.892334 -3.859375 -2.4874878l-0.15625 -1.2207031E-4l0.203125 4.906372l0 8.75l-4.375 -0.003540039zm11.3125 -13.975159q2.296875 0.0018920898 4.109375 -1.2153931q1.8125 -1.2329102 2.84375 -3.5445557q1.046875 -2.3116455 1.046875 -5.5147705q0 -2.828125 -0.75 -4.9849854q-0.75 -2.1724854 -2.34375 -3.361267q-1.59375 -1.2044678 -4.21875 -1.206604q-1.75 -0.0014038086 -3.703125 0.9345093q-1.9375 0.9202881 -3.921875 2.9498901l0 12.90625q1.875 1.6577759 3.765625 2.3468628q1.890625 0.6890259 3.171875 0.6900635zm28.856201 3.7110596q-4.640625 -0.0037841797 -6.828125 -2.6618042q-2.1875 -2.673645 -2.1875 -7.798645l0 -16.109375l4.421875 0.0036010742l0 15.515625q0 3.6875 1.359375 5.4854736q1.359375 1.7823486 4.609375 1.7850342q2.25 0.0018310547 4.078125 -1.1373291q1.84375 -1.1547241 3.984375 -3.668579l0 -17.968811l4.375 0.0036010742l0 25.921875l-3.578125 -0.0029296875l-0.375 -4.531555l-0.21875 -1.8310547E-4q-1.96875 2.232788 -4.3125 3.699646q-2.34375 1.4667969 -5.328125 1.4643555zm40.528076 0.03314209q-4.109375 -0.0033569336 -6.296875 -2.380188q-2.1875 -2.37677 -2.1875 -6.954895l0 -25.703125l-8.859375 -0.0072631836l0 -3.578125l13.234375 0.010803223l0 29.593811q0 2.828125 1.375 4.1104736q1.390625 1.2824097 3.6875 1.2842407q1.125 9.1552734E-4 2.296875 -0.2949829q1.171875 -0.29589844 2.609375 -0.93536377l1.125 3.3134155q-1.765625 0.6392212 -3.3125 1.0910645q-1.546875 0.45184326 -3.671875 0.45013428zm31.996826 0.026123047q-4.109375 -0.0033569336 -6.296875 -2.380127q-2.1875 -2.376831 -2.1875 -6.954956l0 -25.703125l-8.859375 -0.0072021484l0 -3.578125l13.234375 0.010803223l0 29.59375q0 2.828125 1.375 4.1104736q1.390625 1.2824097 3.6875 1.2843018q1.125 9.1552734E-4 2.296875 -0.29504395q1.171875 -0.29589844 2.609375 -0.93536377l1.125 3.3134155q-1.765625 0.6392212 -3.3125 1.0910645q-1.546875 0.45184326 -3.671875 0.45013428zm55.462402 0.045288086q-4.640625 -0.0037841797 -6.828125 -2.6618042q-2.1875 -2.673706 -2.1875 -7.798706l0 -16.109375l4.421875 0.0036010742l0 15.515625q0 3.687561 1.359375 5.4855347q1.359375 1.7823486 4.609375 1.7849731q2.25 0.0018920898 4.078125 -1.1372681q1.84375 -1.1547241 3.984253 -3.6686401l0 -17.96875l4.375 0.0036010742l0 25.921875l-3.578125 -0.0029296875l-0.375 -4.531555l-0.21875 -1.8310547E-4q-1.9686279 2.232788 -4.312378 3.699585q-2.34375 1.4668579 -5.328125 1.4644165zm23.82483 10.316345l0 -36.859375l3.625 0.0029296875l0.375 3.3128052l0.171875 1.8310547E-4q1.8125 -1.7016602 4.171875 -2.824768q2.375 -1.1230469 4.78125 -1.1210938q3.515625 0.0028686523 5.890625 1.6454468q2.375 1.6269531 3.59375 4.5810547q1.234375 2.9541626 1.234375 7.0166626q0 4.375 -1.65625 7.514282q-1.65625 3.1392822 -4.328125 4.793335q-2.65625 1.6540527 -5.796875 1.6514893q-1.765625 -0.0014038086 -3.875 -0.8781738q-2.109375 -0.892334 -3.859375 -2.4874878l-0.15625 -1.2207031E-4l0.203125 4.906372l0 8.75l-4.375 -0.003540039zm11.3125 -13.975159q2.296875 0.0018920898 4.109375 -1.2153931q1.8125 -1.2329102 2.84375 -3.5445557q1.046875 -2.3116455 1.046875 -5.5147705q0 -2.828125 -0.75 -4.9849854q-0.75 -2.1724854 -2.34375 -3.361267q-1.59375 -1.2044678 -4.21875 -1.206604q-1.75 -0.0014038086 -3.703125 0.9345093q-1.9375 0.9202881 -3.921875 2.9498901l0 12.90625q1.875 1.6577759 3.765625 2.3468628q1.890625 0.6890259 3.171875 0.6900635z" fill-rule="nonzero"/><path fill="#000000" fill-opacity="0.0" d="m2576.0764 531.13086l308.5039 0.25201416l0 69.13385l-308.5039 -0.25195312z" fill-rule="evenodd"/><path fill="#000000" d="m2623.2925 602.30695l0 -36.859375l3.625 0.0029907227l0.375 3.3128052l0.171875 1.2207031E-4q1.8125 -1.7016602 4.171875 -2.824707q2.375 -1.1230469 4.78125 -1.1210938q3.515625 0.0028686523 5.890625 1.6454468q2.375 1.6268921 3.59375 4.5810547q1.234375 2.9541016 1.234375 7.0166016q0 4.375 -1.65625 7.514282q-1.65625 3.1392822 -4.328125 4.793335q-2.65625 1.6541138 -5.796875 1.6515503q-1.765625 -0.0014648438 -3.875 -0.8781738q-2.109375 -0.892334 -3.859375 -2.4875488l-0.15625 -1.2207031E-4l0.203125 4.906433l0 8.75l-4.375 -0.0036010742zm11.3125 -13.975098q2.296875 0.0018310547 4.109375 -1.2153931q1.8125 -1.2329102 2.84375 -3.5445557q1.046875 -2.3116455 1.046875 -5.5147705q0 -2.828125 -0.75 -4.9849854q-0.75 -2.1724854 -2.34375 -3.3613281q-1.59375 -1.2044067 -4.21875 -1.206543q-1.75 -0.0014648438 -3.703125 0.93444824q-1.9375 0.9202881 -3.921875 2.9499512l0 12.90625q1.875 1.6577759 3.765625 2.3468018q1.890625 0.6890869 3.171875 0.6901245zm28.856201 3.7110596q-4.640625 -0.0037841797 -6.828125 -2.6618652q-2.1875 -2.673645 -2.1875 -7.798645l0 -16.109375l4.421875 0.0036010742l0 15.515625q0 3.6875 1.359375 5.4855347q1.359375 1.7823486 4.609375 1.7849731q2.25 0.0018310547 4.078125 -1.1372681q1.84375 -1.1547852 3.984375 -3.6686401l0 -17.96875l4.375 0.0036010742l0 25.921875l-3.578125 -0.0029296875l-0.375 -4.531555l-0.21875 -1.8310547E-4q-1.96875 2.232727 -4.3125 3.699585q-2.34375 1.4668579 -5.328125 1.4644165zm40.528076 0.033081055q-4.109375 -0.0033569336 -6.296875 -2.380127q-2.1875 -2.37677 -2.1875 -6.954895l0 -25.703186l-8.859375 -0.0072021484l0 -3.578125l13.234375 0.010803223l0 29.59375q0 2.828125 1.375 4.1105347q1.390625 1.2823486 3.6875 1.2842407q1.125 9.1552734E-4 2.296875 -0.2949829q1.171875 -0.29595947 2.609375 -0.93536377l1.125 3.3134155q-1.765625 0.63916016 -3.3125 1.0910034q-1.546875 0.4519043 -3.671875 0.45013428zm31.996826 0.026123047q-4.109375 -0.0033569336 -6.296875 -2.380127q-2.1875 -2.37677 -2.1875 -6.954895l0 -25.703125l-8.859375 -0.0072631836l0 -3.578125l13.234375 0.010803223l0 29.59375q0 2.828125 1.375 4.1105347q1.390625 1.2823486 3.6875 1.2842407q1.125 9.1552734E-4 2.296875 -0.2949829q1.171875 -0.29595947 2.609375 -0.93536377l1.125 3.3134155q-1.765625 0.63916016 -3.3125 1.0910034q-1.546875 0.4519043 -3.671875 0.45013428zm55.462402 0.04534912q-4.640625 -0.0038452148 -6.828125 -2.6618652q-2.1875 -2.673645 -2.1875 -7.798645l0 -16.109375l4.421875 0.0036010742l0 15.515625q0 3.6875 1.359375 5.4854736q1.359375 1.7823486 4.609375 1.7850342q2.25 0.0018310547 4.078125 -1.1373291q1.84375 -1.1547241 3.984375 -3.668579l0 -17.96875l4.375 0.003540039l0 25.921875l-3.578125 -0.0029296875l-0.375 -4.531555l-0.21875 -1.8310547E-4q-1.96875 2.232788 -4.3125 3.699646q-2.34375 1.4667969 -5.328125 1.4644165zm23.824951 10.316284l0 -36.859375l3.625 0.0029907227l0.375 3.3128052l0.171875 1.2207031E-4q1.8125 -1.7016602 4.171875 -2.824707q2.375 -1.1230469 4.78125 -1.1210938q3.515625 0.0028686523 5.890625 1.6454468q2.375 1.6268921 3.59375 4.5810547q1.234375 2.9541016 1.234375 7.0166016q0 4.375 -1.65625 7.514282q-1.65625 3.1392822 -4.328125 4.793335q-2.65625 1.6541138 -5.796875 1.6515503q-1.765625 -0.0014648438 -3.875 -0.8781738q-2.109375 -0.892334 -3.859375 -2.4875488l-0.15625 -1.2207031E-4l0.203125 4.906433l0 8.75l-4.375 -0.0036010742zm11.3125 -13.975098q2.296875 0.0018310547 4.109375 -1.2153931q1.8125 -1.2329102 2.84375 -3.5445557q1.046875 -2.3116455 1.046875 -5.5147705q0 -2.828125 -0.75 -4.9849854q-0.75 -2.1724854 -2.34375 -3.3613281q-1.59375 -1.2044067 -4.21875 -1.206543q-1.75 -0.0014648438 -3.703125 0.93444824q-1.9375 0.9202881 -3.921875 2.9499512l0 12.90625q1.875 1.6577759 3.765625 2.3468018q1.890625 0.6890869 3.171875 0.6901245z" fill-rule="nonzero"/></g></svg>