<svg version="1.1" viewBox="0.0 0.0 2296.0 882.8005249343832" fill="none" stroke="none" stroke-linecap="square" stroke-miterlimit="10" xmlns:xlink="http://www.w3.org/1999/xlink" xmlns="http://www.w3.org/2000/svg"><clipPath id="p.0"><path d="m0 0l2296.0 0l0 882.80054l-2296.0 0l0 -882.80054z" clip-rule="nonzero"/></clipPath><g clip-path="url(#p.0)"><path fill="#000000" fill-opacity="0.0" d="m0 0l2296.0 0l0 882.80054l-2296.0 0z" fill-rule="evenodd"/><path fill="#000000" fill-opacity="0.0" d="m554.0 96.10943l0 0c0 -50.24297 -40.72998 -90.972946 -90.97296 -90.972946l-363.88086 0l0 0c-24.127525 0 -47.266853 9.584623 -64.32759 26.64536c-17.060738 17.060736 -26.645359 40.200058 -26.645359 64.32758l0 543.09344c0 50.24298 40.729977 90.97296 90.97295 90.97296l363.88086 0c50.24298 0 90.97296 -40.72998 90.97296 -90.97296z" fill-rule="evenodd"/><path stroke="#cccccc" stroke-width="1.0" stroke-linejoin="round" stroke-linecap="butt" d="m554.0 96.10943l0 0c0 -50.24297 -40.72998 -90.972946 -90.97296 -90.972946l-363.88086 0l0 0c-24.127525 0 -47.266853 9.584623 -64.32759 26.64536c-17.060738 17.060736 -26.645359 40.200058 -26.645359 64.32758l0 543.09344c0 50.24298 40.729977 90.97296 90.97295 90.97296l363.88086 0c50.24298 0 90.97296 -40.72998 90.97296 -90.97296z" fill-rule="evenodd"/><path fill="#351c75" d="m66.1933 126.491165q-5.578129 0 -10.015629 -2.1875q-4.4375 -2.203125 -6.96875 -6.375q-2.53125 -4.1875 -2.53125 -10.0625q0 -6.015625 2.71875 -10.1875q2.71875 -4.1875 7.21875 -6.375q4.515625 -2.203125 9.937504 -2.203125q4.40625 0 7.59375 1.546875q3.1875 1.53125 5.390625 3.65625l-3.015625 3.890625q-2.1875 -1.90625 -4.546875 -3.0q-2.34375 -1.109375 -5.203125 -1.109375q-4.093754 0 -7.250004 1.734375q-3.15625 1.71875 -4.890625 4.828125q-1.71875 3.109375 -1.71875 7.21875q0 4.03125 1.6875 7.125q1.6875 3.078125 4.796875 4.796875q3.125 1.71875 7.234379 1.71875q3.296875 0 6.046875 -1.3125q2.75 -1.328125 4.953125 -3.15625l2.71875 3.890625q-2.9375 2.640625 -6.578125 4.109375q-3.625 1.453125 -7.578125 1.453125zm48.387436 0q-5.640625 0 -8.65625 -3.25q-3.0 -3.265625 -3.0 -9.578125l0 -35.34375l-12.171875 0l0 -4.90625l18.1875 0l0 40.6875q0 3.890625 1.90625 5.65625q1.90625 1.75 5.0625 1.75q1.53125 0 3.140625 -0.390625q1.625 -0.40625 3.609375 -1.296875l1.53125 4.546875q-2.421875 0.890625 -4.546875 1.5q-2.125 0.625 -5.0625 0.625zm32.262436 0q-3.296875 0 -6.078125 -1.203125q-2.78125 -1.21875 -4.40625 -3.484375q-1.609375 -2.28125 -1.609375 -5.421875q0 -6.015625 6.015625 -9.125q6.015625 -3.125 19.796875 -4.21875q-0.078125 -2.421875 -1.0 -4.46875q-0.90625 -2.0625 -2.96875 -3.265625q-2.046875 -1.21875 -5.484375 -1.21875q-2.28125 0 -4.515625 0.625q-2.234375 0.625 -4.25 1.625q-2.015625 0.984375 -3.703125 2.0l-2.34375 -4.109375q1.75 -1.171875 4.28125 -2.375q2.53125 -1.21875 5.46875 -1.984375q2.9375 -0.765625 6.078125 -0.765625q4.921875 0 8.109375 1.84375q3.1875 1.828125 4.765625 5.09375q1.578125 3.25 1.578125 7.71875l0 21.859375l-4.921875 0l-0.5 -4.84375l-0.21875 0q-2.9375 2.34375 -6.609375 4.03125q-3.65625 1.6875 -7.484375 1.6875zm1.625 -4.828125q3.078125 0 6.078125 -1.390625q3.015625 -1.40625 6.015625 -3.890625l0 -9.390625q-7.625 0.65625 -11.984375 1.828125q-4.359375 1.171875 -6.15625 2.96875q-1.796875 1.796875 -1.796875 4.15625q0 1.96875 1.09375 3.25q1.09375 1.28125 2.890625 1.875q1.796875 0.59375 3.859375 0.59375zm47.074936 4.828125q-5.203125 0 -9.75 -1.6875q-4.546875 -1.6875 -7.78125 -3.875l2.796875 -3.96875q3.078125 2.203125 6.8125 3.53125q3.734375 1.3125 8.65625 1.3125q4.546875 0 6.78125 -1.6875q2.234375 -1.6875 2.234375 -3.890625q0 -1.015625 -0.40625 -1.890625q-0.40625 -0.890625 -1.546875 -1.6875q-1.125 -0.8125 -3.328125 -1.546875q-2.203125 -0.734375 -5.859375 -1.46875q-6.96875 -1.46875 -10.453125 -3.953125q-3.484375 -2.5 -3.484375 -6.453125q0 -4.328125 3.734375 -7.21875q3.75 -2.90625 11.078125 -2.90625q4.109375 0 7.921875 1.359375q3.8125 1.359375 6.453125 3.1875l-2.9375 3.890625q-2.421875 -1.765625 -5.5 -2.75q-3.078125 -1.0 -6.453125 -1.0q-3.078125 0 -4.875 0.703125q-1.796875 0.6875 -2.5625 1.875q-0.765625 1.171875 -0.765625 2.5625q0 2.265625 2.453125 3.546875q2.453125 1.28125 7.875 2.390625q5.9375 1.25 9.125 2.796875q3.203125 1.53125 4.40625 3.515625q1.21875 1.96875 1.21875 4.6875q0 2.9375 -1.84375 5.328125q-1.828125 2.375 -5.359375 3.84375q-3.515625 1.453125 -8.640625 1.453125zm43.99681 0q-5.203125 0 -9.75 -1.6875q-4.546875 -1.6875 -7.78125 -3.875l2.796875 -3.96875q3.078125 2.203125 6.8125 3.53125q3.734375 1.3125 8.65625 1.3125q4.546875 0 6.78125 -1.6875q2.234375 -1.6875 2.234375 -3.890625q0 -1.015625 -0.40625 -1.890625q-0.40625 -0.890625 -1.546875 -1.6875q-1.125 -0.8125 -3.328125 -1.546875q-2.203125 -0.734375 -5.859375 -1.46875q-6.96875 -1.46875 -10.453125 -3.953125q-3.484375 -2.5 -3.484375 -6.453125q0 -4.328125 3.734375 -7.21875q3.75 -2.90625 11.078125 -2.90625q4.109375 0 7.921875 1.359375q3.8125 1.359375 6.453125 3.1875l-2.9375 3.890625q-2.421875 -1.765625 -5.5 -2.75q-3.078125 -1.0 -6.453125 -1.0q-3.078125 0 -4.875 0.703125q-1.796875 0.6875 -2.5625 1.875q-0.765625 1.171875 -0.765625 2.5625q0 2.265625 2.453125 3.546875q2.453125 1.28125 7.875 2.390625q5.9375 1.25 9.125 2.796875q3.203125 1.53125 4.40625 3.515625q1.21875 1.96875 1.21875 4.6875q0 2.9375 -1.84375 5.328125q-1.828125 2.375 -5.359375 3.84375q-3.515625 1.453125 -8.640625 1.453125z" fill-rule="nonzero"/><path fill="#000000" d="m314.54916 125.616165l0 -48.109375l29.546875 0l0 5.140625l-23.390625 0l0 16.28125l19.796875 0l0 5.125l-19.796875 0l0 21.5625l-6.15625 0zm56.246796 0.875q-4.6875 0 -8.6875 -2.1875q-4.0 -2.203125 -6.453125 -6.375q-2.453125 -4.1875 -2.453125 -10.0625q0 -6.015625 2.453125 -10.1875q2.453125 -4.1875 6.453125 -6.375q4.0 -2.203125 8.6875 -2.203125q4.6875 0 8.6875 2.203125q4.0 2.1875 6.453125 6.375q2.453125 4.171875 2.453125 10.1875q0 5.875 -2.453125 10.0625q-2.453125 4.171875 -6.453125 6.375q-4.0 2.1875 -8.6875 2.1875zm0 -4.984375q3.4375 0 6.0 -1.71875q2.578125 -1.71875 3.96875 -4.796875q1.390625 -3.09375 1.390625 -7.125q0 -4.109375 -1.390625 -7.21875q-1.390625 -3.109375 -3.96875 -4.828125q-2.5625 -1.734375 -6.0 -1.734375q-3.453125 0 -5.984375 1.734375q-2.515625 1.71875 -3.953125 4.828125q-1.4375 3.109375 -1.4375 7.21875q0 4.03125 1.4375 7.125q1.4375 3.078125 3.953125 4.796875q2.53125 1.71875 5.984375 1.71875zm43.996826 4.984375q-4.6875 0 -8.6875 -2.1875q-4.0 -2.203125 -6.453125 -6.375q-2.453125 -4.1875 -2.453125 -10.0625q0 -6.015625 2.453125 -10.1875q2.453125 -4.1875 6.453125 -6.375q4.0 -2.203125 8.6875 -2.203125q4.6875 0 8.6875 2.203125q4.0 2.1875 6.453125 6.375q2.453125 4.171875 2.453125 10.1875q0 5.875 -2.453125 10.0625q-2.453125 4.171875 -6.453125 6.375q-4.0 2.1875 -8.6875 2.1875zm0 -4.984375q3.4375 0 6.0 -1.71875q2.578125 -1.71875 3.96875 -4.796875q1.390625 -3.09375 1.390625 -7.125q0 -4.109375 -1.390625 -7.21875q-1.390625 -3.109375 -3.96875 -4.828125q-2.5625 -1.734375 -6.0 -1.734375q-3.453125 0 -5.984375 1.734375q-2.515625 1.71875 -3.953125 4.828125q-1.4375 3.109375 -1.4375 7.21875q0 4.03125 1.4375 7.125q1.4375 3.078125 3.953125 4.796875q2.53125 1.71875 5.984375 1.71875z" fill-rule="nonzero"/><path fill="#000000" d="m470.30524 137.16304q-7.140625 0 -10.609375 -2.125q-3.453125 -2.125 -3.453125 -7.984375q0 -2.8125 0.15625 -5.15625q0.15625 -2.359375 0.34375 -4.671875q0.1875 -2.328125 0.1875 -4.828125q0 -1.53125 -0.875 -2.859375q-0.875 -1.328125 -3.265625 -2.203125q-2.390625 -0.875 -6.875 -0.875l0 -3.953125q4.484375 0 6.875 -0.875q2.390625 -0.875 3.265625 -2.234375q0.875 -1.375 0.875 -2.8125q0 -2.359375 -0.1875 -4.75q-0.1875 -2.390625 -0.34375 -4.828125q-0.15625 -2.4375 -0.15625 -5.09375q0 -5.84375 3.453125 -7.96875q3.46875 -2.140625 10.609375 -2.140625l4.640625 0l0 3.578125l-3.953125 0q-3.875 0 -5.890625 0.71875q-2.015625 0.71875 -2.78125 2.203125q-0.75 1.484375 -0.75 4.0q0 3.265625 0.21875 6.71875q0.234375 3.453125 0.234375 7.03125q0 3.640625 -1.484375 5.625q-1.484375 1.96875 -5.4375 2.65625l0 0.3125q3.953125 0.671875 5.4375 2.65625q1.484375 1.96875 1.484375 5.625q0 3.796875 -0.234375 7.03125q-0.21875 3.21875 -0.21875 6.71875q0 2.4375 0.75 3.953125q0.765625 1.515625 2.78125 2.234375q2.015625 0.734375 5.890625 0.734375l3.953125 0l0 3.5625l-4.640625 0z" fill-rule="nonzero"/><path fill="#f4cccc" d="m40.818295 157.65617l343.19992 0l0 91.2l-343.19992 0l0 -91.2z" fill-rule="nonzero"/><path fill="#000000" fill-opacity="0.0" d="m40.818295 155.8322l45.599995 0l0 95.53197l-45.599995 0l0 -95.53197z" fill-rule="nonzero"/><path fill="#990000" d="m47.27142 207.89743l0 -4.71875l32.687504 0l0 4.71875l-32.687504 0z" fill-rule="nonzero"/><path fill="#010000" fill-opacity="0.0" d="m86.41829 155.8322l182.39995 0l0 95.53197l-182.39995 0l0 -95.53197z" fill-rule="nonzero"/><path fill="#000000" d="m227.62451 230.61618l0 -36.9375l5.015625 0l0.53125 4.859375l0.15625 0q1.4375 -2.578125 3.34375 -4.171875q1.90625 -1.59375 5.09375 -1.59375q2.734375 0 4.484375 1.59375q1.75 1.59375 2.5 4.78125q1.59375 -2.953125 3.53125 -4.65625q1.953125 -1.71875 5.140625 -1.71875q3.875 0 6.03125 2.921875q2.171875 2.921875 2.171875 8.46875l0 26.453125l-6.234375 0l0 -25.984375q0 -6.46875 -3.953125 -6.46875q-1.890625 0 -3.15625 1.40625q-1.25 1.40625 -2.765625 4.296875l0 26.75l-5.78125 0l0 -25.984375q0 -3.203125 -0.875 -4.828125q-0.875 -1.640625 -2.921875 -1.640625q-1.90625 0 -3.3125 1.40625q-1.390625 1.40625 -2.765625 4.296875l0 26.75l-6.234375 0z" fill-rule="nonzero"/><path fill="#000000" fill-opacity="0.0" d="m268.81824 191.25623l24.0 0l0 50.279953l-24.0 0l0 -50.279953z" fill-rule="nonzero"/><path fill="#000000" d="m272.69324 230.61618l0 -2.71875l7.359375 0l0 -18.796875l-5.71875 0l0 -2.125q1.53125 -0.203125 2.6875 -0.484375q1.15625 -0.28125 2.109375 -0.609375q0.96875 -0.34375 1.765625 -0.78125l2.4375 0l0 22.796875l6.6875 0l0 2.71875l-17.328125 0z" fill-rule="nonzero"/><path fill="#010000" fill-opacity="0.0" d="m292.81824 155.8322l91.19998 0l0 95.53197l-91.19998 0l0 -95.53197z" fill-rule="nonzero"/><path fill="#000000" d="m325.7245 243.99118q-7.90625 -6.234375 -12.5 -14.859375q-4.59375 -8.625 -4.59375 -19.640625q0 -11.015625 4.59375 -19.671875q4.59375 -8.671875 12.5 -14.828125l3.421875 3.1875q-7.59375 6.375 -11.25 14.0625q-3.640625 7.671875 -3.640625 17.25q0 9.578125 3.640625 17.21875q3.65625 7.625 11.25 14.09375l-3.421875 3.1875zm25.381226 0l-3.421875 -3.1875q7.609375 -6.46875 11.25 -14.09375q3.65625 -7.640625 3.65625 -17.21875q0 -9.578125 -3.65625 -17.25q-3.640625 -7.6875 -11.25 -14.0625l3.421875 -3.1875q7.984375 6.15625 12.546875 14.828125q4.5625 8.65625 4.5625 19.671875q0 11.015625 -4.5625 19.640625q-4.5625 8.625 -12.546875 14.859375z" fill-rule="nonzero"/><path fill="#f4cccc" d="m40.818295 262.6562l343.19992 0l0 91.19998l-343.19992 0l0 -91.19998z" fill-rule="nonzero"/><path fill="#000000" fill-opacity="0.0" d="m40.818295 260.8322l45.599995 0l0 95.53198l-45.599995 0l0 -95.53198z" fill-rule="nonzero"/><path fill="#990000" d="m47.27142 312.89743l0 -4.71875l32.687504 0l0 4.71875l-32.687504 0z" fill-rule="nonzero"/><path fill="#010000" fill-opacity="0.0" d="m86.41829 260.8322l136.79997 0l0 95.53198l-136.79997 0l0 -95.53198z" fill-rule="nonzero"/><path fill="#000000" fill-opacity="0.0" d="m223.21826 260.8322l45.599976 0l0 95.53198l-45.599976 0l0 -95.53198z" fill-rule="nonzero"/><path fill="#000000" d="m227.62451 335.61618l0 -36.9375l5.015625 0l0.53125 4.859375l0.15625 0q1.4375 -2.578125 3.34375 -4.171875q1.90625 -1.59375 5.09375 -1.59375q2.734375 0 4.484375 1.59375q1.75 1.59375 2.5 4.78125q1.59375 -2.953125 3.53125 -4.65625q1.953125 -1.71875 5.140625 -1.71875q3.875 0 6.03125 2.921875q2.171875 2.921875 2.171875 8.46875l0 26.453125l-6.234375 0l0 -25.984375q0 -6.46875 -3.953125 -6.46875q-1.890625 0 -3.15625 1.40625q-1.25 1.40625 -2.765625 4.296875l0 26.75l-5.78125 0l0 -25.984375q0 -3.203125 -0.875 -4.828125q-0.875 -1.640625 -2.921875 -1.640625q-1.90625 0 -3.3125 1.40625q-1.390625 1.40625 -2.765625 4.296875l0 26.75l-6.234375 0z" fill-rule="nonzero"/><path fill="#010000" fill-opacity="0.0" d="m268.81824 296.25623l24.0 0l0 50.27997l-24.0 0l0 -50.27997z" fill-rule="nonzero"/><path fill="#000000" d="m271.7401 335.61618l0 -1.953125q4.3125 -3.8125 7.296875 -6.703125q2.984375 -2.90625 4.53125 -5.21875q1.5625 -2.328125 1.5625 -4.4375q0 -2.203125 -1.359375 -3.59375q-1.359375 -1.40625 -4.1875 -1.40625q-1.8125 0 -3.359375 0.875q-1.53125 0.875 -2.765625 2.203125l-1.875 -1.890625q1.71875 -1.75 3.6875 -2.8125q1.984375 -1.0625 4.703125 -1.0625q2.5625 0 4.421875 0.9375q1.859375 0.9375 2.875 2.625q1.03125 1.671875 1.03125 3.953125q0 2.40625 -1.484375 4.84375q-1.484375 2.4375 -4.140625 5.140625q-2.65625 2.703125 -6.140625 5.90625q1.203125 -0.125 2.390625 -0.1875q1.203125 -0.0625 2.375 -0.0625l8.390625 0l0 2.84375l-17.953125 0z" fill-rule="nonzero"/><path fill="#000000" fill-opacity="0.0" d="m292.81824 260.8322l91.19998 0l0 95.53198l-91.19998 0l0 -95.53198z" fill-rule="nonzero"/><path fill="#000000" d="m325.7245 348.99118q-7.90625 -6.234375 -12.5 -14.859375q-4.59375 -8.625 -4.59375 -19.640625q0 -11.015625 4.59375 -19.671875q4.59375 -8.671875 12.5 -14.828125l3.421875 3.1875q-7.59375 6.375 -11.25 14.0625q-3.640625 7.671875 -3.640625 17.25q0 9.578125 3.640625 17.21875q3.65625 7.625 11.25 14.09375l-3.421875 3.1875zm25.381226 0l-3.421875 -3.1875q7.609375 -6.46875 11.25 -14.09375q3.65625 -7.640625 3.65625 -17.21875q0 -9.578125 -3.65625 -17.25q-3.640625 -7.6875 -11.25 -14.0625l3.421875 -3.1875q7.984375 6.15625 12.546875 14.828125q4.5625 8.65625 4.5625 19.671875q0 11.015625 -4.5625 19.640625q-4.5625 8.625 -12.546875 14.859375z" fill-rule="nonzero"/><path fill="#000000" d="m154.81516 441.52243q-2.5 0 -4.328125 -1.78125q-1.828125 -1.78125 -1.828125 -4.59375q0 -2.890625 1.828125 -4.671875q1.828125 -1.796875 4.328125 -1.796875q2.59375 0 4.375 1.796875q1.78125 1.78125 1.78125 4.671875q0 2.8125 -1.78125 4.59375q-1.78125 1.78125 -4.375 1.78125zm45.59999 0q-2.5 0 -4.328125 -1.78125q-1.828125 -1.78125 -1.828125 -4.59375q0 -2.890625 1.828125 -4.671875q1.828125 -1.796875 4.328125 -1.796875q2.59375 0 4.375 1.796875q1.78125 1.78125 1.78125 4.671875q0 2.8125 -1.78125 4.59375q-1.78125 1.78125 -4.375 1.78125zm45.59999 0q-2.5 0 -4.328125 -1.78125q-1.828125 -1.78125 -1.828125 -4.59375q0 -2.890625 1.828125 -4.671875q1.828125 -1.796875 4.328125 -1.796875q2.59375 0 4.375 1.796875q1.78125 1.78125 1.78125 4.671875q0 2.8125 -1.78125 4.59375q-1.78125 1.78125 -4.375 1.78125z" fill-rule="nonzero"/><path fill="#f4cccc" d="m40.818295 472.65622l343.19992 0l0 91.19998l-343.19992 0l0 -91.19998z" fill-rule="nonzero"/><path fill="#000000" fill-opacity="0.0" d="m40.818295 470.83224l45.599995 0l0 95.53195l-45.599995 0l0 -95.53195z" fill-rule="nonzero"/><path fill="#990000" d="m47.27142 522.89746l0 -4.71875l32.687504 0l0 4.71875l-32.687504 0z" fill-rule="nonzero"/><path fill="#010000" fill-opacity="0.0" d="m86.41829 470.83224l136.79997 0l0 95.53195l-136.79997 0l0 -95.53195z" fill-rule="nonzero"/><path fill="#000000" fill-opacity="0.0" d="m223.21826 470.83224l45.599976 0l0 95.53195l-45.599976 0l0 -95.53195z" fill-rule="nonzero"/><path fill="#000000" d="m227.62451 545.6162l0 -36.9375l5.015625 0l0.53125 4.859375l0.15625 0q1.4375 -2.578125 3.34375 -4.171875q1.90625 -1.59375 5.09375 -1.59375q2.734375 0 4.484375 1.59375q1.75 1.59375 2.5 4.78125q1.59375 -2.953125 3.53125 -4.65625q1.953125 -1.71875 5.140625 -1.71875q3.875 0 6.03125 2.921875q2.171875 2.921875 2.171875 8.46875l0 26.453125l-6.234375 0l0 -25.984375q0 -6.46875 -3.953125 -6.46875q-1.890625 0 -3.15625 1.40625q-1.25 1.40625 -2.765625 4.296875l0 26.75l-5.78125 0l0 -25.984375q0 -3.203125 -0.875 -4.828125q-0.875 -1.640625 -2.921875 -1.640625q-1.90625 0 -3.3125 1.40625q-1.390625 1.40625 -2.765625 4.296875l0 26.75l-6.234375 0z" fill-rule="nonzero"/><path fill="#010000" fill-opacity="0.0" d="m268.81824 506.25626l24.0 0l0 50.279938l-24.0 0l0 -50.279938z" fill-rule="nonzero"/><path fill="#000000" d="m281.45886 545.6162l0 -16.765625l-9.046875 0l0 -2.671875l12.328125 0l0 19.4375l-3.28125 0zm1.28125 -23.515625q-1.125 0 -1.890625 -0.703125q-0.75 -0.703125 -0.75 -1.859375q0 -1.15625 0.75 -1.859375q0.765625 -0.703125 1.890625 -0.703125q1.125 0 1.875 0.703125q0.765625 0.703125 0.765625 1.859375q0 1.15625 -0.765625 1.859375q-0.75 0.703125 -1.875 0.703125z" fill-rule="nonzero"/><path fill="#000000" fill-opacity="0.0" d="m292.81824 470.83224l91.19998 0l0 95.53195l-91.19998 0l0 -95.53195z" fill-rule="nonzero"/><path fill="#000000" d="m325.7245 558.9912q-7.90625 -6.234375 -12.5 -14.859375q-4.59375 -8.625 -4.59375 -19.640625q0 -11.015625 4.59375 -19.671875q4.59375 -8.671875 12.5 -14.828125l3.421875 3.1875q-7.59375 6.375 -11.25 14.0625q-3.640625 7.671875 -3.640625 17.25q0 9.578125 3.640625 17.21875q3.65625 7.625 11.25 14.09375l-3.421875 3.1875zm25.381226 0l-3.421875 -3.1875q7.609375 -6.46875 11.25 -14.09375q3.65625 -7.640625 3.65625 -17.21875q0 -9.578125 -3.65625 -17.25q-3.640625 -7.6875 -11.25 -14.0625l3.421875 -3.1875q7.984375 6.15625 12.546875 14.828125q4.5625 8.65625 4.5625 19.671875q0 11.015625 -4.5625 19.640625q-4.5625 8.625 -12.546875 14.859375z" fill-rule="nonzero"/><path fill="#000000" d="m48.349545 662.1631l0 -3.5625l3.875 0q3.953125 0 5.953125 -0.734375q2.015625 -0.71875 2.78125 -2.234375q0.765625 -1.515625 0.765625 -3.953125q0 -3.5 -0.234375 -6.71875q-0.234375 -3.234375 -0.234375 -7.03125q0 -3.65625 1.4375 -5.625q1.4531288 -1.984375 5.406254 -2.65625l0 -0.3125q-3.953125 -0.6875 -5.406254 -2.65625q-1.4375 -1.984375 -1.4375 -5.625q0 -3.578125 0.234375 -7.03125q0.234375 -3.453125 0.234375 -6.71875q0 -2.515625 -0.765625 -4.0q-0.765625 -1.484375 -2.78125 -2.203125q-2.0 -0.71875 -5.953125 -0.71875l-3.875 0l0 -3.578125l4.625 0q7.140625 0 10.5625 2.140625q3.4218788 2.125 3.4218788 7.96875q0 2.65625 -0.15625 5.09375q-0.140625 2.4375 -0.34375 4.828125q-0.1875 2.390625 -0.1875 4.75q0 1.4375 0.875 2.8125q0.875 1.359375 3.265625 2.234375q2.40625 0.875 6.890625 0.875l0 3.953125q-4.484375 0 -6.890625 0.875q-2.390625 0.875 -3.265625 2.203125q-0.875 1.328125 -0.875 2.859375q0 2.5 0.1875 4.828125q0.203125 2.3125 0.34375 4.671875q0.15625 2.34375 0.15625 5.15625q0 5.859375 -3.4218788 7.984375q-3.421875 2.125 -10.5625 2.125l-4.625 0z" fill-rule="nonzero"/><path fill="#000000" fill-opacity="0.0" d="m398.17584 208.0l517.8268 2.015747" fill-rule="evenodd"/><path stroke="#999999" stroke-width="8.0" stroke-linejoin="round" stroke-linecap="butt" d="m398.17584 208.0l469.8271 1.8289032" fill-rule="evenodd"/><path fill="#999999" stroke="#999999" stroke-width="8.0" stroke-linecap="butt" d="m867.95154 223.04266l36.355957 -13.072449l-36.25305 -13.355072z" fill-rule="evenodd"/><path fill="#000000" fill-opacity="0.0" d="m577.0159 128.30804l308.50397 0.25196838l0 69.133865l-308.50397 -0.25196838z" fill-rule="evenodd"/><path fill="#000000" d="m670.36804 188.5843l0 -25.921875l3.515625 0.0028686523l0.375 3.4221802l0.109375 9.1552734E-5q1.015625 -1.811676 2.34375 -2.9355927q1.328125 -1.1239014 3.578125 -1.1220703q1.921875 0.0015716553 3.140625 1.1275635q1.234375 1.1260071 1.765625 3.3608246q1.109375 -2.0772247 2.46875 -3.2792358q1.375 -1.2020111 3.609375 -1.20018q2.71875 0.0022125244 4.234375 2.0659637q1.515625 2.048111 1.515625 5.938736l0 18.5625l-4.359375 -0.0035552979l0 -18.234375q0 -4.5312653 -2.78125 -4.5335236q-1.328125 -0.001083374 -2.21875 0.9825592q-0.875 0.98365784 -1.9375 3.014038l0 18.76564l-4.046875 -0.0033111572l0 -18.234375q0 -2.25 -0.625 -3.3911438q-0.609375 -1.1411285 -2.046875 -1.1423035q-1.328125 -0.001083374 -2.328125 0.9824829q-0.984375 0.9835663 -1.9375 3.014038l0 18.76564l-4.375 -0.0035858154zm44.903076 0.6773071q-3.421875 -0.0027923584 -6.328125 -1.5989227q-2.90625 -1.6117401 -4.6875 -4.644455q-1.78125 -3.0483246 -1.78125 -7.3139496q0 -4.375 1.78125 -7.4048004q1.78125 -3.0454254 4.6875 -4.636795q2.90625 -1.6070099 6.328125 -1.6042175q3.40625 0.0027923584 6.312439 1.6145325q2.90625 1.5961304 4.6875 4.644455q1.796875 3.03273 1.796875 7.40773q0 4.265625 -1.796875 7.311035q-1.78125 3.0297852 -4.6875 4.636795q-2.906189 1.5913696 -6.312439 1.5885925zm0 -3.625q2.5 0.0020446777 4.359375 -1.2464447q1.874939 -1.2640839 2.890564 -3.497635q1.015625 -2.233551 1.015625 -5.171051q0 -2.984375 -1.015625 -5.250824q-1.015625 -2.2664642 -2.890564 -3.51799q-1.859375 -1.2671509 -4.359375 -1.2691956q-2.515625 -0.0020446777 -4.359375 1.2620697q-1.828125 1.2485046 -2.875 3.5132751q-1.03125 2.2647858 -1.03125 5.249161q0 2.9375 1.03125 5.1727295q1.046875 2.2352295 2.875 3.5023499q1.84375 1.2514954 4.359375 1.2535553zm29.653015 3.0085907l-10.9375 -25.930817l4.421875 0.003616333l5.984375 14.723648q0.796875 1.9225159 1.515625 3.844986q0.71875 1.9224548 1.40625 3.7823944l0.21875 1.8310547E-4q0.6875 -1.8588104 1.375 -3.780136q0.703125 -1.9212952 1.453125 -3.8425598l5.96875 -14.713882l4.21875 0.0034484863l-10.71875 25.913132l-4.90625 -0.0040130615zm35.934326 0.6699829q-3.890625 -0.003189087 -7.0625 -1.5995178q-3.171875 -1.611969 -5.046875 -4.67601q-1.859375 -3.0640106 -1.859375 -7.3921356q0 -4.203125 1.859375 -7.2328644q1.875 -3.0453491 4.890625 -4.667877q3.015625 -1.6381683 6.484375 -1.6353302q3.71875 0.003036499 6.359375 1.536438q2.640625 1.5177917 4.046875 4.237686q1.421875 2.7199097 1.421875 6.3917847q0 0.75 -0.0625 1.4530792q-0.046875 0.6874542 -0.140625 1.2186279l-21.921875 -0.01789856l0 -3.40625l19.296875 0.01576233l-1.109375 1.2178345q0 -4.578125 -2.109375 -6.8767242q-2.109375 -2.2985992 -5.6875 -2.3015137q-2.390625 -0.001953125 -4.453125 1.1682281q-2.046875 1.1702118 -3.28125 3.4192047q-1.21875 2.2333832 -1.21875 5.483383q0 3.359375 1.328125 5.6104584q1.34375 2.2354736 3.625 3.3935852q2.296875 1.1425018 5.171875 1.1448517q2.359375 0.0019226074 4.25 -0.66841125q1.890625 -0.6703186 3.65625 -1.7782593l1.59375 2.876297q-1.921875 1.2796936 -4.40625 2.1839142q-2.46875 0.90423584 -5.625 0.9016571z" fill-rule="nonzero"/><path fill="#000000" fill-opacity="0.0" d="m1450.1759 91.634285l0 0c0 -48.02799 -38.93445 -86.96237 -86.9624 -86.96237l-347.83905 0l0 0c-23.063843 0 -45.183105 9.162081 -61.4917 25.470688c-16.308594 16.308609 -25.470703 38.42783 -25.470703 61.49168l0 443.14612c0 48.028015 38.934387 86.9624 86.9624 86.9624l347.83905 0c48.027954 0 86.9624 -38.934387 86.9624 -86.9624z" fill-rule="evenodd"/><path stroke="#cccccc" stroke-width="1.0" stroke-linejoin="round" stroke-linecap="butt" d="m1450.1759 91.634285l0 0c0 -48.02799 -38.93445 -86.96237 -86.9624 -86.96237l-347.83905 0l0 0c-23.063843 0 -45.183105 9.162081 -61.4917 25.470688c-16.308594 16.308609 -25.470703 38.42783 -25.470703 61.49168l0 443.14612c0 48.028015 38.934387 86.9624 86.9624 86.9624l347.83905 0c48.027954 0 86.9624 -38.934387 86.9624 -86.9624z" fill-rule="evenodd"/><path fill="#351c75" d="m985.2575 124.54235q-5.578125 0 -10.015625 -2.1875q-4.4375 -2.203125 -6.96875 -6.375q-2.53125 -4.1875 -2.53125 -10.0625q0 -6.015625 2.71875 -10.1875q2.71875 -4.1875 7.21875 -6.375q4.515625 -2.203125 9.9375 -2.203125q4.40625 0 7.59375 1.546875q3.1875 1.53125 5.390625 3.65625l-3.015625 3.890625q-2.1875 -1.90625 -4.546875 -3.0q-2.34375 -1.109375 -5.203125 -1.109375q-4.09375 0 -7.25 1.734375q-3.15625 1.71875 -4.890625 4.828125q-1.71875 3.109375 -1.71875 7.21875q0 4.03125 1.6875 7.125q1.6875 3.078125 4.796875 4.796875q3.125 1.71875 7.234375 1.71875q3.296875 0 6.046875 -1.3125q2.75 -1.328125 4.953125 -3.15625l2.71875 3.890625q-2.9375 2.640625 -6.578125 4.109375q-3.625 1.453125 -7.578125 1.453125zm48.38739 0q-5.640625 0 -8.65625 -3.25q-3.0 -3.265625 -3.0 -9.578125l0 -35.34375l-12.171875 0l0 -4.90625l18.1875 0l0 40.6875q0 3.890625 1.90625 5.65625q1.90625 1.75 5.0625 1.75q1.53125 0 3.140625 -0.390625q1.625 -0.40625 3.609375 -1.296875l1.53125 4.546875q-2.421875 0.890625 -4.546875 1.5q-2.125 0.625 -5.0625 0.625zm32.26245 0q-3.296875 0 -6.078125 -1.203125q-2.78125 -1.21875 -4.40625 -3.484375q-1.609375 -2.28125 -1.609375 -5.421875q0 -6.015625 6.015625 -9.125q6.015625 -3.125 19.796875 -4.21875q-0.078125 -2.421875 -1.0 -4.46875q-0.90625 -2.0625 -2.96875 -3.265625q-2.046875 -1.21875 -5.484375 -1.21875q-2.28125 0 -4.515625 0.625q-2.234375 0.625 -4.25 1.625q-2.015625 0.984375 -3.703125 2.0l-2.34375 -4.109375q1.75 -1.171875 4.28125 -2.375q2.53125 -1.21875 5.46875 -1.984375q2.9375 -0.765625 6.078125 -0.765625q4.921875 0 8.109375 1.84375q3.1875 1.828125 4.765625 5.09375q1.578125 3.25 1.578125 7.71875l0 21.859375l-4.921875 0l-0.5 -4.84375l-0.21875 0q-2.9375 2.34375 -6.609375 4.03125q-3.65625 1.6875 -7.484375 1.6875zm1.625 -4.828125q3.078125 0 6.078125 -1.390625q3.015625 -1.40625 6.015625 -3.890625l0 -9.390625q-7.625 0.65625 -11.984375 1.828125q-4.359375 1.171875 -6.15625 2.96875q-1.796875 1.796875 -1.796875 4.15625q0 1.96875 1.09375 3.25q1.09375 1.28125 2.890625 1.875q1.796875 0.59375 3.859375 0.59375zm47.07495 4.828125q-5.203125 0 -9.75 -1.6875q-4.546875 -1.6875 -7.78125 -3.875l2.796875 -3.96875q3.078125 2.203125 6.8125 3.53125q3.734375 1.3125 8.65625 1.3125q4.546875 0 6.78125 -1.6875q2.234375 -1.6875 2.234375 -3.890625q0 -1.015625 -0.40625 -1.890625q-0.40625 -0.890625 -1.546875 -1.6875q-1.125 -0.8125 -3.328125 -1.546875q-2.203125 -0.734375 -5.859375 -1.46875q-6.96875 -1.46875 -10.453125 -3.953125q-3.484375 -2.5 -3.484375 -6.453125q0 -4.328125 3.734375 -7.21875q3.75 -2.90625 11.078125 -2.90625q4.109375 0 7.921875 1.359375q3.8125 1.359375 6.453125 3.1875l-2.9375 3.890625q-2.421875 -1.765625 -5.5 -2.75q-3.078125 -1.0 -6.453125 -1.0q-3.078125 0 -4.875 0.703125q-1.796875 0.6875 -2.5625 1.875q-0.765625 1.171875 -0.765625 2.5625q0 2.265625 2.453125 3.546875q2.453125 1.28125 7.875 2.390625q5.9375 1.25 9.125 2.796875q3.203125 1.53125 4.40625 3.515625q1.21875 1.96875 1.21875 4.6875q0 2.9375 -1.84375 5.328125q-1.828125 2.375 -5.359375 3.84375q-3.515625 1.453125 -8.640625 1.453125zm43.996826 0q-5.203125 0 -9.75 -1.6875q-4.546875 -1.6875 -7.78125 -3.875l2.796875 -3.96875q3.078125 2.203125 6.8125 3.53125q3.734375 1.3125 8.65625 1.3125q4.546875 0 6.78125 -1.6875q2.234375 -1.6875 2.234375 -3.890625q0 -1.015625 -0.40625 -1.890625q-0.40625 -0.890625 -1.546875 -1.6875q-1.125 -0.8125 -3.328125 -1.546875q-2.203125 -0.734375 -5.859375 -1.46875q-6.96875 -1.46875 -10.453125 -3.953125q-3.484375 -2.5 -3.484375 -6.453125q0 -4.328125 3.734375 -7.21875q3.75 -2.90625 11.078125 -2.90625q4.109375 0 7.921875 1.359375q3.8125 1.359375 6.453125 3.1875l-2.9375 3.890625q-2.421875 -1.765625 -5.5 -2.75q-3.078125 -1.0 -6.453125 -1.0q-3.078125 0 -4.875 0.703125q-1.796875 0.6875 -2.5625 1.875q-0.765625 1.171875 -0.765625 2.5625q0 2.265625 2.453125 3.546875q2.453125 1.28125 7.875 2.390625q5.9375 1.25 9.125 2.796875q3.203125 1.53125 4.40625 3.515625q1.21875 1.96875 1.21875 4.6875q0 2.9375 -1.84375 5.328125q-1.828125 2.375 -5.359375 3.84375q-3.515625 1.453125 -8.640625 1.453125z" fill-rule="nonzero"/><path fill="#000000" d="m1231.3947 123.66735l0 -49.859375l14.125 0q5.09375 0 8.921875 1.21875q3.84375 1.21875 6.015625 3.875q2.171875 2.65625 2.171875 7.0625q0 3.734375 -2.140625 6.734375q-2.125 3.0 -6.609375 4.140625l0 0.296875q5.46875 0.84375 8.515625 3.8125q3.046875 2.953125 3.046875 8.125q0 4.859375 -2.359375 8.140625q-2.359375 3.265625 -6.578125 4.859375q-4.21875 1.59375 -9.84375 1.59375l-15.265625 0zm6.296875 -28.875l6.765625 0q6.390625 0 9.15625 -2.046875q2.78125 -2.0625 2.78125 -6.234375q0 -4.03125 -2.9375 -5.703125q-2.921875 -1.671875 -8.6875 -1.671875l-7.078125 0l0 15.65625zm0 23.5625l8.0625 0q6.375 0 9.90625 -2.234375q3.546875 -2.25 3.546875 -7.34375q0 -4.640625 -3.46875 -6.65625q-3.453125 -2.015625 -9.984375 -2.015625l-8.0625 0l0 18.25zm50.474976 6.21875q-3.421875 0 -6.3125 -1.25q-2.890625 -1.25 -4.5625 -3.609375q-1.671875 -2.359375 -1.671875 -5.625q0 -6.234375 6.234375 -9.453125q6.234375 -3.234375 20.515625 -4.375q-0.078125 -2.515625 -1.03125 -4.640625q-0.9375 -2.125 -3.078125 -3.375q-2.125 -1.265625 -5.6875 -1.265625q-2.359375 0 -4.6875 0.65625q-2.3125 0.640625 -4.40625 1.671875q-2.078125 1.015625 -3.828125 2.09375l-2.4375 -4.265625q1.828125 -1.21875 4.4375 -2.46875q2.625 -1.25 5.671875 -2.046875q3.046875 -0.796875 6.3125 -0.796875q5.09375 0 8.390625 1.90625q3.3125 1.890625 4.9375 5.28125q1.640625 3.375 1.640625 8.015625l0 22.640625l-5.09375 0l-0.53125 -5.015625l-0.234375 0q-3.03125 2.4375 -6.84375 4.1875q-3.796875 1.734375 -7.734375 1.734375zm1.671875 -5.015625q3.1875 0 6.296875 -1.4375q3.125 -1.4375 6.234375 -4.03125l0 -9.71875q-7.90625 0.671875 -12.4375 1.890625q-4.515625 1.21875 -6.375 3.078125q-1.859375 1.859375 -1.859375 4.296875q0 2.046875 1.140625 3.390625q1.140625 1.328125 3.0 1.9375q1.859375 0.59375 4.0 0.59375zm36.318726 4.109375l0 -36.9375l5.171875 0l0.53125 8.734375l0.234375 0q2.875 -4.484375 7.125 -7.0625q4.265625 -2.578125 9.359375 -2.578125q2.046875 0 3.828125 0.34375q1.796875 0.34375 3.46875 1.171875l-1.4375 5.390625q-1.90625 -0.671875 -3.28125 -0.96875q-1.359375 -0.3125 -3.5625 -0.3125q-4.1875 0 -8.03125 2.390625q-3.828125 2.390625 -7.171875 8.171875l0 21.65625l-6.234375 0zm68.02185 11.546867q-7.140625 0 -10.609375 -2.125q-3.453125 -2.125 -3.453125 -7.9843674q0 -2.8125 0.15625 -5.15625q0.15625 -2.359375 0.34375 -4.671875q0.1875 -2.328125 0.1875 -4.828125q0 -1.53125 -0.875 -2.859375q-0.875 -1.328125 -3.265625 -2.203125q-2.390625 -0.875 -6.875 -0.875l0 -3.953125q4.484375 0 6.875 -0.875q2.390625 -0.875 3.265625 -2.234375q0.875 -1.375 0.875 -2.8125q0 -2.359375 -0.1875 -4.75q-0.1875 -2.390625 -0.34375 -4.828125q-0.15625 -2.4375 -0.15625 -5.09375q0 -5.84375 3.453125 -7.96875q3.46875 -2.140625 10.609375 -2.140625l4.640625 0l0 3.578125l-3.953125 0q-3.875 0 -5.890625 0.71875q-2.015625 0.71875 -2.78125 2.203125q-0.75 1.484375 -0.75 4.0q0 3.265625 0.21875 6.71875q0.234375 3.453125 0.234375 7.03125q0 3.640625 -1.484375 5.625q-1.484375 1.96875 -5.4375 2.65625l0 0.3125q3.953125 0.671875 5.4375 2.65625q1.484375 1.96875 1.484375 5.625q0 3.796875 -0.234375 7.03125q-0.21875 3.21875 -0.21875 6.71875q0 2.4375 0.75 3.9531174q0.765625 1.515625 2.78125 2.234375q2.015625 0.734375 5.890625 0.734375l3.953125 0l0 3.5625l-4.640625 0z" fill-rule="nonzero"/><path fill="#d9ead3" d="m959.8825 155.70735l343.1999 0l0 91.2l-343.1999 0l0 -91.2z" fill-rule="nonzero"/><path fill="#000000" fill-opacity="0.0" d="m959.8825 153.88338l45.599976 0l0 95.53195l-45.599976 0l0 -95.53195z" fill-rule="nonzero"/><path fill="#38761d" d="m980.1794 220.7611l0 -14.8125l-13.84375 0l0 -4.71875l13.84375 0l0 -14.8125l5.015625 0l0 14.8125l13.828125 0l0 4.71875l-13.828125 0l0 14.8125l-5.015625 0z" fill-rule="nonzero"/><path fill="#010000" fill-opacity="0.0" d="m1005.4825 153.88338l182.39996 0l0 95.53195l-182.39996 0l0 -95.53195z" fill-rule="nonzero"/><path fill="#000000" d="m1146.6887 228.66734l0 -36.9375l5.015625 0l0.53125 4.859375l0.15625 0q1.4375 -2.578125 3.34375 -4.171875q1.90625 -1.59375 5.09375 -1.59375q2.734375 0 4.484375 1.59375q1.75 1.59375 2.5 4.78125q1.59375 -2.953125 3.53125 -4.65625q1.953125 -1.71875 5.140625 -1.71875q3.875 0 6.03125 2.921875q2.171875 2.921875 2.171875 8.46875l0 26.453125l-6.234375 0l0 -25.984375q0 -6.46875 -3.953125 -6.46875q-1.890625 0 -3.15625 1.40625q-1.25 1.40625 -2.765625 4.296875l0 26.75l-5.78125 0l0 -25.984375q0 -3.203125 -0.875 -4.828125q-0.875 -1.640625 -2.921875 -1.640625q-1.90625 0 -3.3125 1.40625q-1.390625 1.40625 -2.765625 4.296875l0 26.75l-6.234375 0z" fill-rule="nonzero"/><path fill="#000000" fill-opacity="0.0" d="m1187.8824 189.30739l24.0 0l0 50.279953l-24.0 0l0 -50.279953z" fill-rule="nonzero"/><path fill="#000000" d="m1191.7574 228.66734l0 -2.71875l7.359375 0l0 -18.796875l-5.71875 0l0 -2.125q1.53125 -0.203125 2.6875 -0.484375q1.15625 -0.28125 2.109375 -0.609375q0.96875 -0.34375 1.765625 -0.78125l2.4375 0l0 22.796875l6.6875 0l0 2.71875l-17.328125 0z" fill-rule="nonzero"/><path fill="#010000" fill-opacity="0.0" d="m1211.8824 153.88338l91.19995 0l0 95.53195l-91.19995 0l0 -95.53195z" fill-rule="nonzero"/><path fill="#000000" d="m1244.7887 242.04234q-7.90625 -6.234375 -12.5 -14.859375q-4.59375 -8.625 -4.59375 -19.640625q0 -11.015625 4.59375 -19.671875q4.59375 -8.671875 12.5 -14.828125l3.421875 3.1875q-7.59375 6.375 -11.25 14.0625q-3.640625 7.671875 -3.640625 17.25q0 9.578125 3.640625 17.21875q3.65625 7.625 11.25 14.09375l-3.421875 3.1875zm25.381226 0l-3.421875 -3.1875q7.609375 -6.46875 11.25 -14.09375q3.65625 -7.640625 3.65625 -17.21875q0 -9.578125 -3.65625 -17.25q-3.640625 -7.6875 -11.25 -14.0625l3.421875 -3.1875q7.984375 6.15625 12.546875 14.828125q4.5625 8.65625 4.5625 19.671875q0 11.015625 -4.5625 19.640625q-4.5625 8.625 -12.546875 14.859375z" fill-rule="nonzero"/><path fill="#010000" fill-opacity="0.0" d="m1303.0824 153.88338l0 0l0 95.53195l0 0l0 -95.53195z" fill-rule="nonzero"/><path fill="#d9ead3" d="m959.8825 260.70734l343.1999 0l0 91.20001l-343.1999 0l0 -91.20001z" fill-rule="nonzero"/><path fill="#000000" fill-opacity="0.0" d="m959.8825 258.8834l45.599976 0l0 95.53195l-45.599976 0l0 -95.53195z" fill-rule="nonzero"/><path fill="#38761d" d="m980.1794 325.7611l0 -14.8125l-13.84375 0l0 -4.71875l13.84375 0l0 -14.8125l5.015625 0l0 14.8125l13.828125 0l0 4.71875l-13.828125 0l0 14.8125l-5.015625 0z" fill-rule="nonzero"/><path fill="#010000" fill-opacity="0.0" d="m1005.4825 258.8834l182.39996 0l0 95.53195l-182.39996 0l0 -95.53195z" fill-rule="nonzero"/><path fill="#000000" d="m1146.6887 333.66736l0 -36.9375l5.015625 0l0.53125 4.859375l0.15625 0q1.4375 -2.578125 3.34375 -4.171875q1.90625 -1.59375 5.09375 -1.59375q2.734375 0 4.484375 1.59375q1.75 1.59375 2.5 4.78125q1.59375 -2.953125 3.53125 -4.65625q1.953125 -1.71875 5.140625 -1.71875q3.875 0 6.03125 2.921875q2.171875 2.921875 2.171875 8.46875l0 26.453125l-6.234375 0l0 -25.984375q0 -6.46875 -3.953125 -6.46875q-1.890625 0 -3.15625 1.40625q-1.25 1.40625 -2.765625 4.296875l0 26.75l-5.78125 0l0 -25.984375q0 -3.203125 -0.875 -4.828125q-0.875 -1.640625 -2.921875 -1.640625q-1.90625 0 -3.3125 1.40625q-1.390625 1.40625 -2.765625 4.296875l0 26.75l-6.234375 0z" fill-rule="nonzero"/><path fill="#000000" fill-opacity="0.0" d="m1187.8824 294.3074l24.0 0l0 50.279938l-24.0 0l0 -50.279938z" fill-rule="nonzero"/><path fill="#000000" d="m1190.8043 333.66736l0 -1.953125q4.3125 -3.8125 7.296875 -6.703125q2.984375 -2.90625 4.53125 -5.21875q1.5625 -2.328125 1.5625 -4.4375q0 -2.203125 -1.359375 -3.59375q-1.359375 -1.40625 -4.1875 -1.40625q-1.8125 0 -3.359375 0.875q-1.53125 0.875 -2.765625 2.203125l-1.875 -1.890625q1.71875 -1.75 3.6875 -2.8125q1.984375 -1.0625 4.703125 -1.0625q2.5625 0 4.421875 0.9375q1.859375 0.9375 2.875 2.625q1.03125 1.671875 1.03125 3.953125q0 2.40625 -1.484375 4.84375q-1.484375 2.4375 -4.140625 5.140625q-2.65625 2.703125 -6.140625 5.90625q1.203125 -0.125 2.390625 -0.1875q1.203125 -0.0625 2.375 -0.0625l8.390625 0l0 2.84375l-17.953125 0z" fill-rule="nonzero"/><path fill="#010000" fill-opacity="0.0" d="m1211.8824 258.8834l91.19995 0l0 95.53195l-91.19995 0l0 -95.53195z" fill-rule="nonzero"/><path fill="#000000" d="m1244.7887 347.04236q-7.90625 -6.234375 -12.5 -14.859375q-4.59375 -8.625 -4.59375 -19.640625q0 -11.015625 4.59375 -19.671875q4.59375 -8.671875 12.5 -14.828125l3.421875 3.1875q-7.59375 6.375 -11.25 14.0625q-3.640625 7.671875 -3.640625 17.25q0 9.578125 3.640625 17.21875q3.65625 7.625 11.25 14.09375l-3.421875 3.1875zm25.381226 0l-3.421875 -3.1875q7.609375 -6.46875 11.25 -14.09375q3.65625 -7.640625 3.65625 -17.21875q0 -9.578125 -3.65625 -17.25q-3.640625 -7.6875 -11.25 -14.0625l3.421875 -3.1875q7.984375 6.15625 12.546875 14.828125q4.5625 8.65625 4.5625 19.671875q0 11.015625 -4.5625 19.640625q-4.5625 8.625 -12.546875 14.859375z" fill-rule="nonzero"/><path fill="#010000" fill-opacity="0.0" d="m1303.0824 258.8834l0 0l0 95.53195l0 0l0 -95.53195z" fill-rule="nonzero"/><path fill="#000000" d="m1119.4794 439.5736q-2.5 0 -4.328125 -1.78125q-1.828125 -1.78125 -1.828125 -4.59375q0 -2.890625 1.828125 -4.671875q1.828125 -1.796875 4.328125 -1.796875q2.59375 0 4.375 1.796875q1.78125 1.78125 1.78125 4.671875q0 2.8125 -1.78125 4.59375q-1.78125 1.78125 -4.375 1.78125zm45.599976 0q-2.5 0 -4.328125 -1.78125q-1.828125 -1.78125 -1.828125 -4.59375q0 -2.890625 1.828125 -4.671875q1.828125 -1.796875 4.328125 -1.796875q2.59375 0 4.375 1.796875q1.78125 1.78125 1.78125 4.671875q0 2.8125 -1.78125 4.59375q-1.78125 1.78125 -4.375 1.78125zm45.599976 0q-2.5 0 -4.328125 -1.78125q-1.828125 -1.78125 -1.828125 -4.59375q0 -2.890625 1.828125 -4.671875q1.828125 -1.796875 4.328125 -1.796875q2.59375 0 4.375 1.796875q1.78125 1.78125 1.78125 4.671875q0 2.8125 -1.78125 4.59375q-1.78125 1.78125 -4.375 1.78125z" fill-rule="nonzero"/><path fill="#000000" d="m967.41376 555.21423l0 -3.5625l3.875 0q3.953125 0 5.953125 -0.734375q2.015625 -0.71875 2.78125 -2.234375q0.765625 -1.515625 0.765625 -3.953125q0 -3.5 -0.234375 -6.71875q-0.234375 -3.234375 -0.234375 -7.03125q0 -3.65625 1.4375 -5.625q1.453125 -1.984375 5.40625 -2.65625l0 -0.3125q-3.953125 -0.6875 -5.40625 -2.65625q-1.4375 -1.984375 -1.4375 -5.625q0 -3.578125 0.234375 -7.03125q0.234375 -3.453125 0.234375 -6.71875q0 -2.515625 -0.765625 -4.0q-0.765625 -1.484375 -2.78125 -2.203125q-2.0 -0.71875 -5.953125 -0.71875l-3.875 0l0 -3.578125l4.625 0q7.140625 0 10.5625 2.140625q3.421875 2.125 3.421875 7.96875q0 2.65625 -0.15625 5.09375q-0.140625 2.4375 -0.34375 4.828125q-0.1875 2.390625 -0.1875 4.75q0 1.4375 0.875 2.8125q0.875 1.359375 3.265625 2.234375q2.40625 0.875 6.890625 0.875l0 3.953125q-4.484375 0 -6.890625 0.875q-2.390625 0.875 -3.265625 2.203125q-0.875 1.328125 -0.875 2.859375q0 2.5 0.1875 4.828125q0.203125 2.3125 0.34375 4.671875q0.15625 2.34375 0.15625 5.15625q0 5.859375 -3.421875 7.984375q-3.421875 2.125 -10.5625 2.125l-4.625 0z" fill-rule="nonzero"/><path fill="#000000" fill-opacity="0.0" d="m2280.0 292.4792l0 0c0 -41.12503 -33.33838 -74.46344 -74.46338 -74.46344l-448.8999 0c-19.749023 0 -38.689087 7.84523 -52.653687 21.80983c-13.9646 13.964615 -21.809814 32.90468 -21.809814 52.65361l0 297.8448c0 41.125 33.33838 74.46344 74.4635 74.46344l448.8999 0l0 0c41.125 0 74.46338 -33.33844 74.46338 -74.46344z" fill-rule="evenodd"/><path stroke="#cccccc" stroke-width="1.0" stroke-linejoin="round" stroke-linecap="butt" d="m2280.0 292.4792l0 0c0 -41.12503 -33.33838 -74.46344 -74.46338 -74.46344l-448.8999 0c-19.749023 0 -38.689087 7.84523 -52.653687 21.80983c-13.9646 13.964615 -21.809814 32.90468 -21.809814 52.65361l0 297.8448c0 41.125 33.33838 74.46344 74.4635 74.46344l448.8999 0l0 0c41.125 0 74.46338 -33.33844 74.46338 -74.46344z" fill-rule="evenodd"/><path fill="#351c75" d="m1735.3578 305.23657q-5.578125 0 -10.015625 -2.1875q-4.4375 -2.203125 -6.96875 -6.375q-2.53125 -4.1875 -2.53125 -10.0625q0 -6.015625 2.71875 -10.1875q2.71875 -4.1875 7.21875 -6.375q4.515625 -2.203125 9.9375 -2.203125q4.40625 0 7.59375 1.546875q3.1875 1.53125 5.390625 3.65625l-3.015625 3.890625q-2.1875 -1.90625 -4.546875 -3.0q-2.34375 -1.109375 -5.203125 -1.109375q-4.09375 0 -7.25 1.734375q-3.15625 1.71875 -4.890625 4.828125q-1.71875 3.109375 -1.71875 7.21875q0 4.03125 1.6875 7.125q1.6875 3.078125 4.796875 4.796875q3.125 1.71875 7.234375 1.71875q3.296875 0 6.046875 -1.3125q2.75 -1.328125 4.953125 -3.15625l2.71875 3.890625q-2.9375 2.640625 -6.578125 4.109375q-3.625 1.453125 -7.578125 1.453125zm48.38745 0q-5.640625 0 -8.65625 -3.25q-3.0 -3.265625 -3.0 -9.578125l0 -35.34375l-12.171875 0l0 -4.90625l18.1875 0l0 40.6875q0 3.890625 1.90625 5.65625q1.90625 1.75 5.0625 1.75q1.53125 0 3.140625 -0.390625q1.625 -0.40625 3.609375 -1.296875l1.53125 4.546875q-2.421875 0.890625 -4.546875 1.5q-2.125 0.625 -5.0625 0.625zm32.26245 0q-3.296875 0 -6.078125 -1.203125q-2.78125 -1.21875 -4.40625 -3.484375q-1.609375 -2.28125 -1.609375 -5.421875q0 -6.015625 6.015625 -9.125q6.015625 -3.125 19.796875 -4.21875q-0.078125 -2.421875 -1.0 -4.46875q-0.90625 -2.0625 -2.96875 -3.265625q-2.046875 -1.21875 -5.484375 -1.21875q-2.28125 0 -4.515625 0.625q-2.234375 0.625 -4.25 1.625q-2.015625 0.984375 -3.703125 2.0l-2.34375 -4.109375q1.75 -1.171875 4.28125 -2.375q2.53125 -1.21875 5.46875 -1.984375q2.9375 -0.765625 6.078125 -0.765625q4.921875 0 8.109375 1.84375q3.1875 1.828125 4.765625 5.09375q1.578125 3.25 1.578125 7.71875l0 21.859375l-4.921875 0l-0.5 -4.84375l-0.21875 0q-2.9375 2.34375 -6.609375 4.03125q-3.65625 1.6875 -7.484375 1.6875zm1.625 -4.828125q3.078125 0 6.078125 -1.390625q3.015625 -1.40625 6.015625 -3.890625l0 -9.390625q-7.625 0.65625 -11.984375 1.828125q-4.359375 1.171875 -6.15625 2.96875q-1.796875 1.796875 -1.796875 4.15625q0 1.96875 1.09375 3.25q1.09375 1.28125 2.890625 1.875q1.796875 0.59375 3.859375 0.59375zm47.07495 4.828125q-5.203125 0 -9.75 -1.6875q-4.546875 -1.6875 -7.78125 -3.875l2.796875 -3.96875q3.078125 2.203125 6.8125 3.53125q3.734375 1.3125 8.65625 1.3125q4.546875 0 6.78125 -1.6875q2.234375 -1.6875 2.234375 -3.890625q0 -1.015625 -0.40625 -1.890625q-0.40625 -0.890625 -1.546875 -1.6875q-1.125 -0.8125 -3.328125 -1.546875q-2.203125 -0.734375 -5.859375 -1.46875q-6.96875 -1.46875 -10.453125 -3.953125q-3.484375 -2.5 -3.484375 -6.453125q0 -4.328125 3.734375 -7.21875q3.75 -2.90625 11.078125 -2.90625q4.109375 0 7.921875 1.359375q3.8125 1.359375 6.453125 3.1875l-2.9375 3.890625q-2.421875 -1.765625 -5.5 -2.75q-3.078125 -1.0 -6.453125 -1.0q-3.078125 0 -4.875 0.703125q-1.796875 0.6875 -2.5625 1.875q-0.765625 1.171875 -0.765625 2.5625q0 2.265625 2.453125 3.546875q2.453125 1.28125 7.875 2.390625q5.9375 1.25 9.125 2.796875q3.203125 1.53125 4.40625 3.515625q1.21875 1.96875 1.21875 4.6875q0 2.9375 -1.84375 5.328125q-1.828125 2.375 -5.359375 3.84375q-3.515625 1.453125 -8.640625 1.453125zm43.996826 0q-5.203125 0 -9.75 -1.6875q-4.546875 -1.6875 -7.78125 -3.875l2.796875 -3.96875q3.078125 2.203125 6.8125 3.53125q3.734375 1.3125 8.65625 1.3125q4.546875 0 6.78125 -1.6875q2.234375 -1.6875 2.234375 -3.890625q0 -1.015625 -0.40625 -1.890625q-0.40625 -0.890625 -1.546875 -1.6875q-1.125 -0.8125 -3.328125 -1.546875q-2.203125 -0.734375 -5.859375 -1.46875q-6.96875 -1.46875 -10.453125 -3.953125q-3.484375 -2.5 -3.484375 -6.453125q0 -4.328125 3.734375 -7.21875q3.75 -2.90625 11.078125 -2.90625q4.109375 0 7.921875 1.359375q3.8125 1.359375 6.453125 3.1875l-2.9375 3.890625q-2.421875 -1.765625 -5.5 -2.75q-3.078125 -1.0 -6.453125 -1.0q-3.078125 0 -4.875 0.703125q-1.796875 0.6875 -2.5625 1.875q-0.765625 1.171875 -0.765625 2.5625q0 2.265625 2.453125 3.546875q2.453125 1.28125 7.875 2.390625q5.9375 1.25 9.125 2.796875q3.203125 1.53125 4.40625 3.515625q1.21875 1.96875 1.21875 4.6875q0 2.9375 -1.84375 5.328125q-1.828125 2.375 -5.359375 3.84375q-3.515625 1.453125 -8.640625 1.453125z" fill-rule="nonzero"/><path fill="#000000" d="m1981.495 304.36157l0 -49.859375l14.125 0q5.09375 0 8.921875 1.21875q3.84375 1.21875 6.015625 3.875q2.171875 2.65625 2.171875 7.0625q0 3.734375 -2.140625 6.734375q-2.125 3.0 -6.609375 4.140625l0 0.296875q5.46875 0.84375 8.515625 3.8125q3.046875 2.953125 3.046875 8.125q0 4.859375 -2.359375 8.140625q-2.359375 3.265625 -6.578125 4.859375q-4.21875 1.59375 -9.84375 1.59375l-15.265625 0zm6.296875 -28.875l6.765625 0q6.390625 0 9.15625 -2.046875q2.78125 -2.0625 2.78125 -6.234375q0 -4.03125 -2.9375 -5.703125q-2.921875 -1.671875 -8.6875 -1.671875l-7.078125 0l0 15.65625zm0 23.5625l8.0625 0q6.375 0 9.90625 -2.234375q3.546875 -2.25 3.546875 -7.34375q0 -4.640625 -3.46875 -6.65625q-3.453125 -2.015625 -9.984375 -2.015625l-8.0625 0l0 18.25zm50.474976 6.21875q-3.421875 0 -6.3125 -1.25q-2.890625 -1.25 -4.5625 -3.609375q-1.671875 -2.359375 -1.671875 -5.625q0 -6.234375 6.234375 -9.453125q6.234375 -3.234375 20.515625 -4.375q-0.078125 -2.515625 -1.03125 -4.640625q-0.9375 -2.125 -3.078125 -3.375q-2.125 -1.265625 -5.6875 -1.265625q-2.359375 0 -4.6875 0.65625q-2.3125 0.640625 -4.40625 1.671875q-2.078125 1.015625 -3.828125 2.09375l-2.4375 -4.265625q1.828125 -1.21875 4.4375 -2.46875q2.625 -1.25 5.671875 -2.046875q3.046875 -0.796875 6.3125 -0.796875q5.09375 0 8.390625 1.90625q3.3125 1.890625 4.9375 5.28125q1.640625 3.375 1.640625 8.015625l0 22.640625l-5.09375 0l-0.53125 -5.015625l-0.234375 0q-3.03125 2.4375 -6.84375 4.1875q-3.796875 1.734375 -7.734375 1.734375zm1.671875 -5.015625q3.1875 0 6.296875 -1.4375q3.125 -1.4375 6.234375 -4.03125l0 -9.71875q-7.90625 0.671875 -12.4375 1.890625q-4.515625 1.21875 -6.375 3.078125q-1.859375 1.859375 -1.859375 4.296875q0 2.046875 1.140625 3.390625q1.140625 1.328125 3.0 1.9375q1.859375 0.59375 4.0 0.59375zm30.615479 4.109375l0 -3.34375l25.3125 -28.5l-22.5 0l0 -5.09375l31.46875 0l0 3.34375l-25.390625 28.5l26.078125 0l0 5.09375l-34.96875 0zm73.7251 11.546875q-7.140625 0 -10.609375 -2.125q-3.453125 -2.125 -3.453125 -7.984375q0 -2.8125 0.15625 -5.15625q0.15625 -2.359375 0.34375 -4.671875q0.1875 -2.328125 0.1875 -4.828125q0 -1.53125 -0.875 -2.859375q-0.875 -1.328125 -3.265625 -2.203125q-2.390625 -0.875 -6.875 -0.875l0 -3.953125q4.484375 0 6.875 -0.875q2.390625 -0.875 3.265625 -2.234375q0.875 -1.375 0.875 -2.8125q0 -2.359375 -0.1875 -4.75q-0.1875 -2.390625 -0.34375 -4.828125q-0.15625 -2.4375 -0.15625 -5.09375q0 -5.84375 3.453125 -7.96875q3.46875 -2.140625 10.609375 -2.140625l4.640625 0l0 3.578125l-3.953125 0q-3.875 0 -5.890625 0.71875q-2.015625 0.71875 -2.78125 2.203125q-0.75 1.484375 -0.75 4.0q0 3.265625 0.21875 6.71875q0.234375 3.453125 0.234375 7.03125q0 3.640625 -1.484375 5.625q-1.484375 1.96875 -5.4375 2.65625l0 0.3125q3.953125 0.671875 5.4375 2.65625q1.484375 1.96875 1.484375 5.625q0 3.796875 -0.234375 7.03125q-0.21875 3.21875 -0.21875 6.71875q0 2.4375 0.75 3.953125q0.765625 1.515625 2.78125 2.234375q2.015625 0.734375 5.890625 0.734375l3.953125 0l0 3.5625l-4.640625 0z" fill-rule="nonzero"/><path fill="#d9ead3" d="m1709.9828 336.40158l343.20007 0l0 91.19998l-343.20007 0l0 -91.19998z" fill-rule="nonzero"/><path fill="#000000" fill-opacity="0.0" d="m1709.9828 334.5776l45.599976 0l0 95.53195l-45.599976 0l0 -95.53195z" fill-rule="nonzero"/><path fill="#38761d" d="m1730.2797 401.45532l0 -14.8125l-13.84375 0l0 -4.71875l13.84375 0l0 -14.8125l5.015625 0l0 14.8125l13.828125 0l0 4.71875l-13.828125 0l0 14.8125l-5.015625 0z" fill-rule="nonzero"/><path fill="#010000" fill-opacity="0.0" d="m1755.5828 334.5776l136.80005 0l0 95.53195l-136.80005 0l0 -95.53195z" fill-rule="nonzero"/><path fill="#000000" fill-opacity="0.0" d="m1892.3828 334.5776l45.599976 0l0 95.53195l-45.599976 0l0 -95.53195z" fill-rule="nonzero"/><path fill="#000000" d="m1899.4453 409.36157l0 -36.9375l5.171875 0l0.53125 6.3125l0.3125 0q2.875 -3.125 6.21875 -5.171875q3.34375 -2.046875 7.6875 -2.046875q6.53125 0 9.640625 3.796875q3.125 3.796875 3.125 11.09375l0 22.953125l-6.234375 0l0 -22.109375q0 -5.25 -1.984375 -7.796875q-1.96875 -2.546875 -6.53125 -2.546875q-3.265625 0 -5.859375 1.671875q-2.578125 1.671875 -5.84375 5.015625l0 25.765625l-6.234375 0z" fill-rule="nonzero"/><path fill="#010000" fill-opacity="0.0" d="m1937.9828 370.00162l24.0 0l0 50.279938l-24.0 0l0 -50.279938z" fill-rule="nonzero"/><path fill="#000000" d="m1950.6234 409.36157l0 -16.765625l-9.046875 0l0 -2.671875l12.328125 0l0 19.4375l-3.28125 0zm1.28125 -23.515625q-1.125 0 -1.890625 -0.703125q-0.75 -0.703125 -0.75 -1.859375q0 -1.15625 0.75 -1.859375q0.765625 -0.703125 1.890625 -0.703125q1.125 0 1.875 0.703125q0.765625 0.703125 0.765625 1.859375q0 1.15625 -0.765625 1.859375q-0.75 0.703125 -1.875 0.703125z" fill-rule="nonzero"/><path fill="#000000" fill-opacity="0.0" d="m1961.9828 334.5776l91.20007 0l0 95.53195l-91.20007 0l0 -95.53195z" fill-rule="nonzero"/><path fill="#000000" d="m1994.889 422.73657q-7.90625 -6.234375 -12.5 -14.859375q-4.59375 -8.625 -4.59375 -19.640625q0 -11.015625 4.59375 -19.671875q4.59375 -8.671875 12.5 -14.828125l3.421875 3.1875q-7.59375 6.375 -11.25 14.0625q-3.640625 7.671875 -3.640625 17.25q0 9.578125 3.640625 17.21875q3.65625 7.625 11.25 14.09375l-3.421875 3.1875zm25.381226 0l-3.421875 -3.1875q7.609375 -6.46875 11.25 -14.09375q3.65625 -7.640625 3.65625 -17.21875q0 -9.578125 -3.65625 -17.25q-3.640625 -7.6875 -11.25 -14.0625l3.421875 -3.1875q7.984375 6.15625 12.546875 14.828125q4.5625 8.65625 4.5625 19.671875q0 11.015625 -4.5625 19.640625q-4.5625 8.625 -12.546875 14.859375z" fill-rule="nonzero"/><path fill="#000000" fill-opacity="0.0" d="m2053.1829 334.5776l0 0l0 95.53195l0 0l0 -95.53195z" fill-rule="nonzero"/><path fill="#000000" d="m1826.3796 515.2678q-2.5 0 -4.328125 -1.78125q-1.828125 -1.78125 -1.828125 -4.59375q0 -2.890625 1.828125 -4.671875q1.828125 -1.796875 4.328125 -1.796875q2.59375 0 4.375 1.796875q1.78125 1.78125 1.78125 4.671875q0 2.8125 -1.78125 4.59375q-1.78125 1.78125 -4.375 1.78125zm45.600098 0q-2.5 0 -4.328125 -1.78125q-1.828125 -1.78125 -1.828125 -4.59375q0 -2.890625 1.828125 -4.671875q1.828125 -1.796875 4.328125 -1.796875q2.59375 0 4.375 1.796875q1.78125 1.78125 1.78125 4.671875q0 2.8125 -1.78125 4.59375q-1.78125 1.78125 -4.375 1.78125zm45.599976 0q-2.5 0 -4.328125 -1.78125q-1.828125 -1.78125 -1.828125 -4.59375q0 -2.890625 1.828125 -4.671875q1.828125 -1.796875 4.328125 -1.796875q2.59375 0 4.375 1.796875q1.78125 1.78125 1.78125 4.671875q0 2.8125 -1.78125 4.59375q-1.78125 1.78125 -4.375 1.78125z" fill-rule="nonzero"/><path fill="#000000" d="m1717.514 630.90845l0 -3.5625l3.875 0q3.953125 0 5.953125 -0.734375q2.015625 -0.71875 2.78125 -2.234375q0.765625 -1.515625 0.765625 -3.953125q0 -3.5 -0.234375 -6.71875q-0.234375 -3.234375 -0.234375 -7.03125q0 -3.65625 1.4375 -5.625q1.453125 -1.984375 5.40625 -2.65625l0 -0.3125q-3.953125 -0.6875 -5.40625 -2.65625q-1.4375 -1.984375 -1.4375 -5.625q0 -3.578125 0.234375 -7.03125q0.234375 -3.453125 0.234375 -6.71875q0 -2.515625 -0.765625 -4.0q-0.765625 -1.484375 -2.78125 -2.203125q-2.0 -0.71875 -5.953125 -0.71875l-3.875 0l0 -3.578125l4.625 0q7.140625 0 10.5625 2.140625q3.421875 2.125 3.421875 7.96875q0 2.65625 -0.15625 5.09375q-0.140625 2.4375 -0.34375 4.828125q-0.1875 2.390625 -0.1875 4.75q0 1.4375 0.875 2.8125q0.875 1.359375 3.265625 2.234375q2.40625 0.875 6.890625 0.875l0 3.953125q-4.484375 0 -6.890625 0.875q-2.390625 0.875 -3.265625 2.203125q-0.875 1.328125 -0.875 2.859375q0 2.5 0.1875 4.828125q0.203125 2.3125 0.34375 4.671875q0.15625 2.34375 0.15625 5.15625q0 5.859375 -3.421875 7.984375q-3.421875 2.125 -10.5625 2.125l-4.625 0z" fill-rule="nonzero"/><path fill="#000000" fill-opacity="0.0" d="m402.17584 313.99475l526.2362 -0.78741455" fill-rule="evenodd"/><path stroke="#999999" stroke-width="8.0" stroke-linejoin="round" stroke-linecap="butt" d="m402.17584 313.99475l478.23633 -0.7155762" fill-rule="evenodd"/><path fill="#999999" stroke="#999999" stroke-width="8.0" stroke-linecap="butt" d="m880.4319 326.493l36.284973 -13.268158l-36.324524 -13.159515z" fill-rule="evenodd"/><path fill="#000000" fill-opacity="0.0" d="m577.0159 238.30804l308.50397 0.25196838l0 69.133865l-308.50397 -0.25198364z" fill-rule="evenodd"/><path fill="#000000" d="m670.36804 298.58432l0 -25.921906l3.515625 0.00289917l0.375 3.4221802l0.109375 9.1552734E-5q1.015625 -1.811676 2.34375 -2.935608q1.328125 -1.1239014 3.578125 -1.1220703q1.921875 0.0015563965 3.140625 1.1275635q1.234375 1.1260071 1.765625 3.3608093q1.109375 -2.0772095 2.46875 -3.2792358q1.375 -1.2019958 3.609375 -1.2001648q2.71875 0.0022277832 4.234375 2.0659485q1.515625 2.0481262 1.515625 5.938751l0 18.5625l-4.359375 -0.0035705566l0 -18.234375q0 -4.53125 -2.78125 -4.5335083q-1.328125 -0.0010986328 -2.21875 0.98254395q-0.875 0.9836731 -1.9375 3.0140686l0 18.765625l-4.046875 -0.0032958984l0 -18.234406q0 -2.25 -0.625 -3.3911133q-0.609375 -1.1411438 -2.046875 -1.1423035q-1.328125 -0.0010986328 -2.328125 0.9824524q-0.984375 0.98358154 -1.9375 3.0140686l0 18.765625l-4.375 -0.0035705566zm44.903076 0.6772766q-3.421875 -0.0027770996 -6.328125 -1.5989075q-2.90625 -1.6117554 -4.6875 -4.6444397q-1.78125 -3.0483398 -1.78125 -7.313965q0 -4.375 1.78125 -7.4048157q1.78125 -3.0454102 4.6875 -4.63678q2.90625 -1.6069946 6.328125 -1.6042175q3.40625 0.0027770996 6.312439 1.6145325q2.90625 1.5961304 4.6875 4.64447q1.796875 3.0327148 1.796875 7.407715q0 4.265625 -1.796875 7.311035q-1.78125 3.0297852 -4.6875 4.63678q-2.906189 1.5914001 -6.312439 1.5885925zm0 -3.625q2.5 0.0020446777 4.359375 -1.2464294q1.874939 -1.2640991 2.890564 -3.4976501q1.015625 -2.2335205 1.015625 -5.1710205q0 -2.984375 -1.015625 -5.2508545q-1.015625 -2.266449 -2.890564 -3.5179749q-1.859375 -1.2671509 -4.359375 -1.2691956q-2.515625 -0.0020446777 -4.359375 1.262085q-1.828125 1.2485046 -2.875 3.5132751q-1.03125 2.2647705 -1.03125 5.2491455q0 2.9375 1.03125 5.1727295q1.046875 2.2352295 2.875 3.5023499q1.84375 1.2514954 4.359375 1.25354zm29.653015 3.008606l-10.9375 -25.930817l4.421875 0.0036010742l5.984375 14.723663q0.796875 1.9225159 1.515625 3.8449707q0.71875 1.9224854 1.40625 3.7824097l0.21875 1.8310547E-4q0.6875 -1.8588257 1.375 -3.7801208q0.703125 -1.9213257 1.453125 -3.8425903l5.96875 -14.713867l4.21875 0.0034484863l-10.71875 25.913116l-4.90625 -0.0039978027zm35.934326 0.6699829q-3.890625 -0.0031738281 -7.0625 -1.5995178q-3.171875 -1.611969 -5.046875 -4.675995q-1.859375 -3.0640259 -1.859375 -7.392151q0 -4.203125 1.859375 -7.232849q1.875 -3.0453491 4.890625 -4.6679077q3.015625 -1.6381531 6.484375 -1.635315q3.71875 0.0030212402 6.359375 1.536438q2.640625 1.5177917 4.046875 4.237671q1.421875 2.7199402 1.421875 6.391815q0 0.75 -0.0625 1.453064q-0.046875 0.6874695 -0.140625 1.2186279l-21.921875 -0.017913818l0 -3.40625l19.296875 0.015777588l-1.109375 1.2178345q0 -4.578125 -2.109375 -6.876709q-2.109375 -2.2986145 -5.6875 -2.3015442q-2.390625 -0.001953125 -4.453125 1.1682434q-2.046875 1.1701965 -3.28125 3.4191895q-1.21875 2.2333984 -1.21875 5.4833984q0 3.359375 1.328125 5.6104736q1.34375 2.2354736 3.625 3.3935852q2.296875 1.1424866 5.171875 1.1448364q2.359375 0.0019226074 4.25 -0.668396q1.890625 -0.6703491 3.65625 -1.7782593l1.59375 2.8762817q-1.921875 1.2796936 -4.40625 2.183899q-2.46875 0.90423584 -5.625 0.90167236z" fill-rule="nonzero"/><path fill="#000000" fill-opacity="0.0" d="m1288.2651 704.90704l-623.4646 -0.5039673l0 125.102356l623.4646 0.5039673z" fill-rule="evenodd"/><path fill="#000000" d="m851.6393 764.75415l0 -25.921936l3.515625 0.0028686523l0.375 3.4221802l0.109375 6.1035156E-5q1.015625 -1.8116455 2.34375 -2.935608q1.328125 -1.1239014 3.578125 -1.1220703q1.921875 0.0015258789 3.140625 1.1275024q1.234375 1.1260376 1.765625 3.3608398q1.109375 -2.0772705 2.46875 -3.2792969q1.375 -1.2019653 3.609375 -1.2001953q2.71875 0.0021972656 4.234375 2.065918q1.515625 2.0480957 1.515625 5.9387207l0 18.562561l-4.359375 -0.003540039l0 -18.234375q0 -4.53125 -2.78125 -4.5335083q-1.328125 -0.0010986328 -2.21875 0.98254395q-0.875 0.9837036 -1.9375 3.0140991l0 18.765625l-4.046875 -0.0032958984l0 -18.234375q0 -2.25 -0.625 -3.3911133q-0.609375 -1.1411133 -2.046875 -1.142273q-1.328125 -0.0010986328 -2.328125 0.9824829q-0.984375 0.98358154 -1.9375 3.014038l0 18.765625l-4.375 -0.003479004zm44.903076 0.6768799q-3.421875 -0.002746582 -6.328125 -1.598877q-2.90625 -1.6116943 -4.6875 -4.644409q-1.78125 -3.0482788 -1.78125 -7.313904q0 -4.375 1.78125 -7.404846q1.78125 -3.0454102 4.6875 -4.636841q2.90625 -1.6069946 6.328125 -1.604248q3.40625 0.002746582 6.3125 1.614502q2.90625 1.5960693 4.6875 4.644409q1.796875 3.0327148 1.796875 7.407715q0 4.265625 -1.796875 7.311035q-1.78125 3.0297852 -4.6875 4.636841q-2.90625 1.5913696 -6.3125 1.588623zm0 -3.625q2.5 0.0020141602 4.359375 -1.24646q1.875 -1.2640991 2.890625 -3.4976807q1.015625 -2.2335205 1.015625 -5.1710205q0 -2.984375 -1.015625 -5.2508545q-1.015625 -2.2664185 -2.890625 -3.5179443q-1.859375 -1.2671509 -4.359375 -1.269165q-2.515625 -0.0020141602 -4.359375 1.262085q-1.828125 1.2485352 -2.875 3.5133057q-1.03125 2.2648315 -1.03125 5.2492065q0 2.9375 1.03125 5.1726685q1.046875 2.2352295 2.875 3.5023193q1.84375 1.2515259 4.359375 1.25354zm29.653076 3.0083618l-10.9375 -25.930725l4.421875 0.003540039l5.984375 14.723633q0.796875 1.9224854 1.515625 3.8449707q0.71875 1.9224243 1.40625 3.7824097l0.21875 1.2207031E-4q0.6875 -1.8588257 1.375 -3.7800903q0.703125 -1.9213257 1.453125 -3.8425903l5.96875 -14.713928l4.21875 0.0034179688l-10.71875 25.913208l-4.90625 -0.003967285zm35.934326 0.66967773q-3.890625 -0.0031738281 -7.0625 -1.5994873q-3.171875 -1.6119385 -5.046875 -4.6759644q-1.859375 -3.0639648 -1.859375 -7.39209q0 -4.203125 1.859375 -7.23291q1.875 -3.0453491 4.890625 -4.6679077q3.015625 -1.6381836 6.484375 -1.635376q3.71875 0.0029907227 6.359375 1.536377q2.640625 1.5177612 4.046875 4.237671q1.421875 2.7199097 1.421875 6.3917847q0 0.75 -0.0625 1.453064q-0.046875 0.68743896 -0.140625 1.2186279l-21.921875 -0.017700195l0 -3.40625l19.296875 0.015563965l-1.109375 1.2178345q0 -4.578125 -2.109375 -6.876709q-2.109375 -2.298523 -5.6875 -2.3014526q-2.390625 -0.001953125 -4.453125 1.1682739q-2.046875 1.170227 -3.28125 3.4192505q-1.21875 2.2333984 -1.21875 5.4833984q0 3.359375 1.328125 5.6104126q1.34375 2.2354736 3.625 3.3935547q2.296875 1.1425171 5.171875 1.1448364q2.359375 0.0018920898 4.25 -0.66845703q1.890625 -0.6703491 3.65625 -1.7783203l1.59375 2.8763428q-1.921875 1.2796631 -4.40625 2.183899q-2.46875 0.9042969 -5.625 0.9017334zm59.52484 0.048095703q-2.40625 -0.001953125 -4.4375 -0.8786011q-2.015625 -0.8922119 -3.203125 -2.5338135q-1.171875 -1.6572266 -1.171875 -3.9541016q0 -4.375 4.375 -6.637085q4.375 -2.262085 14.406311 -3.0508423q-0.0625 -1.765686 -0.734375 -3.2506104q-0.65625 -1.5004883 -2.15625 -2.376709q-1.484375 -0.8918457 -3.984375 -0.89385986q-1.656311 -0.0013427734 -3.281311 0.45043945q-1.625 0.45184326 -3.09375 1.1849976q-1.46875 0.71759033 -2.703125 1.4509888l-1.703125 -2.9857788q1.28125 -0.8427124 3.125 -1.7162476q1.84375 -0.8890991 3.96875 -1.4498901q2.140625 -0.560791 4.421936 -0.5588989q3.578125 0.0028686523 5.890625 1.3485107q2.328125 1.329956 3.46875 3.7059326q1.15625 2.3759155 1.15625 5.6259155l0 15.890625l-3.578125 -0.0028686523l-0.375 -3.5159302l-0.15625 -1.2207031E-4q-2.140625 1.701355 -4.8125 2.9335938q-2.65625 1.2166138 -5.421936 1.2143555zm1.171875 -3.5146484q2.234436 0.0017700195 4.421936 -1.012085q2.1875 -1.013855 4.375 -2.824585l0 -6.828125q-5.546875 0.47991943 -8.718811 1.336731q-3.171875 0.8411865 -4.484375 2.152588q-1.3125 1.2958374 -1.3125 2.9989624q0 1.453125 0.796875 2.3912354q0.8125 0.9225464 2.109375 1.361084q1.3125 0.42297363 2.8125 0.42419434zm22.653137 2.8933105l0 -25.921936l3.625 0.0029296875l0.375 4.437805l0.21875 1.8310547E-4q2.03125 -2.185852 4.375 -3.62146q2.34375 -1.4512329 5.390625 -1.4487305q4.578125 0.0036621094 6.765625 2.6773071q2.1875 2.673645 2.1875 7.78302l0 16.109375l-4.375 -0.003540039l0 -15.515625q0 -3.6875 -1.390625 -5.4698486q-1.375 -1.7823486 -4.578125 -1.7849731q-2.296875 -0.0018310547 -4.109375 1.1685791q-1.8125 1.1704102 -4.109375 3.512268l0 18.078125l-4.375 -0.003479004zm41.496826 0.6741333q-5.0625 -0.0040893555 -8.15625 -3.5534668q-3.09375 -3.5493774 -3.09375 -10.002502q0 -4.21875 1.671875 -7.279907q1.6875 -3.0611572 4.375 -4.71521q2.703125 -1.6540527 5.734375 -1.6516113q2.296875 0.0018310547 4.1875 0.89398193q1.890625 0.8765259 3.546753 2.4716187l0.15625 1.2207031E-4l-0.203125 -4.796997l0 -9.96875l4.359375 0.003479004l0 37.96881l-3.625 -0.0029296875l-0.375 -3.4065552l-0.15625 -1.2207031E-4q-1.5467529 1.6393433 -3.765503 2.8406982q-2.203125 1.201355 -4.65625 1.1993408zm0.90625 -3.6867676q1.921875 0.0015869141 3.734375 -0.98132324q1.8125 -0.98291016 3.578003 -2.9033813l0 -12.90625q-1.7655029 -1.6420898 -3.453003 -2.3309326q-1.671875 -0.7044678 -3.375 -0.7058716q-2.25 -0.0017700195 -4.09375 1.2467041q-1.828125 1.2485352 -2.921875 3.4663696q-1.09375 2.2178955 -1.09375 5.2022705q0 4.640625 2.015625 7.282898q2.03125 2.626648 5.609375 2.6295166z" fill-rule="nonzero"/><path fill="#000000" d="m888.3236 838.7838l0 -25.921875l3.625 0.0029296875l0.375 6.14093l0.171875 1.2207031E-4q2.015625 -3.154602 5.0 -4.9647217q2.984375 -1.8100586 6.5625 -1.80719q1.4375 0.001159668 2.6875 0.25219727q1.265625 0.23535156 2.4375 0.8300781l-1.015625 3.7803955q-1.328125 -0.4854126 -2.296875 -0.68933105q-0.953125 -0.21954346 -2.5 -0.22076416q-2.9375 -0.002380371 -5.640625 1.6829224q-2.6875 1.6697388 -5.03125 5.7147217l0 15.203125l-4.375 -0.003540039zm41.809326 0.67437744q-3.890625 -0.003112793 -7.0625 -1.5994263q-3.171875 -1.6119385 -5.046875 -4.6759644q-1.859375 -3.0640259 -1.859375 -7.392151q0 -4.203125 1.859375 -7.232849q1.875 -3.0453491 4.890625 -4.6679077q3.015625 -1.6381836 6.484375 -1.635376q3.71875 0.0029907227 6.359375 1.536377q2.640625 1.5177612 4.046875 4.23761q1.421875 2.7199097 1.421875 6.3917847q0 0.75 -0.0625 1.453064q-0.046875 0.6875 -0.140625 1.218689l-21.921875 -0.01776123l0 -3.40625l19.296875 0.015625l-1.109375 1.2178345q0 -4.578125 -2.109375 -6.876709q-2.109375 -2.298584 -5.6875 -2.3014526q-2.390625 -0.001953125 -4.453125 1.1682739q-2.046875 1.170227 -3.28125 3.4191895q-1.21875 2.2333984 -1.21875 5.4833984q0 3.359375 1.328125 5.6104736q1.34375 2.2354736 3.625 3.3935547q2.296875 1.142456 5.171875 1.1447754q2.359375 0.001953125 4.25 -0.668396q1.890625 -0.6703491 3.65625 -1.7783203l1.59375 2.8762817q-1.921875 1.2797241 -4.40625 2.18396q-2.46875 0.90423584 -5.625 0.90167236zm19.356201 -0.62493896l0 -25.921875l3.625 0.0029296875l0.375 4.437805l0.21875 1.2207031E-4q2.03125 -2.185852 4.375 -3.62146q2.34375 -1.4512329 5.390625 -1.4487305q4.578125 0.0036621094 6.765625 2.6773071q2.1875 2.673645 2.1875 7.78302l0 16.109436l-4.375 -0.003540039l0 -15.515686q0 -3.6875 -1.390625 -5.4698486q-1.375 -1.7823486 -4.578125 -1.7849731q-2.296875 -0.0018310547 -4.109375 1.1685791q-1.8125 1.1704102 -4.109375 3.512329l0 18.078125l-4.375 -0.003540039zm40.1687 0.6730957q-2.40625 -0.001953125 -4.4375 -0.8786011q-2.015625 -0.89227295 -3.203125 -2.5338745q-1.171875 -1.6571655 -1.171875 -3.9540405q0 -4.375 4.375 -6.637085q4.375 -2.262085 14.40625 -3.0508423q-0.0625 -1.765686 -0.734375 -3.2506104q-0.65625 -1.5005493 -2.15625 -2.37677q-1.484375 -0.89178467 -3.984375 -0.8937988q-1.65625 -0.0013427734 -3.28125 0.45043945q-1.625 0.45184326 -3.09375 1.1849976q-1.46875 0.71759033 -2.703125 1.4509277l-1.703125 -2.9857178q1.28125 -0.8427124 3.125 -1.7162476q1.84375 -0.8890991 3.96875 -1.4498901q2.140625 -0.560791 4.421875 -0.55895996q3.578125 0.0029296875 5.890625 1.3485107q2.328064 1.3300171 3.468689 3.7059326q1.15625 2.3759766 1.15625 5.6259766l0 15.890625l-3.578064 -0.0029296875l-0.375 -3.5159302l-0.15625 -1.2207031E-4q-2.140625 1.701416 -4.8125 2.9335938q-2.65625 1.2166138 -5.421875 1.2144165zm1.171875 -3.5147095q2.234375 0.0018310547 4.421875 -1.0120239q2.1875 -1.013855 4.375 -2.824585l0 -6.828125q-5.546875 0.4798584 -8.71875 1.3366699q-3.171875 0.8411865 -4.484375 2.152649q-1.3125 1.2957764 -1.3125 2.9989014q0 1.453125 0.796875 2.3912964q0.8125 0.9225464 2.109375 1.361084q1.3125 0.4229126 2.8125 0.4241333zm20.79364 2.8918457l0 -25.921936l3.515625 0.0028686523l0.375 3.4221802l0.109375 6.1035156E-5q1.015625 -1.8116455 2.34375 -2.935608q1.328125 -1.1239014 3.578125 -1.1220703q1.921875 0.0015258789 3.140686 1.1275024q1.234375 1.1260376 1.765625 3.3608398q1.109375 -2.0772095 2.46875 -3.2792358q1.375 -1.2020264 3.609375 -1.2002563q2.71875 0.0021972656 4.234375 2.065918q1.515625 2.0480957 1.515625 5.9387207l0 18.562561l-4.359375 -0.003540039l0 -18.234375q0 -4.53125 -2.78125 -4.5335083q-1.328125 -0.0010986328 -2.21875 0.982605q-0.875 0.9836426 -1.9375 3.014038l0 18.765625l-4.046936 -0.0032958984l0 -18.234375q0 -2.25 -0.625 -3.3911133q-0.609375 -1.1411133 -2.046875 -1.142273q-1.328125 -0.0010986328 -2.328125 0.9824829q-0.984375 0.98358154 -1.9375 3.014038l0 18.765686l-4.375 -0.003540039zm46.496887 0.6781616q-3.890625 -0.003112793 -7.0625 -1.5994263q-3.171875 -1.6119385 -5.046875 -4.6759644q-1.859375 -3.0640259 -1.859375 -7.392151q0 -4.203125 1.859375 -7.232849q1.875 -3.0453491 4.890625 -4.6679077q3.015625 -1.6381836 6.484375 -1.635437q3.71875 0.0030517578 6.359375 1.536438q2.640625 1.5177612 4.046875 4.23761q1.421875 2.7199097 1.421875 6.3917847q0 0.75 -0.0625 1.453064q-0.046875 0.6875 -0.140625 1.2186279l-21.921875 -0.017700195l0 -3.40625l19.296875 0.015625l-1.109375 1.2178345q0 -4.578125 -2.109375 -6.876709q-2.109375 -2.298584 -5.6875 -2.3014526q-2.390625 -0.001953125 -4.453125 1.1682739q-2.046875 1.170227 -3.28125 3.4191895q-1.21875 2.2333984 -1.21875 5.4833984q0 3.359375 1.328125 5.6104736q1.34375 2.2354736 3.625 3.3935547q2.296875 1.142456 5.171875 1.1447754q2.359375 0.001953125 4.25 -0.668396q1.890625 -0.6703491 3.65625 -1.7783203l1.59375 2.8762817q-1.921875 1.2797241 -4.40625 2.18396q-2.46875 0.90423584 -5.625 0.90167236z" fill-rule="nonzero"/><path fill="#000000" fill-opacity="0.0" d="m392.0 542.365c179.05078 35.277893 856.64185 236.3949 1074.3048 211.66742c217.66284 -24.72754 193.06055 -300.027 231.6726 -360.0324" fill-rule="evenodd"/><path stroke="#999999" stroke-width="8.0" stroke-linejoin="round" stroke-linecap="butt" d="m392.0 542.365c179.05084 35.277893 856.64185 236.39496 1074.3048 211.66742c108.8313 -12.36377 157.09656 -87.37048 182.98035 -166.78699c12.941895 -39.708252 20.288452 -80.51892 26.812744 -115.15289c1.6311035 -8.658478 3.2108154 -16.930908 4.8137207 -24.703583c0.40075684 -1.9431763 0.8027344 -3.8551025 1.2076416 -5.734009l0.47680664 -2.1860962" fill-rule="evenodd"/><path fill="#999999" stroke="#999999" stroke-width="8.0" stroke-linecap="butt" d="m1695.1132 443.70312l-0.88342285 -38.624634l-24.150757 30.156067z" fill-rule="evenodd"/></g></svg>