<svg version="1.1" viewBox="0.0 0.0 2340.3858267716537 1613.8188976377953" fill="none" stroke="none" stroke-linecap="square" stroke-miterlimit="10" xmlns:xlink="http://www.w3.org/1999/xlink" xmlns="http://www.w3.org/2000/svg"><clipPath id="p.0"><path d="m0 0l2340.3857 0l0 1613.8188l-2340.3857 0l0 -1613.8188z" clip-rule="nonzero"/></clipPath><g clip-path="url(#p.0)"><path fill="#000000" fill-opacity="0.0" d="m0 0l2340.3857 0l0 1613.8188l-2340.3857 0z" fill-rule="evenodd"/><path fill="#000000" fill-opacity="0.0" d="m864.0 161.10779l0 0c0 -77.304016 -62.667297 -139.97131 -139.97131 -139.97131l-559.8684 0l0 0c-37.122696 0 -72.724945 14.746937 -98.974655 40.996647c-26.249714 26.249714 -40.996647 61.851963 -40.996647 98.974655l0 1230.9236c0 77.303955 62.667286 139.97131 139.9713 139.97131l559.8684 0c77.304016 0 139.97131 -62.66736 139.97131 -139.97131z" fill-rule="evenodd"/><path stroke="#cccccc" stroke-width="1.0" stroke-linejoin="round" stroke-linecap="butt" d="m864.0 161.10779l0 0c0 -77.304016 -62.667297 -139.97131 -139.97131 -139.97131l-559.8684 0l0 0c-37.122696 0 -72.724945 14.746937 -98.974655 40.996647c-26.249714 26.249714 -40.996647 61.851963 -40.996647 98.974655l0 1230.9236c0 77.303955 62.667286 139.97131 139.9713 139.97131l559.8684 0c77.304016 0 139.97131 -62.66736 139.97131 -139.97131z" fill-rule="evenodd"/><path fill="#351c75" d="m96.56017 220.40456q-5.578125 0 -10.015625 -2.1875q-4.4375 -2.203125 -6.96875 -6.375q-2.53125 -4.1875 -2.53125 -10.0625q0 -6.015625 2.71875 -10.1875q2.71875 -4.1875 7.21875 -6.375q4.515625 -2.203125 9.9375 -2.203125q4.40625 0 7.59375 1.546875q3.1875 1.53125 5.390625 3.65625l-3.015625 3.890625q-2.1875 -1.90625 -4.546875 -3.0q-2.34375 -1.109375 -5.203125 -1.109375q-4.09375 0 -7.25 1.734375q-3.15625 1.71875 -4.890625 4.828125q-1.71875 3.109375 -1.71875 7.21875q0 4.03125 1.6875 7.125q1.6875 3.078125 4.796875 4.796875q3.125 1.71875 7.234375 1.71875q3.296875 0 6.046875 -1.3125q2.75 -1.328125 4.953125 -3.15625l2.71875 3.890625q-2.9375 2.640625 -6.578125 4.109375q-3.625 1.453125 -7.578125 1.453125zm48.38743 0q-5.640625 0 -8.65625 -3.25q-3.0 -3.265625 -3.0 -9.578125l0 -35.34375l-12.171867 0l0 -4.90625l18.187492 0l0 40.6875q0 3.890625 1.90625 5.65625q1.90625 1.75 5.0625 1.75q1.53125 0 3.140625 -0.390625q1.625 -0.40625 3.609375 -1.296875l1.53125 4.546875q-2.421875 0.890625 -4.546875 1.5q-2.125 0.625 -5.0625 0.625zm32.262436 0q-3.296875 0 -6.078125 -1.203125q-2.78125 -1.21875 -4.40625 -3.484375q-1.609375 -2.28125 -1.609375 -5.421875q0 -6.015625 6.015625 -9.125q6.015625 -3.125 19.796875 -4.21875q-0.078125 -2.421875 -1.0 -4.46875q-0.90625 -2.0625 -2.96875 -3.265625q-2.046875 -1.21875 -5.484375 -1.21875q-2.28125 0 -4.515625 0.625q-2.234375 0.625 -4.25 1.625q-2.015625 0.984375 -3.703125 2.0l-2.34375 -4.109375q1.75 -1.171875 4.28125 -2.375q2.53125 -1.21875 5.46875 -1.984375q2.9375 -0.765625 6.078125 -0.765625q4.921875 0 8.109375 1.84375q3.1875 1.828125 4.765625 5.09375q1.578125 3.25 1.578125 7.71875l0 21.859375l-4.921875 0l-0.5 -4.84375l-0.21875 0q-2.9375 2.34375 -6.609375 4.03125q-3.65625 1.6875 -7.484375 1.6875zm1.625 -4.828125q3.078125 0 6.078125 -1.390625q3.015625 -1.40625 6.015625 -3.890625l0 -9.390625q-7.625 0.65625 -11.984375 1.828125q-4.359375 1.171875 -6.15625 2.96875q-1.796875 1.796875 -1.796875 4.15625q0 1.96875 1.09375 3.25q1.09375 1.28125 2.890625 1.875q1.796875 0.59375 3.859375 0.59375zm47.074936 4.828125q-5.203125 0 -9.75 -1.6875q-4.546875 -1.6875 -7.78125 -3.875l2.796875 -3.96875q3.078125 2.203125 6.8125 3.53125q3.734375 1.3125 8.65625 1.3125q4.546875 0 6.78125 -1.6875q2.234375 -1.6875 2.234375 -3.890625q0 -1.015625 -0.40625 -1.890625q-0.40625 -0.890625 -1.546875 -1.6875q-1.125 -0.8125 -3.328125 -1.546875q-2.203125 -0.734375 -5.859375 -1.46875q-6.96875 -1.46875 -10.453125 -3.953125q-3.484375 -2.5 -3.484375 -6.453125q0 -4.328125 3.734375 -7.21875q3.75 -2.90625 11.078125 -2.90625q4.109375 0 7.921875 1.359375q3.8125 1.359375 6.453125 3.1875l-2.9375 3.890625q-2.421875 -1.765625 -5.5 -2.75q-3.078125 -1.0 -6.453125 -1.0q-3.078125 0 -4.875 0.703125q-1.796875 0.6875 -2.5625 1.875q-0.765625 1.171875 -0.765625 2.5625q0 2.265625 2.453125 3.546875q2.453125 1.28125 7.875 2.390625q5.9375 1.25 9.125 2.796875q3.203125 1.53125 4.40625 3.515625q1.21875 1.96875 1.21875 4.6875q0 2.9375 -1.84375 5.328125q-1.828125 2.375 -5.359375 3.84375q-3.515625 1.453125 -8.640625 1.453125zm43.996826 0q-5.203125 0 -9.75 -1.6875q-4.5468903 -1.6875 -7.7812653 -3.875l2.796875 -3.96875q3.0781403 2.203125 6.8125153 3.53125q3.734375 1.3125 8.65625 1.3125q4.546875 0 6.78125 -1.6875q2.234375 -1.6875 2.234375 -3.890625q0 -1.015625 -0.40625 -1.890625q-0.40625 -0.890625 -1.546875 -1.6875q-1.125 -0.8125 -3.328125 -1.546875q-2.203125 -0.734375 -5.859375 -1.46875q-6.96875 -1.46875 -10.453125 -3.953125q-3.4843903 -2.5 -3.4843903 -6.453125q0 -4.328125 3.7343903 -7.21875q3.75 -2.90625 11.078125 -2.90625q4.109375 0 7.921875 1.359375q3.8125 1.359375 6.453125 3.1875l-2.9375 3.890625q-2.421875 -1.765625 -5.5 -2.75q-3.078125 -1.0 -6.453125 -1.0q-3.078125 0 -4.875 0.703125q-1.796875 0.6875 -2.5625 1.875q-0.765625 1.171875 -0.765625 2.5625q0 2.265625 2.453125 3.546875q2.453125 1.28125 7.875 2.390625q5.9375 1.25 9.125 2.796875q3.203125 1.53125 4.40625 3.515625q1.21875 1.96875 1.21875 4.6875q0 2.9375 -1.84375 5.328125q-1.828125 2.375 -5.359375 3.84375q-3.515625 1.453125 -8.640625 1.453125z" fill-rule="nonzero"/><path fill="#000000" d="m344.91605 219.52956l0 -48.109375l29.546875 0l0 5.140625l-23.390625 0l0 16.28125l19.796875 0l0 5.125l-19.796875 0l0 21.5625l-6.15625 0zm56.246796 0.875q-4.6875 0 -8.6875 -2.1875q-4.0 -2.203125 -6.453125 -6.375q-2.453125 -4.1875 -2.453125 -10.0625q0 -6.015625 2.453125 -10.1875q2.453125 -4.1875 6.453125 -6.375q4.0 -2.203125 8.6875 -2.203125q4.6875 0 8.6875 2.203125q4.0 2.1875 6.453125 6.375q2.453125 4.171875 2.453125 10.1875q0 5.875 -2.453125 10.0625q-2.453125 4.171875 -6.453125 6.375q-4.0 2.1875 -8.6875 2.1875zm0 -4.984375q3.4375 0 6.0 -1.71875q2.578125 -1.71875 3.96875 -4.796875q1.390625 -3.09375 1.390625 -7.125q0 -4.109375 -1.390625 -7.21875q-1.390625 -3.109375 -3.96875 -4.828125q-2.5625 -1.734375 -6.0 -1.734375q-3.453125 0 -5.984375 1.734375q-2.515625 1.71875 -3.953125 4.828125q-1.4375 3.109375 -1.4375 7.21875q0 4.03125 1.4375 7.125q1.4375 3.078125 3.953125 4.796875q2.53125 1.71875 5.984375 1.71875zm43.996826 4.984375q-4.6875 0 -8.6875 -2.1875q-4.0 -2.203125 -6.453125 -6.375q-2.453125 -4.1875 -2.453125 -10.0625q0 -6.015625 2.453125 -10.1875q2.453125 -4.1875 6.453125 -6.375q4.0 -2.203125 8.6875 -2.203125q4.6875 0 8.6875 2.203125q4.0 2.1875 6.453125 6.375q2.453125 4.171875 2.453125 10.1875q0 5.875 -2.453125 10.0625q-2.453125 4.171875 -6.453125 6.375q-4.0 2.1875 -8.6875 2.1875zm0 -4.984375q3.4375 0 6.0 -1.71875q2.578125 -1.71875 3.96875 -4.796875q1.390625 -3.09375 1.390625 -7.125q0 -4.109375 -1.390625 -7.21875q-1.390625 -3.109375 -3.96875 -4.828125q-2.5625 -1.734375 -6.0 -1.734375q-3.453125 0 -5.984375 1.734375q-2.515625 1.71875 -3.953125 4.828125q-1.4375 3.109375 -1.4375 7.21875q0 4.03125 1.4375 7.125q1.4375 3.078125 3.953125 4.796875q2.53125 1.71875 5.984375 1.71875z" fill-rule="nonzero"/><path fill="#000000" d="m500.67212 231.07643q-7.140625 0 -10.609375 -2.125q-3.453125 -2.125 -3.453125 -7.984375q0 -2.8125 0.15625 -5.15625q0.15625 -2.359375 0.34375 -4.671875q0.1875 -2.328125 0.1875 -4.828125q0 -1.53125 -0.875 -2.859375q-0.875 -1.328125 -3.265625 -2.203125q-2.390625 -0.875 -6.875 -0.875l0 -3.953125q4.484375 0 6.875 -0.875q2.390625 -0.875 3.265625 -2.234375q0.875 -1.375 0.875 -2.8125q0 -2.359375 -0.1875 -4.75q-0.1875 -2.390625 -0.34375 -4.828125q-0.15625 -2.4375 -0.15625 -5.09375q0 -5.84375 3.453125 -7.96875q3.46875 -2.140625 10.609375 -2.140625l4.640625 0l0 3.578125l-3.953125 0q-3.875 0 -5.890625 0.71875q-2.015625 0.71875 -2.78125 2.203125q-0.75 1.484375 -0.75 4.0q0 3.265625 0.21875 6.71875q0.234375 3.453125 0.234375 7.03125q0 3.640625 -1.484375 5.625q-1.484375 1.96875 -5.4375 2.65625l0 0.3125q3.953125 0.671875 5.4375 2.65625q1.484375 1.96875 1.484375 5.625q0 3.796875 -0.234375 7.03125q-0.21875 3.21875 -0.21875 6.71875q0 2.4375 0.75 3.953125q0.765625 1.515625 2.78125 2.234375q2.015625 0.734375 5.890625 0.734375l3.953125 0l0 3.5625l-4.640625 0z" fill-rule="nonzero"/><path fill="#f4cccc" d="m71.18517 356.56955l319.19995 0l0 91.20001l-319.19995 0l0 -91.20001z" fill-rule="nonzero"/><path fill="#000000" fill-opacity="0.0" d="m71.18517 354.7456l45.59999 0l0 95.53198l-45.59999 0l0 -95.53198z" fill-rule="nonzero"/><path fill="#990000" d="m77.6383 406.81082l0 -4.71875l32.6875 0l0 4.71875l-32.6875 0z" fill-rule="nonzero"/><path fill="#010000" fill-opacity="0.0" d="m116.785164 354.7456l273.59998 0l0 95.53198l-273.59998 0l0 -95.53198z" fill-rule="nonzero"/><path fill="#000000" d="m212.39139 429.52957l0 -36.9375l5.015625 0l0.53125 4.859375l0.15625 0q1.4375 -2.578125 3.34375 -4.171875q1.90625 -1.59375 5.09375 -1.59375q2.734375 0 4.484375 1.59375q1.75 1.59375 2.5 4.78125q1.59375 -2.953125 3.53125 -4.65625q1.953125 -1.71875 5.140625 -1.71875q3.875 0 6.03125 2.921875q2.171875 2.921875 2.171875 8.46875l0 26.453125l-6.234375 0l0 -25.984375q0 -6.46875 -3.953125 -6.46875q-1.890625 0 -3.15625 1.40625q-1.25 1.40625 -2.765625 4.296875l0 26.75l-5.78125 0l0 -25.984375q0 -3.203125 -0.875 -4.828125q-0.875 -1.640625 -2.921875 -1.640625q-1.90625 0 -3.3125 1.40625q-1.390625 1.40625 -2.765625 4.296875l0 26.75l-6.234375 0zm74.100006 13.375q-7.90625 -6.234375 -12.5 -14.859375q-4.59375 -8.625 -4.59375 -19.640625q0 -11.015625 4.59375 -19.671875q4.59375 -8.671875 12.5 -14.828125l3.421875 3.1875q-7.59375 6.375 -11.25 14.0625q-3.640625 7.671875 -3.640625 17.25q0 9.578125 3.640625 17.21875q3.65625 7.625 11.25 14.09375l-3.421875 3.1875zm25.381226 0l-3.421875 -3.1875q7.609375 -6.46875 11.25 -14.09375q3.65625 -7.640625 3.65625 -17.21875q0 -9.578125 -3.65625 -17.25q-3.640625 -7.6875 -11.25 -14.0625l3.421875 -3.1875q7.984375 6.15625 12.546875 14.828125q4.5625 8.65625 4.5625 19.671875q0 11.015625 -4.5625 19.640625q-4.5625 8.625 -12.546875 14.859375zm66.42813 -1.828125q-7.140625 0 -10.609375 -2.125q-3.453125 -2.125 -3.453125 -7.984375q0 -2.8125 0.15625 -5.15625q0.15625 -2.359375 0.34375 -4.671875q0.1875 -2.328125 0.1875 -4.828125q0 -1.53125 -0.875 -2.859375q-0.875 -1.328125 -3.265625 -2.203125q-2.390625 -0.875 -6.875 -0.875l0 -3.953125q4.484375 0 6.875 -0.875q2.390625 -0.875 3.265625 -2.234375q0.875 -1.375 0.875 -2.8125q0 -2.359375 -0.1875 -4.75q-0.1875 -2.390625 -0.34375 -4.828125q-0.15625 -2.4375 -0.15625 -5.09375q0 -5.84375 3.453125 -7.96875q3.46875 -2.140625 10.609375 -2.140625l4.640625 0l0 3.578125l-3.953125 0q-3.875 0 -5.890625 0.71875q-2.015625 0.71875 -2.78125 2.203125q-0.75 1.484375 -0.75 4.0q0 3.265625 0.21875 6.71875q0.234375 3.453125 0.234375 7.03125q0 3.640625 -1.484375 5.625q-1.484375 1.96875 -5.4375 2.65625l0 0.3125q3.953125 0.671875 5.4375 2.65625q1.484375 1.96875 1.484375 5.625q0 3.796875 -0.234375 7.03125q-0.21875 3.21875 -0.21875 6.71875q0 2.4375 0.75 3.953125q0.765625 1.515625 2.78125 2.234375q2.015625 0.734375 5.890625 0.734375l3.953125 0l0 3.5625l-4.640625 0z" fill-rule="nonzero"/><path fill="#010000" fill-opacity="0.0" d="m390.38513 354.7456l0 0l0 95.53198l0 0l0 -95.53198z" fill-rule="nonzero"/><path fill="#f4cccc" d="m71.18517 461.56955l410.3999 0l0 91.19998l-410.3999 0l0 -91.19998z" fill-rule="nonzero"/><path fill="#000000" fill-opacity="0.0" d="m71.18517 459.7456l45.59999 0l0 95.53198l-45.59999 0l0 -95.53198z" fill-rule="nonzero"/><path fill="#990000" d="m77.6383 511.81082l0 -4.71875l32.6875 0l0 4.71875l-32.6875 0z" fill-rule="nonzero"/><path fill="#010000" fill-opacity="0.0" d="m116.785164 459.7456l364.79993 0l0 95.53198l-364.79993 0l0 -95.53198z" fill-rule="nonzero"/><path fill="#000000" d="m367.582 535.4358q-2.5 0 -4.328125 -1.78125q-1.828125 -1.78125 -1.828125 -4.59375q0 -2.890625 1.828125 -4.671875q1.828125 -1.796875 4.328125 -1.796875q2.59375 0 4.375 1.796875q1.78125 1.78125 1.78125 4.671875q0 2.8125 -1.78125 4.59375q-1.78125 1.78125 -4.375 1.78125zm45.600006 0q-2.5 0 -4.328125 -1.78125q-1.828125 -1.78125 -1.828125 -4.59375q0 -2.890625 1.828125 -4.671875q1.828125 -1.796875 4.328125 -1.796875q2.59375 0 4.375 1.796875q1.78125 1.78125 1.78125 4.671875q0 2.8125 -1.78125 4.59375q-1.78125 1.78125 -4.375 1.78125zm45.599976 0q-2.5 0 -4.328125 -1.78125q-1.828125 -1.78125 -1.828125 -4.59375q0 -2.890625 1.828125 -4.671875q1.828125 -1.796875 4.328125 -1.796875q2.59375 0 4.375 1.796875q1.78125 1.78125 1.78125 4.671875q0 2.8125 -1.78125 4.59375q-1.78125 1.78125 -4.375 1.78125z" fill-rule="nonzero"/><path fill="#f4cccc" d="m71.18517 566.5696l182.39996 0l0 91.20001l-182.39996 0l0 -91.20001z" fill-rule="nonzero"/><path fill="#000000" fill-opacity="0.0" d="m71.18517 564.7456l45.59999 0l0 95.53198l-45.59999 0l0 -95.53198z" fill-rule="nonzero"/><path fill="#990000" d="m77.6383 616.81085l0 -4.71875l32.6875 0l0 4.71875l-32.6875 0z" fill-rule="nonzero"/><path fill="#010000" fill-opacity="0.0" d="m116.785164 564.7456l136.79996 0l0 95.53198l-136.79996 0l0 -95.53198z" fill-rule="nonzero"/><path fill="#000000" d="m215.51639 651.0765l0 -3.5625l3.875 0q3.953125 0 5.953125 -0.734375q2.015625 -0.71875 2.78125 -2.234375q0.765625 -1.515625 0.765625 -3.953125q0 -3.5 -0.234375 -6.71875q-0.234375 -3.234375 -0.234375 -7.03125q0 -3.65625 1.4375 -5.625q1.453125 -1.984375 5.40625 -2.65625l0 -0.3125q-3.953125 -0.6875 -5.40625 -2.65625q-1.4375 -1.984375 -1.4375 -5.625q0 -3.578125 0.234375 -7.03125q0.234375 -3.453125 0.234375 -6.71875q0 -2.515625 -0.765625 -4.0q-0.765625 -1.484375 -2.78125 -2.203125q-2.0 -0.71875 -5.953125 -0.71875l-3.875 0l0 -3.578125l4.625 0q7.140625 0 10.5625 2.140625q3.421875 2.125 3.421875 7.96875q0 2.65625 -0.15625 5.09375q-0.140625 2.4375 -0.34375 4.828125q-0.1875 2.390625 -0.1875 4.75q0 1.4375 0.875 2.8125q0.875 1.359375 3.265625 2.234375q2.40625 0.875 6.890625 0.875l0 3.953125q-4.484375 0 -6.890625 0.875q-2.390625 0.875 -3.265625 2.203125q-0.875 1.328125 -0.875 2.859375q0 2.5 0.1875 4.828125q0.203125 2.3125 0.34375 4.671875q0.15625 2.34375 0.15625 5.15625q0 5.859375 -3.421875 7.984375q-3.421875 2.125 -10.5625 2.125l-4.625 0z" fill-rule="nonzero"/><path fill="#010000" fill-opacity="0.0" d="m253.58513 564.7456l0 0l0 95.53198l0 0l0 -95.53198z" fill-rule="nonzero"/><path fill="#000000" d="m212.39139 849.5296l0 -36.9375l5.015625 0l0.53125 4.859375l0.15625 0q1.4375 -2.578125 3.34375 -4.171875q1.90625 -1.59375 5.09375 -1.59375q2.734375 0 4.484375 1.59375q1.75 1.59375 2.5 4.78125q1.59375 -2.953125 3.53125 -4.65625q1.953125 -1.71875 5.140625 -1.71875q3.875 0 6.03125 2.921875q2.171875 2.921875 2.171875 8.46875l0 26.453125l-6.234375 0l0 -25.984375q0 -6.46875 -3.953125 -6.46875q-1.890625 0 -3.15625 1.40625q-1.25 1.40625 -2.765625 4.296875l0 26.75l-5.78125 0l0 -25.984375q0 -3.203125 -0.875 -4.828125q-0.875 -1.640625 -2.921875 -1.640625q-1.90625 0 -3.3125 1.40625q-1.390625 1.40625 -2.765625 4.296875l0 26.75l-6.234375 0z" fill-rule="nonzero"/><path fill="#000000" d="m257.46014 849.5296l0 -2.71875l7.359375 0l0 -18.796875l-5.71875 0l0 -2.125q1.53125 -0.203125 2.6875 -0.484375q1.15625 -0.28125 2.109375 -0.609375q0.96875 -0.34375 1.765625 -0.78125l2.4375 0l0 22.796875l6.6875 0l0 2.71875l-17.328125 0z" fill-rule="nonzero"/><path fill="#000000" d="m310.49136 862.9046q-7.90625 -6.234375 -12.5 -14.859375q-4.59375 -8.625 -4.59375 -19.640625q0 -11.015625 4.59375 -19.671875q4.59375 -8.671875 12.5 -14.828125l3.421875 3.1875q-7.59375 6.375 -11.25 14.0625q-3.640625 7.671875 -3.640625 17.25q0 9.578125 3.640625 17.21875q3.65625 7.625 11.25 14.09375l-3.421875 3.1875zm25.381256 0l-3.421875 -3.1875q7.609375 -6.46875 11.25 -14.09375q3.65625 -7.640625 3.65625 -17.21875q0 -9.578125 -3.65625 -17.25q-3.640625 -7.6875 -11.25 -14.0625l3.421875 -3.1875q7.984375 6.15625 12.546875 14.828125q4.5625 8.65625 4.5625 19.671875q0 11.015625 -4.5625 19.640625q-4.5625 8.625 -12.546875 14.859375zm66.4281 -1.828125q-7.140625 0 -10.609375 -2.125q-3.453125 -2.125 -3.453125 -7.984375q0 -2.8125 0.15625 -5.15625q0.15625 -2.359375 0.34375 -4.671875q0.1875 -2.328125 0.1875 -4.828125q0 -1.53125 -0.875 -2.859375q-0.875 -1.328125 -3.265625 -2.203125q-2.390625 -0.875 -6.875 -0.875l0 -3.953125q4.484375 0 6.875 -0.875q2.390625 -0.875 3.265625 -2.234375q0.875 -1.375 0.875 -2.8125q0 -2.359375 -0.1875 -4.75q-0.1875 -2.390625 -0.34375 -4.828125q-0.15625 -2.4375 -0.15625 -5.09375q0 -5.84375 3.453125 -7.96875q3.46875 -2.140625 10.609375 -2.140625l4.640625 0l0 3.578125l-3.953125 0q-3.875 0 -5.890625 0.71875q-2.015625 0.71875 -2.78125 2.203125q-0.75 1.484375 -0.75 4.0q0 3.265625 0.21875 6.71875q0.234375 3.453125 0.234375 7.03125q0 3.640625 -1.484375 5.625q-1.484375 1.96875 -5.4375 2.65625l0 0.3125q3.953125 0.671875 5.4375 2.65625q1.484375 1.96875 1.484375 5.625q0 3.796875 -0.234375 7.03125q-0.21875 3.21875 -0.21875 6.71875q0 2.4375 0.75 3.953125q0.765625 1.515625 2.78125 2.234375q2.015625 0.734375 5.890625 0.734375l3.953125 0l0 3.5625l-4.640625 0z" fill-rule="nonzero"/><path fill="#d9ead3" d="m71.18517 881.5696l319.19995 0l0 91.20001l-319.19995 0l0 -91.20001z" fill-rule="nonzero"/><path fill="#000000" fill-opacity="0.0" d="m71.18517 879.7456l45.59999 0l0 95.53198l-45.59999 0l0 -95.53198z" fill-rule="nonzero"/><path fill="#38761d" d="m91.48205 946.62335l0 -14.8125l-13.84375 0l0 -4.71875l13.84375 0l0 -14.8125l5.015625 0l0 14.8125l13.828125 0l0 4.71875l-13.828125 0l0 14.8125l-5.015625 0z" fill-rule="nonzero"/><path fill="#010000" fill-opacity="0.0" d="m116.785164 879.7456l45.599983 0l0 95.53198l-45.599983 0l0 -95.53198z" fill-rule="nonzero"/><path fill="#000000" fill-opacity="0.0" d="m162.38515 879.7456l91.19998 0l0 95.53198l-91.19998 0l0 -95.53198z" fill-rule="nonzero"/><path fill="#010000" fill-opacity="0.0" d="m253.58513 879.7456l136.8 0l0 95.53198l-136.8 0l0 -95.53198z" fill-rule="nonzero"/><path fill="#000000" d="m276.38202 955.43585q-2.5 0 -4.328125 -1.78125q-1.828125 -1.78125 -1.828125 -4.59375q0 -2.890625 1.828125 -4.671875q1.828125 -1.796875 4.328125 -1.796875q2.59375 0 4.375 1.796875q1.78125 1.78125 1.78125 4.671875q0 2.8125 -1.78125 4.59375q-1.78125 1.78125 -4.375 1.78125zm45.599976 0q-2.5 0 -4.328125 -1.78125q-1.828125 -1.78125 -1.828125 -4.59375q0 -2.890625 1.828125 -4.671875q1.828125 -1.796875 4.328125 -1.796875q2.59375 0 4.375 1.796875q1.78125 1.78125 1.78125 4.671875q0 2.8125 -1.78125 4.59375q-1.78125 1.78125 -4.375 1.78125zm45.600006 0q-2.5 0 -4.328125 -1.78125q-1.828125 -1.78125 -1.828125 -4.59375q0 -2.890625 1.828125 -4.671875q1.828125 -1.796875 4.328125 -1.796875q2.59375 0 4.375 1.796875q1.78125 1.78125 1.78125 4.671875q0 2.8125 -1.78125 4.59375q-1.78125 1.78125 -4.375 1.78125z" fill-rule="nonzero"/><path fill="#010000" fill-opacity="0.0" d="m390.38513 879.7456l0 0l0 95.53198l0 0l0 -95.53198z" fill-rule="nonzero"/><path fill="#000000" d="m278.782 1060.4358q-2.5 0 -4.328125 -1.78125q-1.828125 -1.78125 -1.828125 -4.59375q0 -2.890625 1.828125 -4.671875q1.828125 -1.796875 4.328125 -1.796875q2.59375 0 4.375 1.796875q1.78125 1.78125 1.78125 4.671875q0 2.8125 -1.78125 4.59375q-1.78125 1.78125 -4.375 1.78125zm45.600006 0q-2.5 0 -4.328125 -1.78125q-1.828125 -1.78125 -1.828125 -4.59375q0 -2.890625 1.828125 -4.671875q1.828125 -1.796875 4.328125 -1.796875q2.59375 0 4.375 1.796875q1.78125 1.78125 1.78125 4.671875q0 2.8125 -1.78125 4.59375q-1.78125 1.78125 -4.375 1.78125zm45.599976 0q-2.5 0 -4.328125 -1.78125q-1.828125 -1.78125 -1.828125 -4.59375q0 -2.890625 1.828125 -4.671875q1.828125 -1.796875 4.328125 -1.796875q2.59375 0 4.375 1.796875q1.78125 1.78125 1.78125 4.671875q0 2.8125 -1.78125 4.59375q-1.78125 1.78125 -4.375 1.78125z" fill-rule="nonzero"/><path fill="#000000" d="m215.51639 1176.0764l0 -3.5625l3.875 0q3.953125 0 5.953125 -0.734375q2.015625 -0.71875 2.78125 -2.234375q0.765625 -1.515625 0.765625 -3.953125q0 -3.5 -0.234375 -6.71875q-0.234375 -3.234375 -0.234375 -7.03125q0 -3.65625 1.4375 -5.625q1.453125 -1.984375 5.40625 -2.65625l0 -0.3125q-3.953125 -0.6875 -5.40625 -2.65625q-1.4375 -1.984375 -1.4375 -5.625q0 -3.578125 0.234375 -7.03125q0.234375 -3.453125 0.234375 -6.71875q0 -2.515625 -0.765625 -4.0q-0.765625 -1.484375 -2.78125 -2.203125q-2.0 -0.71875 -5.953125 -0.71875l-3.875 0l0 -3.578125l4.625 0q7.140625 0 10.5625 2.140625q3.421875 2.125 3.421875 7.96875q0 2.65625 -0.15625 5.09375q-0.140625 2.4375 -0.34375 4.828125q-0.1875 2.390625 -0.1875 4.75q0 1.4375 0.875 2.8125q0.875 1.359375 3.265625 2.234375q2.40625 0.875 6.890625 0.875l0 3.953125q-4.484375 0 -6.890625 0.875q-2.390625 0.875 -3.265625 2.203125q-0.875 1.328125 -0.875 2.859375q0 2.5 0.1875 4.828125q0.203125 2.3125 0.34375 4.671875q0.15625 2.34375 0.15625 5.15625q0 5.859375 -3.421875 7.984375q-3.421875 2.125 -10.5625 2.125l-4.625 0z" fill-rule="nonzero"/><path fill="#000000" fill-opacity="0.0" d="m253.58513 1089.7456l91.2 0l0 95.53198l-91.2 0l0 -95.53198z" fill-rule="nonzero"/><path fill="#010000" fill-opacity="0.0" d="m344.78513 1089.7456l45.600006 0l0 95.53198l-45.600006 0l0 -95.53198z" fill-rule="nonzero"/><path fill="#010000" fill-opacity="0.0" d="m390.38513 1089.7456l0 0l0 95.53198l0 0l0 -95.53198z" fill-rule="nonzero"/><path fill="#000000" d="m78.71642 1386.0764l0 -3.5625l3.875 0q3.953125 0 5.953125 -0.734375q2.015625 -0.71875 2.78125 -2.234375q0.765625 -1.515625 0.765625 -3.953125q0 -3.5 -0.234375 -6.71875q-0.234375 -3.234375 -0.234375 -7.03125q0 -3.65625 1.4375 -5.625q1.453125 -1.984375 5.40625 -2.65625l0 -0.3125q-3.953125 -0.6875 -5.40625 -2.65625q-1.4375 -1.984375 -1.4375 -5.625q0 -3.578125 0.234375 -7.03125q0.234375 -3.453125 0.234375 -6.71875q0 -2.515625 -0.765625 -4.0q-0.765625 -1.484375 -2.78125 -2.203125q-2.0 -0.71875 -5.953125 -0.71875l-3.875 0l0 -3.578125l4.625 0q7.140625 0 10.5625 2.140625q3.421875 2.125 3.421875 7.96875q0 2.65625 -0.15625 5.09375q-0.140625 2.4375 -0.34375 4.828125q-0.1875 2.390625 -0.1875 4.75q0 1.4375 0.875 2.8125q0.875 1.359375 3.265625 2.234375q2.40625 0.875 6.890625 0.875l0 3.953125q-4.484375 0 -6.890625 0.875q-2.390625 0.875 -3.265625 2.203125q-0.875 1.328125 -0.875 2.859375q0 2.5 0.1875 4.828125q0.203125 2.3125 0.34375 4.671875q0.15625 2.34375 0.15625 5.15625q0 5.859375 -3.421875 7.984375q-3.421875 2.125 -10.5625 2.125l-4.625 0z" fill-rule="nonzero"/><path fill="#000000" fill-opacity="0.0" d="m2274.273 161.10779l0 0c0 -77.304016 -62.667236 -139.97131 -139.97119 -139.97131l-559.8685 0l0 0c-37.12268 0 -72.724976 14.746937 -98.97461 40.996647c-26.249756 26.249714 -40.996704 61.851963 -40.996704 98.974655l0 1230.9236c0 77.303955 62.66736 139.97131 139.97131 139.97131l559.8685 0c77.303955 0 139.97119 -62.66736 139.97119 -139.97131z" fill-rule="evenodd"/><path stroke="#cccccc" stroke-width="1.0" stroke-linejoin="round" stroke-linecap="butt" d="m2274.273 161.10779l0 0c0 -77.304016 -62.667236 -139.97131 -139.97119 -139.97131l-559.8685 0l0 0c-37.12268 0 -72.724976 14.746937 -98.97461 40.996647c-26.249756 26.249714 -40.996704 61.851963 -40.996704 98.974655l0 1230.9236c0 77.303955 62.66736 139.97131 139.97131 139.97131l559.8685 0c77.303955 0 139.97119 -62.66736 139.97119 -139.97131z" fill-rule="evenodd"/><path fill="#351c75" d="m1506.8331 167.90456q-5.578125 0 -10.015625 -2.1875q-4.4375 -2.203125 -6.96875 -6.375q-2.53125 -4.1875 -2.53125 -10.0625q0 -6.015625 2.71875 -10.1875q2.71875 -4.1875 7.21875 -6.375q4.515625 -2.203125 9.9375 -2.203125q4.40625 0 7.59375 1.546875q3.1875 1.53125 5.390625 3.65625l-3.015625 3.890625q-2.1875 -1.90625 -4.546875 -3.0q-2.34375 -1.109375 -5.203125 -1.109375q-4.09375 0 -7.25 1.734375q-3.15625 1.71875 -4.890625 4.828125q-1.71875 3.109375 -1.71875 7.21875q0 4.03125 1.6875 7.125q1.6875 3.078125 4.796875 4.796875q3.125 1.71875 7.234375 1.71875q3.296875 0 6.046875 -1.3125q2.75 -1.328125 4.953125 -3.15625l2.71875 3.890625q-2.9375 2.640625 -6.578125 4.109375q-3.625 1.453125 -7.578125 1.453125zm48.38745 0q-5.640625 0 -8.65625 -3.25q-3.0 -3.265625 -3.0 -9.578125l0 -35.343758l-12.171875 0l0 -4.90625l18.1875 0l0 40.687508q0 3.890625 1.90625 5.65625q1.90625 1.75 5.0625 1.75q1.53125 0 3.140625 -0.390625q1.625 -0.40625 3.609375 -1.296875l1.53125 4.546875q-2.421875 0.890625 -4.546875 1.5q-2.125 0.625 -5.0625 0.625zm32.26245 0q-3.296875 0 -6.078125 -1.203125q-2.78125 -1.21875 -4.40625 -3.484375q-1.609375 -2.28125 -1.609375 -5.421875q0 -6.015625 6.015625 -9.125q6.015625 -3.125 19.796875 -4.21875q-0.078125 -2.421875 -1.0 -4.46875q-0.90625 -2.0625 -2.96875 -3.265625q-2.046875 -1.21875 -5.484375 -1.21875q-2.28125 0 -4.515625 0.625q-2.234375 0.625 -4.25 1.625q-2.015625 0.984375 -3.703125 2.0l-2.34375 -4.109375q1.75 -1.171875 4.28125 -2.375q2.53125 -1.21875 5.46875 -1.984375q2.9375 -0.765625 6.078125 -0.765625q4.921875 0 8.109375 1.84375q3.1875 1.828125 4.765625 5.09375q1.578125 3.25 1.578125 7.71875l0 21.859375l-4.921875 0l-0.5 -4.84375l-0.21875 0q-2.9375 2.34375 -6.609375 4.03125q-3.65625 1.6875 -7.484375 1.6875zm1.625 -4.828125q3.078125 0 6.078125 -1.390625q3.015625 -1.40625 6.015625 -3.890625l0 -9.390625q-7.625 0.65625 -11.984375 1.828125q-4.359375 1.171875 -6.15625 2.96875q-1.796875 1.796875 -1.796875 4.15625q0 1.96875 1.09375 3.25q1.09375 1.28125 2.890625 1.875q1.796875 0.59375 3.859375 0.59375zm47.07495 4.828125q-5.203125 0 -9.75 -1.6875q-4.546875 -1.6875 -7.78125 -3.875l2.796875 -3.96875q3.078125 2.203125 6.8125 3.53125q3.734375 1.3125 8.65625 1.3125q4.546875 0 6.78125 -1.6875q2.234375 -1.6875 2.234375 -3.890625q0 -1.015625 -0.40625 -1.890625q-0.40625 -0.890625 -1.546875 -1.6875q-1.125 -0.8125 -3.328125 -1.546875q-2.203125 -0.734375 -5.859375 -1.46875q-6.96875 -1.46875 -10.453125 -3.953125q-3.484375 -2.5 -3.484375 -6.453125q0 -4.328125 3.734375 -7.21875q3.75 -2.90625 11.078125 -2.90625q4.109375 0 7.921875 1.359375q3.8125 1.359375 6.453125 3.1875l-2.9375 3.890625q-2.421875 -1.765625 -5.5 -2.75q-3.078125 -1.0 -6.453125 -1.0q-3.078125 0 -4.875 0.703125q-1.796875 0.6875 -2.5625 1.875q-0.765625 1.171875 -0.765625 2.5625q0 2.265625 2.453125 3.546875q2.453125 1.28125 7.875 2.390625q5.9375 1.25 9.125 2.796875q3.203125 1.53125 4.40625 3.515625q1.21875 1.96875 1.21875 4.6875q0 2.9375 -1.84375 5.328125q-1.828125 2.375 -5.359375 3.84375q-3.515625 1.453125 -8.640625 1.453125zm43.996826 0q-5.203125 0 -9.75 -1.6875q-4.546875 -1.6875 -7.78125 -3.875l2.796875 -3.96875q3.078125 2.203125 6.8125 3.53125q3.734375 1.3125 8.65625 1.3125q4.546875 0 6.78125 -1.6875q2.234375 -1.6875 2.234375 -3.890625q0 -1.015625 -0.40625 -1.890625q-0.40625 -0.890625 -1.546875 -1.6875q-1.125 -0.8125 -3.328125 -1.546875q-2.203125 -0.734375 -5.859375 -1.46875q-6.96875 -1.46875 -10.453125 -3.953125q-3.484375 -2.5 -3.484375 -6.453125q0 -4.328125 3.734375 -7.21875q3.75 -2.90625 11.078125 -2.90625q4.109375 0 7.921875 1.359375q3.8125 1.359375 6.453125 3.1875l-2.9375 3.890625q-2.421875 -1.765625 -5.5 -2.75q-3.078125 -1.0 -6.453125 -1.0q-3.078125 0 -4.875 0.703125q-1.796875 0.6875 -2.5625 1.875q-0.765625 1.171875 -0.765625 2.5625q0 2.265625 2.453125 3.546875q2.453125 1.28125 7.875 2.390625q5.9375 1.25 9.125 2.796875q3.203125 1.53125 4.40625 3.515625q1.21875 1.96875 1.21875 4.6875q0 2.9375 -1.84375 5.328125q-1.828125 2.375 -5.359375 3.84375q-3.515625 1.453125 -8.640625 1.453125z" fill-rule="nonzero"/><path fill="#000000" d="m1752.7046 167.02956l0 -48.109383l13.640625 0q4.90625 0 8.609375 1.1875q3.703125 1.171875 5.78125 3.734375q2.09375 2.5625 2.09375 6.8125076q0 3.59375 -2.046875 6.5q-2.046875 2.890625 -6.375 3.984375l0 0.296875q5.28125 0.8125 8.203125 3.671875q2.9375 2.859375 2.9375 7.84375q0 4.6875 -2.28125 7.84375q-2.265625 3.15625 -6.34375 4.703125q-4.0625 1.53125 -9.484375 1.53125l-14.734375 0zm6.078125 -27.859375l6.53125 0q6.15625 0 8.828125 -1.984375q2.6875 -1.984375 2.6875 -6.015625q0 -3.8906326 -2.828125 -5.5000076q-2.828125 -1.609375 -8.390625 -1.609375l-6.828125 0l0 15.109383zm0 22.71875l7.78125 0q6.15625 0 9.5625 -2.15625q3.40625 -2.15625 3.40625 -7.078125q0 -4.46875 -3.34375 -6.40625q-3.328125 -1.953125 -9.625 -1.953125l-7.78125 0l0 17.59375zm48.684326 6.015625q-3.296875 0 -6.078125 -1.203125q-2.78125 -1.21875 -4.40625 -3.484375q-1.609375 -2.28125 -1.609375 -5.421875q0 -6.015625 6.015625 -9.125q6.015625 -3.125 19.796875 -4.21875q-0.078125 -2.421875 -1.0 -4.46875q-0.90625 -2.0625 -2.96875 -3.265625q-2.046875 -1.21875 -5.484375 -1.21875q-2.28125 0 -4.515625 0.625q-2.234375 0.625 -4.25 1.625q-2.015625 0.984375 -3.703125 2.0l-2.34375 -4.109375q1.75 -1.171875 4.28125 -2.375q2.53125 -1.21875 5.46875 -1.984375q2.9375 -0.765625 6.078125 -0.765625q4.921875 0 8.109375 1.84375q3.1875 1.828125 4.765625 5.09375q1.578125 3.25 1.578125 7.71875l0 21.859375l-4.921875 0l-0.5 -4.84375l-0.21875 0q-2.9375 2.34375 -6.609375 4.03125q-3.65625 1.6875 -7.484375 1.6875zm1.625 -4.828125q3.078125 0 6.078125 -1.390625q3.015625 -1.40625 6.015625 -3.890625l0 -9.390625q-7.625 0.65625 -11.984375 1.828125q-4.359375 1.171875 -6.15625 2.96875q-1.796875 1.796875 -1.796875 4.15625q0 1.96875 1.09375 3.25q1.09375 1.28125 2.890625 1.875q1.796875 0.59375 3.859375 0.59375zm35.0437 3.953125l0 -35.640625l4.984375 0l0.515625 8.4375l0.21875 0q2.796875 -4.328125 6.890625 -6.8125q4.109375 -2.5 9.03125 -2.5q1.96875 0 3.6875 0.328125q1.734375 0.328125 3.34375 1.140625l-1.390625 5.203125q-1.828125 -0.65625 -3.15625 -0.953125q-1.3125 -0.296875 -3.4375 -0.296875q-4.046875 0 -7.75 2.3125q-3.703125 2.3125 -6.921875 7.875l0 20.90625l-6.015625 0z" fill-rule="nonzero"/><path fill="#000000" d="m1910.9451 178.57643q-7.140625 0 -10.609375 -2.125q-3.453125 -2.125 -3.453125 -7.984375q0 -2.8125 0.15625 -5.15625q0.15625 -2.359375 0.34375 -4.671875q0.1875 -2.328125 0.1875 -4.828125q0 -1.53125 -0.875 -2.859375q-0.875 -1.328125 -3.265625 -2.203125q-2.390625 -0.875 -6.875 -0.875l0 -3.953125q4.484375 0 6.875 -0.875q2.390625 -0.875 3.265625 -2.234375q0.875 -1.375 0.875 -2.8125q0 -2.359375 -0.1875 -4.75q-0.1875 -2.390625 -0.34375 -4.828125q-0.15625 -2.4375076 -0.15625 -5.0937576q0 -5.84375 3.453125 -7.96875q3.46875 -2.140625 10.609375 -2.140625l4.640625 0l0 3.578125l-3.953125 0q-3.875 0 -5.890625 0.71875q-2.015625 0.71875 -2.78125 2.203125q-0.75 1.484375 -0.75 4.0q0 3.265625 0.21875 6.7187576q0.234375 3.453125 0.234375 7.03125q0 3.640625 -1.484375 5.625q-1.484375 1.96875 -5.4375 2.65625l0 0.3125q3.953125 0.671875 5.4375 2.65625q1.484375 1.96875 1.484375 5.625q0 3.796875 -0.234375 7.03125q-0.21875 3.21875 -0.21875 6.71875q0 2.4375 0.75 3.953125q0.765625 1.515625 2.78125 2.234375q2.015625 0.734375 5.890625 0.734375l3.953125 0l0 3.5625l-4.640625 0z" fill-rule="nonzero"/><path fill="#000000" d="m1622.6643 377.02957l0 -36.9375l5.015625 0l0.53125 4.859375l0.15625 0q1.4375 -2.578125 3.34375 -4.171875q1.90625 -1.59375 5.09375 -1.59375q2.734375 0 4.484375 1.59375q1.75 1.59375 2.5 4.78125q1.59375 -2.953125 3.53125 -4.65625q1.953125 -1.71875 5.140625 -1.71875q3.875 0 6.03125 2.921875q2.171875 2.921875 2.171875 8.46875l0 26.453125l-6.234375 0l0 -25.984375q0 -6.46875 -3.953125 -6.46875q-1.890625 0 -3.15625 1.40625q-1.25 1.40625 -2.765625 4.296875l0 26.75l-5.78125 0l0 -25.984375q0 -3.203125 -0.875 -4.828125q-0.875 -1.640625 -2.921875 -1.640625q-1.90625 0 -3.3125 1.40625q-1.390625 1.40625 -2.765625 4.296875l0 26.75l-6.234375 0z" fill-rule="nonzero"/><path fill="#000000" d="m1666.78 377.02957l0 -1.953125q4.3125 -3.8125 7.296875 -6.703125q2.984375 -2.90625 4.53125 -5.21875q1.5625 -2.328125 1.5625 -4.4375q0 -2.203125 -1.359375 -3.59375q-1.359375 -1.40625 -4.1875 -1.40625q-1.8125 0 -3.359375 0.875q-1.53125 0.875 -2.765625 2.203125l-1.875 -1.890625q1.71875 -1.75 3.6875 -2.8125q1.984375 -1.0625 4.703125 -1.0625q2.5625 0 4.421875 0.9375q1.859375 0.9375 2.875 2.625q1.03125 1.671875 1.03125 3.953125q0 2.40625 -1.484375 4.84375q-1.484375 2.4375 -4.140625 5.140625q-2.65625 2.703125 -6.140625 5.90625q1.203125 -0.125 2.390625 -0.1875q1.203125 -0.0625 2.375 -0.0625l8.390625 0l0 2.84375l-17.953125 0z" fill-rule="nonzero"/><path fill="#000000" d="m1720.7643 390.40457q-7.90625 -6.234375 -12.5 -14.859375q-4.59375 -8.625 -4.59375 -19.640625q0 -11.015625 4.59375 -19.671875q4.59375 -8.671875 12.5 -14.828125l3.421875 3.1875q-7.59375 6.375 -11.25 14.0625q-3.640625 7.671875 -3.640625 17.25q0 9.578125 3.640625 17.21875q3.65625 7.625 11.25 14.09375l-3.421875 3.1875zm25.381348 0l-3.421875 -3.1875q7.609375 -6.46875 11.25 -14.09375q3.65625 -7.640625 3.65625 -17.21875q0 -9.578125 -3.65625 -17.25q-3.640625 -7.6875 -11.25 -14.0625l3.421875 -3.1875q7.984375 6.15625 12.546875 14.828125q4.5625 8.65625 4.5625 19.671875q0 11.015625 -4.5625 19.640625q-4.5625 8.625 -12.546875 14.859375zm66.4281 -1.828125q-7.140625 0 -10.609375 -2.125q-3.453125 -2.125 -3.453125 -7.984375q0 -2.8125 0.15625 -5.15625q0.15625 -2.359375 0.34375 -4.671875q0.1875 -2.328125 0.1875 -4.828125q0 -1.53125 -0.875 -2.859375q-0.875 -1.328125 -3.265625 -2.203125q-2.390625 -0.875 -6.875 -0.875l0 -3.953125q4.484375 0 6.875 -0.875q2.390625 -0.875 3.265625 -2.234375q0.875 -1.375 0.875 -2.8125q0 -2.359375 -0.1875 -4.75q-0.1875 -2.390625 -0.34375 -4.828125q-0.15625 -2.4375 -0.15625 -5.09375q0 -5.84375 3.453125 -7.96875q3.46875 -2.140625 10.609375 -2.140625l4.640625 0l0 3.578125l-3.953125 0q-3.875 0 -5.890625 0.71875q-2.015625 0.71875 -2.78125 2.203125q-0.75 1.484375 -0.75 4.0q0 3.265625 0.21875 6.71875q0.234375 3.453125 0.234375 7.03125q0 3.640625 -1.484375 5.625q-1.484375 1.96875 -5.4375 2.65625l0 0.3125q3.953125 0.671875 5.4375 2.65625q1.484375 1.96875 1.484375 5.625q0 3.796875 -0.234375 7.03125q-0.21875 3.21875 -0.21875 6.71875q0 2.4375 0.75 3.953125q0.765625 1.515625 2.78125 2.234375q2.015625 0.734375 5.890625 0.734375l3.953125 0l0 3.5625l-4.640625 0z" fill-rule="nonzero"/><path fill="#d9ead3" d="m1481.4581 409.06955l319.19995 0l0 91.20001l-319.19995 0l0 -91.20001z" fill-rule="nonzero"/><path fill="#000000" fill-opacity="0.0" d="m1481.4581 407.2456l45.599976 0l0 95.53198l-45.599976 0l0 -95.53198z" fill-rule="nonzero"/><path fill="#38761d" d="m1501.755 474.12332l0 -14.8125l-13.84375 0l0 -4.71875l13.84375 0l0 -14.8125l5.015625 0l0 14.8125l13.828125 0l0 4.71875l-13.828125 0l0 14.8125l-5.015625 0z" fill-rule="nonzero"/><path fill="#010000" fill-opacity="0.0" d="m1527.0581 407.2456l45.599976 0l0 95.53198l-45.599976 0l0 -95.53198z" fill-rule="nonzero"/><path fill="#000000" fill-opacity="0.0" d="m1572.6581 407.2456l91.20007 0l0 95.53198l-91.20007 0l0 -95.53198z" fill-rule="nonzero"/><path fill="#010000" fill-opacity="0.0" d="m1663.8582 407.2456l136.79993 0l0 95.53198l-136.79993 0l0 -95.53198z" fill-rule="nonzero"/><path fill="#000000" d="m1686.655 482.93582q-2.5 0 -4.328125 -1.78125q-1.828125 -1.78125 -1.828125 -4.59375q0 -2.890625 1.828125 -4.671875q1.828125 -1.796875 4.328125 -1.796875q2.59375 0 4.375 1.796875q1.78125 1.78125 1.78125 4.671875q0 2.8125 -1.78125 4.59375q-1.78125 1.78125 -4.375 1.78125zm45.599976 0q-2.5 0 -4.328125 -1.78125q-1.828125 -1.78125 -1.828125 -4.59375q0 -2.890625 1.828125 -4.671875q1.828125 -1.796875 4.328125 -1.796875q2.59375 0 4.375 1.796875q1.78125 1.78125 1.78125 4.671875q0 2.8125 -1.78125 4.59375q-1.78125 1.78125 -4.375 1.78125zm45.599976 0q-2.5 0 -4.328125 -1.78125q-1.828125 -1.78125 -1.828125 -4.59375q0 -2.890625 1.828125 -4.671875q1.828125 -1.796875 4.328125 -1.796875q2.59375 0 4.375 1.796875q1.78125 1.78125 1.78125 4.671875q0 2.8125 -1.78125 4.59375q-1.78125 1.78125 -4.375 1.78125z" fill-rule="nonzero"/><path fill="#010000" fill-opacity="0.0" d="m1800.6581 407.2456l0 0l0 95.53198l0 0l0 -95.53198z" fill-rule="nonzero"/><path fill="#000000" d="m1689.0549 587.93585q-2.5 0 -4.328125 -1.78125q-1.828125 -1.78125 -1.828125 -4.59375q0 -2.890625 1.828125 -4.671875q1.828125 -1.796875 4.328125 -1.796875q2.59375 0 4.375 1.796875q1.78125 1.78125 1.78125 4.671875q0 2.8125 -1.78125 4.59375q-1.78125 1.78125 -4.375 1.78125zm45.600098 0q-2.5 0 -4.328125 -1.78125q-1.828125 -1.78125 -1.828125 -4.59375q0 -2.890625 1.828125 -4.671875q1.828125 -1.796875 4.328125 -1.796875q2.59375 0 4.375 1.796875q1.78125 1.78125 1.78125 4.671875q0 2.8125 -1.78125 4.59375q-1.78125 1.78125 -4.375 1.78125zm45.599976 0q-2.5 0 -4.328125 -1.78125q-1.828125 -1.78125 -1.828125 -4.59375q0 -2.890625 1.828125 -4.671875q1.828125 -1.796875 4.328125 -1.796875q2.59375 0 4.375 1.796875q1.78125 1.78125 1.78125 4.671875q0 2.8125 -1.78125 4.59375q-1.78125 1.78125 -4.375 1.78125z" fill-rule="nonzero"/><path fill="#000000" d="m1625.7893 703.5765l0 -3.5625l3.875 0q3.953125 0 5.953125 -0.734375q2.015625 -0.71875 2.78125 -2.234375q0.765625 -1.515625 0.765625 -3.953125q0 -3.5 -0.234375 -6.71875q-0.234375 -3.234375 -0.234375 -7.03125q0 -3.65625 1.4375 -5.625q1.453125 -1.984375 5.40625 -2.65625l0 -0.3125q-3.953125 -0.6875 -5.40625 -2.65625q-1.4375 -1.984375 -1.4375 -5.625q0 -3.578125 0.234375 -7.03125q0.234375 -3.453125 0.234375 -6.71875q0 -2.515625 -0.765625 -4.0q-0.765625 -1.484375 -2.78125 -2.203125q-2.0 -0.71875 -5.953125 -0.71875l-3.875 0l0 -3.578125l4.625 0q7.140625 0 10.5625 2.140625q3.421875 2.125 3.421875 7.96875q0 2.65625 -0.15625 5.09375q-0.140625 2.4375 -0.34375 4.828125q-0.1875 2.390625 -0.1875 4.75q0 1.4375 0.875 2.8125q0.875 1.359375 3.265625 2.234375q2.40625 0.875 6.890625 0.875l0 3.953125q-4.484375 0 -6.890625 0.875q-2.390625 0.875 -3.265625 2.203125q-0.875 1.328125 -0.875 2.859375q0 2.5 0.1875 4.828125q0.203125 2.3125 0.34375 4.671875q0.15625 2.34375 0.15625 5.15625q0 5.859375 -3.421875 7.984375q-3.421875 2.125 -10.5625 2.125l-4.625 0z" fill-rule="nonzero"/><path fill="#000000" fill-opacity="0.0" d="m1663.8582 617.2456l45.599976 0l0 95.53198l-45.599976 0l0 -95.53198z" fill-rule="nonzero"/><path fill="#010000" fill-opacity="0.0" d="m1709.4581 617.2456l0 0l0 95.53198l0 0l0 -95.53198z" fill-rule="nonzero"/><path fill="#000000" d="m1622.6643 902.0296l0 -36.9375l5.015625 0l0.53125 4.859375l0.15625 0q1.4375 -2.578125 3.34375 -4.171875q1.90625 -1.59375 5.09375 -1.59375q2.734375 0 4.484375 1.59375q1.75 1.59375 2.5 4.78125q1.59375 -2.953125 3.53125 -4.65625q1.953125 -1.71875 5.140625 -1.71875q3.875 0 6.03125 2.921875q2.171875 2.921875 2.171875 8.46875l0 26.453125l-6.234375 0l0 -25.984375q0 -6.46875 -3.953125 -6.46875q-1.890625 0 -3.15625 1.40625q-1.25 1.40625 -2.765625 4.296875l0 26.75l-5.78125 0l0 -25.984375q0 -3.203125 -0.875 -4.828125q-0.875 -1.640625 -2.921875 -1.640625q-1.90625 0 -3.3125 1.40625q-1.390625 1.40625 -2.765625 4.296875l0 26.75l-6.234375 0z" fill-rule="nonzero"/><path fill="#000000" d="m1675.3425 902.514q-2.203125 0 -3.921875 -0.515625q-1.71875 -0.53125 -3.03125 -1.328125q-1.296875 -0.796875 -2.25 -1.765625l1.671875 -2.15625q1.28125 1.203125 3.078125 2.125q1.8125 0.921875 4.25 0.921875q1.765625 0 3.140625 -0.578125q1.375 -0.59375 2.171875 -1.640625q0.8125 -1.0625 0.8125 -2.46875q0 -1.515625 -0.921875 -2.65625q-0.921875 -1.140625 -2.96875 -1.78125q-2.03125 -0.640625 -5.390625 -0.640625l0 -2.515625q3.03125 0 4.875 -0.640625q1.84375 -0.640625 2.65625 -1.703125q0.828125 -1.0625 0.828125 -2.421875q0 -1.875 -1.421875 -2.953125q-1.421875 -1.078125 -3.78125 -1.078125q-1.796875 0 -3.421875 0.71875q-1.625 0.71875 -2.859375 1.875l-1.765625 -2.078125q1.609375 -1.40625 3.65625 -2.296875q2.0625 -0.90625 4.515625 -0.90625q2.390625 0 4.28125 0.765625q1.90625 0.75 3.03125 2.203125q1.125 1.4375 1.125 3.515625q0 2.3125 -1.546875 3.796875q-1.53125 1.484375 -3.890625 2.28125l0 0.15625q1.671875 0.359375 3.125 1.21875q1.46875 0.859375 2.328125 2.1875q0.859375 1.3125 0.859375 3.078125q0 2.28125 -1.265625 3.90625q-1.25 1.609375 -3.328125 2.5q-2.078125 0.875 -4.640625 0.875z" fill-rule="nonzero"/><path fill="#000000" d="m1720.7643 915.4046q-7.90625 -6.234375 -12.5 -14.859375q-4.59375 -8.625 -4.59375 -19.640625q0 -11.015625 4.59375 -19.671875q4.59375 -8.671875 12.5 -14.828125l3.421875 3.1875q-7.59375 6.375 -11.25 14.0625q-3.640625 7.671875 -3.640625 17.25q0 9.578125 3.640625 17.21875q3.65625 7.625 11.25 14.09375l-3.421875 3.1875zm25.381348 0l-3.421875 -3.1875q7.609375 -6.46875 11.25 -14.09375q3.65625 -7.640625 3.65625 -17.21875q0 -9.578125 -3.65625 -17.25q-3.640625 -7.6875 -11.25 -14.0625l3.421875 -3.1875q7.984375 6.15625 12.546875 14.828125q4.5625 8.65625 4.5625 19.671875q0 11.015625 -4.5625 19.640625q-4.5625 8.625 -12.546875 14.859375zm66.4281 -1.828125q-7.140625 0 -10.609375 -2.125q-3.453125 -2.125 -3.453125 -7.984375q0 -2.8125 0.15625 -5.15625q0.15625 -2.359375 0.34375 -4.671875q0.1875 -2.328125 0.1875 -4.828125q0 -1.53125 -0.875 -2.859375q-0.875 -1.328125 -3.265625 -2.203125q-2.390625 -0.875 -6.875 -0.875l0 -3.953125q4.484375 0 6.875 -0.875q2.390625 -0.875 3.265625 -2.234375q0.875 -1.375 0.875 -2.8125q0 -2.359375 -0.1875 -4.75q-0.1875 -2.390625 -0.34375 -4.828125q-0.15625 -2.4375 -0.15625 -5.09375q0 -5.84375 3.453125 -7.96875q3.46875 -2.140625 10.609375 -2.140625l4.640625 0l0 3.578125l-3.953125 0q-3.875 0 -5.890625 0.71875q-2.015625 0.71875 -2.78125 2.203125q-0.75 1.484375 -0.75 4.0q0 3.265625 0.21875 6.71875q0.234375 3.453125 0.234375 7.03125q0 3.640625 -1.484375 5.625q-1.484375 1.96875 -5.4375 2.65625l0 0.3125q3.953125 0.671875 5.4375 2.65625q1.484375 1.96875 1.484375 5.625q0 3.796875 -0.234375 7.03125q-0.21875 3.21875 -0.21875 6.71875q0 2.4375 0.75 3.953125q0.765625 1.515625 2.78125 2.234375q2.015625 0.734375 5.890625 0.734375l3.953125 0l0 3.5625l-4.640625 0z" fill-rule="nonzero"/><path fill="#d9ead3" d="m1481.4581 934.0696l319.19995 0l0 91.19995l-319.19995 0l0 -91.19995z" fill-rule="nonzero"/><path fill="#000000" fill-opacity="0.0" d="m1481.4581 932.2456l45.599976 0l0 95.53198l-45.599976 0l0 -95.53198z" fill-rule="nonzero"/><path fill="#38761d" d="m1501.755 999.12335l0 -14.8125l-13.84375 0l0 -4.71875l13.84375 0l0 -14.8125l5.015625 0l0 14.8125l13.828125 0l0 4.71875l-13.828125 0l0 14.8125l-5.015625 0z" fill-rule="nonzero"/><path fill="#010000" fill-opacity="0.0" d="m1527.0581 932.2456l45.599976 0l0 95.53198l-45.599976 0l0 -95.53198z" fill-rule="nonzero"/><path fill="#000000" fill-opacity="0.0" d="m1572.6581 932.2456l91.20007 0l0 95.53198l-91.20007 0l0 -95.53198z" fill-rule="nonzero"/><path fill="#010000" fill-opacity="0.0" d="m1663.8582 932.2456l136.79993 0l0 95.53198l-136.79993 0l0 -95.53198z" fill-rule="nonzero"/><path fill="#000000" d="m1686.655 1007.93585q-2.5 0 -4.328125 -1.78125q-1.828125 -1.78125 -1.828125 -4.59375q0 -2.890625 1.828125 -4.671875q1.828125 -1.796875 4.328125 -1.796875q2.59375 0 4.375 1.796875q1.78125 1.78125 1.78125 4.671875q0 2.8125 -1.78125 4.59375q-1.78125 1.78125 -4.375 1.78125zm45.599976 0q-2.5 0 -4.328125 -1.78125q-1.828125 -1.78125 -1.828125 -4.59375q0 -2.890625 1.828125 -4.671875q1.828125 -1.796875 4.328125 -1.796875q2.59375 0 4.375 1.796875q1.78125 1.78125 1.78125 4.671875q0 2.8125 -1.78125 4.59375q-1.78125 1.78125 -4.375 1.78125zm45.599976 0q-2.5 0 -4.328125 -1.78125q-1.828125 -1.78125 -1.828125 -4.59375q0 -2.890625 1.828125 -4.671875q1.828125 -1.796875 4.328125 -1.796875q2.59375 0 4.375 1.796875q1.78125 1.78125 1.78125 4.671875q0 2.8125 -1.78125 4.59375q-1.78125 1.78125 -4.375 1.78125z" fill-rule="nonzero"/><path fill="#010000" fill-opacity="0.0" d="m1800.6581 932.2456l0 0l0 95.53198l0 0l0 -95.53198z" fill-rule="nonzero"/><path fill="#000000" d="m1689.0549 1112.9358q-2.5 0 -4.328125 -1.78125q-1.828125 -1.78125 -1.828125 -4.59375q0 -2.890625 1.828125 -4.671875q1.828125 -1.796875 4.328125 -1.796875q2.59375 0 4.375 1.796875q1.78125 1.78125 1.78125 4.671875q0 2.8125 -1.78125 4.59375q-1.78125 1.78125 -4.375 1.78125zm45.600098 0q-2.5 0 -4.328125 -1.78125q-1.828125 -1.78125 -1.828125 -4.59375q0 -2.890625 1.828125 -4.671875q1.828125 -1.796875 4.328125 -1.796875q2.59375 0 4.375 1.796875q1.78125 1.78125 1.78125 4.671875q0 2.8125 -1.78125 4.59375q-1.78125 1.78125 -4.375 1.78125zm45.599976 0q-2.5 0 -4.328125 -1.78125q-1.828125 -1.78125 -1.828125 -4.59375q0 -2.890625 1.828125 -4.671875q1.828125 -1.796875 4.328125 -1.796875q2.59375 0 4.375 1.796875q1.78125 1.78125 1.78125 4.671875q0 2.8125 -1.78125 4.59375q-1.78125 1.78125 -4.375 1.78125z" fill-rule="nonzero"/><path fill="#000000" d="m1625.7893 1228.5764l0 -3.5625l3.875 0q3.953125 0 5.953125 -0.734375q2.015625 -0.71875 2.78125 -2.234375q0.765625 -1.515625 0.765625 -3.953125q0 -3.5 -0.234375 -6.71875q-0.234375 -3.234375 -0.234375 -7.03125q0 -3.65625 1.4375 -5.625q1.453125 -1.984375 5.40625 -2.65625l0 -0.3125q-3.953125 -0.6875 -5.40625 -2.65625q-1.4375 -1.984375 -1.4375 -5.625q0 -3.578125 0.234375 -7.03125q0.234375 -3.453125 0.234375 -6.71875q0 -2.515625 -0.765625 -4.0q-0.765625 -1.484375 -2.78125 -2.203125q-2.0 -0.71875 -5.953125 -0.71875l-3.875 0l0 -3.578125l4.625 0q7.140625 0 10.5625 2.140625q3.421875 2.125 3.421875 7.96875q0 2.65625 -0.15625 5.09375q-0.140625 2.4375 -0.34375 4.828125q-0.1875 2.390625 -0.1875 4.75q0 1.4375 0.875 2.8125q0.875 1.359375 3.265625 2.234375q2.40625 0.875 6.890625 0.875l0 3.953125q-4.484375 0 -6.890625 0.875q-2.390625 0.875 -3.265625 2.203125q-0.875 1.328125 -0.875 2.859375q0 2.5 0.1875 4.828125q0.203125 2.3125 0.34375 4.671875q0.15625 2.34375 0.15625 5.15625q0 5.859375 -3.421875 7.984375q-3.421875 2.125 -10.5625 2.125l-4.625 0z" fill-rule="nonzero"/><path fill="#000000" fill-opacity="0.0" d="m1663.8582 1142.2456l45.599976 0l0 95.53198l-45.599976 0l0 -95.53198z" fill-rule="nonzero"/><path fill="#010000" fill-opacity="0.0" d="m1709.4581 1142.2456l91.19995 0l0 95.53198l-91.19995 0l0 -95.53198z" fill-rule="nonzero"/><path fill="#000000" fill-opacity="0.0" d="m1800.6581 1142.2456l45.599976 0l0 95.53198l-45.599976 0l0 -95.53198z" fill-rule="nonzero"/><path fill="#000000" fill-opacity="0.0" d="m1846.258 1142.2456l0 0l0 95.53198l0 0l0 -95.53198z" fill-rule="nonzero"/><path fill="#000000" d="m1488.9894 1438.5764l0 -3.5625l3.875 0q3.953125 0 5.953125 -0.734375q2.015625 -0.71875 2.78125 -2.234375q0.765625 -1.515625 0.765625 -3.953125q0 -3.5 -0.234375 -6.71875q-0.234375 -3.234375 -0.234375 -7.03125q0 -3.65625 1.4375 -5.625q1.453125 -1.984375 5.40625 -2.65625l0 -0.3125q-3.953125 -0.6875 -5.40625 -2.65625q-1.4375 -1.984375 -1.4375 -5.625q0 -3.578125 0.234375 -7.03125q0.234375 -3.453125 0.234375 -6.71875q0 -2.515625 -0.765625 -4.0q-0.765625 -1.484375 -2.78125 -2.203125q-2.0 -0.71875 -5.953125 -0.71875l-3.875 0l0 -3.578125l4.625 0q7.140625 0 10.5625 2.140625q3.421875 2.125 3.421875 7.96875q0 2.65625 -0.15625 5.09375q-0.140625 2.4375 -0.34375 4.828125q-0.1875 2.390625 -0.1875 4.75q0 1.4375 0.875 2.8125q0.875 1.359375 3.265625 2.234375q2.40625 0.875 6.890625 0.875l0 3.953125q-4.484375 0 -6.890625 0.875q-2.390625 0.875 -3.265625 2.203125q-0.875 1.328125 -0.875 2.859375q0 2.5 0.1875 4.828125q0.203125 2.3125 0.34375 4.671875q0.15625 2.34375 0.15625 5.15625q0 5.859375 -3.421875 7.984375q-3.421875 2.125 -10.5625 2.125l-4.625 0z" fill-rule="nonzero"/><path fill="#000000" fill-opacity="0.0" d="m415.67978 401.7087c78.01312 -15.719147 294.5875 -100.71872 468.07877 -94.31494c173.49121 6.4037476 477.39062 110.61459 572.8688 132.73752" fill-rule="evenodd"/><path stroke="#999999" stroke-width="8.0" stroke-linejoin="round" stroke-linecap="butt" d="m415.67978 401.7087c78.01312 -15.719177 294.58755 -100.71872 468.07877 -94.31494c86.745544 3.2018738 206.09326 30.8555 315.68933 60.47406c54.797974 14.809296 107.15808 30.109772 151.78601 43.090637c11.156982 3.2451782 21.830688 6.345459 31.938477 9.256805c5.053955 1.455658 9.966309 2.8640747 14.726929 4.2198486c2.380249 0.67785645 4.722534 1.3425293 7.025635 1.9933472c1.1514893 0.32543945 2.293213 0.6473694 3.4249268 0.9657593l1.8577881 0.52142334" fill-rule="evenodd"/><path fill="#999999" stroke="#999999" stroke-width="8.0" stroke-linecap="butt" d="m1406.8448 440.69443l38.47229 -3.5394897l-31.746582 -22.018097z" fill-rule="evenodd"/><path fill="#000000" fill-opacity="0.0" d="m415.67978 426.15942c101.30051 5.2397156 433.14743 -58.218292 607.8031 31.438324c174.65576 89.656586 366.776 422.08444 440.13123 506.5013" fill-rule="evenodd"/><path stroke="#999999" stroke-width="8.0" stroke-linejoin="round" stroke-linecap="butt" d="m415.67978 426.1594c101.30051 5.2397766 433.14743 -58.21823 607.8031 31.438324c87.328 44.82831 179.02197 150.34943 258.05334 255.21558c39.515747 52.433105 75.865845 104.70239 106.92175 149.13953c15.527832 22.218506 29.7323 42.479126 42.346924 59.822937c0.78845215 1.0839844 1.5706787 2.1566772 2.3466797 3.2175903l0.92907715 1.2669067" fill-rule="evenodd"/><path fill="#999999" stroke="#999999" stroke-width="8.0" stroke-linecap="butt" d="m1423.6642 934.39044l32.75415 20.489197l-11.920898 -36.749634z" fill-rule="evenodd"/><path fill="#000000" fill-opacity="0.0" d="m412.18634 447.11926c58.21872 7.5682373 302.73755 -24.452759 349.31232 45.409454c46.57483 69.86221 -16.302246 299.8259 -69.863464 373.76376c-53.56128 73.93787 -209.58664 58.219604 -251.50397 69.863525" fill-rule="evenodd"/><path stroke="#999999" stroke-width="8.0" stroke-linejoin="round" stroke-linecap="butt" d="m412.18634 447.11926c58.21872 7.5682373 302.73755 -24.452759 349.31232 45.409454c46.57483 69.86221 -16.302246 299.82584 -69.863464 373.76376c-26.78064 36.968994 -79.177246 51.523865 -130.11847 58.291992c-25.470581 3.3840942 -50.5773 4.821472 -71.93619 6.140564l-1.7452698 0.10864258" fill-rule="evenodd"/><path fill="#999999" stroke="#999999" stroke-width="8.0" stroke-linecap="butt" d="m486.37006 917.7013l-34.615723 17.157898l37.54608 9.106812z" fill-rule="evenodd"/><path fill="#000000" fill-opacity="0.0" d="m1208.3818 292.73273l290.07874 0.25198364l0 77.88977l-290.07874 -0.25198364z" fill-rule="evenodd"/><path fill="#000000" d="m1234.2412 352.95523l0 -22.34378l-12.0625 -0.010467529l0 -3.578125l16.421875 0.014251709l0 25.921906l-4.359375 -0.0037841797zm1.703125 -31.35791q-1.5 -0.0013122559 -2.515625 -0.92407227q-1.0 -0.9383545 -1.0 -2.4852295q0 -1.546875 1.0 -2.4835205q1.015625 -0.936615 2.515625 -0.93530273q1.484375 0.0012817383 2.5 0.93966675q1.015625 0.938385 1.015625 2.48526q0 1.546875 -1.015625 2.48349q-1.015625 0.92099 -2.5 0.91970825zm18.387451 31.375336l0 -25.921875l3.625 0.0031433105l0.375 4.4378357l0.21875 1.8310547E-4q2.03125 -2.18573 4.375 -3.6211853q2.34375 -1.4511108 5.390625 -1.4484558q4.578125 0.003967285 6.765625 2.677765q2.1875 2.673767 2.1875 7.783142l0 16.109375l-4.375 -0.0037841797l0 -15.515625q0 -3.6875 -1.390625 -5.4699707q-1.375 -1.7824402 -4.578125 -1.7852173q-2.296875 -0.0020141602 -4.109375 1.1683044q-1.8125 1.1702881 -4.109375 3.5120544l0 18.078125l-4.375 -0.0038146973zm48.69995 0.6829529q-4.109375 -0.0035705566 -6.296875 -2.3804932q-2.1875 -2.376892 -2.1875 -6.955017l0 -25.703125l-8.859375 -0.0076904297l0 -3.5781555l13.234375 0.011505127l0 29.59378q0 2.828125 1.375 4.110565q1.390625 1.2824402 3.6875 1.2844543q1.125 9.765625E-4 2.296875 -0.29489136q1.171875 -0.29586792 2.609375 -0.9352417l1.125 3.3134766q-1.765625 0.6390991 -3.3125 1.0908813q-1.546875 0.45178223 -3.671875 0.44995117zm27.199951 -0.6170044l0 -22.34375l-12.0625 -0.010498047l0 -3.578125l16.421875 0.014282227l0 25.921875l-4.359375 -0.0037841797zm1.703125 -31.35791q-1.5 -0.0013122559 -2.515625 -0.92407227q-1.0 -0.9383545 -1.0 -2.4852295q0 -1.546875 1.0 -2.4835205q1.015625 -0.936615 2.515625 -0.93530273q1.484375 0.0012817383 2.5 0.93966675q1.015625 0.938385 1.015625 2.48526q0 1.546875 -1.015625 2.48349q-1.015625 0.92099 -2.5 0.91970825zm18.387451 31.375366l0 -25.921906l3.625 0.0031433105l0.375 4.4378357l0.21875 1.8310547E-4q2.03125 -2.18573 4.375 -3.6211853q2.34375 -1.4510803 5.390625 -1.4484558q4.578125 0.0039978027 6.765625 2.677765q2.1875 2.673767 2.1875 7.783142l0 16.109406l-4.375 -0.0038146973l0 -15.515625q0 -3.6875 -1.390625 -5.4699707q-1.375 -1.7824402 -4.578125 -1.7852173q-2.296875 -0.0020141602 -4.109375 1.1683044q-1.8125 1.1702881 -4.109375 3.5120544l0 18.078125l-4.375 -0.0037841797zm44.63745 0.6793823q-3.890625 -0.0033874512 -7.0625 -1.599884q-3.171875 -1.6121216 -5.046875 -4.6762695q-1.859375 -3.0641174 -1.859375 -7.3922424q0 -4.203125 1.859375 -7.2327576q1.875 -3.045227 4.890625 -4.667633q3.015625 -1.6380005 6.484375 -1.6349792q3.71875 0.0032348633 6.359375 1.5367737q2.640625 1.5179138 4.046875 4.2378845q1.421875 2.7200012 1.421875 6.391876q0 0.75 -0.0625 1.453064q-0.046875 0.6874695 -0.140625 1.2186279l-21.921875 -0.019042969l0 -3.40625l19.296875 0.01675415l-1.109375 1.217804q0 -4.578125 -2.109375 -6.876831q-2.109375 -2.2987366 -5.6875 -2.3018188q-2.390625 -0.0020751953 -4.453125 1.1679993q-2.046875 1.170105 -3.28125 3.4190369q-1.21875 2.233307 -1.21875 5.483307q0 3.359375 1.328125 5.6105347q1.34375 2.2355347 3.625 3.3937683q2.296875 1.1426086 5.171875 1.1451111q2.359375 0.0020446777 4.25 -0.6681824q1.890625 -0.67022705 3.65625 -1.7780762l1.59375 2.8764038q-1.921875 1.2795715 -4.40625 2.1836548q-2.46875 0.90411377 -5.625 0.9013672z" fill-rule="nonzero"/><path fill="#000000" fill-opacity="0.0" d="m1173.5342 863.507l290.07874 0.25195312l0 77.88977l-290.07874 -0.25195312z" fill-rule="evenodd"/><path fill="#000000" d="m1199.3934 923.7295l0 -22.34375l-12.0625 -0.010498047l0 -3.578125l16.421875 0.014282227l0 25.921875l-4.359375 -0.0037841797zm1.703125 -31.35791q-1.5 -0.0012817383 -2.515625 -0.92407227q-1.0 -0.9383545 -1.0 -2.4852295q0 -1.546875 1.0 -2.4835205q1.015625 -0.9365845 2.515625 -0.93530273q1.484375 0.0012817383 2.5 0.93969727q1.015625 0.9383545 1.015625 2.4852295q0 1.546875 -1.015625 2.4835205q-1.015625 0.9209595 -2.5 0.91967773zm18.387451 31.375366l0 -25.921875l3.625 0.003112793l0.375 4.437866l0.21875 1.8310547E-4q2.03125 -2.18573 4.375 -3.6212158q2.34375 -1.4511108 5.390625 -1.4484253q4.578125 0.003967285 6.765625 2.6777344q2.1875 2.673767 2.1875 7.783142l0 16.109375l-4.375 -0.0037841797l0 -15.515625q0 -3.6875 -1.390625 -5.4699707q-1.375 -1.7824097 -4.578125 -1.7852173q-2.296875 -0.0020141602 -4.109375 1.168335q-1.8125 1.1702881 -4.109375 3.512024l0 18.078125l-4.375 -0.0037841797zm48.69995 0.68292236q-4.109375 -0.003540039 -6.296875 -2.3804932q-2.1875 -2.376892 -2.1875 -6.955017l0 -25.703125l-8.859375 -0.0076904297l0 -3.578125l13.234375 0.011474609l0 29.593811q0 2.828125 1.375 4.1105347q1.390625 1.2824707 3.6875 1.2844849q1.125 9.765625E-4 2.296875 -0.29492188q1.171875 -0.2958374 2.609375 -0.9352417l1.125 3.3134766q-1.765625 0.6390991 -3.3125 1.0908813q-1.546875 0.45178223 -3.671875 0.44995117zm27.199951 -0.6170044l0 -22.34375l-12.0625 -0.010498047l0 -3.578125l16.421875 0.014282227l0 25.921875l-4.359375 -0.0037841797zm1.703125 -31.35791q-1.5 -0.0012817383 -2.515625 -0.92407227q-1.0 -0.9383545 -1.0 -2.4852295q0 -1.546875 1.0 -2.4835205q1.015625 -0.9365845 2.515625 -0.93530273q1.484375 0.0012817383 2.5 0.93969727q1.015625 0.9383545 1.015625 2.4852295q0 1.546875 -1.015625 2.4835205q-1.015625 0.9209595 -2.5 0.91967773zm18.387451 31.375366l0 -25.921875l3.625 0.0031738281l0.375 4.437805l0.21875 1.8310547E-4q2.03125 -2.18573 4.375 -3.6212158q2.34375 -1.4510498 5.390625 -1.4484253q4.578125 0.003967285 6.765625 2.6777344q2.1875 2.673767 2.1875 7.783142l0 16.109436l-4.375 -0.0038452148l0 -15.515625q0 -3.6875 -1.390625 -5.4699707q-1.375 -1.7824097 -4.578125 -1.7852173q-2.296875 -0.0020141602 -4.109375 1.168335q-1.8125 1.1702881 -4.109375 3.512024l0 18.078125l-4.375 -0.0037841797zm44.63745 0.6793823q-3.890625 -0.0033569336 -7.0625 -1.5998535q-3.171875 -1.6121216 -5.046875 -4.6762695q-1.859375 -3.064148 -1.859375 -7.392273q0 -4.203125 1.859375 -7.232727q1.875 -3.045227 4.890625 -4.6676636q3.015625 -1.6380005 6.484375 -1.6349487q3.71875 0.0032348633 6.359375 1.5367432q2.640625 1.5179443 4.046875 4.237915q1.421875 2.7199707 1.421875 6.3918457q0 0.75 -0.0625 1.453064q-0.046875 0.6875 -0.140625 1.2186279l-21.921875 -0.019042969l0 -3.40625l19.296875 0.016784668l-1.109375 1.2177734q0 -4.578125 -2.109375 -6.876831q-2.109375 -2.298706 -5.6875 -2.3018188q-2.390625 -0.0020751953 -4.453125 1.1680298q-2.046875 1.170105 -3.28125 3.4190063q-1.21875 2.2333374 -1.21875 5.4833374q0 3.359375 1.328125 5.6105347q1.34375 2.2355347 3.625 3.3937378q2.296875 1.1426392 5.171875 1.1451416q2.359375 0.0020141602 4.25 -0.6682129q1.890625 -0.67022705 3.65625 -1.7780762l1.59375 2.8764038q-1.921875 1.279602 -4.40625 2.1836548q-2.46875 0.90411377 -5.625 0.9013672z" fill-rule="nonzero"/><path fill="#000000" fill-opacity="0.0" d="m479.9987 941.64874l290.07877 0.25195312l0 77.88977l-290.07877 -0.25195312z" fill-rule="evenodd"/><path fill="#000000" d="m505.85806 1001.8712l0 -22.34375l-12.0625 -0.010498047l0 -3.578125l16.421875 0.014282227l0 25.921875l-4.359375 -0.0037841797zm1.703125 -31.35791q-1.5 -0.0012817383 -2.515625 -0.92407227q-1.0 -0.9383545 -1.0 -2.4852295q0 -1.546875 1.0 -2.4835205q1.015625 -0.9365845 2.515625 -0.93530273q1.484375 0.0012817383 2.5 0.93969727q1.015625 0.9383545 1.015625 2.4852295q0 1.546875 -1.015625 2.4835205q-1.015625 0.9209595 -2.5 0.91967773zm18.38742 31.375366l0 -25.921875l3.625 0.0031738281l0.375 4.437805l0.21875 1.8310547E-4q2.03125 -2.18573 4.375 -3.6212158q2.34375 -1.4510498 5.390625 -1.4484253q4.578125 0.003967285 6.765625 2.6777344q2.1875 2.673767 2.1875 7.783142l0 16.109436l-4.375 -0.0038452148l0 -15.515625q0 -3.6875 -1.390625 -5.4699707q-1.375 -1.7824097 -4.578125 -1.7852173q-2.296875 -0.001953125 -4.109375 1.168335q-1.8125 1.1702881 -4.109375 3.512024l0 18.078125l-4.375 -0.0037841797zm48.69995 0.68292236q-4.109375 -0.003540039 -6.296875 -2.3804321q-2.1875 -2.3769531 -2.1875 -6.955078l0 -25.703125l-8.859375 -0.0076904297l0 -3.578125l13.234375 0.0115356445l0 29.59375q0 2.828125 1.375 4.1105347q1.390625 1.2824707 3.6875 1.2844849q1.125 9.765625E-4 2.296875 -0.29492188q1.171875 -0.2958374 2.609375 -0.93518066l1.125 3.3134766q-1.765625 0.6390381 -3.3125 1.0908203q-1.546875 0.45178223 -3.671875 0.44995117zm27.199951 -0.6170044l0 -22.34375l-12.0625 -0.010437012l0 -3.578186l16.421875 0.014282227l0 25.921875l-4.359375 -0.0037841797zm1.703125 -31.35791q-1.5 -0.0012817383 -2.515625 -0.92401123q-1.0 -0.9384155 -1.0 -2.4852905q0 -1.546875 1.0 -2.4834595q1.015625 -0.9366455 2.515625 -0.93536377q1.484375 0.0012817383 2.5 0.93969727q1.015625 0.9383545 1.015625 2.4852295q0 1.546875 -1.015625 2.4835205q-1.015625 0.9209595 -2.5 0.91967773zm18.387451 31.375366l0 -25.921875l3.625 0.0031738281l0.375 4.437805l0.21875 1.8310547E-4q2.03125 -2.18573 4.375 -3.6212158q2.34375 -1.4510498 5.390625 -1.4484253q4.578125 0.003967285 6.765564 2.6777344q2.1875 2.6738281 2.1875 7.783203l0 16.109375l-4.374939 -0.0038452148l0 -15.515625q0 -3.6875 -1.390625 -5.4699707q-1.375 -1.7824097 -4.578125 -1.7852173q-2.296875 -0.001953125 -4.109375 1.168335q-1.8125 1.1702881 -4.109375 3.512024l0 18.078125l-4.375 -0.0037841797zm44.63739 0.6793823q-3.890625 -0.0033569336 -7.0625 -1.5998535q-3.171875 -1.6121216 -5.046875 -4.6762695q-1.859375 -3.064087 -1.859375 -7.392212q0 -4.203125 1.859375 -7.232788q1.875 -3.045227 4.890625 -4.6676025q3.015625 -1.6380005 6.484375 -1.6350098q3.71875 0.0032348633 6.359375 1.5367432q2.640625 1.5179443 4.046875 4.237915q1.421875 2.7199707 1.421875 6.3918457q0 0.75 -0.0625 1.453064q-0.046875 0.6875 -0.140625 1.2186279l-21.921875 -0.019042969l0 -3.40625l19.296875 0.016784668l-1.109375 1.2177734q0 -4.578125 -2.109375 -6.876831q-2.109375 -2.298706 -5.6875 -2.3018188q-2.390625 -0.0020751953 -4.453125 1.1680298q-2.046875 1.170105 -3.28125 3.4190063q-1.21875 2.2333374 -1.21875 5.4833374q0 3.359375 1.328125 5.6105347q1.34375 2.2355347 3.625 3.3937378q2.296875 1.1426392 5.171875 1.1451416q2.359375 0.0020751953 4.25 -0.66815186q1.890625 -0.6702881 3.65625 -1.7780762l1.59375 2.8763428q-1.921875 1.279602 -4.40625 2.1837158q-2.46875 0.90405273 -5.625 0.90130615z" fill-rule="nonzero"/></g></svg>