<svg version="1.1" viewBox="0.0 0.0 2613.031496062992 1548.262467191601" fill="none" stroke="none" stroke-linecap="square" stroke-miterlimit="10" xmlns:xlink="http://www.w3.org/1999/xlink" xmlns="http://www.w3.org/2000/svg"><clipPath id="p.0"><path d="m0 0l2613.0315 0l0 1548.2625l-2613.0315 0l0 -1548.2625z" clip-rule="nonzero"/></clipPath><g clip-path="url(#p.0)"><path fill="#000000" fill-opacity="0.0" d="m0 0l2613.0315 0l0 1548.2625l-2613.0315 0z" fill-rule="evenodd"/><path fill="#000000" fill-opacity="0.0" d="m2574.9841 173.57538l0 0c0 -88.47749 -71.7251 -160.20267 -160.20264 -160.20267l-640.7914 0l0 0c-42.488403 0 -83.23657 16.878448 -113.280396 46.92228c-30.043823 30.04383 -46.922363 70.79201 -46.922363 113.280396l0 1139.7207c0 88.47754 71.72522 160.20264 160.20276 160.20264l640.7914 0c88.47754 0 160.20264 -71.7251 160.20264 -160.20264z" fill-rule="evenodd"/><path stroke="#cccccc" stroke-width="1.0" stroke-linejoin="round" stroke-linecap="butt" d="m2574.9841 173.57538l0 0c0 -88.47749 -71.7251 -160.20267 -160.20264 -160.20267l-640.7914 0l0 0c-42.488403 0 -83.23657 16.878448 -113.280396 46.92228c-30.043823 30.04383 -46.922363 70.79201 -46.922363 113.280396l0 1139.7207c0 88.47754 71.72522 160.20264 160.20276 160.20264l640.7914 0c88.47754 0 160.20264 -71.7251 160.20264 -160.20264z" fill-rule="evenodd"/><path fill="#351c75" d="m1692.0841 187.27069q-5.578125 0 -10.015625 -2.1875q-4.4375 -2.203125 -6.96875 -6.375q-2.53125 -4.1875 -2.53125 -10.0625q0 -6.015625 2.71875 -10.1875q2.71875 -4.1875 7.21875 -6.375q4.515625 -2.203125 9.9375 -2.203125q4.40625 0 7.59375 1.546875q3.1875 1.53125 5.390625 3.65625l-3.015625 3.890625q-2.1875 -1.90625 -4.546875 -3.0q-2.34375 -1.109375 -5.203125 -1.109375q-4.09375 0 -7.25 1.734375q-3.15625 1.71875 -4.890625 4.828125q-1.71875 3.109375 -1.71875 7.21875q0 4.03125 1.6875 7.125q1.6875 3.078125 4.796875 4.796875q3.125 1.71875 7.234375 1.71875q3.296875 0 6.046875 -1.3125q2.75 -1.328125 4.953125 -3.15625l2.71875 3.890625q-2.9375 2.640625 -6.578125 4.109375q-3.625 1.453125 -7.578125 1.453125zm48.38745 0q-5.640625 0 -8.65625 -3.25q-3.0 -3.265625 -3.0 -9.578125l0 -35.34375l-12.171875 0l0 -4.90625l18.1875 0l0 40.6875q0 3.890625 1.90625 5.65625q1.90625 1.75 5.0625 1.75q1.53125 0 3.140625 -0.390625q1.625 -0.40625 3.609375 -1.296875l1.53125 4.546875q-2.421875 0.890625 -4.546875 1.5q-2.125 0.625 -5.0625 0.625zm32.26245 0q-3.296875 0 -6.078125 -1.203125q-2.78125 -1.21875 -4.40625 -3.484375q-1.609375 -2.28125 -1.609375 -5.421875q0 -6.015625 6.015625 -9.125q6.015625 -3.125 19.796875 -4.21875q-0.078125 -2.421875 -1.0 -4.46875q-0.90625 -2.0625 -2.96875 -3.265625q-2.046875 -1.21875 -5.484375 -1.21875q-2.28125 0 -4.515625 0.625q-2.234375 0.625 -4.25 1.625q-2.015625 0.984375 -3.703125 2.0l-2.34375 -4.109375q1.75 -1.171875 4.28125 -2.375q2.53125 -1.21875 5.46875 -1.984375q2.9375 -0.765625 6.078125 -0.765625q4.921875 0 8.109375 1.84375q3.1875 1.828125 4.765625 5.09375q1.578125 3.25 1.578125 7.71875l0 21.859375l-4.921875 0l-0.5 -4.84375l-0.21875 0q-2.9375 2.34375 -6.609375 4.03125q-3.65625 1.6875 -7.484375 1.6875zm1.625 -4.828125q3.078125 0 6.078125 -1.390625q3.015625 -1.40625 6.015625 -3.890625l0 -9.390625q-7.625 0.65625 -11.984375 1.828125q-4.359375 1.171875 -6.15625 2.96875q-1.796875 1.796875 -1.796875 4.15625q0 1.96875 1.09375 3.25q1.09375 1.28125 2.890625 1.875q1.796875 0.59375 3.859375 0.59375zm47.07495 4.828125q-5.203125 0 -9.75 -1.6875q-4.546875 -1.6875 -7.78125 -3.875l2.796875 -3.96875q3.078125 2.203125 6.8125 3.53125q3.734375 1.3125 8.65625 1.3125q4.546875 0 6.78125 -1.6875q2.234375 -1.6875 2.234375 -3.890625q0 -1.015625 -0.40625 -1.890625q-0.40625 -0.890625 -1.546875 -1.6875q-1.125 -0.8125 -3.328125 -1.546875q-2.203125 -0.734375 -5.859375 -1.46875q-6.96875 -1.46875 -10.453125 -3.953125q-3.484375 -2.5 -3.484375 -6.453125q0 -4.328125 3.734375 -7.21875q3.75 -2.90625 11.078125 -2.90625q4.109375 0 7.921875 1.359375q3.8125 1.359375 6.453125 3.1875l-2.9375 3.890625q-2.421875 -1.765625 -5.5 -2.75q-3.078125 -1.0 -6.453125 -1.0q-3.078125 0 -4.875 0.703125q-1.796875 0.6875 -2.5625 1.875q-0.765625 1.171875 -0.765625 2.5625q0 2.265625 2.453125 3.546875q2.453125 1.28125 7.875 2.390625q5.9375 1.25 9.125 2.796875q3.203125 1.53125 4.40625 3.515625q1.21875 1.96875 1.21875 4.6875q0 2.9375 -1.84375 5.328125q-1.828125 2.375 -5.359375 3.84375q-3.515625 1.453125 -8.640625 1.453125zm43.996826 0q-5.203125 0 -9.75 -1.6875q-4.546875 -1.6875 -7.78125 -3.875l2.796875 -3.96875q3.078125 2.203125 6.8125 3.53125q3.734375 1.3125 8.65625 1.3125q4.546875 0 6.78125 -1.6875q2.234375 -1.6875 2.234375 -3.890625q0 -1.015625 -0.40625 -1.890625q-0.40625 -0.890625 -1.546875 -1.6875q-1.125 -0.8125 -3.328125 -1.546875q-2.203125 -0.734375 -5.859375 -1.46875q-6.96875 -1.46875 -10.453125 -3.953125q-3.484375 -2.5 -3.484375 -6.453125q0 -4.328125 3.734375 -7.21875q3.75 -2.90625 11.078125 -2.90625q4.109375 0 7.921875 1.359375q3.8125 1.359375 6.453125 3.1875l-2.9375 3.890625q-2.421875 -1.765625 -5.5 -2.75q-3.078125 -1.0 -6.453125 -1.0q-3.078125 0 -4.875 0.703125q-1.796875 0.6875 -2.5625 1.875q-0.765625 1.171875 -0.765625 2.5625q0 2.265625 2.453125 3.546875q2.453125 1.28125 7.875 2.390625q5.9375 1.25 9.125 2.796875q3.203125 1.53125 4.40625 3.515625q1.21875 1.96875 1.21875 4.6875q0 2.9375 -1.84375 5.328125q-1.828125 2.375 -5.359375 3.84375q-3.515625 1.453125 -8.640625 1.453125z" fill-rule="nonzero"/><path fill="#000000" d="m1940.4401 186.39569l0 -48.109375l29.546875 0l0 5.140625l-23.390625 0l0 16.28125l19.796875 0l0 5.125l-19.796875 0l0 21.5625l-6.15625 0zm56.246704 0.875q-4.6875 0 -8.6875 -2.1875q-4.0 -2.203125 -6.453125 -6.375q-2.453125 -4.1875 -2.453125 -10.0625q0 -6.015625 2.453125 -10.1875q2.453125 -4.1875 6.453125 -6.375q4.0 -2.203125 8.6875 -2.203125q4.6875 0 8.6875 2.203125q4.0 2.1875 6.453125 6.375q2.453125 4.171875 2.453125 10.1875q0 5.875 -2.453125 10.0625q-2.453125 4.171875 -6.453125 6.375q-4.0 2.1875 -8.6875 2.1875zm0 -4.984375q3.4375 0 6.0 -1.71875q2.578125 -1.71875 3.96875 -4.796875q1.390625 -3.09375 1.390625 -7.125q0 -4.109375 -1.390625 -7.21875q-1.390625 -3.109375 -3.96875 -4.828125q-2.5625 -1.734375 -6.0 -1.734375q-3.453125 0 -5.984375 1.734375q-2.515625 1.71875 -3.953125 4.828125q-1.4375 3.109375 -1.4375 7.21875q0 4.03125 1.4375 7.125q1.4375 3.078125 3.953125 4.796875q2.53125 1.71875 5.984375 1.71875zm43.996826 4.984375q-4.6875 0 -8.6875 -2.1875q-4.0 -2.203125 -6.453125 -6.375q-2.453125 -4.1875 -2.453125 -10.0625q0 -6.015625 2.453125 -10.1875q2.453125 -4.1875 6.453125 -6.375q4.0 -2.203125 8.6875 -2.203125q4.6875 0 8.6875 2.203125q4.0 2.1875 6.453125 6.375q2.453125 4.171875 2.453125 10.1875q0 5.875 -2.453125 10.0625q-2.453125 4.171875 -6.453125 6.375q-4.0 2.1875 -8.6875 2.1875zm0 -4.984375q3.4375 0 6.0 -1.71875q2.578125 -1.71875 3.96875 -4.796875q1.390625 -3.09375 1.390625 -7.125q0 -4.109375 -1.390625 -7.21875q-1.390625 -3.109375 -3.96875 -4.828125q-2.5625 -1.734375 -6.0 -1.734375q-3.453125 0 -5.984375 1.734375q-2.515625 1.71875 -3.953125 4.828125q-1.4375 3.109375 -1.4375 7.21875q0 4.03125 1.4375 7.125q1.4375 3.078125 3.953125 4.796875q2.53125 1.71875 5.984375 1.71875z" fill-rule="nonzero"/><path fill="#000000" d="m2096.196 197.94257q-7.140625 0 -10.609375 -2.125q-3.453125 -2.125 -3.453125 -7.984375q0 -2.8125 0.15625 -5.15625q0.15625 -2.359375 0.34375 -4.671875q0.1875 -2.328125 0.1875 -4.828125q0 -1.53125 -0.875 -2.859375q-0.875 -1.328125 -3.265625 -2.203125q-2.390625 -0.875 -6.875 -0.875l0 -3.953125q4.484375 0 6.875 -0.875q2.390625 -0.875 3.265625 -2.234375q0.875 -1.375 0.875 -2.8125q0 -2.359375 -0.1875 -4.75q-0.1875 -2.390625 -0.34375 -4.828125q-0.15625 -2.4375 -0.15625 -5.09375q0 -5.84375 3.453125 -7.96875q3.46875 -2.140625 10.609375 -2.140625l4.640625 0l0 3.578125l-3.953125 0q-3.875 0 -5.890625 0.71875q-2.015625 0.71875 -2.78125 2.203125q-0.75 1.484375 -0.75 4.0q0 3.265625 0.21875 6.71875q0.234375 3.453125 0.234375 7.03125q0 3.640625 -1.484375 5.625q-1.484375 1.96875 -5.4375 2.65625l0 0.3125q3.953125 0.671875 5.4375 2.65625q1.484375 1.96875 1.484375 5.625q0 3.796875 -0.234375 7.03125q-0.21875 3.21875 -0.21875 6.71875q0 2.4375 0.75 3.953125q0.765625 1.515625 2.78125 2.234375q2.015625 0.734375 5.890625 0.734375l3.953125 0l0 3.5625l-4.640625 0z" fill-rule="nonzero"/><path fill="#000000" d="m1863.1154 396.3957l0 -36.9375l5.015625 0l0.53125 4.859375l0.15625 0q1.4375 -2.578125 3.34375 -4.171875q1.90625 -1.59375 5.09375 -1.59375q2.734375 0 4.484375 1.59375q1.75 1.59375 2.5 4.78125q1.59375 -2.953125 3.53125 -4.65625q1.953125 -1.71875 5.140625 -1.71875q3.875 0 6.03125 2.921875q2.171875 2.921875 2.171875 8.46875l0 26.453125l-6.234375 0l0 -25.984375q0 -6.46875 -3.953125 -6.46875q-1.890625 0 -3.15625 1.40625q-1.25 1.40625 -2.765625 4.296875l0 26.75l-5.78125 0l0 -25.984375q0 -3.203125 -0.875 -4.828125q-0.875 -1.640625 -2.921875 -1.640625q-1.90625 0 -3.3125 1.40625q-1.390625 1.40625 -2.765625 4.296875l0 26.75l-6.234375 0z" fill-rule="nonzero"/><path fill="#000000" d="m1915.7936 396.88007q-2.203125 0 -3.921875 -0.515625q-1.71875 -0.53125 -3.03125 -1.328125q-1.296875 -0.796875 -2.25 -1.765625l1.671875 -2.15625q1.28125 1.203125 3.078125 2.125q1.8125 0.921875 4.25 0.921875q1.7655029 0 3.140503 -0.578125q1.375 -0.59375 2.171875 -1.640625q0.8125 -1.0625 0.8125 -2.46875q0 -1.515625 -0.921875 -2.65625q-0.921875 -1.140625 -2.96875 -1.78125q-2.031128 -0.640625 -5.390503 -0.640625l0 -2.515625q3.03125 0 4.874878 -0.640625q1.84375 -0.640625 2.65625 -1.703125q0.828125 -1.0625 0.828125 -2.421875q0 -1.875 -1.421875 -2.953125q-1.421875 -1.078125 -3.781128 -1.078125q-1.796875 0 -3.421875 0.71875q-1.625 0.71875 -2.859375 1.875l-1.765625 -2.078125q1.609375 -1.40625 3.65625 -2.296875q2.0625 -0.90625 4.515625 -0.90625q2.390503 0 4.281128 0.765625q1.90625 0.75 3.03125 2.203125q1.125 1.4375 1.125 3.515625q0 2.3125 -1.546875 3.796875q-1.53125 1.484375 -3.890625 2.28125l0 0.15625q1.671875 0.359375 3.125 1.21875q1.46875 0.859375 2.328125 2.1875q0.859375 1.3125 0.859375 3.078125q0 2.28125 -1.265625 3.90625q-1.25 1.609375 -3.328125 2.5q-2.078125 0.875 -4.640503 0.875z" fill-rule="nonzero"/><path fill="#000000" d="m1961.2153 409.7707q-7.90625 -6.234375 -12.5 -14.859375q-4.59375 -8.625 -4.59375 -19.640625q0 -11.015625 4.59375 -19.671875q4.59375 -8.671875 12.5 -14.828125l3.421875 3.1875q-7.59375 6.375 -11.25 14.0625q-3.640625 7.671875 -3.640625 17.25q0 9.578125 3.640625 17.21875q3.65625 7.625 11.25 14.09375l-3.421875 3.1875zm25.381226 0l-3.421875 -3.1875q7.609375 -6.46875 11.25 -14.09375q3.65625 -7.640625 3.65625 -17.21875q0 -9.578125 -3.65625 -17.25q-3.640625 -7.6875 -11.25 -14.0625l3.421875 -3.1875q7.984375 6.15625 12.546875 14.828125q4.5625 8.65625 4.5625 19.671875q0 11.015625 -4.5625 19.640625q-4.5625 8.625 -12.546875 14.859375zm66.4281 -1.828125q-7.140503 0 -10.609253 -2.125q-3.453125 -2.125 -3.453125 -7.984375q0 -2.8125 0.15625 -5.15625q0.15625 -2.359375 0.34375 -4.671875q0.1875 -2.328125 0.1875 -4.828125q0 -1.53125 -0.875 -2.859375q-0.875 -1.328125 -3.265625 -2.203125q-2.390625 -0.875 -6.875 -0.875l0 -3.953125q4.484375 0 6.875 -0.875q2.390625 -0.875 3.265625 -2.234375q0.875 -1.375 0.875 -2.8125q0 -2.359375 -0.1875 -4.75q-0.1875 -2.390625 -0.34375 -4.828125q-0.15625 -2.4375 -0.15625 -5.09375q0 -5.84375 3.453125 -7.96875q3.46875 -2.140625 10.609253 -2.140625l4.640625 0l0 3.578125l-3.953125 0q-3.875 0 -5.890503 0.71875q-2.015625 0.71875 -2.78125 2.203125q-0.75 1.484375 -0.75 4.0q0 3.265625 0.21875 6.71875q0.234375 3.453125 0.234375 7.03125q0 3.640625 -1.484375 5.625q-1.484375 1.96875 -5.4375 2.65625l0 0.3125q3.953125 0.671875 5.4375 2.65625q1.484375 1.96875 1.484375 5.625q0 3.796875 -0.234375 7.03125q-0.21875 3.21875 -0.21875 6.71875q0 2.4375 0.75 3.953125q0.765625 1.515625 2.78125 2.234375q2.015503 0.734375 5.890503 0.734375l3.953125 0l0 3.5625l-4.640625 0z" fill-rule="nonzero"/><path fill="#f4cccc" d="m1666.7091 428.4357l455.99988 0l0 91.19998l-455.99988 0l0 -91.19998z" fill-rule="nonzero"/><path fill="#000000" fill-opacity="0.0" d="m1666.7091 426.61172l45.600098 0l0 95.53201l-45.600098 0l0 -95.53201z" fill-rule="nonzero"/><path fill="#990000" d="m1673.1622 478.67694l0 -4.71875l32.6875 0l0 4.71875l-32.6875 0z" fill-rule="nonzero"/><path fill="#010000" fill-opacity="0.0" d="m1712.3092 426.61172l410.39978 0l0 95.53201l-410.39978 0l0 -95.53201z" fill-rule="nonzero"/><path fill="#000000" d="m2008.7059 502.30194q-2.5 0 -4.328125 -1.78125q-1.828125 -1.78125 -1.828125 -4.59375q0 -2.890625 1.828125 -4.671875q1.828125 -1.796875 4.328125 -1.796875q2.59375 0 4.375 1.796875q1.78125 1.78125 1.78125 4.671875q0 2.8125 -1.78125 4.59375q-1.78125 1.78125 -4.375 1.78125zm45.599976 0q-2.5 0 -4.328125 -1.78125q-1.828125 -1.78125 -1.828125 -4.59375q0 -2.890625 1.828125 -4.671875q1.828125 -1.796875 4.328125 -1.796875q2.59375 0 4.375 1.796875q1.78125 1.78125 1.78125 4.671875q0 2.8125 -1.78125 4.59375q-1.78125 1.78125 -4.375 1.78125zm45.600098 0q-2.5 0 -4.328125 -1.78125q-1.828125 -1.78125 -1.828125 -4.59375q0 -2.890625 1.828125 -4.671875q1.828125 -1.796875 4.328125 -1.796875q2.59375 0 4.375 1.796875q1.78125 1.78125 1.78125 4.671875q0 2.8125 -1.78125 4.59375q-1.78125 1.78125 -4.375 1.78125z" fill-rule="nonzero"/><path fill="#000000" d="m2059.106 607.302q-2.5 0 -4.328125 -1.78125q-1.828125 -1.78125 -1.828125 -4.59375q0 -2.890625 1.828125 -4.671875q1.828125 -1.796875 4.328125 -1.796875q2.59375 0 4.375 1.796875q1.78125 1.78125 1.78125 4.671875q0 2.8125 -1.78125 4.59375q-1.78125 1.78125 -4.375 1.78125zm45.600098 0q-2.5 0 -4.328125 -1.78125q-1.828125 -1.78125 -1.828125 -4.59375q0 -2.890625 1.828125 -4.671875q1.828125 -1.796875 4.328125 -1.796875q2.59375 0 4.375 1.796875q1.78125 1.78125 1.78125 4.671875q0 2.8125 -1.78125 4.59375q-1.78125 1.78125 -4.375 1.78125zm45.599854 0q-2.5 0 -4.328125 -1.78125q-1.828125 -1.78125 -1.828125 -4.59375q0 -2.890625 1.828125 -4.671875q1.828125 -1.796875 4.328125 -1.796875q2.59375 0 4.375 1.796875q1.78125 1.78125 1.78125 4.671875q0 2.8125 -1.78125 4.59375q-1.78125 1.78125 -4.375 1.78125z" fill-rule="nonzero"/><path fill="#000000" d="m1866.2404 722.9426l0 -3.5625l3.875 0q3.953125 0 5.953125 -0.734375q2.015625 -0.71875 2.78125 -2.234375q0.765625 -1.515625 0.765625 -3.953125q0 -3.5 -0.234375 -6.71875q-0.234375 -3.234375 -0.234375 -7.03125q0 -3.65625 1.4375 -5.625q1.453125 -1.984375 5.40625 -2.65625l0 -0.3125q-3.953125 -0.6875 -5.40625 -2.65625q-1.4375 -1.984375 -1.4375 -5.625q0 -3.578125 0.234375 -7.03125q0.234375 -3.453125 0.234375 -6.71875q0 -2.515625 -0.765625 -4.0q-0.765625 -1.484375 -2.78125 -2.203125q-2.0 -0.71875 -5.953125 -0.71875l-3.875 0l0 -3.578125l4.625 0q7.140625 0 10.5625 2.140625q3.421875 2.125 3.421875 7.96875q0 2.65625 -0.15625 5.09375q-0.140625 2.4375 -0.34375 4.828125q-0.1875 2.390625 -0.1875 4.75q0 1.4375 0.875 2.8125q0.875 1.359375 3.265625 2.234375q2.40625 0.875 6.890625 0.875l0 3.953125q-4.484375 0 -6.890625 0.875q-2.390625 0.875 -3.265625 2.203125q-0.875 1.328125 -0.875 2.859375q0 2.5 0.1875 4.828125q0.203125 2.3125 0.34375 4.671875q0.15625 2.34375 0.15625 5.15625q0 5.859375 -3.421875 7.984375q-3.421875 2.125 -10.5625 2.125l-4.625 0z" fill-rule="nonzero"/><path fill="#d9ead3" d="m1666.7091 848.4357l364.80005 0l0 91.20001l-364.80005 0l0 -91.20001z" fill-rule="nonzero"/><path fill="#000000" fill-opacity="0.0" d="m1666.7091 846.61176l45.600098 0l0 95.53198l-45.600098 0l0 -95.53198z" fill-rule="nonzero"/><path fill="#38761d" d="m1687.006 913.4895l0 -14.8125l-13.84375 0l0 -4.71875l13.84375 0l0 -14.8125l5.015625 0l0 14.8125l13.828125 0l0 4.71875l-13.828125 0l0 14.8125l-5.015625 0z" fill-rule="nonzero"/><path fill="#010000" fill-opacity="0.0" d="m1712.3092 846.61176l319.19983 0l0 95.53198l-319.19983 0l0 -95.53198z" fill-rule="nonzero"/><path fill="#000000" d="m1853.5154 921.39575l0 -36.9375l5.015625 0l0.53125 4.859375l0.15625 0q1.4375 -2.578125 3.34375 -4.171875q1.90625 -1.59375 5.09375 -1.59375q2.734375 0 4.484375 1.59375q1.75 1.59375 2.5 4.78125q1.59375 -2.953125 3.53125 -4.65625q1.953125 -1.71875 5.140625 -1.71875q3.875 0 6.03125 2.921875q2.171875 2.921875 2.171875 8.46875l0 26.453125l-6.234375 0l0 -25.984375q0 -6.46875 -3.953125 -6.46875q-1.890625 0 -3.15625 1.40625q-1.25 1.40625 -2.765625 4.296875l0 26.75l-5.78125 0l0 -25.984375q0 -3.203125 -0.875 -4.828125q-0.875 -1.640625 -2.921875 -1.640625q-1.90625 0 -3.3125 1.40625q-1.390625 1.40625 -2.765625 4.296875l0 26.75l-6.234375 0zm74.099976 13.375q-7.90625 -6.234375 -12.5 -14.859375q-4.59375 -8.625 -4.59375 -19.640625q0 -11.015625 4.59375 -19.671875q4.59375 -8.671875 12.5 -14.828125l3.421875 3.1875q-7.59375 6.375 -11.25 14.0625q-3.640625 7.671875 -3.640625 17.25q0 9.578125 3.640625 17.21875q3.65625 7.625 11.25 14.09375l-3.421875 3.1875zm25.381226 0l-3.421875 -3.1875q7.609375 -6.46875 11.25 -14.09375q3.65625 -7.640625 3.65625 -17.21875q0 -9.578125 -3.65625 -17.25q-3.640625 -7.6875 -11.25 -14.0625l3.421875 -3.1875q7.984375 6.15625 12.546875 14.828125q4.5625 8.65625 4.5625 19.671875q0 11.015625 -4.5625 19.640625q-4.5625 8.625 -12.546875 14.859375zm66.4281 -1.828125q-7.140625 0 -10.609375 -2.125q-3.453125 -2.125 -3.453125 -7.984375q0 -2.8125 0.15625 -5.15625q0.15625 -2.359375 0.34375 -4.671875q0.1875 -2.328125 0.1875 -4.828125q0 -1.53125 -0.875 -2.859375q-0.875 -1.328125 -3.265625 -2.203125q-2.390625 -0.875 -6.875 -0.875l0 -3.953125q4.484375 0 6.875 -0.875q2.390625 -0.875 3.265625 -2.234375q0.875 -1.375 0.875 -2.8125q0 -2.359375 -0.1875 -4.75q-0.1875 -2.390625 -0.34375 -4.828125q-0.15625 -2.4375 -0.15625 -5.09375q0 -5.84375 3.453125 -7.96875q3.46875 -2.140625 10.609375 -2.140625l4.640625 0l0 3.578125l-3.953125 0q-3.875 0 -5.890625 0.71875q-2.015625 0.71875 -2.78125 2.203125q-0.75 1.484375 -0.75 4.0q0 3.265625 0.21875 6.71875q0.234375 3.453125 0.234375 7.03125q0 3.640625 -1.484375 5.625q-1.484375 1.96875 -5.4375 2.65625l0 0.3125q3.953125 0.671875 5.4375 2.65625q1.484375 1.96875 1.484375 5.625q0 3.796875 -0.234375 7.03125q-0.21875 3.21875 -0.21875 6.71875q0 2.4375 0.75 3.953125q0.765625 1.515625 2.78125 2.234375q2.015625 0.734375 5.890625 0.734375l3.953125 0l0 3.5625l-4.640625 0z" fill-rule="nonzero"/><path fill="#010000" fill-opacity="0.0" d="m2031.509 846.61176l0 0l0 95.53198l0 0l0 -95.53198z" fill-rule="nonzero"/><path fill="#d9ead3" d="m1666.7091 953.4357l410.40002 0l0 91.20001l-410.40002 0l0 -91.20001z" fill-rule="nonzero"/><path fill="#000000" fill-opacity="0.0" d="m1666.7091 951.61176l45.600098 0l0 95.53192l-45.600098 0l0 -95.53192z" fill-rule="nonzero"/><path fill="#38761d" d="m1687.006 1018.4895l0 -14.8125l-13.84375 0l0 -4.71875l13.84375 0l0 -14.8125l5.015625 0l0 14.8125l13.828125 0l0 4.71875l-13.828125 0l0 14.8125l-5.015625 0z" fill-rule="nonzero"/><path fill="#010000" fill-opacity="0.0" d="m1712.3092 951.61176l91.19995 0l0 95.53192l-91.19995 0l0 -95.53192z" fill-rule="nonzero"/><path fill="#000000" fill-opacity="0.0" d="m1803.5092 951.61176l136.79993 0l0 95.53192l-136.79993 0l0 -95.53192z" fill-rule="nonzero"/><path fill="#010000" fill-opacity="0.0" d="m1940.3091 951.61176l136.80005 0l0 95.53192l-136.80005 0l0 -95.53192z" fill-rule="nonzero"/><path fill="#000000" d="m1963.106 1027.302q-2.5 0 -4.328125 -1.78125q-1.828125 -1.78125 -1.828125 -4.59375q0 -2.890625 1.828125 -4.671875q1.828125 -1.796875 4.328125 -1.796875q2.59375 0 4.375 1.796875q1.78125 1.78125 1.78125 4.671875q0 2.8125 -1.78125 4.59375q-1.78125 1.78125 -4.375 1.78125zm45.599976 0q-2.5 0 -4.328125 -1.78125q-1.828125 -1.78125 -1.828125 -4.59375q0 -2.890625 1.828125 -4.671875q1.828125 -1.796875 4.328125 -1.796875q2.59375 0 4.375 1.796875q1.78125 1.78125 1.78125 4.671875q0 2.8125 -1.78125 4.59375q-1.78125 1.78125 -4.375 1.78125zm45.599976 0q-2.5 0 -4.328125 -1.78125q-1.828125 -1.78125 -1.828125 -4.59375q0 -2.890625 1.828125 -4.671875q1.828125 -1.796875 4.328125 -1.796875q2.59375 0 4.375 1.796875q1.78125 1.78125 1.78125 4.671875q0 2.8125 -1.78125 4.59375q-1.78125 1.78125 -4.375 1.78125z" fill-rule="nonzero"/><path fill="#010000" fill-opacity="0.0" d="m2077.1091 951.61176l0 0l0 95.53192l0 0l0 -95.53192z" fill-rule="nonzero"/><path fill="#d9ead3" d="m1666.7091 1058.4357l228.0 0l0 91.19995l-228.0 0l0 -91.19995z" fill-rule="nonzero"/><path fill="#000000" fill-opacity="0.0" d="m1666.7091 1056.6117l45.600098 0l0 95.53186l-45.600098 0l0 -95.53186z" fill-rule="nonzero"/><path fill="#38761d" d="m1687.006 1123.4894l0 -14.8125l-13.84375 0l0 -4.71875l13.84375 0l0 -14.8125l5.015625 0l0 14.8125l13.828125 0l0 4.71875l-13.828125 0l0 14.8125l-5.015625 0z" fill-rule="nonzero"/><path fill="#010000" fill-opacity="0.0" d="m1712.3092 1056.6117l182.3999 0l0 95.53186l-182.3999 0l0 -95.53186z" fill-rule="nonzero"/><path fill="#000000" d="m1856.6404 1142.9425l0 -3.5625l3.875 0q3.953125 0 5.953125 -0.734375q2.015625 -0.71875 2.78125 -2.234375q0.765625 -1.515625 0.765625 -3.953125q0 -3.5 -0.234375 -6.71875q-0.234375 -3.234375 -0.234375 -7.03125q0 -3.65625 1.4375 -5.625q1.453125 -1.984375 5.40625 -2.65625l0 -0.3125q-3.953125 -0.6875 -5.40625 -2.65625q-1.4375 -1.984375 -1.4375 -5.625q0 -3.578125 0.234375 -7.03125q0.234375 -3.453125 0.234375 -6.71875q0 -2.515625 -0.765625 -4.0q-0.765625 -1.484375 -2.78125 -2.203125q-2.0 -0.71875 -5.953125 -0.71875l-3.875 0l0 -3.578125l4.625 0q7.140625 0 10.5625 2.140625q3.421875 2.125 3.421875 7.96875q0 2.65625 -0.15625 5.09375q-0.140625 2.4375 -0.34375 4.828125q-0.1875 2.390625 -0.1875 4.75q0 1.4375 0.875 2.8125q0.875 1.359375 3.265625 2.234375q2.40625 0.875 6.890625 0.875l0 3.953125q-4.484375 0 -6.890625 0.875q-2.390625 0.875 -3.265625 2.203125q-0.875 1.328125 -0.875 2.859375q0 2.5 0.1875 4.828125q0.203125 2.3125 0.34375 4.671875q0.15625 2.34375 0.15625 5.15625q0 5.859375 -3.421875 7.984375q-3.421875 2.125 -10.5625 2.125l-4.625 0z" fill-rule="nonzero"/><path fill="#010000" fill-opacity="0.0" d="m1894.7091 1056.6117l91.19995 0l0 95.53186l-91.19995 0l0 -95.53186z" fill-rule="nonzero"/><path fill="#000000" fill-opacity="0.0" d="m1985.909 1056.6117l45.599976 0l0 95.53186l-45.599976 0l0 -95.53186z" fill-rule="nonzero"/><path fill="#000000" fill-opacity="0.0" d="m2031.509 1056.6117l0 0l0 95.53186l0 0l0 -95.53186z" fill-rule="nonzero"/><path fill="#000000" d="m1674.2404 1352.9425l0 -3.5625l3.875 0q3.953125 0 5.953125 -0.734375q2.015625 -0.71875 2.78125 -2.234375q0.765625 -1.515625 0.765625 -3.953125q0 -3.5 -0.234375 -6.71875q-0.234375 -3.234375 -0.234375 -7.03125q0 -3.65625 1.4375 -5.625q1.453125 -1.984375 5.40625 -2.65625l0 -0.3125q-3.953125 -0.6875 -5.40625 -2.65625q-1.4375 -1.984375 -1.4375 -5.625q0 -3.578125 0.234375 -7.03125q0.234375 -3.453125 0.234375 -6.71875q0 -2.515625 -0.765625 -4.0q-0.765625 -1.484375 -2.78125 -2.203125q-2.0 -0.71875 -5.953125 -0.71875l-3.875 0l0 -3.578125l4.625 0q7.140625 0 10.5625 2.140625q3.421875 2.125 3.421875 7.96875q0 2.65625 -0.15625 5.09375q-0.140625 2.4375 -0.34375 4.828125q-0.1875 2.390625 -0.1875 4.75q0 1.4375 0.875 2.8125q0.875 1.359375 3.265625 2.234375q2.40625 0.875 6.890625 0.875l0 3.953125q-4.484375 0 -6.890625 0.875q-2.390625 0.875 -3.265625 2.203125q-0.875 1.328125 -0.875 2.859375q0 2.5 0.1875 4.828125q0.203125 2.3125 0.34375 4.671875q0.15625 2.34375 0.15625 5.15625q0 5.859375 -3.421875 7.984375q-3.421875 2.125 -10.5625 2.125l-4.625 0z" fill-rule="nonzero"/><path fill="#000000" fill-opacity="0.0" d="m1098.7631 578.7236l335.18103 0.25201416l0 170.74011l-335.18103 -0.25195312z" fill-rule="evenodd"/><path fill="#000000" d="m1171.9585 639.61926q-3.890625 -0.0029296875 -7.0625 -1.59906q-3.171875 -1.6117554 -5.046875 -4.675659q-1.859375 -3.0639038 -1.859375 -7.392029q0 -4.203125 1.859375 -7.232971q1.875 -3.0454712 4.890625 -4.668213q3.015625 -1.6383667 6.484375 -1.6357422q3.71875 0.002746582 6.359375 1.5360107q2.640625 1.5175781 4.046875 4.2374268q1.421875 2.7197876 1.421875 6.3916626q0 0.75 -0.0625 1.453125q-0.046875 0.68743896 -0.140625 1.2186279l-21.921875 -0.016479492l0 -3.40625l19.296875 0.014526367l-1.109375 1.2178955q0 -4.578125 -2.109375 -6.876587q-2.109375 -2.298462 -5.6875 -2.3011475q-2.390625 -0.0018310547 -4.453125 1.1685181q-2.046875 1.1703491 -3.28125 3.4194336q-1.21875 2.2334595 -1.21875 5.4834595q0 3.359375 1.328125 5.6103516q1.34375 2.2354126 3.625 3.3933716q2.296875 1.142334 5.171875 1.1444702q2.359375 0.0017700195 4.25 -0.66864014q1.890625 -0.6704712 3.65625 -1.7785034l1.59375 2.8761597q-1.921875 1.2798462 -4.40625 2.184204q-2.46875 0.90441895 -5.625 0.9020386zm17.809326 -0.6272583l9.875 -13.430054l-9.125 -12.491272l4.859375 0.0036621094l4.109375 5.706238q0.6875 1.0161133 1.484375 2.1417236q0.796875 1.1256104 1.546875 2.2355347l0.21875 1.8310547E-4q0.6875 -1.1088867 1.453125 -2.2489014q0.78125 -1.1557007 1.484375 -2.2176514l3.890625 -5.6064453l4.640625 0.003479004l-9.234375 12.852417l9.921875 13.070007l-4.796875 -0.0036010742l-4.53125 -5.972168q-0.8125 -1.1256104 -1.6875 -2.3450317q-0.875 -1.2350464 -1.734375 -2.3606567l-0.203125 -1.8310547E-4q-0.8125 1.1243896 -1.609375 2.2956543q-0.796875 1.1712646 -1.59375 2.4050903l-4.265625 5.965515l-4.703125 -0.003540039zm49.6062 0.6779175q-3.796875 -0.0028686523 -5.984375 -1.3638916q-2.171875 -1.3609619 -3.109375 -3.7523193q-0.9375 -2.4069214 -0.9375 -5.6100464l0 -12.265686l-7.3125 -0.005493164l0 -3.3125l7.46875 -0.26000977l0.59375 -8.312012l3.625 0.0026855469l0 8.3125l12.75 0.0095825195l0 3.578125l-12.75 -0.0095825195l0 12.3125q0 2.296875 0.578125 3.9067383q0.59375 1.5941772 2.03125 2.3921509q1.4375 0.7979126 3.953125 0.7998047q1.859375 0.0014038086 3.34375 -0.30999756q1.5 -0.32696533 2.890625 -0.85717773l0.953125 3.2038574q-1.75 0.6392822 -3.703125 1.0909424q-1.9375 0.45166016 -4.390625 0.4498291zm18.762451 -0.6265259l0 -25.921875l3.625 0.002746582l0.375 6.140869l0.171875 1.2207031E-4q2.015625 -3.1547241 5.0 -4.964966q2.984375 -1.8102417 6.5625 -1.8075562q1.4375 0.0010986328 2.6875 0.25201416q1.265625 0.23535156 2.4375 0.82995605l-1.015625 3.7805176q-1.328125 -0.4854126 -2.296875 -0.68927q-0.953125 -0.21948242 -2.5 -0.22064209q-2.9375 -0.0021972656 -5.640625 1.6832886q-2.6875 1.6698608 -5.03125 5.714966l0 15.203125l-4.375 -0.0032958984zm37.340576 0.6687012q-2.40625 -0.0018310547 -4.4375 -0.87835693q-2.015625 -0.89208984 -3.203125 -2.5336304q-1.171875 -1.6571045 -1.171875 -3.9539795q0 -4.375 4.375 -6.63739q4.375 -2.262329 14.40625 -3.0516357q-0.0625 -1.765686 -0.734375 -3.2505493q-0.65625 -1.5004883 -2.15625 -2.376648q-1.484375 -0.89172363 -3.984375 -0.8936157q-1.65625 -0.0012207031 -3.28125 0.4506836q-1.625 0.4519043 -3.09375 1.1851807q-1.46875 0.71765137 -2.703125 1.4510498l-1.703125 -2.9856567q1.28125 -0.84277344 3.125 -1.7163696q1.84375 -0.8892212 3.96875 -1.4501343q2.140625 -0.5609131 4.421875 -0.5592041q3.578125 0.0026855469 5.890625 1.3482056q2.328125 1.329834 3.46875 3.7056885q1.15625 2.3759155 1.15625 5.6259155l0 15.890625l-3.578125 -0.0026855469l-0.375 -3.5159302l-0.15625 -1.2207031E-4q-2.140625 1.7015381 -4.8125 2.933899q-2.65625 1.2167358 -5.421875 1.2146606zm1.171875 -3.5147095q2.234375 0.0016479492 4.421875 -1.0123291q2.1875 -1.013977 4.375 -2.824829l0 -6.828125q-5.546875 0.4802246 -8.71875 1.3371582q-3.171875 0.8413696 -4.484375 2.152893q-1.3125 1.2958984 -1.3125 2.9990234q0 1.453125 0.796875 2.3912354q0.8125 0.92248535 2.109375 1.3609619q1.3125 0.42285156 2.8125 0.42401123zm36.152954 3.5427856q-4.046875 -0.0030517578 -7.28125 -1.5992432q-3.21875 -1.6118164 -5.062378 -4.644409q-1.84375 -3.0482788 -1.84375 -7.313904q0 -4.375 1.96875 -7.404785q1.9842529 -3.0453491 5.249878 -4.6366577q3.28125 -1.6069336 7.234375 -1.6039429q3.203125 0.002380371 5.515625 1.1291504q2.328125 1.12677 3.921875 2.6748047l-2.1875 2.826477q-1.59375 -1.3917847 -3.3125 -2.1900024q-1.703125 -0.8137207 -3.78125 -0.8153076q-2.984375 -0.0022583008 -5.28125 1.2616577q-2.28125 1.248291 -3.546875 3.5129395q-1.25 2.2647095 -1.25 5.2490845q0 2.9375 1.21875 5.1727905q1.234375 2.2352905 3.5 3.5026245q2.265625 1.251709 5.25 1.2539673q2.40625 0.0017700195 4.40625 -0.9498291q2.0 -0.9672241 3.59375 -2.2941895l1.984375 2.8296509q-2.140625 1.904602 -4.78125 2.980774q-2.640625 1.0604858 -5.515625 1.0583496zm34.559326 0.025939941q-3.796875 -0.0028076172 -5.984375 -1.3638306q-2.171875 -1.361023 -3.109375 -3.7523804q-0.9375 -2.4069214 -0.9375 -5.6100464l0 -12.265625l-7.3125 -0.005493164l0 -3.3125l7.46875 -0.26000977l0.59375 -8.312073l3.625 0.002746582l0 8.3125l12.75 0.0095825195l0 3.578125l-12.75 -0.0095825195l0 12.3125q0 2.296875 0.578125 3.9066772q0.59375 1.5941772 2.03125 2.3921509q1.4375 0.79797363 3.953125 0.7998657q1.859375 0.0014038086 3.34375 -0.30999756q1.5 -0.32702637 2.890625 -0.85723877l0.953125 3.2038574q-1.75 0.63934326 -3.703125 1.0910034q-1.9375 0.45166016 -4.390625 0.44976807z" fill-rule="nonzero"/><path fill="#000000" d="m1151.4913 713.6039q-2.40625 -0.0018310547 -4.4375 -0.87835693q-2.015625 -0.89208984 -3.203125 -2.5336304q-1.171875 -1.6571655 -1.171875 -3.9540405q0 -4.375 4.375 -6.637329q4.375 -2.262329 14.40625 -3.0516357q-0.0625 -1.765686 -0.734375 -3.2505493q-0.65625 -1.5004883 -2.15625 -2.376648q-1.484375 -0.89172363 -3.984375 -0.8936157q-1.65625 -0.0012207031 -3.28125 0.4506836q-1.625 0.4519043 -3.09375 1.1851807q-1.46875 0.71759033 -2.703125 1.4510498l-1.703125 -2.9856567q1.28125 -0.84277344 3.125 -1.7163696q1.84375 -0.8892822 3.96875 -1.4501343q2.140625 -0.5609131 4.421875 -0.5592041q3.578125 0.0026855469 5.890625 1.3482056q2.328125 1.329834 3.46875 3.7056885q1.15625 2.3759155 1.15625 5.6259155l0 15.890625l-3.578125 -0.0026855469l-0.375 -3.5159302l-0.15625 -1.2207031E-4q-2.140625 1.7015381 -4.8125 2.933899q-2.65625 1.2167358 -5.421875 1.2146606zm1.171875 -3.5147705q2.234375 0.0017089844 4.421875 -1.0122681q2.1875 -1.013977 4.375 -2.824829l0 -6.828125q-5.546875 0.48016357 -8.71875 1.3371582q-3.171875 0.8413696 -4.484375 2.152893q-1.3125 1.2958984 -1.3125 2.9990234q0 1.453125 0.796875 2.3912354q0.8125 0.92248535 2.109375 1.3609619q1.3125 0.42285156 2.8125 0.4239502zm22.653076 2.8920288l0 -25.921875l3.625 0.002746582l0.375 4.437805l0.21875 1.2207031E-4q2.03125 -2.1859741 4.375 -3.621704q2.34375 -1.451355 5.390625 -1.4490356q4.578125 0.0034179688 6.765625 2.676941q2.1875 2.673523 2.1875 7.782898l0 16.109375l-4.375 -0.0032958984l0 -15.515625q0 -3.6875 -1.390625 -5.4697876q-1.375 -1.7822876 -4.578125 -1.784729q-2.296875 -0.0017089844 -4.109375 1.1688232q-1.8125 1.1705322 -4.109375 3.5125122l0 18.078125l-4.375 -0.0032958984zm41.496826 0.671875q-5.0625 -0.0038452148 -8.15625 -3.5530396q-3.09375 -3.5491943 -3.09375 -10.002319q0 -4.21875 1.671875 -7.2799683q1.6875 -3.0612793 4.375 -4.715515q2.703125 -1.6541748 5.734375 -1.6519165q2.296875 0.0017089844 4.1875 0.8937988q1.890625 0.8764038 3.546875 2.4713745l0.15625 1.2207031E-4l-0.203125 -4.796997l0 -9.96875l4.359375 0.0032348633l0 37.96881l-3.625 -0.002746582l-0.375 -3.4065552l-0.15625 -1.2207031E-4q-1.546875 1.6394653 -3.765625 2.8409424q-2.203125 1.201477 -4.65625 1.199646zm0.90625 -3.6868286q1.921875 0.0014038086 3.734375 -0.9815674q1.8125 -0.9830322 3.578125 -2.9035645l0 -12.90625q-1.765625 -1.6419678 -3.453125 -2.3307495q-1.671875 -0.7043457 -3.375 -0.70562744q-2.25 -0.0017089844 -4.09375 1.2468872q-1.828125 1.2486572 -2.921875 3.4665527q-1.09375 2.2179565 -1.09375 5.2023315q0 4.640625 2.015625 7.282776q2.03125 2.6265259 5.609375 2.6292114zm51.728027 3.0857544l0 -25.921875l3.515625 0.0026245117l0.375 3.4221802l0.109375 6.1035156E-5q1.015625 -1.8117065 2.34375 -2.93573q1.328125 -1.1240234 3.578125 -1.1223145q1.921875 0.0014648438 3.140625 1.1273804q1.234375 1.1259155 1.765625 3.3606567q1.109375 -2.0772705 2.46875 -3.279358q1.375 -1.2020874 3.609375 -1.2004395q2.71875 0.0020751953 4.234375 2.0656738q1.515625 2.0480347 1.515625 5.9386597l0 18.5625l-4.359375 -0.0032958984l0 -18.234375q0 -4.53125 -2.78125 -4.533325q-1.328125 -9.765625E-4 -2.21875 0.98272705q-0.875 0.9837036 -1.9375 3.0141602l0 18.765625l-4.046875 -0.0030517578l0 -18.234375q0 -2.25 -0.625 -3.3911133q-0.609375 -1.1410522 -2.046875 -1.1421509q-1.328125 -9.765625E-4 -2.328125 0.982605q-0.984375 0.9836426 -1.9375 3.0142212l0 18.765625l-4.375 -0.0032958984zm44.903076 0.67437744q-3.421875 -0.0025634766 -6.328125 -1.5985107q-2.90625 -1.6115723 -4.6875 -4.644165q-1.78125 -3.0482178 -1.78125 -7.313843q0 -4.375 1.78125 -7.404907q1.78125 -3.0455322 4.6875 -4.637085q2.90625 -1.6071777 6.328125 -1.6046143q3.40625 0.0025634766 6.3125 1.6141357q2.906128 1.5958862 4.687378 4.644104q1.796875 3.0325928 1.796875 7.407593q0 4.265625 -1.796875 7.311157q-1.78125 3.0299072 -4.687378 4.637146q-2.90625 1.5915527 -6.3125 1.5889893zm0 -3.625q2.5 0.0018920898 4.359375 -1.2467041q1.875 -1.2642212 2.890625 -3.4978638q1.0155029 -2.2335815 1.0155029 -5.1710815q0 -2.984375 -1.0155029 -5.2507935q-1.015625 -2.2663574 -2.890625 -3.5178223q-1.859375 -1.2669678 -4.359375 -1.2688599q-2.515625 -0.0018920898 -4.359375 1.2623291q-1.828125 1.2486572 -2.875 3.5134888q-1.03125 2.2648315 -1.03125 5.2492065q0 2.9375 1.03125 5.1726685q1.046875 2.2351685 2.875 3.5021362q1.84375 1.2514038 4.359375 1.2532959zm29.652954 3.0066528l-10.9375 -25.930115l4.421875 0.0033569336l5.984375 14.723267q0.796875 1.9224243 1.515625 3.8448486q0.71875 1.9224243 1.40625 3.7823486l0.21875 1.2207031E-4q0.6875 -1.8588257 1.375 -3.7802124q0.703125 -1.9213257 1.453125 -3.8426514l5.96875 -14.714294l4.21875 0.0031738281l-10.71875 25.91388l-4.90625 -0.0037231445zm35.934326 0.6676636q-3.890625 -0.0029296875 -7.0625 -1.59906q-3.171875 -1.6117554 -5.046875 -4.675659q-1.859375 -3.0639038 -1.859375 -7.392029q0 -4.203125 1.859375 -7.233032q1.875 -3.0454102 4.890625 -4.668152q3.015625 -1.6383667 6.484375 -1.6357422q3.71875 0.002746582 6.359375 1.5360107q2.640625 1.5175781 4.046875 4.2374268q1.421875 2.7197876 1.421875 6.3916626q0 0.75 -0.0625 1.453125q-0.046875 0.68743896 -0.140625 1.2186279l-21.921875 -0.016479492l0 -3.40625l19.296875 0.014465332l-1.109375 1.2179565q0 -4.578125 -2.109375 -6.876587q-2.109375 -2.298462 -5.6875 -2.3011475q-2.390625 -0.0018310547 -4.453125 1.1685181q-2.046875 1.1703491 -3.28125 3.4193726q-1.21875 2.2334595 -1.21875 5.4834595q0 3.359436 1.328125 5.6104126q1.34375 2.2353516 3.625 3.3933716q2.296875 1.142334 5.171875 1.1444702q2.359375 0.0017700195 4.25 -0.66864014q1.890625 -0.6704712 3.65625 -1.7785034l1.59375 2.8761597q-1.921875 1.2798462 -4.40625 2.184204q-2.46875 0.90441895 -5.625 0.9020386z" fill-rule="nonzero"/><path fill="#000000" fill-opacity="0.0" d="m1007.3937 171.30766l0 0c0 -88.47749 -71.72516 -160.20268 -160.20264 -160.20268l-640.7915 0l0 0c-42.488403 0 -83.23658 16.878448 -113.28041 46.922276c-30.043827 30.043835 -46.922276 70.79201 -46.922276 113.280396l0 1176.2561c0 88.47754 71.72519 160.20264 160.20268 160.20264l640.7915 0c88.47748 0 160.20264 -71.7251 160.20264 -160.20264z" fill-rule="evenodd"/><path stroke="#cccccc" stroke-width="1.0" stroke-linejoin="round" stroke-linecap="butt" d="m1007.3937 171.30766l0 0c0 -88.47749 -71.72516 -160.20268 -160.20264 -160.20268l-640.7915 0l0 0c-42.488403 0 -83.23658 16.878448 -113.28041 46.922276c-30.043827 30.043835 -46.922276 70.79201 -46.922276 113.280396l0 1176.2561c0 88.47754 71.72519 160.20264 160.20268 160.20264l640.7915 0c88.47748 0 160.20264 -71.7251 160.20264 -160.20264z" fill-rule="evenodd"/><path fill="#351c75" d="m124.493614 150.77069q-5.578125 0 -10.015625 -2.1875q-4.4375 -2.203125 -6.96875 -6.375q-2.53125 -4.1875 -2.53125 -10.0625q0 -6.015625 2.71875 -10.1875q2.71875 -4.1875 7.21875 -6.375q4.515625 -2.203125 9.9375 -2.203125q4.4062424 0 7.5937424 1.546875q3.1875 1.53125 5.390625 3.65625l-3.015625 3.890625q-2.1875 -1.90625 -4.546875 -3.0q-2.3437424 -1.109375 -5.2031174 -1.109375q-4.09375 0 -7.25 1.734375q-3.15625 1.71875 -4.890625 4.828125q-1.71875 3.109375 -1.71875 7.21875q0 4.03125 1.6875 7.125q1.6875 3.078125 4.796875 4.796875q3.125 1.71875 7.234375 1.71875q3.2968674 0 6.0468674 -1.3125q2.75 -1.328125 4.953125 -3.15625l2.71875 3.890625q-2.9375 2.640625 -6.578125 4.109375q-3.625 1.453125 -7.5781174 1.453125zm48.38743 0q-5.640625 0 -8.65625 -3.25q-3.0 -3.265625 -3.0 -9.578125l0 -35.34375l-12.171875 0l0 -4.90625l18.1875 0l0 40.6875q0 3.890625 1.90625 5.65625q1.90625 1.75 5.0625 1.75q1.53125 0 3.140625 -0.390625q1.625 -0.40625 3.609375 -1.296875l1.53125 4.546875q-2.421875 0.890625 -4.546875 1.5q-2.125 0.625 -5.0625 0.625zm32.262436 0q-3.296875 0 -6.078125 -1.203125q-2.78125 -1.21875 -4.40625 -3.484375q-1.609375 -2.28125 -1.609375 -5.421875q0 -6.015625 6.015625 -9.125q6.015625 -3.125 19.796875 -4.21875q-0.078125 -2.421875 -1.0 -4.46875q-0.90625 -2.0625 -2.96875 -3.265625q-2.046875 -1.21875 -5.484375 -1.21875q-2.28125 0 -4.515625 0.625q-2.234375 0.625 -4.25 1.625q-2.015625 0.984375 -3.703125 2.0l-2.34375 -4.109375q1.75 -1.171875 4.28125 -2.375q2.53125 -1.21875 5.46875 -1.984375q2.9375 -0.765625 6.078125 -0.765625q4.921875 0 8.109375 1.84375q3.1875 1.828125 4.765625 5.09375q1.578125 3.25 1.578125 7.71875l0 21.859375l-4.921875 0l-0.5 -4.84375l-0.21875 0q-2.9375 2.34375 -6.609375 4.03125q-3.65625 1.6875 -7.484375 1.6875zm1.625 -4.828125q3.078125 0 6.078125 -1.390625q3.015625 -1.40625 6.015625 -3.890625l0 -9.390625q-7.625 0.65625 -11.984375 1.828125q-4.359375 1.171875 -6.15625 2.96875q-1.796875 1.796875 -1.796875 4.15625q0 1.96875 1.09375 3.25q1.09375 1.28125 2.890625 1.875q1.796875 0.59375 3.859375 0.59375zm47.074936 4.828125q-5.203125 0 -9.75 -1.6875q-4.546875 -1.6875 -7.78125 -3.875l2.796875 -3.96875q3.078125 2.203125 6.8125 3.53125q3.734375 1.3125 8.65625 1.3125q4.546875 0 6.78125 -1.6875q2.234375 -1.6875 2.234375 -3.890625q0 -1.015625 -0.40625 -1.890625q-0.40625 -0.890625 -1.546875 -1.6875q-1.125 -0.8125 -3.328125 -1.546875q-2.203125 -0.734375 -5.859375 -1.46875q-6.96875 -1.46875 -10.453125 -3.953125q-3.484375 -2.5 -3.484375 -6.453125q0 -4.328125 3.734375 -7.21875q3.75 -2.90625 11.078125 -2.90625q4.109375 0 7.921875 1.359375q3.8125 1.359375 6.453125 3.1875l-2.9375 3.890625q-2.421875 -1.765625 -5.5 -2.75q-3.078125 -1.0 -6.453125 -1.0q-3.078125 0 -4.875 0.703125q-1.796875 0.6875 -2.5625 1.875q-0.765625 1.171875 -0.765625 2.5625q0 2.265625 2.453125 3.546875q2.453125 1.28125 7.875 2.390625q5.9375 1.25 9.125 2.796875q3.203125 1.53125 4.40625 3.515625q1.21875 1.96875 1.21875 4.6875q0 2.9375 -1.84375 5.328125q-1.828125 2.375 -5.359375 3.84375q-3.515625 1.453125 -8.640625 1.453125zm43.996826 0q-5.203125 0 -9.75 -1.6875q-4.546875 -1.6875 -7.78125 -3.875l2.796875 -3.96875q3.078125 2.203125 6.8125 3.53125q3.734375 1.3125 8.65625 1.3125q4.546875 0 6.78125 -1.6875q2.234375 -1.6875 2.234375 -3.890625q0 -1.015625 -0.40625 -1.890625q-0.40625 -0.890625 -1.546875 -1.6875q-1.125 -0.8125 -3.328125 -1.546875q-2.203125 -0.734375 -5.859375 -1.46875q-6.96875 -1.46875 -10.453125 -3.953125q-3.484375 -2.5 -3.484375 -6.453125q0 -4.328125 3.734375 -7.21875q3.75 -2.90625 11.078125 -2.90625q4.109375 0 7.921875 1.359375q3.8125 1.359375 6.453125 3.1875l-2.9375 3.890625q-2.421875 -1.765625 -5.5 -2.75q-3.078125 -1.0 -6.453125 -1.0q-3.078125 0 -4.875 0.703125q-1.796875 0.6875 -2.5625 1.875q-0.765625 1.171875 -0.765625 2.5625q0 2.265625 2.453125 3.546875q2.453125 1.28125 7.875 2.390625q5.9375 1.25 9.125 2.796875q3.203125 1.53125 4.40625 3.515625q1.21875 1.96875 1.21875 4.6875q0 2.9375 -1.84375 5.328125q-1.828125 2.375 -5.359375 3.84375q-3.515625 1.453125 -8.640625 1.453125z" fill-rule="nonzero"/><path fill="#000000" d="m370.3651 149.89569l0 -48.109375l13.640625 0q4.90625 0 8.609375 1.1875q3.703125 1.171875 5.78125 3.734375q2.09375 2.5625 2.09375 6.8125q0 3.59375 -2.046875 6.5q-2.046875 2.890625 -6.375 3.984375l0 0.296875q5.28125 0.8125 8.203125 3.671875q2.9375 2.859375 2.9375 7.84375q0 4.6875 -2.28125 7.84375q-2.265625 3.15625 -6.34375 4.703125q-4.0625 1.53125 -9.484375 1.53125l-14.734375 0zm6.078125 -27.859375l6.53125 0q6.15625 0 8.828125 -1.984375q2.6875 -1.984375 2.6875 -6.015625q0 -3.890625 -2.828125 -5.5q-2.828125 -1.609375 -8.390625 -1.609375l-6.828125 0l0 15.109375zm0 22.71875l7.78125 0q6.15625 0 9.5625 -2.15625q3.40625 -2.15625 3.40625 -7.078125q0 -4.46875 -3.34375 -6.40625q-3.328125 -1.953125 -9.625 -1.953125l-7.78125 0l0 17.59375zm48.684296 6.015625q-3.296875 0 -6.078125 -1.203125q-2.78125 -1.21875 -4.40625 -3.484375q-1.609375 -2.28125 -1.609375 -5.421875q0 -6.015625 6.015625 -9.125q6.015625 -3.125 19.796875 -4.21875q-0.078125 -2.421875 -1.0 -4.46875q-0.90625 -2.0625 -2.96875 -3.265625q-2.046875 -1.21875 -5.484375 -1.21875q-2.28125 0 -4.515625 0.625q-2.234375 0.625 -4.25 1.625q-2.015625 0.984375 -3.703125 2.0l-2.34375 -4.109375q1.75 -1.171875 4.28125 -2.375q2.53125 -1.21875 5.46875 -1.984375q2.9375 -0.765625 6.078125 -0.765625q4.921875 0 8.109375 1.84375q3.1875 1.828125 4.765625 5.09375q1.578125 3.25 1.578125 7.71875l0 21.859375l-4.921875 0l-0.5 -4.84375l-0.21875 0q-2.9375 2.34375 -6.609375 4.03125q-3.65625 1.6875 -7.484375 1.6875zm1.625 -4.828125q3.078125 0 6.078125 -1.390625q3.015625 -1.40625 6.015625 -3.890625l0 -9.390625q-7.625 0.65625 -11.984375 1.828125q-4.359375 1.171875 -6.15625 2.96875q-1.796875 1.796875 -1.796875 4.15625q0 1.96875 1.09375 3.25q1.09375 1.28125 2.890625 1.875q1.796875 0.59375 3.859375 0.59375zm35.0437 3.953125l0 -35.640625l4.984375 0l0.515625 8.4375l0.21875 0q2.796875 -4.328125 6.890625 -6.8125q4.109375 -2.5 9.03125 -2.5q1.96875 0 3.6875 0.328125q1.734375 0.328125 3.34375 1.140625l-1.390625 5.203125q-1.828125 -0.65625 -3.15625 -0.953125q-1.3125 -0.296875 -3.4375 -0.296875q-4.046875 0 -7.75 2.3125q-3.703125 2.3125 -6.921875 7.875l0 20.90625l-6.015625 0z" fill-rule="nonzero"/><path fill="#000000" d="m528.6055 161.44257q-7.140625 0 -10.609375 -2.125q-3.453125 -2.125 -3.453125 -7.984375q0 -2.8125 0.15625 -5.15625q0.15625 -2.359375 0.34375 -4.671875q0.1875 -2.328125 0.1875 -4.828125q0 -1.53125 -0.875 -2.859375q-0.875 -1.328125 -3.2655945 -2.203125q-2.390625 -0.875 -6.875 -0.875l0 -3.953125q4.484375 0 6.875 -0.875q2.3905945 -0.875 3.2655945 -2.234375q0.875 -1.375 0.875 -2.8125q0 -2.359375 -0.1875 -4.75q-0.1875 -2.390625 -0.34375 -4.828125q-0.15625 -2.4375 -0.15625 -5.09375q0 -5.84375 3.453125 -7.96875q3.46875 -2.140625 10.609375 -2.140625l4.640625 0l0 3.578125l-3.953125 0q-3.875 0 -5.890625 0.71875q-2.015625 0.71875 -2.78125 2.203125q-0.75 1.484375 -0.75 4.0q0 3.265625 0.21875 6.71875q0.234375 3.453125 0.234375 7.03125q0 3.640625 -1.484375 5.625q-1.484375 1.96875 -5.4375 2.65625l0 0.3125q3.953125 0.671875 5.4375 2.65625q1.484375 1.96875 1.484375 5.625q0 3.796875 -0.234375 7.03125q-0.21875 3.21875 -0.21875 6.71875q0 2.4375 0.75 3.953125q0.765625 1.515625 2.78125 2.234375q2.015625 0.734375 5.890625 0.734375l3.953125 0l0 3.5625l-4.640625 0z" fill-rule="nonzero"/><path fill="#000000" d="m247.52486 359.8957l0 -36.9375l5.015625 0l0.53125 4.859375l0.15625 0q1.4375 -2.578125 3.3437653 -4.171875q1.90625 -1.59375 5.09375 -1.59375q2.734375 0 4.484375 1.59375q1.75 1.59375 2.5 4.78125q1.59375 -2.953125 3.53125 -4.65625q1.953125 -1.71875 5.140625 -1.71875q3.875 0 6.03125 2.921875q2.171875 2.921875 2.171875 8.46875l0 26.453125l-6.234375 0l0 -25.984375q0 -6.46875 -3.953125 -6.46875q-1.890625 0 -3.15625 1.40625q-1.25 1.40625 -2.765625 4.296875l0 26.75l-5.78125 0l0 -25.984375q0 -3.203125 -0.875 -4.828125q-0.875 -1.640625 -2.921875 -1.640625q-1.90625 0 -3.3125 1.40625q-1.3906403 1.40625 -2.7656403 4.296875l0 26.75l-6.234375 0z" fill-rule="nonzero"/><path fill="#000000" d="m292.5936 359.8957l0 -2.71875l7.359375 0l0 -18.796875l-5.71875 0l0 -2.125q1.53125 -0.203125 2.6875 -0.484375q1.15625 -0.28125 2.109375 -0.609375q0.96875 -0.34375 1.765625 -0.78125l2.4375 0l0 22.796875l6.6875 0l0 2.71875l-17.328125 0z" fill-rule="nonzero"/><path fill="#000000" d="m345.62485 373.2707q-7.90625 -6.234375 -12.5 -14.859375q-4.59375 -8.625 -4.59375 -19.640625q0 -11.015625 4.59375 -19.671875q4.59375 -8.671875 12.5 -14.828125l3.421875 3.1875q-7.59375 6.375 -11.25 14.0625q-3.640625 7.671875 -3.640625 17.25q0 9.578125 3.640625 17.21875q3.65625 7.625 11.25 14.09375l-3.421875 3.1875zm25.381226 0l-3.421875 -3.1875q7.609375 -6.46875 11.25 -14.09375q3.65625 -7.640625 3.65625 -17.21875q0 -9.578125 -3.65625 -17.25q-3.640625 -7.6875 -11.25 -14.0625l3.421875 -3.1875q7.984375 6.15625 12.546875 14.828125q4.5625 8.65625 4.5625 19.671875q0 11.015625 -4.5625 19.640625q-4.5625 8.625 -12.546875 14.859375zm66.42813 -1.828125q-7.140625 0 -10.609375 -2.125q-3.453125 -2.125 -3.453125 -7.984375q0 -2.8125 0.15625 -5.15625q0.15625 -2.359375 0.34375 -4.671875q0.1875 -2.328125 0.1875 -4.828125q0 -1.53125 -0.875 -2.859375q-0.875 -1.328125 -3.265625 -2.203125q-2.390625 -0.875 -6.875 -0.875l0 -3.953125q4.484375 0 6.875 -0.875q2.390625 -0.875 3.265625 -2.234375q0.875 -1.375 0.875 -2.8125q0 -2.359375 -0.1875 -4.75q-0.1875 -2.390625 -0.34375 -4.828125q-0.15625 -2.4375 -0.15625 -5.09375q0 -5.84375 3.453125 -7.96875q3.46875 -2.140625 10.609375 -2.140625l4.640625 0l0 3.578125l-3.953125 0q-3.875 0 -5.890625 0.71875q-2.015625 0.71875 -2.78125 2.203125q-0.75 1.484375 -0.75 4.0q0 3.265625 0.21875 6.71875q0.234375 3.453125 0.234375 7.03125q0 3.640625 -1.484375 5.625q-1.484375 1.96875 -5.4375 2.65625l0 0.3125q3.953125 0.671875 5.4375 2.65625q1.484375 1.96875 1.484375 5.625q0 3.796875 -0.234375 7.03125q-0.21875 3.21875 -0.21875 6.71875q0 2.4375 0.75 3.953125q0.765625 1.515625 2.78125 2.234375q2.015625 0.734375 5.890625 0.734375l3.953125 0l0 3.5625l-4.640625 0z" fill-rule="nonzero"/><path fill="#000000" d="m441.11545 465.80194q-2.5 0 -4.328125 -1.78125q-1.828125 -1.78125 -1.828125 -4.59375q0 -2.890625 1.828125 -4.671875q1.828125 -1.796875 4.328125 -1.796875q2.59375 0 4.375 1.796875q1.78125 1.78125 1.78125 4.671875q0 2.8125 -1.78125 4.59375q-1.78125 1.78125 -4.375 1.78125zm45.599976 0q-2.5 0 -4.328125 -1.78125q-1.828125 -1.78125 -1.828125 -4.59375q0 -2.890625 1.828125 -4.671875q1.828125 -1.796875 4.328125 -1.796875q2.59375 0 4.375 1.796875q1.78125 1.78125 1.78125 4.671875q0 2.8125 -1.78125 4.59375q-1.78125 1.78125 -4.375 1.78125zm45.599945 0q-2.5 0 -4.328125 -1.78125q-1.828125 -1.78125 -1.828125 -4.59375q0 -2.890625 1.828125 -4.671875q1.828125 -1.796875 4.328125 -1.796875q2.59375 0 4.375 1.796875q1.78125 1.78125 1.78125 4.671875q0 2.8125 -1.78125 4.59375q-1.78125 1.78125 -4.375 1.78125z" fill-rule="nonzero"/><path fill="#f4cccc" d="m99.118614 496.93567l455.9999 0l0 91.20001l-455.9999 0l0 -91.20001z" fill-rule="nonzero"/><path fill="#000000" fill-opacity="0.0" d="m99.118614 495.11172l45.599983 0l0 95.53195l-45.599983 0l0 -95.53195z" fill-rule="nonzero"/><path fill="#990000" d="m105.57174 547.17694l0 -4.71875l32.687492 0l0 4.71875l-32.687492 0z" fill-rule="nonzero"/><path fill="#010000" fill-opacity="0.0" d="m144.7186 495.11172l410.39987 0l0 95.53195l-410.39987 0l0 -95.53195z" fill-rule="nonzero"/><path fill="#000000" d="m441.11545 570.8019q-2.5 0 -4.328125 -1.781189q-1.828125 -1.78125 -1.828125 -4.59375q0 -2.890625 1.828125 -4.671875q1.828125 -1.796875 4.328125 -1.796875q2.59375 0 4.375 1.796875q1.78125 1.78125 1.78125 4.671875q0 2.8125 -1.78125 4.59375q-1.78125 1.781189 -4.375 1.781189zm45.599976 0q-2.5 0 -4.328125 -1.781189q-1.828125 -1.78125 -1.828125 -4.59375q0 -2.890625 1.828125 -4.671875q1.828125 -1.796875 4.328125 -1.796875q2.59375 0 4.375 1.796875q1.78125 1.78125 1.78125 4.671875q0 2.8125 -1.78125 4.59375q-1.78125 1.781189 -4.375 1.781189zm45.599945 0q-2.5 0 -4.328125 -1.781189q-1.828125 -1.78125 -1.828125 -4.59375q0 -2.890625 1.828125 -4.671875q1.828125 -1.796875 4.328125 -1.796875q2.59375 0 4.375 1.796875q1.78125 1.78125 1.78125 4.671875q0 2.8125 -1.78125 4.59375q-1.78125 1.781189 -4.375 1.781189z" fill-rule="nonzero"/><path fill="#000000" d="m243.44983 686.44257l0 -3.5625l3.875 0q3.953125 0 5.953125 -0.734375q2.015625 -0.71875 2.78125 -2.234375q0.765625 -1.515625 0.765625 -3.953125q0 -3.5 -0.234375 -6.71875q-0.234375 -3.234375 -0.234375 -7.03125q0 -3.65625 1.4375 -5.625q1.453125 -1.984375 5.40625 -2.65625l0 -0.3125q-3.953125 -0.6875 -5.40625 -2.65625q-1.4375 -1.984375 -1.4375 -5.625q0 -3.578125 0.234375 -7.03125q0.234375 -3.453125 0.234375 -6.71875q0 -2.515625 -0.765625 -4.0q-0.765625 -1.484375 -2.78125 -2.203125q-2.0 -0.71875 -5.953125 -0.71875l-3.875 0l0 -3.578125l4.625 0q7.140625 0 10.5625 2.140625q3.421875 2.125 3.421875 7.96875q0 2.65625 -0.15625 5.09375q-0.140625 2.4375 -0.34375 4.828125q-0.1875 2.390625 -0.1875 4.75q0 1.4375 0.875 2.8125q0.875 1.359375 3.265625 2.234375q2.40625 0.875 6.890625 0.875l0 3.953125q-4.484375 0 -6.890625 0.875q-2.390625 0.875 -3.265625 2.203125q-0.875 1.328125 -0.875 2.859375q0 2.5 0.1875 4.828125q0.203125 2.3125 0.34375 4.671875q0.15625 2.34375 0.15625 5.15625q0 5.859375 -3.421875 7.984375q-3.421875 2.125 -10.5625 2.125l-4.625 0z" fill-rule="nonzero"/><path fill="#000000" fill-opacity="0.0" d="m281.5186 600.1117l91.19998 0l0 95.53198l-91.19998 0l0 -95.53198z" fill-rule="nonzero"/><path fill="#000000" fill-opacity="0.0" d="m372.71857 600.1117l0 0l0 95.53198l0 0l0 -95.53198z" fill-rule="nonzero"/><path fill="#000000" fill-opacity="0.0" d="m99.118614 705.1117l0 0l0 95.53198l0 0l0 -95.53198z" fill-rule="nonzero"/><path fill="#000000" d="m247.52486 884.8957l0 -36.9375l5.015625 0l0.53125 4.859375l0.15625 0q1.4375 -2.578125 3.3437653 -4.171875q1.90625 -1.59375 5.09375 -1.59375q2.734375 0 4.484375 1.59375q1.75 1.59375 2.5 4.78125q1.59375 -2.953125 3.53125 -4.65625q1.953125 -1.71875 5.140625 -1.71875q3.875 0 6.03125 2.921875q2.171875 2.921875 2.171875 8.46875l0 26.453125l-6.234375 0l0 -25.984375q0 -6.46875 -3.953125 -6.46875q-1.890625 0 -3.15625 1.40625q-1.25 1.40625 -2.765625 4.296875l0 26.75l-5.78125 0l0 -25.984375q0 -3.203125 -0.875 -4.828125q-0.875 -1.640625 -2.921875 -1.640625q-1.90625 0 -3.3125 1.40625q-1.3906403 1.40625 -2.7656403 4.296875l0 26.75l-6.234375 0z" fill-rule="nonzero"/><path fill="#000000" d="m291.64047 884.8957l0 -1.953125q4.3125 -3.8125 7.296875 -6.703125q2.984375 -2.90625 4.53125 -5.21875q1.5625 -2.328125 1.5625 -4.4375q0 -2.203125 -1.359375 -3.59375q-1.359375 -1.40625 -4.1875 -1.40625q-1.8125 0 -3.359375 0.875q-1.53125 0.875 -2.765625 2.203125l-1.875 -1.890625q1.71875 -1.75 3.6875 -2.8125q1.984375 -1.0625 4.703125 -1.0625q2.5625 0 4.421875 0.9375q1.859375 0.9375 2.875 2.625q1.03125 1.671875 1.03125 3.953125q0 2.40625 -1.484375 4.84375q-1.484375 2.4375 -4.140625 5.140625q-2.65625 2.703125 -6.140625 5.90625q1.203125 -0.125 2.390625 -0.1875q1.203125 -0.0625 2.375 -0.0625l8.390625 0l0 2.84375l-17.953125 0z" fill-rule="nonzero"/><path fill="#000000" d="m345.62485 898.2707q-7.90625 -6.234375 -12.5 -14.859375q-4.59375 -8.625 -4.59375 -19.640625q0 -11.015625 4.59375 -19.671875q4.59375 -8.671875 12.5 -14.828125l3.421875 3.1875q-7.59375 6.375 -11.25 14.0625q-3.640625 7.671875 -3.640625 17.25q0 9.578125 3.640625 17.21875q3.65625 7.625 11.25 14.09375l-3.421875 3.1875zm25.381226 0l-3.421875 -3.1875q7.609375 -6.46875 11.25 -14.09375q3.65625 -7.640625 3.65625 -17.21875q0 -9.578125 -3.65625 -17.25q-3.640625 -7.6875 -11.25 -14.0625l3.421875 -3.1875q7.984375 6.15625 12.546875 14.828125q4.5625 8.65625 4.5625 19.671875q0 11.015625 -4.5625 19.640625q-4.5625 8.625 -12.546875 14.859375zm66.42813 -1.828125q-7.140625 0 -10.609375 -2.125q-3.453125 -2.125 -3.453125 -7.984375q0 -2.8125 0.15625 -5.15625q0.15625 -2.359375 0.34375 -4.671875q0.1875 -2.328125 0.1875 -4.828125q0 -1.53125 -0.875 -2.859375q-0.875 -1.328125 -3.265625 -2.203125q-2.390625 -0.875 -6.875 -0.875l0 -3.953125q4.484375 0 6.875 -0.875q2.390625 -0.875 3.265625 -2.234375q0.875 -1.375 0.875 -2.8125q0 -2.359375 -0.1875 -4.75q-0.1875 -2.390625 -0.34375 -4.828125q-0.15625 -2.4375 -0.15625 -5.09375q0 -5.84375 3.453125 -7.96875q3.46875 -2.140625 10.609375 -2.140625l4.640625 0l0 3.578125l-3.953125 0q-3.875 0 -5.890625 0.71875q-2.015625 0.71875 -2.78125 2.203125q-0.75 1.484375 -0.75 4.0q0 3.265625 0.21875 6.71875q0.234375 3.453125 0.234375 7.03125q0 3.640625 -1.484375 5.625q-1.484375 1.96875 -5.4375 2.65625l0 0.3125q3.953125 0.671875 5.4375 2.65625q1.484375 1.96875 1.484375 5.625q0 3.796875 -0.234375 7.03125q-0.21875 3.21875 -0.21875 6.71875q0 2.4375 0.75 3.953125q0.765625 1.515625 2.78125 2.234375q2.015625 0.734375 5.890625 0.734375l3.953125 0l0 3.5625l-4.640625 0z" fill-rule="nonzero"/><path fill="#000000" d="m441.11545 990.80194q-2.5 0 -4.328125 -1.78125q-1.828125 -1.78125 -1.828125 -4.59375q0 -2.890625 1.828125 -4.671875q1.828125 -1.796875 4.328125 -1.796875q2.59375 0 4.375 1.796875q1.78125 1.78125 1.78125 4.671875q0 2.8125 -1.78125 4.59375q-1.78125 1.78125 -4.375 1.78125zm45.599976 0q-2.5 0 -4.328125 -1.78125q-1.828125 -1.78125 -1.828125 -4.59375q0 -2.890625 1.828125 -4.671875q1.828125 -1.796875 4.328125 -1.796875q2.59375 0 4.375 1.796875q1.78125 1.78125 1.78125 4.671875q0 2.8125 -1.78125 4.59375q-1.78125 1.78125 -4.375 1.78125zm45.599945 0q-2.5 0 -4.328125 -1.78125q-1.828125 -1.78125 -1.828125 -4.59375q0 -2.890625 1.828125 -4.671875q1.828125 -1.796875 4.328125 -1.796875q2.59375 0 4.375 1.796875q1.78125 1.78125 1.78125 4.671875q0 2.8125 -1.78125 4.59375q-1.78125 1.78125 -4.375 1.78125z" fill-rule="nonzero"/><path fill="#f4cccc" d="m99.118614 1021.93567l455.9999 0l0 91.19995l-455.9999 0l0 -91.19995z" fill-rule="nonzero"/><path fill="#000000" fill-opacity="0.0" d="m99.118614 1020.11163l45.599983 0l0 95.53192l-45.599983 0l0 -95.53192z" fill-rule="nonzero"/><path fill="#990000" d="m105.57174 1072.1769l0 -4.71875l32.687492 0l0 4.71875l-32.687492 0z" fill-rule="nonzero"/><path fill="#010000" fill-opacity="0.0" d="m144.7186 1020.11163l410.39987 0l0 95.53192l-410.39987 0l0 -95.53192z" fill-rule="nonzero"/><path fill="#000000" d="m441.11545 1095.8019q-2.5 0 -4.328125 -1.78125q-1.828125 -1.78125 -1.828125 -4.59375q0 -2.890625 1.828125 -4.671875q1.828125 -1.796875 4.328125 -1.796875q2.59375 0 4.375 1.796875q1.78125 1.78125 1.78125 4.671875q0 2.8125 -1.78125 4.59375q-1.78125 1.78125 -4.375 1.78125zm45.599976 0q-2.5 0 -4.328125 -1.78125q-1.828125 -1.78125 -1.828125 -4.59375q0 -2.890625 1.828125 -4.671875q1.828125 -1.796875 4.328125 -1.796875q2.59375 0 4.375 1.796875q1.78125 1.78125 1.78125 4.671875q0 2.8125 -1.78125 4.59375q-1.78125 1.78125 -4.375 1.78125zm45.599945 0q-2.5 0 -4.328125 -1.78125q-1.828125 -1.78125 -1.828125 -4.59375q0 -2.890625 1.828125 -4.671875q1.828125 -1.796875 4.328125 -1.796875q2.59375 0 4.375 1.796875q1.78125 1.78125 1.78125 4.671875q0 2.8125 -1.78125 4.59375q-1.78125 1.78125 -4.375 1.78125z" fill-rule="nonzero"/><path fill="#000000" d="m243.44983 1211.4425l0 -3.5625l3.875 0q3.953125 0 5.953125 -0.734375q2.015625 -0.71875 2.78125 -2.234375q0.765625 -1.515625 0.765625 -3.953125q0 -3.5 -0.234375 -6.71875q-0.234375 -3.234375 -0.234375 -7.03125q0 -3.65625 1.4375 -5.625q1.453125 -1.984375 5.40625 -2.65625l0 -0.3125q-3.953125 -0.6875 -5.40625 -2.65625q-1.4375 -1.984375 -1.4375 -5.625q0 -3.578125 0.234375 -7.03125q0.234375 -3.453125 0.234375 -6.71875q0 -2.515625 -0.765625 -4.0q-0.765625 -1.484375 -2.78125 -2.203125q-2.0 -0.71875 -5.953125 -0.71875l-3.875 0l0 -3.578125l4.625 0q7.140625 0 10.5625 2.140625q3.421875 2.125 3.421875 7.96875q0 2.65625 -0.15625 5.09375q-0.140625 2.4375 -0.34375 4.828125q-0.1875 2.390625 -0.1875 4.75q0 1.4375 0.875 2.8125q0.875 1.359375 3.265625 2.234375q2.40625 0.875 6.890625 0.875l0 3.953125q-4.484375 0 -6.890625 0.875q-2.390625 0.875 -3.265625 2.203125q-0.875 1.328125 -0.875 2.859375q0 2.5 0.1875 4.828125q0.203125 2.3125 0.34375 4.671875q0.15625 2.34375 0.15625 5.15625q0 5.859375 -3.421875 7.984375q-3.421875 2.125 -10.5625 2.125l-4.625 0z" fill-rule="nonzero"/><path fill="#010000" fill-opacity="0.0" d="m281.5186 1125.1117l0 0l0 95.53198l0 0l0 -95.53198z" fill-rule="nonzero"/><path fill="#000000" d="m217.91548 1305.8019q-2.5 0 -4.328125 -1.78125q-1.828125 -1.78125 -1.828125 -4.59375q0 -2.890625 1.828125 -4.671875q1.828125 -1.796875 4.328125 -1.796875q2.59375 0 4.375 1.796875q1.78125 1.78125 1.78125 4.671875q0 2.8125 -1.78125 4.59375q-1.78125 1.78125 -4.375 1.78125zm45.59999 0q-2.5 0 -4.328125 -1.78125q-1.828125 -1.78125 -1.828125 -4.59375q0 -2.890625 1.828125 -4.671875q1.828125 -1.796875 4.328125 -1.796875q2.59375 0 4.375 1.796875q1.78125 1.78125 1.78125 4.671875q0 2.8125 -1.78125 4.59375q-1.78125 1.78125 -4.375 1.78125zm45.600006 0q-2.5 0 -4.328125 -1.78125q-1.828125 -1.78125 -1.828125 -4.59375q0 -2.890625 1.828125 -4.671875q1.828125 -1.796875 4.328125 -1.796875q2.59375 0 4.375 1.796875q1.78125 1.78125 1.78125 4.671875q0 2.8125 -1.78125 4.59375q-1.78125 1.78125 -4.375 1.78125z" fill-rule="nonzero"/><path fill="#010000" fill-opacity="0.0" d="m331.91858 1230.1117l0 0l0 95.53198l0 0l0 -95.53198z" fill-rule="nonzero"/><path fill="#000000" d="m106.649864 1421.4425l0 -3.5625l3.875 0q3.953125 0 5.953125 -0.734375q2.015625 -0.71875 2.78125 -2.234375q0.765625 -1.515625 0.765625 -3.953125q0 -3.5 -0.234375 -6.71875q-0.234375 -3.234375 -0.234375 -7.03125q0 -3.65625 1.4375 -5.625q1.453125 -1.984375 5.40625 -2.65625l0 -0.3125q-3.953125 -0.6875 -5.40625 -2.65625q-1.4375 -1.984375 -1.4375 -5.625q0 -3.578125 0.234375 -7.03125q0.234375 -3.453125 0.234375 -6.71875q0 -2.515625 -0.765625 -4.0q-0.765625 -1.484375 -2.78125 -2.203125q-2.0 -0.71875 -5.953125 -0.71875l-3.875 0l0 -3.578125l4.625 0q7.140625 0 10.5625 2.140625q3.421875 2.125 3.421875 7.96875q0 2.65625 -0.15625 5.09375q-0.140625 2.4375 -0.34375 4.828125q-0.1875 2.390625 -0.1875 4.75q0 1.4375 0.875 2.8125q0.875 1.359375 3.2656174 2.234375q2.40625 0.875 6.890625 0.875l0 3.953125q-4.484375 0 -6.890625 0.875q-2.3906174 0.875 -3.2656174 2.203125q-0.875 1.328125 -0.875 2.859375q0 2.5 0.1875 4.828125q0.203125 2.3125 0.34375 4.671875q0.15625 2.34375 0.15625 5.15625q0 5.859375 -3.421875 7.984375q-3.421875 2.125 -10.5625 2.125l-4.625 0z" fill-rule="nonzero"/><path fill="#000000" fill-opacity="0.0" d="m564.8373 561.6247c181.61847 54.810547 908.0923 274.05292 1089.7107 328.86353" fill-rule="evenodd"/><path stroke="#999999" stroke-width="8.0" stroke-linejoin="round" stroke-linecap="butt" d="m564.8373 561.6247l1043.7578 314.99536" fill-rule="evenodd"/><path fill="#999999" stroke="#999999" stroke-width="8.0" stroke-linecap="butt" d="m1604.7773 889.2704l38.57422 -2.1611938l-30.93872 -23.139465z" fill-rule="evenodd"/><path fill="#000000" fill-opacity="0.0" d="m2239.8032 756.17017l335.1809 0.25195312l0 81.385864l-335.1809 -0.25195312z" fill-rule="evenodd"/><path fill="#000000" d="m2312.9985 817.06586q-3.890625 -0.0029296875 -7.0625 -1.59906q-3.171875 -1.6117554 -5.046875 -4.67572q-1.859375 -3.0638428 -1.859375 -7.391968q0 -4.203125 1.859375 -7.233032q1.875 -3.0454102 4.890625 -4.668152q3.015625 -1.6383667 6.484375 -1.6358032q3.71875 0.0028076172 6.359375 1.5360718q2.640625 1.5175781 4.046875 4.2374268q1.421875 2.7197876 1.421875 6.3916626q0 0.75 -0.0625 1.453064q-0.046875 0.6875 -0.140625 1.218689l-21.921875 -0.016479492l0 -3.40625l19.296875 0.014465332l-1.109375 1.2179565q0 -4.578125 -2.109375 -6.876587q-2.109375 -2.298462 -5.6875 -2.3011475q-2.390625 -0.0018310547 -4.453125 1.1685181q-2.046875 1.1703491 -3.28125 3.4193726q-1.21875 2.2334595 -1.21875 5.4834595q0 3.359375 1.328125 5.6104126q1.34375 2.2353516 3.625 3.3933105q2.296875 1.142395 5.171875 1.1445312q2.359375 0.0017700195 4.25 -0.66864014q1.890625 -0.6704712 3.65625 -1.7785034l1.59375 2.8761597q-1.921875 1.2798462 -4.40625 2.184204q-2.46875 0.90441895 -5.625 0.9020386zm17.809326 -0.6272583l9.875 -13.430054l-9.125 -12.491272l4.859375 0.0036621094l4.109375 5.706238q0.6875 1.0161133 1.484375 2.1417236q0.796875 1.1256104 1.546875 2.2355347l0.21875 1.8310547E-4q0.6875 -1.1088867 1.453125 -2.2489014q0.78125 -1.1557007 1.484375 -2.2176514l3.890625 -5.6064453l4.640625 0.003479004l-9.234375 12.852417l9.921875 13.069946l-4.796875 -0.0036010742l-4.53125 -5.972107q-0.8125 -1.1256104 -1.6875 -2.3450317q-0.875 -1.2350464 -1.734375 -2.3607178l-0.203125 -1.2207031E-4q-0.8125 1.1243896 -1.609375 2.2956543q-0.796875 1.1712646 -1.59375 2.4050293l-4.265625 5.965576l-4.703125 -0.003540039zm49.6062 0.6779175q-3.796875 -0.0028686523 -5.984375 -1.3638916q-2.171875 -1.3609619 -3.109375 -3.7523193q-0.9375 -2.4069824 -0.9375 -5.6101074l0 -12.265625l-7.3125 -0.005493164l0 -3.3125l7.46875 -0.26000977l0.59375 -8.312012l3.625 0.0026855469l0 8.3125l12.75 0.0095825195l0 3.578125l-12.75 -0.0095825195l0 12.3125q0 2.296875 0.578125 3.9066772q0.59375 1.5942383 2.03125 2.3921509q1.4375 0.79797363 3.953125 0.7998657q1.859375 0.0014038086 3.34375 -0.30999756q1.5 -0.32696533 2.890625 -0.85717773l0.953125 3.2038574q-1.75 0.6392822 -3.703125 1.0909424q-1.9375 0.45166016 -4.390625 0.4498291zm18.762451 -0.6265259l0 -25.921875l3.625 0.002746582l0.375 6.140869l0.171875 1.2207031E-4q2.015625 -3.1547241 5.0 -4.964966q2.984375 -1.8102417 6.5625 -1.8075562q1.4375 0.0010375977 2.6875 0.25201416q1.265625 0.23529053 2.4375 0.82995605l-1.015625 3.7804565q-1.328125 -0.48535156 -2.296875 -0.689209q-0.953125 -0.21948242 -2.5 -0.22064209q-2.9375 -0.0021972656 -5.640625 1.6832886q-2.6875 1.6698608 -5.03125 5.714966l0 15.203125l-4.375 -0.0032958984zm37.340576 0.6687012q-2.40625 -0.0018310547 -4.4375 -0.87835693q-2.015625 -0.8921509 -3.203125 -2.5336304q-1.171875 -1.6571655 -1.171875 -3.9540405q0 -4.375 4.375 -6.637329q4.375 -2.262329 14.40625 -3.0516357q-0.0625 -1.765686 -0.734375 -3.2505493q-0.65625 -1.5004883 -2.15625 -2.376648q-1.484375 -0.89172363 -3.984375 -0.8936157q-1.65625 -0.0012207031 -3.28125 0.4506836q-1.625 0.4519043 -3.09375 1.1851196q-1.46875 0.71765137 -2.703125 1.4511108l-1.703125 -2.9856567q1.28125 -0.84277344 3.125 -1.7163696q1.84375 -0.8892822 3.96875 -1.4501343q2.140625 -0.5609131 4.421875 -0.5592041q3.578125 0.0026855469 5.890625 1.3482056q2.328125 1.329834 3.46875 3.7056885q1.15625 2.3759155 1.15625 5.6259155l0 15.890625l-3.578125 -0.0026855469l-0.375 -3.5159302l-0.15625 -1.2207031E-4q-2.140625 1.7015381 -4.8125 2.933899q-2.65625 1.2167358 -5.421875 1.2146606zm1.171875 -3.5147705q2.234375 0.0017089844 4.421875 -1.0122681q2.1875 -1.013977 4.375 -2.824829l0 -6.828125q-5.546875 0.48016357 -8.71875 1.3371582q-3.171875 0.8413696 -4.484375 2.152893q-1.3125 1.2958984 -1.3125 2.9990234q0 1.453125 0.796875 2.3912354q0.8125 0.92248535 2.109375 1.3609619q1.3125 0.42285156 2.8125 0.4239502zm36.153076 3.5428467q-4.046875 -0.0030517578 -7.28125 -1.5992432q-3.21875 -1.6118164 -5.0625 -4.644409q-1.84375 -3.0482788 -1.84375 -7.313904q0 -4.375 1.96875 -7.404785q1.984375 -3.0453491 5.25 -4.6366577q3.28125 -1.6069336 7.234375 -1.6039429q3.203125 0.002380371 5.515625 1.1291504q2.328125 1.126709 3.921875 2.6748047l-2.1875 2.826477q-1.59375 -1.3917847 -3.3125 -2.1900024q-1.703125 -0.81378174 -3.78125 -0.8153076q-2.984375 -0.0022583008 -5.28125 1.2616577q-2.28125 1.248291 -3.546875 3.5129395q-1.25 2.2647095 -1.25 5.2490845q0 2.9375 1.21875 5.1727905q1.234375 2.2352905 3.5 3.5026245q2.265625 1.251709 5.25 1.2539673q2.40625 0.0017700195 4.40625 -0.9498291q2.0 -0.96728516 3.59375 -2.2941895l1.984375 2.8295898q-2.140625 1.9046631 -4.78125 2.980835q-2.640625 1.0604858 -5.515625 1.0583496zm34.559326 0.025939941q-3.796875 -0.0028076172 -5.984375 -1.3638306q-2.171875 -1.361023 -3.109375 -3.7523804q-0.9375 -2.4069214 -0.9375 -5.6100464l0 -12.265625l-7.3125 -0.005493164l0 -3.3125l7.46875 -0.26000977l0.59375 -8.312073l3.625 0.002746582l0 8.3125l12.75 0.0095825195l0 3.578125l-12.75 -0.0095825195l0 12.3125q0 2.296875 0.578125 3.9066772q0.59375 1.5941772 2.03125 2.3921509q1.4375 0.79797363 3.953125 0.7998047q1.859375 0.0014038086 3.34375 -0.30993652q1.5 -0.32702637 2.890625 -0.85723877l0.953125 3.2038574q-1.75 0.6392822 -3.703125 1.0909424q-1.9375 0.4517212 -4.390625 0.4498291z" fill-rule="nonzero"/><path fill="#000000" fill-opacity="0.0" d="m2181.6978 517.6562c38.158936 13.389526 246.29858 21.42334 228.95361 80.33728c-17.345215 58.91394 -277.52002 227.62189 -333.02417 273.1463" fill-rule="evenodd"/><path stroke="#999999" stroke-width="8.0" stroke-linejoin="round" stroke-linecap="butt" d="m2181.6978 517.6562c38.158936 13.389526 246.29858 21.42334 228.95361 80.33722c-8.672607 29.457031 -78.052734 86.36249 -152.20264 141.5943c-37.074707 27.615845 -75.342285 54.813354 -107.809814 77.95215c-8.116943 5.784729 -15.871338 11.315735 -23.154053 16.536194c-3.6413574 2.6102295 -7.164795 5.142761 -10.556641 7.5906982l-0.91137695 0.65911865" fill-rule="evenodd"/><path fill="#999999" stroke="#999999" stroke-width="8.0" stroke-linecap="butt" d="m2108.0847 831.7577l-21.10376 32.361572l36.968018 -11.225159z" fill-rule="evenodd"/><path fill="#000000" fill-opacity="0.0" d="m564.8373 1060.6666c181.61847 -22.460083 908.0923 -112.300354 1089.7107 -134.76044" fill-rule="evenodd"/><path stroke="#999999" stroke-width="8.0" stroke-linejoin="round" stroke-linecap="butt" d="m564.8373 1060.6666l1042.0736 -128.86938" fill-rule="evenodd"/><path fill="#999999" stroke="#999999" stroke-width="8.0" stroke-linecap="butt" d="m1608.5327 944.91125l34.40857 -17.569702l-37.6521 -8.658264z" fill-rule="evenodd"/><path fill="#000000" fill-opacity="0.0" d="m1098.7631 1009.6186l335.18103 0.25195312l0 170.74017l-335.18103 -0.25195312z" fill-rule="evenodd"/><path fill="#000000" d="m1171.9585 1070.5143q-3.890625 -0.0029296875 -7.0625 -1.5991211q-3.171875 -1.6116943 -5.046875 -4.675659q-1.859375 -3.0638428 -1.859375 -7.391968q0 -4.203125 1.859375 -7.233032q1.875 -3.0454102 4.890625 -4.668213q3.015625 -1.6383057 6.484375 -1.6357422q3.71875 0.0028076172 6.359375 1.5360107q2.640625 1.5177002 4.046875 4.2374268q1.421875 2.7198486 1.421875 6.3917236q0 0.75 -0.0625 1.453125q-0.046875 0.6873779 -0.140625 1.2186279l-21.921875 -0.016479492l0 -3.40625l19.296875 0.014526367l-1.109375 1.2178955q0 -4.578125 -2.109375 -6.876587q-2.109375 -2.298462 -5.6875 -2.3011475q-2.390625 -0.0018310547 -4.453125 1.168457q-2.046875 1.1704102 -3.28125 3.4194336q-1.21875 2.2335205 -1.21875 5.4835205q0 3.359375 1.328125 5.6103516q1.34375 2.2353516 3.625 3.3933105q2.296875 1.142334 5.171875 1.1445312q2.359375 0.0018310547 4.25 -0.6687012q1.890625 -0.67041016 3.65625 -1.7784424l1.59375 2.8762207q-1.921875 1.2797852 -4.40625 2.184082q-2.46875 0.90441895 -5.625 0.9020996zm17.809326 -0.62719727l9.875 -13.430176l-9.125 -12.491211l4.859375 0.0036621094l4.109375 5.7061768q0.6875 1.0162354 1.484375 2.1417236q0.796875 1.1256104 1.546875 2.2355957l0.21875 1.2207031E-4q0.6875 -1.1087646 1.453125 -2.2489014q0.78125 -1.1556396 1.484375 -2.2176514l3.890625 -5.6064453l4.640625 0.003540039l-9.234375 12.852417l9.921875 13.069946l-4.796875 -0.003540039l-4.53125 -5.972168q-0.8125 -1.1256104 -1.6875 -2.3450928q-0.875 -1.2349854 -1.734375 -2.3605957l-0.203125 -2.4414062E-4q-0.8125 1.1243896 -1.609375 2.2957764q-0.796875 1.1712646 -1.59375 2.4050293l-4.265625 5.965454l-4.703125 -0.0034179688zm49.6062 0.67785645q-3.796875 -0.0028076172 -5.984375 -1.3638916q-2.171875 -1.3609619 -3.109375 -3.7523193q-0.9375 -2.4069824 -0.9375 -5.6101074l0 -12.265625l-7.3125 -0.005493164l0 -3.3125l7.46875 -0.26000977l0.59375 -8.312012l3.625 0.0026855469l0 8.3125l12.75 0.009643555l0 3.578125l-12.75 -0.009643555l0 12.3125q0 2.296875 0.578125 3.9067383q0.59375 1.5941162 2.03125 2.3920898q1.4375 0.79797363 3.953125 0.79992676q1.859375 0.0013427734 3.34375 -0.3100586q1.5 -0.32702637 2.890625 -0.85717773l0.953125 3.2038574q-1.75 0.6392822 -3.703125 1.0909424q-1.9375 0.45166016 -4.390625 0.4498291zm18.762451 -0.62646484l0 -25.921997l3.625 0.0028076172l0.375 6.140869l0.171875 1.2207031E-4q2.015625 -3.154663 5.0 -4.964966q2.984375 -1.8103027 6.5625 -1.8076172q1.4375 0.0010986328 2.6875 0.2520752q1.265625 0.23535156 2.4375 0.82995605l-1.015625 3.7805176q-1.328125 -0.48535156 -2.296875 -0.689209q-0.953125 -0.21948242 -2.5 -0.22070312q-2.9375 -0.0021972656 -5.640625 1.6832275q-2.6875 1.6699219 -5.03125 5.714966l0 15.203125l-4.375 -0.0031738281zm37.340576 0.6687012q-2.40625 -0.0018310547 -4.4375 -0.87841797q-2.015625 -0.89208984 -3.203125 -2.5336914q-1.171875 -1.6571045 -1.171875 -3.9539795q0 -4.375 4.375 -6.637329q4.375 -2.262329 14.40625 -3.0516357q-0.0625 -1.7657471 -0.734375 -3.2506104q-0.65625 -1.5004883 -2.15625 -2.376587q-1.484375 -0.89172363 -3.984375 -0.89367676q-1.65625 -0.0012207031 -3.28125 0.4506836q-1.625 0.4519043 -3.09375 1.1851807q-1.46875 0.71765137 -2.703125 1.4511719l-1.703125 -2.9857178q1.28125 -0.84277344 3.125 -1.7164307q1.84375 -0.88916016 3.96875 -1.4500732q2.140625 -0.5609131 4.421875 -0.5592041q3.578125 0.0026855469 5.890625 1.3481445q2.328125 1.329956 3.46875 3.7058105q1.15625 2.3758545 1.15625 5.6258545l0 15.890625l-3.578125 -0.0026855469l-0.375 -3.5159912l-0.15625 0q-2.140625 1.701416 -4.8125 2.933838q-2.65625 1.2167969 -5.421875 1.2147217zm1.171875 -3.5147705q2.234375 0.0015869141 4.421875 -1.0123291q2.1875 -1.0140381 4.375 -2.824829l0 -6.828125q-5.546875 0.4802246 -8.71875 1.3371582q-3.171875 0.84143066 -4.484375 2.152954q-1.3125 1.2957764 -1.3125 2.9989014q0 1.453125 0.796875 2.3912354q0.8125 0.92248535 2.109375 1.3609619q1.3125 0.42285156 2.8125 0.42407227zm36.152954 3.5427246q-4.046875 -0.0030517578 -7.28125 -1.5991211q-3.21875 -1.6118164 -5.062378 -4.6445312q-1.84375 -3.0482178 -1.84375 -7.313843q0 -4.375 1.96875 -7.404785q1.9842529 -3.0454102 5.249878 -4.6367188q3.28125 -1.6068115 7.234375 -1.6038818q3.203125 0.0024414062 5.515625 1.1291504q2.328125 1.126709 3.921875 2.6748047l-2.1875 2.826538q-1.59375 -1.3918457 -3.3125 -2.1900635q-1.703125 -0.8137207 -3.78125 -0.8153076q-2.984375 -0.0021972656 -5.28125 1.2615967q-2.28125 1.248291 -3.546875 3.5130615q-1.25 2.2646484 -1.25 5.2490234q0 2.9375 1.21875 5.1727295q1.234375 2.2353516 3.5 3.5026855q2.265625 1.251709 5.25 1.2539062q2.40625 0.0018310547 4.40625 -0.9498291q2.0 -0.9671631 3.59375 -2.2940674l1.984375 2.8295898q-2.140625 1.9046631 -4.78125 2.980713q-2.640625 1.0605469 -5.515625 1.0583496zm34.559326 0.026000977q-3.796875 -0.0028076172 -5.984375 -1.3638916q-2.171875 -1.3609619 -3.109375 -3.7523193q-0.9375 -2.4069824 -0.9375 -5.6101074l0 -12.265625l-7.3125 -0.005493164l0 -3.3125l7.46875 -0.26000977l0.59375 -8.312012l3.625 0.0026855469l0 8.3125l12.75 0.009643555l0 3.578125l-12.75 -0.009643555l0 12.3125q0 2.296875 0.578125 3.9067383q0.59375 1.5942383 2.03125 2.3920898q1.4375 0.79797363 3.953125 0.79992676q1.859375 0.0013427734 3.34375 -0.3100586q1.5 -0.3269043 2.890625 -0.85717773l0.953125 3.2038574q-1.75 0.6392822 -3.703125 1.0909424q-1.9375 0.45166016 -4.390625 0.4498291z" fill-rule="nonzero"/><path fill="#000000" d="m1151.4913 1144.4989q-2.40625 -0.0018310547 -4.4375 -0.8782959q-2.015625 -0.8922119 -3.203125 -2.5336914q-1.171875 -1.6571045 -1.171875 -3.9539795q0 -4.375 4.375 -6.637329q4.375 -2.262329 14.40625 -3.0517578q-0.0625 -1.765625 -0.734375 -3.2504883q-0.65625 -1.5004883 -2.15625 -2.376587q-1.484375 -0.8918457 -3.984375 -0.89367676q-1.65625 -0.0012207031 -3.28125 0.4506836q-1.625 0.4519043 -3.09375 1.1851807q-1.46875 0.71765137 -2.703125 1.4510498l-1.703125 -2.9855957q1.28125 -0.8428955 3.125 -1.7164307q1.84375 -0.8892822 3.96875 -1.4501953q2.140625 -0.5609131 4.421875 -0.5592041q3.578125 0.0028076172 5.890625 1.3482666q2.328125 1.329834 3.46875 3.7056885q1.15625 2.3758545 1.15625 5.6258545l0 15.890625l-3.578125 -0.0026855469l-0.375 -3.5158691l-0.15625 -1.2207031E-4q-2.140625 1.7015381 -4.8125 2.933838q-2.65625 1.2167969 -5.421875 1.2147217zm1.171875 -3.5147705q2.234375 0.0017089844 4.421875 -1.0123291q2.1875 -1.013916 4.375 -2.824829l0 -6.828125q-5.546875 0.4802246 -8.71875 1.3372803q-3.171875 0.8413086 -4.484375 2.152832q-1.3125 1.2958984 -1.3125 2.9990234q0 1.453125 0.796875 2.3912354q0.8125 0.92248535 2.109375 1.3609619q1.3125 0.42285156 2.8125 0.4239502zm22.653076 2.8920898l0 -25.921875l3.625 0.0026855469l0.375 4.437744l0.21875 2.4414062E-4q2.03125 -2.1860352 4.375 -3.621704q2.34375 -1.451416 5.390625 -1.4490967q4.578125 0.0034179688 6.765625 2.67688q2.1875 2.673584 2.1875 7.782959l0 16.109375l-4.375 -0.0032958984l0 -15.515625q0 -3.6875 -1.390625 -5.4698486q-1.375 -1.7822266 -4.578125 -1.784668q-2.296875 -0.0017089844 -4.109375 1.1688232q-1.8125 1.1705322 -4.109375 3.5125732l0 18.078125l-4.375 -0.0032958984zm41.496826 0.6717529q-5.0625 -0.0037841797 -8.15625 -3.5529785q-3.09375 -3.5491943 -3.09375 -10.002319q0 -4.21875 1.671875 -7.2800293q1.6875 -3.0611572 4.375 -4.715454q2.703125 -1.6541748 5.734375 -1.6519775q2.296875 0.0018310547 4.1875 0.8937988q1.890625 0.87646484 3.546875 2.4714355l0.15625 1.2207031E-4l-0.203125 -4.796997l0 -9.96875l4.359375 0.0032958984l0 37.96875l-3.625 -0.0028076172l-0.375 -3.4064941l-0.15625 -1.2207031E-4q-1.546875 1.6395264 -3.765625 2.8409424q-2.203125 1.201416 -4.65625 1.199585zm0.90625 -3.6867676q1.921875 0.0014648438 3.734375 -0.9815674q1.8125 -0.9830322 3.578125 -2.9035645l0 -12.90625q-1.765625 -1.6419678 -3.453125 -2.3306885q-1.671875 -0.7044678 -3.375 -0.7056885q-2.25 -0.0017089844 -4.09375 1.2469482q-1.828125 1.2485352 -2.921875 3.4665527q-1.09375 2.2178955 -1.09375 5.2022705q0 4.640625 2.015625 7.282715q2.03125 2.626587 5.609375 2.6292725zm51.728027 3.0856934l0 -25.921875l3.515625 0.0026855469l0.375 3.4221191l0.109375 1.2207031E-4q1.015625 -1.8117676 2.34375 -2.935791q1.328125 -1.1239014 3.578125 -1.1223145q1.921875 0.0014648438 3.140625 1.1274414q1.234375 1.1258545 1.765625 3.3607178q1.109375 -2.0773926 2.46875 -3.279419q1.375 -1.2021484 3.609375 -1.2004395q2.71875 0.0020751953 4.234375 2.0656738q1.515625 2.0479736 1.515625 5.9385986l0 18.562622l-4.359375 -0.0032958984l0 -18.234375q0 -4.53125 -2.78125 -4.533325q-1.328125 -0.0010986328 -2.21875 0.982666q-0.875 0.9836426 -1.9375 3.0141602l0 18.765625l-4.046875 -0.0030517578l0 -18.234375q0 -2.25 -0.625 -3.3911133q-0.609375 -1.1411133 -2.046875 -1.1420898q-1.328125 -0.0010986328 -2.328125 0.98254395q-0.984375 0.9836426 -1.9375 3.0141602l0 18.765625l-4.375 -0.0032958984zm44.903076 0.6744385q-3.421875 -0.0025634766 -6.328125 -1.5985107q-2.90625 -1.6115723 -4.6875 -4.644165q-1.78125 -3.0482178 -1.78125 -7.313843q0 -4.375 1.78125 -7.404907q1.78125 -3.0455322 4.6875 -4.637085q2.90625 -1.6071777 6.328125 -1.6046143q3.40625 0.0025634766 6.3125 1.6141357q2.906128 1.5959473 4.687378 4.644165q1.796875 3.0325928 1.796875 7.407593q0 4.265625 -1.796875 7.311157q-1.78125 3.0299072 -4.687378 4.637085q-2.90625 1.5915527 -6.3125 1.5889893zm0 -3.625q2.5 0.0018310547 4.359375 -1.2467041q1.875 -1.2642822 2.890625 -3.4978027q1.0155029 -2.2336426 1.0155029 -5.1711426q0 -2.984375 -1.0155029 -5.2507324q-1.015625 -2.2664795 -2.890625 -3.5178223q-1.859375 -1.2670898 -4.359375 -1.2689209q-2.515625 -0.001953125 -4.359375 1.2623291q-1.828125 1.2486572 -2.875 3.5134277q-1.03125 2.2648926 -1.03125 5.2492676q0 2.9375 1.03125 5.1726074q1.046875 2.2352295 2.875 3.5021973q1.84375 1.2513428 4.359375 1.2532959zm29.652954 3.0067139l-10.9375 -25.930176l4.421875 0.0032958984l5.984375 14.723267q0.796875 1.9224854 1.515625 3.8449707q0.71875 1.9223633 1.40625 3.7822266l0.21875 2.4414062E-4q0.6875 -1.8588867 1.375 -3.7802734q0.703125 -1.9213867 1.453125 -3.8426514l5.96875 -14.714233l4.21875 0.0031738281l-10.71875 25.913818l-4.90625 -0.0036621094zm35.934326 0.66760254q-3.890625 -0.0029296875 -7.0625 -1.5991211q-3.171875 -1.6116943 -5.046875 -4.675659q-1.859375 -3.0638428 -1.859375 -7.391968q0 -4.203125 1.859375 -7.233032q1.875 -3.0454102 4.890625 -4.668213q3.015625 -1.6383057 6.484375 -1.6357422q3.71875 0.0028076172 6.359375 1.5360107q2.640625 1.5177002 4.046875 4.2374268q1.421875 2.7198486 1.421875 6.3917236q0 0.75 -0.0625 1.453125q-0.046875 0.6873779 -0.140625 1.2186279l-21.921875 -0.016479492l0 -3.40625l19.296875 0.014526367l-1.109375 1.2178955q0 -4.578125 -2.109375 -6.876587q-2.109375 -2.298462 -5.6875 -2.3011475q-2.390625 -0.0018310547 -4.453125 1.168457q-2.046875 1.1704102 -3.28125 3.4194336q-1.21875 2.2335205 -1.21875 5.4835205q0 3.359375 1.328125 5.6103516q1.34375 2.2353516 3.625 3.3933105q2.296875 1.142334 5.171875 1.1445312q2.359375 0.0018310547 4.25 -0.6687012q1.890625 -0.67041016 3.65625 -1.7784424l1.59375 2.8762207q-1.921875 1.2797852 -4.40625 2.184082q-2.46875 0.90441895 -5.625 0.9020996z" fill-rule="nonzero"/></g></svg>