<svg version="1.1" viewBox="0.0 0.0 2410.9816272965877 1196.1653543307086" fill="none" stroke="none" stroke-linecap="square" stroke-miterlimit="10" xmlns:xlink="http://www.w3.org/1999/xlink" xmlns="http://www.w3.org/2000/svg"><clipPath id="p.0"><path d="m0 0l2410.9817 0l0 1196.1654l-2410.9817 0l0 -1196.1654z" clip-rule="nonzero"/></clipPath><g clip-path="url(#p.0)"><path fill="#000000" fill-opacity="0.0" d="m0 0l2410.9817 0l0 1196.1654l-2410.9817 0z" fill-rule="evenodd"/><path fill="#000000" fill-opacity="0.0" d="m1939.5958 90.90977l0 0c0 -45.009933 -36.487793 -81.497696 -81.49768 -81.497696l-690.0126 0c-21.614502 0 -42.34375 8.58634 -57.627563 23.870123c-15.283691 15.283783 -23.870117 36.01304 -23.870117 57.62757l0 325.981c0 45.00995 36.487793 81.49771 81.49768 81.49771l690.0126 0c45.009888 0 81.49768 -36.487762 81.49768 -81.49771z" fill-rule="evenodd"/><path stroke="#cccccc" stroke-width="1.0" stroke-linejoin="round" stroke-linecap="butt" d="m1939.5958 90.90977l0 0c0 -45.009933 -36.487793 -81.497696 -81.49768 -81.497696l-690.0126 0c-21.614502 0 -42.34375 8.58634 -57.627563 23.870123c-15.283691 15.283783 -23.870117 36.01304 -23.870117 57.62757l0 325.981c0 45.00995 36.487793 81.49771 81.49768 81.49771l690.0126 0c45.009888 0 81.49768 -36.487762 81.49768 -81.49771z" fill-rule="evenodd"/><path fill="#351c75" d="m1141.8328 117.73526q-5.578125 0 -10.015625 -2.1875q-4.4375 -2.203125 -6.96875 -6.375q-2.53125 -4.1875 -2.53125 -10.0625q0 -6.015625 2.71875 -10.1875q2.71875 -4.1875 7.21875 -6.375q4.515625 -2.203125 9.9375 -2.203125q4.40625 0 7.59375 1.546875q3.1875 1.53125 5.390625 3.65625l-3.015625 3.890625q-2.1875 -1.90625 -4.546875 -3.0q-2.34375 -1.109375 -5.203125 -1.109375q-4.09375 0 -7.25 1.734375q-3.15625 1.71875 -4.890625 4.828125q-1.71875 3.109375 -1.71875 7.21875q0 4.03125 1.6875 7.125q1.6875 3.078125 4.796875 4.796875q3.125 1.71875 7.234375 1.71875q3.296875 0 6.046875 -1.3125q2.75 -1.328125 4.953125 -3.15625l2.71875 3.890625q-2.9375 2.640625 -6.578125 4.109375q-3.625 1.453125 -7.578125 1.453125zm48.38745 0q-5.640625 0 -8.65625 -3.25q-3.0 -3.265625 -3.0 -9.578125l0 -35.34375l-12.171875 0l0 -4.90625l18.1875 0l0 40.6875q0 3.890625 1.90625 5.65625q1.90625 1.75 5.0625 1.75q1.53125 0 3.140625 -0.390625q1.625 -0.40625 3.609375 -1.296875l1.53125 4.546875q-2.421875 0.890625 -4.546875 1.5q-2.125 0.625 -5.0625 0.625zm32.26245 0q-3.296875 0 -6.078125 -1.203125q-2.78125 -1.21875 -4.40625 -3.484375q-1.609375 -2.28125 -1.609375 -5.421875q0 -6.015625 6.015625 -9.125q6.015625 -3.125 19.796875 -4.21875q-0.078125 -2.421875 -1.0 -4.46875q-0.90625 -2.0625 -2.96875 -3.265625q-2.046875 -1.21875 -5.484375 -1.21875q-2.28125 0 -4.515625 0.625q-2.234375 0.625 -4.25 1.625q-2.015625 0.984375 -3.703125 2.0l-2.34375 -4.109375q1.75 -1.171875 4.28125 -2.375q2.53125 -1.21875 5.46875 -1.984375q2.9375 -0.765625 6.078125 -0.765625q4.921875 0 8.109375 1.84375q3.1875 1.828125 4.765625 5.09375q1.578125 3.25 1.578125 7.71875l0 21.859375l-4.921875 0l-0.5 -4.84375l-0.21875 0q-2.9375 2.34375 -6.609375 4.03125q-3.65625 1.6875 -7.484375 1.6875zm1.625 -4.828125q3.078125 0 6.078125 -1.390625q3.015625 -1.40625 6.015625 -3.890625l0 -9.390625q-7.625 0.65625 -11.984375 1.828125q-4.359375 1.171875 -6.15625 2.96875q-1.796875 1.796875 -1.796875 4.15625q0 1.96875 1.09375 3.25q1.09375 1.28125 2.890625 1.875q1.796875 0.59375 3.859375 0.59375zm47.07495 4.828125q-5.203125 0 -9.75 -1.6875q-4.546875 -1.6875 -7.78125 -3.875l2.796875 -3.96875q3.078125 2.203125 6.8125 3.53125q3.734375 1.3125 8.65625 1.3125q4.546875 0 6.78125 -1.6875q2.234375 -1.6875 2.234375 -3.890625q0 -1.015625 -0.40625 -1.890625q-0.40625 -0.890625 -1.546875 -1.6875q-1.125 -0.8125 -3.328125 -1.546875q-2.203125 -0.734375 -5.859375 -1.46875q-6.96875 -1.46875 -10.453125 -3.953125q-3.484375 -2.5 -3.484375 -6.453125q0 -4.328125 3.734375 -7.21875q3.75 -2.90625 11.078125 -2.90625q4.109375 0 7.921875 1.359375q3.8125 1.359375 6.453125 3.1875l-2.9375 3.890625q-2.421875 -1.765625 -5.5 -2.75q-3.078125 -1.0 -6.453125 -1.0q-3.078125 0 -4.875 0.703125q-1.796875 0.6875 -2.5625 1.875q-0.765625 1.171875 -0.765625 2.5625q0 2.265625 2.453125 3.546875q2.453125 1.28125 7.875 2.390625q5.9375 1.25 9.125 2.796875q3.203125 1.53125 4.40625 3.515625q1.21875 1.96875 1.21875 4.6875q0 2.9375 -1.84375 5.328125q-1.828125 2.375 -5.359375 3.84375q-3.515625 1.453125 -8.640625 1.453125zm43.996826 0q-5.203125 0 -9.75 -1.6875q-4.546875 -1.6875 -7.78125 -3.875l2.796875 -3.96875q3.078125 2.203125 6.8125 3.53125q3.734375 1.3125 8.65625 1.3125q4.546875 0 6.78125 -1.6875q2.234375 -1.6875 2.234375 -3.890625q0 -1.015625 -0.40625 -1.890625q-0.40625 -0.890625 -1.546875 -1.6875q-1.125 -0.8125 -3.328125 -1.546875q-2.203125 -0.734375 -5.859375 -1.46875q-6.96875 -1.46875 -10.453125 -3.953125q-3.484375 -2.5 -3.484375 -6.453125q0 -4.328125 3.734375 -7.21875q3.75 -2.90625 11.078125 -2.90625q4.109375 0 7.921875 1.359375q3.8125 1.359375 6.453125 3.1875l-2.9375 3.890625q-2.421875 -1.765625 -5.5 -2.75q-3.078125 -1.0 -6.453125 -1.0q-3.078125 0 -4.875 0.703125q-1.796875 0.6875 -2.5625 1.875q-0.765625 1.171875 -0.765625 2.5625q0 2.265625 2.453125 3.546875q2.453125 1.28125 7.875 2.390625q5.9375 1.25 9.125 2.796875q3.203125 1.53125 4.40625 3.515625q1.21875 1.96875 1.21875 4.6875q0 2.9375 -1.84375 5.328125q-1.828125 2.375 -5.359375 3.84375q-3.515625 1.453125 -8.640625 1.453125z" fill-rule="nonzero"/><path fill="#000000" d="m1402.798 117.73526q-5.28125 0 -9.71875 -1.9375q-4.421875 -1.9375 -7.734375 -5.171875l3.671875 -4.25q2.71875 2.71875 6.34375 4.375q3.625 1.640625 7.734375 1.640625q4.984375 0 7.734375 -2.125q2.75 -2.125 2.75 -5.5q0 -2.578125 -1.140625 -4.109375q-1.125 -1.546875 -3.078125 -2.5625q-1.9375 -1.03125 -4.4375 -2.0625l-6.890625 -3.0q-2.421875 -1.03125 -4.8125 -2.5625q-2.375 -1.546875 -3.984375 -3.921875q-1.609375 -2.390625 -1.609375 -5.90625q0 -3.671875 2.015625 -6.5625q2.015625 -2.90625 5.609375 -4.546875q3.59375 -1.65625 8.140625 -1.65625q4.546875 0 8.359375 1.65625q3.8125 1.640625 6.453125 4.28125l-3.234375 3.96875q-2.34375 -2.125 -5.203125 -3.328125q-2.859375 -1.21875 -6.59375 -1.21875q-4.1875 0 -6.75 1.875q-2.5625 1.859375 -2.5625 5.15625q0 2.28125 1.28125 3.75q1.28125 1.453125 3.25 2.40625q1.984375 0.953125 4.046875 1.84375l6.75 2.921875q3.0 1.1875 5.421875 2.84375q2.421875 1.640625 3.8125 4.0625q1.390625 2.40625 1.390625 5.9375q0 3.8125 -2.0625 6.9375q-2.046875 3.109375 -5.859375 4.9375q-3.8125 1.828125 -9.09375 1.828125zm39.6687 0q-6.375 0 -9.390625 -3.65625q-3.0 -3.671875 -3.0 -10.71875l0 -22.140625l6.09375 0l0 21.34375q0 5.0625 1.859375 7.515625q1.875 2.453125 6.34375 2.453125q3.09375 0 5.609375 -1.578125q2.53125 -1.578125 5.46875 -5.015625l0 -24.71875l6.015625 0l0 35.640625l-4.90625 0l-0.515625 -6.234375l-0.296875 0q-2.71875 3.078125 -5.953125 5.09375q-3.21875 2.015625 -7.328125 2.015625zm32.778076 14.15625l0 -50.671875l5.0 0l0.5 4.546875l0.234375 0q2.484375 -2.34375 5.75 -3.875q3.265625 -1.546875 6.5625 -1.546875q4.84375 0 8.09375 2.234375q3.265625 2.234375 4.953125 6.3125q1.6875 4.0625 1.6875 9.640625q0 6.015625 -2.28125 10.34375q-2.265625 4.3125 -5.9375 6.59375q-3.65625 2.265625 -7.984375 2.265625q-2.421875 0 -5.328125 -1.203125q-2.890625 -1.21875 -5.296875 -3.40625l-0.21875 0l0.28125 6.734375l0 12.03125l-6.015625 0zm15.546875 -19.21875q3.15625 0 5.640625 -1.671875q2.5 -1.6875 3.921875 -4.875q1.4375 -3.203125 1.4375 -7.59375q0 -3.890625 -1.03125 -6.859375q-1.015625 -2.96875 -3.21875 -4.609375q-2.203125 -1.65625 -5.796875 -1.65625q-2.40625 0 -5.09375 1.28125q-2.671875 1.28125 -5.390625 4.0625l0 17.75q2.578125 2.265625 5.171875 3.21875q2.609375 0.953125 4.359375 0.953125zm45.840576 5.0625q-5.359375 0 -9.71875 -2.1875q-4.359375 -2.203125 -6.9375 -6.421875q-2.5625 -4.21875 -2.5625 -10.15625q0 -5.796875 2.5625 -9.96875q2.578125 -4.1875 6.71875 -6.421875q4.140625 -2.234375 8.90625 -2.234375q5.125 0 8.75 2.09375q3.640625 2.078125 5.578125 5.828125q1.953125 3.734375 1.953125 8.796875q0 1.03125 -0.078125 1.984375q-0.078125 0.953125 -0.21875 1.6875l-30.140625 0l0 -4.703125l26.546875 0l-1.53125 1.6875q0 -6.296875 -2.90625 -9.453125q-2.890625 -3.15625 -7.8125 -3.15625q-3.296875 0 -6.125 1.609375q-2.8125 1.609375 -4.5 4.703125q-1.6875 3.078125 -1.6875 7.546875q0 4.625 1.828125 7.703125q1.84375 3.078125 4.984375 4.65625q3.15625 1.578125 7.125 1.578125q3.21875 0 5.8125 -0.921875q2.609375 -0.921875 5.03125 -2.453125l2.203125 3.953125q-2.640625 1.765625 -6.046875 3.015625q-3.40625 1.234375 -7.734375 1.234375zm30.496826 -0.875l0 -35.640625l4.984375 0l0.515625 8.4375l0.21875 0q2.796875 -4.328125 6.890625 -6.8125q4.109375 -2.5 9.03125 -2.5q1.96875 0 3.6875 0.328125q1.734375 0.328125 3.34375 1.140625l-1.390625 5.203125q-1.828125 -0.65625 -3.15625 -0.953125q-1.3125 -0.296875 -3.4375 -0.296875q-4.046875 0 -7.75 2.3125q-3.703125 2.3125 -6.921875 7.875l0 20.90625l-6.015625 0zm43.0437 0l0 -48.109375l29.546875 0l0 5.140625l-23.390625 0l0 16.28125l19.796875 0l0 5.125l-19.796875 0l0 21.5625l-6.15625 0zm56.246826 0.875q-4.6875 0 -8.6875 -2.1875q-4.0 -2.203125 -6.453125 -6.375q-2.453125 -4.1875 -2.453125 -10.0625q0 -6.015625 2.453125 -10.1875q2.453125 -4.1875 6.453125 -6.375q4.0 -2.203125 8.6875 -2.203125q4.6875 0 8.6875 2.203125q4.0 2.1875 6.453125 6.375q2.453125 4.171875 2.453125 10.1875q0 5.875 -2.453125 10.0625q-2.453125 4.171875 -6.453125 6.375q-4.0 2.1875 -8.6875 2.1875zm0 -4.984375q3.4375 0 6.0 -1.71875q2.578125 -1.71875 3.96875 -4.796875q1.390625 -3.09375 1.390625 -7.125q0 -4.109375 -1.390625 -7.21875q-1.390625 -3.109375 -3.96875 -4.828125q-2.5625 -1.734375 -6.0 -1.734375q-3.453125 0 -5.984375 1.734375q-2.515625 1.71875 -3.953125 4.828125q-1.4375 3.109375 -1.4375 7.21875q0 4.03125 1.4375 7.125q1.4375 3.078125 3.953125 4.796875q2.53125 1.71875 5.984375 1.71875zm43.996704 4.984375q-4.6875 0 -8.6875 -2.1875q-4.0 -2.203125 -6.453125 -6.375q-2.453125 -4.1875 -2.453125 -10.0625q0 -6.015625 2.453125 -10.1875q2.453125 -4.1875 6.453125 -6.375q4.0 -2.203125 8.6875 -2.203125q4.6875 0 8.6875 2.203125q4.0 2.1875 6.453125 6.375q2.453125 4.171875 2.453125 10.1875q0 5.875 -2.453125 10.0625q-2.453125 4.171875 -6.453125 6.375q-4.0 2.1875 -8.6875 2.1875zm0 -4.984375q3.4375 0 6.0 -1.71875q2.578125 -1.71875 3.96875 -4.796875q1.390625 -3.09375 1.390625 -7.125q0 -4.109375 -1.390625 -7.21875q-1.390625 -3.109375 -3.96875 -4.828125q-2.5625 -1.734375 -6.0 -1.734375q-3.453125 0 -5.984375 1.734375q-2.515625 1.71875 -3.953125 4.828125q-1.4375 3.109375 -1.4375 7.21875q0 4.03125 1.4375 7.125q1.4375 3.078125 3.953125 4.796875q2.53125 1.71875 5.984375 1.71875z" fill-rule="nonzero"/><path fill="#000000" d="m1765.9287 128.40714q-7.140625 0 -10.609375 -2.125q-3.453125 -2.125 -3.453125 -7.984375q0 -2.8125 0.15625 -5.15625q0.15625 -2.359375 0.34375 -4.671875q0.1875 -2.328125 0.1875 -4.828125q0 -1.53125 -0.875 -2.859375q-0.875 -1.328125 -3.265625 -2.203125q-2.390625 -0.875 -6.875 -0.875l0 -3.953125q4.484375 0 6.875 -0.875q2.390625 -0.875 3.265625 -2.234375q0.875 -1.375 0.875 -2.8125q0 -2.359375 -0.1875 -4.75q-0.1875 -2.390625 -0.34375 -4.828125q-0.15625 -2.4375 -0.15625 -5.09375q0 -5.84375 3.453125 -7.96875q3.46875 -2.1406212 10.609375 -2.1406212l4.640625 0l0 3.5781212l-3.953125 0q-3.875 0 -5.890625 0.71875q-2.015625 0.71875 -2.78125 2.203125q-0.75 1.484375 -0.75 4.0q0 3.265625 0.21875 6.71875q0.234375 3.453125 0.234375 7.03125q0 3.640625 -1.484375 5.625q-1.484375 1.96875 -5.4375 2.65625l0 0.3125q3.953125 0.671875 5.4375 2.65625q1.484375 1.96875 1.484375 5.625q0 3.796875 -0.234375 7.03125q-0.21875 3.21875 -0.21875 6.71875q0 2.4375 0.75 3.953125q0.765625 1.515625 2.78125 2.234375q2.015625 0.734375 5.890625 0.734375l3.953125 0l0 3.5625l-4.640625 0z" fill-rule="nonzero"/><path fill="#f4cccc" d="m1116.4578 148.90027l547.1998 0l0 91.2l-547.1998 0l0 -91.2z" fill-rule="nonzero"/><path fill="#000000" fill-opacity="0.0" d="m1116.4578 147.0763l45.599976 0l0 95.53197l-45.599976 0l0 -95.53197z" fill-rule="nonzero"/><path fill="#990000" d="m1122.9109 199.14153l0 -4.71875l32.6875 0l0 4.71875l-32.6875 0z" fill-rule="nonzero"/><path fill="#010000" fill-opacity="0.0" d="m1162.0577 147.0763l501.59985 0l0 95.53197l-501.59985 0l0 -95.53197z" fill-rule="nonzero"/><path fill="#000000" d="m1322.0453 222.76653q-5.484375 0 -10.078125 -2.0q-4.59375 -2.015625 -8.015625 -5.359375l3.796875 -4.421875q2.8125 2.8125 6.578125 4.53125q3.765625 1.703125 8.015625 1.703125q5.171875 0 8.015625 -2.203125q2.859375 -2.203125 2.859375 -5.703125q0 -2.65625 -1.1875 -4.25q-1.171875 -1.59375 -3.1875 -2.65625q-2.015625 -1.0625 -4.59375 -2.125l-7.15625 -3.125q-2.5 -1.0625 -4.96875 -2.65625q-2.46875 -1.59375 -4.140625 -4.0625q-1.671875 -2.46875 -1.671875 -6.125q0 -3.796875 2.078125 -6.796875q2.09375 -3.0 5.8125 -4.703125q3.734375 -1.71875 8.4375 -1.71875q4.71875 0 8.671875 1.71875q3.953125 1.703125 6.6875 4.4375l-3.34375 4.09375q-2.4375 -2.203125 -5.40625 -3.453125q-2.953125 -1.25 -6.828125 -1.25q-4.328125 0 -7.0 1.9375q-2.65625 1.9375 -2.65625 5.359375q0 2.359375 1.328125 3.875q1.328125 1.515625 3.375 2.515625q2.0625 0.984375 4.1875 1.890625l7.0 3.046875q3.109375 1.203125 5.609375 2.921875q2.515625 1.703125 3.953125 4.21875q1.453125 2.5 1.453125 6.15625q0 3.953125 -2.125 7.1875q-2.125 3.21875 -6.078125 5.125q-3.953125 1.890625 -9.421875 1.890625zm52.349976 0q-5.390625 0 -8.515625 -1.9375q-3.109375 -1.9375 -4.4375 -5.34375q-1.328125 -3.421875 -1.328125 -7.984375l0 -17.484375l-10.40625 0l0 -4.71875l10.640625 -0.375l0.828125 -11.859375l5.171875 0l0 11.859375l18.15625 0l0 5.09375l-18.15625 0l0 17.5625q0 3.265625 0.828125 5.546875q0.84375 2.28125 2.890625 3.421875q2.046875 1.125 5.625 1.125q2.65625 0 4.78125 -0.453125q2.140625 -0.453125 4.109375 -1.21875l1.375 4.5625q-2.515625 0.921875 -5.296875 1.5625q-2.765625 0.640625 -6.265625 0.640625zm26.756226 -0.90625l0 -36.9375l5.171875 0l0.53125 8.734375l0.234375 0q2.875 -4.484375 7.125 -7.0625q4.265625 -2.578125 9.359375 -2.578125q2.046875 0 3.828125 0.34375q1.796875 0.34375 3.46875 1.171875l-1.4375 5.390625q-1.90625 -0.671875 -3.28125 -0.96875q-1.359375 -0.3125 -3.5625 -0.3125q-4.1875 0 -8.03125 2.390625q-3.828125 2.390625 -7.171875 8.171875l0 21.65625l-6.234375 0zm58.52185 0l0 -31.84375l-17.171875 0l0 -5.09375l23.40625 0l0 36.9375l-6.234375 0zm2.421875 -44.6875q-2.125 0 -3.578125 -1.328125q-1.4375 -1.328125 -1.4375 -3.53125q0 -2.203125 1.4375 -3.53125q1.453125 -1.34375 3.578125 -1.34375q2.125 0 3.5625 1.34375q1.453125 1.328125 1.453125 3.53125q0 2.203125 -1.453125 3.53125q-1.4375 1.328125 -3.5625 1.328125zm26.224976 44.6875l0 -36.9375l5.171875 0l0.53125 6.3125l0.3125 0q2.875 -3.125 6.21875 -5.171875q3.34375 -2.046875 7.6875 -2.046875q6.53125 0 9.640625 3.796875q3.125 3.796875 3.125 11.09375l0 22.953125l-6.234375 0l0 -22.109375q0 -5.25 -1.984375 -7.796875q-1.96875 -2.546875 -6.53125 -2.546875q-3.265625 0 -5.859375 1.671875q-2.578125 1.671875 -5.84375 5.015625l0 25.765625l-6.234375 0zm61.037476 17.03125q-5.40625 0 -9.203125 -1.21875q-3.796875 -1.21875 -5.8125 -3.5q-2.015625 -2.28125 -2.015625 -5.546875q0 -2.203125 1.5625 -4.375q1.5625 -2.15625 4.515625 -3.828125l0 -0.3125q-1.4375 -0.828125 -2.625 -2.265625q-1.171875 -1.453125 -1.171875 -3.8125q0 -1.75 1.140625 -3.609375q1.140625 -1.859375 3.265625 -3.3125l0 -0.296875q-1.890625 -1.4375 -3.234375 -3.875q-1.328125 -2.4375 -1.328125 -5.703125q0 -4.03125 2.015625 -6.984375q2.015625 -2.96875 5.3125 -4.59375q3.3125 -1.640625 7.1875 -1.640625q3.125 0 5.484375 0.90625l15.265625 0l0 5.09375l-9.578125 0q1.296875 1.296875 2.203125 3.28125q0.921875 1.96875 0.921875 4.171875q0 3.953125 -1.90625 6.796875q-1.890625 2.84375 -5.125 4.375q-3.234375 1.515625 -7.265625 1.515625q-1.4375 0 -3.078125 -0.34375q-1.625 -0.34375 -3.140625 -1.03125q-1.375 0.84375 -2.140625 1.90625q-0.75 1.0625 -0.75 2.359375q0 2.125 2.015625 3.1875q2.015625 1.0625 5.65625 1.0625l8.28125 0q7.140625 0 10.59375 1.984375q3.46875 1.96875 3.46875 6.6875q0 3.421875 -2.515625 6.375q-2.5 2.96875 -7.109375 4.75q-4.59375 1.796875 -10.890625 1.796875zm-0.390625 -32.921875q2.359375 0 4.296875 -1.0625q1.9375 -1.0625 3.078125 -3.03125q1.140625 -1.984375 1.140625 -4.640625q0 -2.578125 -1.140625 -4.515625q-1.140625 -1.9375 -3.078125 -3.03125q-1.9375 -1.109375 -4.296875 -1.109375q-2.265625 0 -4.21875 1.109375q-1.9375 1.09375 -3.109375 3.03125q-1.171875 1.9375 -1.171875 4.515625q0 2.65625 1.171875 4.640625q1.171875 1.96875 3.109375 3.03125q1.953125 1.0625 4.21875 1.0625zm0.84375 28.359375q4.328125 0 7.4375 -1.0625q3.125 -1.0625 4.796875 -2.75q1.671875 -1.671875 1.671875 -3.5625q0 -2.65625 -2.09375 -3.578125q-2.078125 -0.90625 -6.34375 -0.90625l-7.21875 0q-1.59375 0 -3.0 -0.15625q-1.40625 -0.15625 -2.625 -0.453125q-2.578125 1.4375 -3.640625 3.0q-1.0625 1.5625 -1.0625 3.15625q0 2.890625 3.078125 4.59375q3.078125 1.71875 9.0 1.71875zm86.94995 -11.5625q-3.421875 0 -6.3125 -1.25q-2.890625 -1.25 -4.5625 -3.609375q-1.671875 -2.359375 -1.671875 -5.625q0 -6.234375 6.234375 -9.453125q6.234375 -3.234375 20.515625 -4.375q-0.078125 -2.515625 -1.03125 -4.640625q-0.9375 -2.125 -3.078125 -3.375q-2.125 -1.265625 -5.6875 -1.265625q-2.359375 0 -4.6875 0.65625q-2.3125 0.640625 -4.40625 1.671875q-2.078125 1.015625 -3.828125 2.09375l-2.4375 -4.265625q1.828125 -1.21875 4.4375 -2.46875q2.625 -1.25 5.671875 -2.046875q3.046875 -0.796875 6.3125 -0.796875q5.09375 0 8.390625 1.90625q3.3125 1.890625 4.9375 5.28125q1.640625 3.375 1.640625 8.015625l0 22.640625l-5.09375 0l-0.53125 -5.015625l-0.234375 0q-3.03125 2.4375 -6.84375 4.1875q-3.796875 1.734375 -7.734375 1.734375zm1.671875 -5.015625q3.1875 0 6.296875 -1.4375q3.125 -1.4375 6.234375 -4.03125l0 -9.71875q-7.90625 0.671875 -12.4375 1.890625q-4.515625 1.21875 -6.375 3.078125q-1.859375 1.859375 -1.859375 4.296875q0 2.046875 1.140625 3.390625q1.140625 1.328125 3.0 1.9375q1.859375 0.59375 4.0 0.59375z" fill-rule="nonzero"/><path fill="#000000" d="m1230.4546 327.7665q-2.5 0 -4.328125 -1.78125q-1.828125 -1.78125 -1.828125 -4.59375q0 -2.890625 1.828125 -4.671875q1.828125 -1.796875 4.328125 -1.796875q2.59375 0 4.375 1.796875q1.78125 1.78125 1.78125 4.671875q0 2.8125 -1.78125 4.59375q-1.78125 1.78125 -4.375 1.78125zm45.600098 0q-2.5 0 -4.328125 -1.78125q-1.828125 -1.78125 -1.828125 -4.59375q0 -2.890625 1.828125 -4.671875q1.828125 -1.796875 4.328125 -1.796875q2.59375 0 4.375 1.796875q1.78125 1.78125 1.78125 4.671875q0 2.8125 -1.78125 4.59375q-1.78125 1.78125 -4.375 1.78125zm45.599976 0q-2.5 0 -4.328125 -1.78125q-1.828125 -1.78125 -1.828125 -4.59375q0 -2.890625 1.828125 -4.671875q1.828125 -1.796875 4.328125 -1.796875q2.59375 0 4.375 1.796875q1.78125 1.78125 1.78125 4.671875q0 2.8125 -1.78125 4.59375q-1.78125 1.78125 -4.375 1.78125z" fill-rule="nonzero"/><path fill="#000000" d="m1123.989 443.40714l0 -3.5625l3.875 0q3.953125 0 5.953125 -0.734375q2.015625 -0.71875 2.78125 -2.234375q0.765625 -1.515625 0.765625 -3.953125q0 -3.5 -0.234375 -6.71875q-0.234375 -3.234375 -0.234375 -7.03125q0 -3.65625 1.4375 -5.625q1.453125 -1.984375 5.40625 -2.65625l0 -0.3125q-3.953125 -0.6875 -5.40625 -2.65625q-1.4375 -1.984375 -1.4375 -5.625q0 -3.578125 0.234375 -7.03125q0.234375 -3.453125 0.234375 -6.71875q0 -2.515625 -0.765625 -4.0q-0.765625 -1.484375 -2.78125 -2.203125q-2.0 -0.71875 -5.953125 -0.71875l-3.875 0l0 -3.578125l4.625 0q7.140625 0 10.5625 2.140625q3.421875 2.125 3.421875 7.96875q0 2.65625 -0.15625 5.09375q-0.140625 2.4375 -0.34375 4.828125q-0.1875 2.390625 -0.1875 4.75q0 1.4375 0.875 2.8125q0.875 1.359375 3.265625 2.234375q2.40625 0.875 6.890625 0.875l0 3.953125q-4.484375 0 -6.890625 0.875q-2.390625 0.875 -3.265625 2.203125q-0.875 1.328125 -0.875 2.859375q0 2.5 0.1875 4.828125q0.203125 2.3125 0.34375 4.671875q0.15625 2.34375 0.15625 5.15625q0 5.859375 -3.421875 7.984375q-3.421875 2.125 -10.5625 2.125l-4.625 0z" fill-rule="nonzero"/><path fill="#000000" fill-opacity="0.0" d="m861.0079 772.7916l0 0c0 -45.009888 -36.487732 -81.49768 -81.49768 -81.49768l-690.0125 0c-21.614532 0 -42.343792 8.586365 -57.627575 23.870117c-15.283781 15.283813 -23.870121 36.01306 -23.870121 57.627563l0 325.98108c0 45.009888 36.48776 81.49768 81.497696 81.49768l690.0125 0c45.00995 0 81.49768 -36.487793 81.49768 -81.49768z" fill-rule="evenodd"/><path stroke="#cccccc" stroke-width="1.0" stroke-linejoin="round" stroke-linecap="butt" d="m861.0079 772.7916l0 0c0 -45.009888 -36.487732 -81.49768 -81.49768 -81.49768l-690.0125 0c-21.614532 0 -42.343792 8.586365 -57.627575 23.870117c-15.283781 15.283813 -23.870121 36.01306 -23.870121 57.627563l0 325.98108c0 45.009888 36.48776 81.49768 81.497696 81.49768l690.0125 0c45.00995 0 81.49768 -36.487793 81.49768 -81.49768z" fill-rule="evenodd"/><path fill="#351c75" d="m63.244858 799.6171q-5.578125 0 -10.015625 -2.1875q-4.4375 -2.203125 -6.96875 -6.375q-2.53125 -4.1875 -2.53125 -10.0625q0 -6.015625 2.71875 -10.1875q2.71875 -4.1875 7.21875 -6.375q4.515625 -2.203125 9.9375 -2.203125q4.40625 0 7.59375 1.546875q3.1875 1.53125 5.390625 3.65625l-3.015625 3.890625q-2.1875 -1.90625 -4.546875 -3.0q-2.34375 -1.109375 -5.203125 -1.109375q-4.09375 0 -7.25 1.734375q-3.15625 1.71875 -4.890625 4.828125q-1.71875 3.109375 -1.71875 7.21875q0 4.03125 1.6875 7.125q1.6875 3.078125 4.796875 4.796875q3.125 1.71875 7.234375 1.71875q3.296875 0 6.046875 -1.3125q2.75 -1.328125 4.953125 -3.15625l2.71875 3.890625q-2.9375 2.640625 -6.578125 4.109375q-3.625 1.453125 -7.578125 1.453125zm48.387436 0q-5.640625 0 -8.65625 -3.25q-3.0 -3.265625 -3.0 -9.578125l0 -35.34375l-12.171875 0l0 -4.90625l18.1875 0l0 40.6875q0 3.890625 1.90625 5.65625q1.90625 1.75 5.0625 1.75q1.53125 0 3.140625 -0.390625q1.625 -0.40625 3.609375 -1.296875l1.53125 4.546875q-2.421875 0.890625 -4.546875 1.5q-2.125 0.625 -5.0625 0.625zm32.262436 0q-3.296875 0 -6.078125 -1.203125q-2.78125 -1.21875 -4.40625 -3.484375q-1.609375 -2.28125 -1.609375 -5.421875q0 -6.015625 6.015625 -9.125q6.015625 -3.125 19.796875 -4.21875q-0.078125 -2.421875 -1.0 -4.46875q-0.90625 -2.0625 -2.96875 -3.265625q-2.046875 -1.21875 -5.484375 -1.21875q-2.28125 0 -4.515625 0.625q-2.234375 0.625 -4.25 1.625q-2.015625 0.984375 -3.703125 2.0l-2.34375 -4.109375q1.75 -1.171875 4.28125 -2.375q2.53125 -1.21875 5.46875 -1.984375q2.9375 -0.765625 6.078125 -0.765625q4.921875 0 8.109375 1.84375q3.1875 1.828125 4.765625 5.09375q1.578125 3.25 1.578125 7.71875l0 21.859375l-4.921875 0l-0.5 -4.84375l-0.21875 0q-2.9375 2.34375 -6.609375 4.03125q-3.65625 1.6875 -7.484375 1.6875zm1.625 -4.828125q3.078125 0 6.078125 -1.390625q3.015625 -1.40625 6.015625 -3.890625l0 -9.390625q-7.625 0.65625 -11.984375 1.828125q-4.359375 1.171875 -6.15625 2.96875q-1.796875 1.796875 -1.796875 4.15625q0 1.96875 1.09375 3.25q1.09375 1.28125 2.890625 1.875q1.796875 0.59375 3.859375 0.59375zm47.074936 4.828125q-5.203125 0 -9.75 -1.6875q-4.546875 -1.6875 -7.78125 -3.875l2.796875 -3.96875q3.078125 2.203125 6.8125 3.53125q3.734375 1.3125 8.65625 1.3125q4.546875 0 6.78125 -1.6875q2.234375 -1.6875 2.234375 -3.890625q0 -1.015625 -0.40625 -1.890625q-0.40625 -0.890625 -1.546875 -1.6875q-1.125 -0.8125 -3.328125 -1.546875q-2.203125 -0.734375 -5.859375 -1.46875q-6.96875 -1.46875 -10.453125 -3.953125q-3.484375 -2.5 -3.484375 -6.453125q0 -4.328125 3.734375 -7.21875q3.75 -2.90625 11.078125 -2.90625q4.109375 0 7.921875 1.359375q3.8125 1.359375 6.453125 3.1875l-2.9375 3.890625q-2.421875 -1.765625 -5.5 -2.75q-3.078125 -1.0 -6.453125 -1.0q-3.078125 0 -4.875 0.703125q-1.796875 0.6875 -2.5625 1.875q-0.765625 1.171875 -0.765625 2.5625q0 2.265625 2.453125 3.546875q2.453125 1.28125 7.875 2.390625q5.9375 1.25 9.125 2.796875q3.203125 1.53125 4.40625 3.515625q1.21875 1.96875 1.21875 4.6875q0 2.9375 -1.84375 5.328125q-1.828125 2.375 -5.359375 3.84375q-3.515625 1.453125 -8.640625 1.453125zm43.99681 0q-5.203125 0 -9.75 -1.6875q-4.546875 -1.6875 -7.78125 -3.875l2.796875 -3.96875q3.078125 2.203125 6.8125 3.53125q3.734375 1.3125 8.65625 1.3125q4.546875 0 6.78125 -1.6875q2.234375 -1.6875 2.234375 -3.890625q0 -1.015625 -0.40625 -1.890625q-0.40625 -0.890625 -1.546875 -1.6875q-1.125 -0.8125 -3.328125 -1.546875q-2.203125 -0.734375 -5.859375 -1.46875q-6.96875 -1.46875 -10.453125 -3.953125q-3.484375 -2.5 -3.484375 -6.453125q0 -4.328125 3.734375 -7.21875q3.75 -2.90625 11.078125 -2.90625q4.109375 0 7.921875 1.359375q3.8125 1.359375 6.453125 3.1875l-2.9375 3.890625q-2.421875 -1.765625 -5.5 -2.75q-3.078125 -1.0 -6.453125 -1.0q-3.078125 0 -4.875 0.703125q-1.796875 0.6875 -2.5625 1.875q-0.765625 1.171875 -0.765625 2.5625q0 2.265625 2.453125 3.546875q2.453125 1.28125 7.875 2.390625q5.9375 1.25 9.125 2.796875q3.203125 1.53125 4.40625 3.515625q1.21875 1.96875 1.21875 4.6875q0 2.9375 -1.84375 5.328125q-1.828125 2.375 -5.359375 3.84375q-3.515625 1.453125 -8.640625 1.453125z" fill-rule="nonzero"/><path fill="#000000" d="m324.2101 799.6171q-5.28125 0 -9.71875 -1.9375q-4.421875 -1.9375 -7.734375 -5.171875l3.671875 -4.25q2.71875 2.71875 6.34375 4.375q3.625 1.640625 7.734375 1.640625q4.984375 0 7.734375 -2.125q2.75 -2.125 2.75 -5.5q0 -2.578125 -1.140625 -4.109375q-1.125 -1.546875 -3.078125 -2.5625q-1.9375 -1.03125 -4.4375 -2.0625l-6.890625 -3.0q-2.421875 -1.03125 -4.8125 -2.5625q-2.375 -1.546875 -3.984375 -3.921875q-1.609375 -2.390625 -1.609375 -5.90625q0 -3.671875 2.015625 -6.5625q2.015625 -2.90625 5.609375 -4.546875q3.59375 -1.65625 8.140625 -1.65625q4.546875 0 8.359375 1.65625q3.8125 1.640625 6.453125 4.28125l-3.234375 3.96875q-2.34375 -2.125 -5.203125 -3.328125q-2.859375 -1.21875 -6.59375 -1.21875q-4.1875 0 -6.75 1.875q-2.5625 1.859375 -2.5625 5.15625q0 2.28125 1.28125 3.75q1.28125 1.453125 3.25 2.40625q1.984375 0.953125 4.046875 1.84375l6.75 2.921875q3.0 1.1875 5.421875 2.84375q2.421875 1.640625 3.8125 4.0625q1.390625 2.40625 1.390625 5.9375q0 3.8125 -2.0625 6.9375q-2.046875 3.109375 -5.859375 4.9375q-3.8125 1.828125 -9.09375 1.828125zm39.66867 0q-6.375 0 -9.390625 -3.65625q-3.0 -3.671875 -3.0 -10.71875l0 -22.140625l6.09375 0l0 21.34375q0 5.0625 1.859375 7.515625q1.875 2.453125 6.34375 2.453125q3.09375 0 5.609375 -1.578125q2.53125 -1.578125 5.46875 -5.015625l0 -24.71875l6.015625 0l0 35.640625l-4.90625 0l-0.515625 -6.234375l-0.296875 0q-2.71875 3.078125 -5.953125 5.09375q-3.21875 2.015625 -7.328125 2.015625zm49.434326 0q-2.640625 0 -5.609375 -1.28125q-2.96875 -1.28125 -5.46875 -3.546875l-0.21875 0l-0.515625 3.953125l-4.84375 0l0 -52.203125l6.015625 0l0 14.21875l-0.21875 6.890625l0.21875 0q2.421875 -2.484375 5.609375 -3.953125q3.1875 -1.46875 6.34375 -1.46875q4.84375 0 8.140625 2.234375q3.296875 2.234375 4.984375 6.3125q1.6875 4.0625 1.6875 9.5625q0 6.09375 -2.234375 10.421875q-2.234375 4.3125 -5.90625 6.59375q-3.65625 2.265625 -7.984375 2.265625zm-0.953125 -5.0625q3.078125 0 5.53125 -1.671875q2.453125 -1.6875 3.875 -4.875q1.4375 -3.203125 1.4375 -7.59375q0 -3.890625 -1.03125 -6.859375q-1.015625 -2.96875 -3.21875 -4.609375q-2.203125 -1.65625 -5.796875 -1.65625q-2.40625 0 -5.09375 1.28125q-2.671875 1.28125 -5.390625 4.0625l0 17.75q2.578125 2.265625 5.171875 3.21875q2.609375 0.953125 4.515625 0.953125zm31.231201 4.1875l0 -48.109375l29.546875 0l0 5.140625l-23.390625 0l0 16.28125l19.796875 0l0 5.125l-19.796875 0l0 21.5625l-6.15625 0zm56.246796 0.875q-4.6875 0 -8.6875 -2.1875q-4.0 -2.203125 -6.453125 -6.375q-2.453125 -4.1875 -2.453125 -10.0625q0 -6.015625 2.453125 -10.1875q2.453125 -4.1875 6.453125 -6.375q4.0 -2.203125 8.6875 -2.203125q4.6875 0 8.6875 2.203125q3.9999695 2.1875 6.4530945 6.375q2.453125 4.171875 2.453125 10.1875q0 5.875 -2.453125 10.0625q-2.453125 4.171875 -6.4530945 6.375q-4.0 2.1875 -8.6875 2.1875zm0 -4.984375q3.4375 0 6.0 -1.71875q2.578125 -1.71875 3.96875 -4.796875q1.390625 -3.09375 1.390625 -7.125q0 -4.109375 -1.390625 -7.21875q-1.390625 -3.109375 -3.96875 -4.828125q-2.5625 -1.734375 -6.0 -1.734375q-3.453125 0 -5.984375 1.734375q-2.515625 1.71875 -3.953125 4.828125q-1.4375 3.109375 -1.4375 7.21875q0 4.03125 1.4375 7.125q1.4375 3.078125 3.953125 4.796875q2.53125 1.71875 5.984375 1.71875zm43.996796 4.984375q-4.6875 0 -8.6875 -2.1875q-4.0 -2.203125 -6.453125 -6.375q-2.453125 -4.1875 -2.453125 -10.0625q0 -6.015625 2.453125 -10.1875q2.453125 -4.1875 6.453125 -6.375q4.0 -2.203125 8.6875 -2.203125q4.6875 0 8.6875 2.203125q4.0 2.1875 6.453125 6.375q2.453125 4.171875 2.453125 10.1875q0 5.875 -2.453125 10.0625q-2.453125 4.171875 -6.453125 6.375q-4.0 2.1875 -8.6875 2.1875zm0 -4.984375q3.4375 0 6.0 -1.71875q2.578125 -1.71875 3.96875 -4.796875q1.390625 -3.09375 1.390625 -7.125q0 -4.109375 -1.390625 -7.21875q-1.390625 -3.109375 -3.96875 -4.828125q-2.5625 -1.734375 -6.0 -1.734375q-3.453125 0 -5.984375 1.734375q-2.515625 1.71875 -3.953125 4.828125q-1.4375 3.109375 -1.4375 7.21875q0 4.03125 1.4375 7.125q1.4375 3.078125 3.953125 4.796875q2.53125 1.71875 5.984375 1.71875z" fill-rule="nonzero"/><path fill="#000000" d="m569.7066 798.7421l0 -2.71875l7.359375 0l0 -18.796875l-5.71875 0l0 -2.125q1.53125 -0.203125 2.6875 -0.484375q1.15625 -0.28125 2.109375 -0.609375q0.96875 -0.34375 1.765625 -0.78125l2.4375 0l0 22.796875l6.6875 0l0 2.71875l-17.328125 0z" fill-rule="nonzero"/><path fill="#000000" d="m623.3472 810.289q-7.140625 0 -10.609375 -2.125q-3.453125 -2.125 -3.453125 -7.984375q0 -2.8125 0.15625 -5.15625q0.15625 -2.359375 0.34375 -4.671875q0.1875 -2.328125 0.1875 -4.828125q0 -1.53125 -0.875 -2.859375q-0.875 -1.328125 -3.265625 -2.203125q-2.390625 -0.875 -6.875 -0.875l0 -3.953125q4.484375 0 6.875 -0.875q2.390625 -0.875 3.265625 -2.234375q0.875 -1.375 0.875 -2.8125q0 -2.359375 -0.1875 -4.75q-0.1875 -2.390625 -0.34375 -4.828125q-0.15625 -2.4375 -0.15625 -5.09375q0 -5.84375 3.453125 -7.96875q3.46875 -2.140625 10.609375 -2.140625l4.640625 0l0 3.578125l-3.953125 0q-3.875 0 -5.890625 0.71875q-2.015625 0.71875 -2.78125 2.203125q-0.75 1.484375 -0.75 4.0q0 3.265625 0.21875 6.71875q0.234375 3.453125 0.234375 7.03125q0 3.640625 -1.484375 5.625q-1.484375 1.96875 -5.4375 2.65625l0 0.3125q3.953125 0.671875 5.4375 2.65625q1.484375 1.96875 1.484375 5.625q0 3.796875 -0.234375 7.03125q-0.21875 3.21875 -0.21875 6.71875q0 2.4375 0.75 3.953125q0.765625 1.515625 2.78125 2.234375q2.015625 0.734375 5.890625 0.734375l3.953125 0l0 3.5625l-4.640625 0z" fill-rule="nonzero"/><path fill="#d9ead3" d="m37.869858 830.78217l547.1998 0l0 91.20001l-547.1998 0l0 -91.20001z" fill-rule="nonzero"/><path fill="#000000" fill-opacity="0.0" d="m37.869858 828.9582l45.59999 0l0 95.53198l-45.59999 0l0 -95.53198z" fill-rule="nonzero"/><path fill="#38761d" d="m58.166733 895.83594l0 -14.8125l-13.84375 0l0 -4.71875l13.84375 0l0 -14.8125l5.015625 0l0 14.8125l13.828125 0l0 4.71875l-13.828125 0l0 14.8125l-5.015625 0z" fill-rule="nonzero"/><path fill="#010000" fill-opacity="0.0" d="m83.46985 828.9582l501.59985 0l0 95.53198l-501.59985 0l0 -95.53198z" fill-rule="nonzero"/><path fill="#000000" d="m243.45732 904.64844q-5.484375 0 -10.078125 -2.0q-4.59375 -2.015625 -8.015625 -5.359375l3.796875 -4.421875q2.8125 2.8125 6.578125 4.53125q3.765625 1.703125 8.015625 1.703125q5.171875 0 8.015625 -2.203125q2.859375 -2.203125 2.859375 -5.703125q0 -2.65625 -1.1875 -4.25q-1.171875 -1.59375 -3.1875 -2.65625q-2.015625 -1.0625 -4.59375 -2.125l-7.15625 -3.125q-2.5 -1.0625 -4.96875 -2.65625q-2.46875 -1.59375 -4.140625 -4.0625q-1.671875 -2.46875 -1.671875 -6.125q0 -3.796875 2.078125 -6.796875q2.09375 -3.0 5.8125 -4.703125q3.734375 -1.71875 8.4375 -1.71875q4.71875 0 8.671875 1.71875q3.9531403 1.703125 6.6875153 4.4375l-3.34375 4.09375q-2.4375153 -2.203125 -5.4062653 -3.453125q-2.953125 -1.25 -6.828125 -1.25q-4.328125 0 -7.0 1.9375q-2.65625 1.9375 -2.65625 5.359375q0 2.359375 1.328125 3.875q1.328125 1.515625 3.375 2.515625q2.0625 0.984375 4.1875 1.890625l7.0 3.046875q3.109375 1.203125 5.609375 2.921875q2.5156403 1.703125 3.9531403 4.21875q1.453125 2.5 1.453125 6.15625q0 3.953125 -2.125 7.1875q-2.125 3.21875 -6.0781403 5.125q-3.953125 1.890625 -9.421875 1.890625zm52.34999 0q-5.390625 0 -8.515625 -1.9375q-3.109375 -1.9375 -4.4375 -5.34375q-1.328125 -3.421875 -1.328125 -7.984375l0 -17.484375l-10.40625 0l0 -4.71875l10.640625 -0.375l0.828125 -11.859375l5.171875 0l0 11.859375l18.15625 0l0 5.09375l-18.15625 0l0 17.5625q0 3.265625 0.828125 5.546875q0.84375 2.28125 2.890625 3.421875q2.046875 1.125 5.625 1.125q2.65625 0 4.78125 -0.453125q2.140625 -0.453125 4.109375 -1.21875l1.375 4.5625q-2.515625 0.921875 -5.296875 1.5625q-2.765625 0.640625 -6.265625 0.640625zm26.756256 -0.90625l0 -36.9375l5.171875 0l0.53125 8.734375l0.234375 0q2.875 -4.484375 7.125 -7.0625q4.265625 -2.578125 9.359375 -2.578125q2.046875 0 3.828125 0.34375q1.796875 0.34375 3.46875 1.171875l-1.4375 5.390625q-1.90625 -0.671875 -3.28125 -0.96875q-1.359375 -0.3125 -3.5625 -0.3125q-4.1875 0 -8.03125 2.390625q-3.828125 2.390625 -7.171875 8.171875l0 21.65625l-6.234375 0zm58.52188 0l0 -31.84375l-17.171875 0l0 -5.09375l23.40625 0l0 36.9375l-6.234375 0zm2.421875 -44.6875q-2.125 0 -3.578125 -1.328125q-1.4375 -1.328125 -1.4375 -3.53125q0 -2.203125 1.4375 -3.53125q1.453125 -1.34375 3.578125 -1.34375q2.125 0 3.5625 1.34375q1.453125 1.328125 1.453125 3.53125q0 2.203125 -1.453125 3.53125q-1.4375 1.328125 -3.5625 1.328125zm26.224976 44.6875l0 -36.9375l5.171875 0l0.53125 6.3125l0.3125 0q2.875 -3.125 6.21875 -5.171875q3.34375 -2.046875 7.6875 -2.046875q6.53125 0 9.640625 3.796875q3.125 3.796875 3.125 11.09375l0 22.953125l-6.234375 0l0 -22.109375q0 -5.25 -1.984375 -7.796875q-1.96875 -2.546875 -6.53125 -2.546875q-3.265625 0 -5.859375 1.671875q-2.578125 1.671875 -5.84375 5.015625l0 25.765625l-6.234375 0zm61.037476 17.03125q-5.40625 0 -9.203125 -1.21875q-3.796875 -1.21875 -5.8125 -3.5q-2.015625 -2.28125 -2.015625 -5.546875q0 -2.203125 1.5625 -4.375q1.5625 -2.15625 4.515625 -3.828125l0 -0.3125q-1.4375 -0.828125 -2.625 -2.265625q-1.171875 -1.453125 -1.171875 -3.8125q0 -1.75 1.140625 -3.609375q1.140625 -1.859375 3.265625 -3.3125l0 -0.296875q-1.890625 -1.4375 -3.234375 -3.875q-1.328125 -2.4375 -1.328125 -5.703125q0 -4.03125 2.015625 -6.984375q2.015625 -2.96875 5.3125 -4.59375q3.3125 -1.640625 7.1875 -1.640625q3.125 0 5.484375 0.90625l15.265625 0l0 5.09375l-9.578125 0q1.296875 1.296875 2.203125 3.28125q0.921875 1.96875 0.921875 4.171875q0 3.953125 -1.90625 6.796875q-1.890625 2.84375 -5.125 4.375q-3.234375 1.515625 -7.265625 1.515625q-1.4375 0 -3.078125 -0.34375q-1.625 -0.34375 -3.140625 -1.03125q-1.375 0.84375 -2.140625 1.90625q-0.75 1.0625 -0.75 2.359375q0 2.125 2.015625 3.1875q2.015625 1.0625 5.65625 1.0625l8.28125 0q7.140625 0 10.59375 1.984375q3.46875 1.96875 3.46875 6.6875q0 3.421875 -2.515625 6.375q-2.5 2.96875 -7.109375 4.75q-4.59375 1.796875 -10.890625 1.796875zm-0.390625 -32.921875q2.359375 0 4.296875 -1.0625q1.9375 -1.0625 3.078125 -3.03125q1.140625 -1.984375 1.140625 -4.640625q0 -2.578125 -1.140625 -4.515625q-1.140625 -1.9375 -3.078125 -3.03125q-1.9375 -1.109375 -4.296875 -1.109375q-2.265625 0 -4.21875 1.109375q-1.9375 1.09375 -3.109375 3.03125q-1.171875 1.9375 -1.171875 4.515625q0 2.65625 1.171875 4.640625q1.171875 1.96875 3.109375 3.03125q1.953125 1.0625 4.21875 1.0625zm0.84375 28.359375q4.328125 0 7.4375 -1.0625q3.125 -1.0625 4.796875 -2.75q1.671875 -1.671875 1.671875 -3.5625q0 -2.65625 -2.09375 -3.578125q-2.078125 -0.90625 -6.34375 -0.90625l-7.21875 0q-1.59375 0 -3.0 -0.15625q-1.40625 -0.15625 -2.625 -0.453125q-2.578125 1.4375 -3.640625 3.0q-1.0625 1.5625 -1.0625 3.15625q0 2.890625 3.078125 4.59375q3.078125 1.71875 9.0 1.71875zm86.94995 -11.5625q-3.421875 0 -6.3125 -1.25q-2.890625 -1.25 -4.5625 -3.609375q-1.671875 -2.359375 -1.671875 -5.625q0 -6.234375 6.234375 -9.453125q6.234375 -3.234375 20.515625 -4.375q-0.078125 -2.515625 -1.03125 -4.640625q-0.9375 -2.125 -3.078125 -3.375q-2.125 -1.265625 -5.6875 -1.265625q-2.359375 0 -4.6875 0.65625q-2.3125 0.640625 -4.40625 1.671875q-2.078125 1.015625 -3.828125 2.09375l-2.4375 -4.265625q1.828125 -1.21875 4.4375 -2.46875q2.625 -1.25 5.671875 -2.046875q3.046875 -0.796875 6.3125 -0.796875q5.09375 0 8.390625 1.90625q3.3125 1.890625 4.9375 5.28125q1.640625 3.375 1.640625 8.015625l0 22.640625l-5.09375 0l-0.53125 -5.015625l-0.234375 0q-3.03125 2.4375 -6.84375 4.1875q-3.796875 1.734375 -7.734375 1.734375zm1.671875 -5.015625q3.1875 0 6.296875 -1.4375q3.125 -1.4375 6.234375 -4.03125l0 -9.71875q-7.90625 0.671875 -12.4375 1.890625q-4.515625 1.21875 -6.375 3.078125q-1.859375 1.859375 -1.859375 4.296875q0 2.046875 1.140625 3.390625q1.140625 1.328125 3.0 1.9375q1.859375 0.59375 4.0 0.59375z" fill-rule="nonzero"/><path fill="#000000" d="m151.86671 1009.64844q-2.5 0 -4.328125 -1.78125q-1.828125 -1.78125 -1.828125 -4.59375q0 -2.890625 1.828125 -4.671875q1.828125 -1.796875 4.328125 -1.796875q2.59375 0 4.375 1.796875q1.78125 1.78125 1.78125 4.671875q0 2.8125 -1.78125 4.59375q-1.78125 1.78125 -4.375 1.78125zm45.59999 0q-2.5 0 -4.328125 -1.78125q-1.828125 -1.78125 -1.828125 -4.59375q0 -2.890625 1.828125 -4.671875q1.828125 -1.796875 4.328125 -1.796875q2.59375 0 4.375 1.796875q1.78125 1.78125 1.78125 4.671875q0 2.8125 -1.78125 4.59375q-1.78125 1.78125 -4.375 1.78125zm45.59999 0q-2.5 0 -4.328125 -1.78125q-1.828125 -1.78125 -1.828125 -4.59375q0 -2.890625 1.828125 -4.671875q1.828125 -1.796875 4.328125 -1.796875q2.59375 0 4.375 1.796875q1.78125 1.78125 1.78125 4.671875q0 2.8125 -1.78125 4.59375q-1.78125 1.78125 -4.375 1.78125z" fill-rule="nonzero"/><path fill="#000000" d="m45.401108 1125.2891l0 -3.5625l3.875 0q3.953125 0 5.953125 -0.734375q2.015625 -0.71875 2.78125 -2.234375q0.765625 -1.515625 0.765625 -3.953125q0 -3.5 -0.234375 -6.71875q-0.234375 -3.234375 -0.234375 -7.03125q0 -3.65625 1.4375 -5.625q1.453125 -1.984375 5.40625 -2.65625l0 -0.3125q-3.953125 -0.6875 -5.40625 -2.65625q-1.4375 -1.984375 -1.4375 -5.625q0 -3.578125 0.234375 -7.03125q0.234375 -3.453125 0.234375 -6.71875q0 -2.515625 -0.765625 -4.0q-0.765625 -1.484375 -2.78125 -2.203125q-2.0 -0.71875 -5.953125 -0.71875l-3.875 0l0 -3.578125l4.625 0q7.140625 0 10.5625 2.140625q3.421875 2.125 3.421875 7.96875q0 2.65625 -0.15625 5.09375q-0.140625 2.4375 -0.34375 4.828125q-0.1875 2.390625 -0.1875 4.75q0 1.4375 0.875 2.8125q0.875 1.359375 3.265625 2.234375q2.40625 0.875 6.890625 0.875l0 3.953125q-4.484375 0 -6.890625 0.875q-2.390625 0.875 -3.265625 2.203125q-0.875 1.328125 -0.875 2.859375q0 2.5 0.1875 4.828125q0.203125 2.3125 0.34375 4.671875q0.15625 2.34375 0.15625 5.15625q0 5.859375 -3.421875 7.984375q-3.421875 2.125 -10.5625 2.125l-4.625 0z" fill-rule="nonzero"/><path fill="#000000" fill-opacity="0.0" d="m2386.6536 772.7916l0 0c0 -45.009888 -36.487793 -81.49768 -81.4978 -81.49768l-690.01245 0c-21.614502 0 -42.34375 8.586365 -57.627563 23.870117c-15.283691 15.283813 -23.870117 36.01306 -23.870117 57.627563l0 325.98108c0 45.009888 36.487793 81.49768 81.49768 81.49768l690.01245 0c45.01001 0 81.4978 -36.487793 81.4978 -81.49768z" fill-rule="evenodd"/><path stroke="#cccccc" stroke-width="1.0" stroke-linejoin="round" stroke-linecap="butt" d="m2386.6536 772.7916l0 0c0 -45.009888 -36.487793 -81.49768 -81.4978 -81.49768l-690.01245 0c-21.614502 0 -42.34375 8.586365 -57.627563 23.870117c-15.283691 15.283813 -23.870117 36.01306 -23.870117 57.627563l0 325.98108c0 45.009888 36.487793 81.49768 81.49768 81.49768l690.01245 0c45.01001 0 81.4978 -36.487793 81.4978 -81.49768z" fill-rule="evenodd"/><path fill="#351c75" d="m1588.8905 799.6171q-5.578125 0 -10.015625 -2.1875q-4.4375 -2.203125 -6.96875 -6.375q-2.53125 -4.1875 -2.53125 -10.0625q0 -6.015625 2.71875 -10.1875q2.71875 -4.1875 7.21875 -6.375q4.515625 -2.203125 9.9375 -2.203125q4.40625 0 7.59375 1.546875q3.1875 1.53125 5.390625 3.65625l-3.015625 3.890625q-2.1875 -1.90625 -4.546875 -3.0q-2.34375 -1.109375 -5.203125 -1.109375q-4.09375 0 -7.25 1.734375q-3.15625 1.71875 -4.890625 4.828125q-1.71875 3.109375 -1.71875 7.21875q0 4.03125 1.6875 7.125q1.6875 3.078125 4.796875 4.796875q3.125 1.71875 7.234375 1.71875q3.296875 0 6.046875 -1.3125q2.75 -1.328125 4.953125 -3.15625l2.71875 3.890625q-2.9375 2.640625 -6.578125 4.109375q-3.625 1.453125 -7.578125 1.453125zm48.38745 0q-5.640625 0 -8.65625 -3.25q-3.0 -3.265625 -3.0 -9.578125l0 -35.34375l-12.171875 0l0 -4.90625l18.1875 0l0 40.6875q0 3.890625 1.90625 5.65625q1.90625 1.75 5.0625 1.75q1.53125 0 3.140625 -0.390625q1.625 -0.40625 3.609375 -1.296875l1.53125 4.546875q-2.421875 0.890625 -4.546875 1.5q-2.125 0.625 -5.0625 0.625zm32.26245 0q-3.296875 0 -6.078125 -1.203125q-2.78125 -1.21875 -4.40625 -3.484375q-1.609375 -2.28125 -1.609375 -5.421875q0 -6.015625 6.015625 -9.125q6.015625 -3.125 19.796875 -4.21875q-0.078125 -2.421875 -1.0 -4.46875q-0.90625 -2.0625 -2.96875 -3.265625q-2.046875 -1.21875 -5.484375 -1.21875q-2.28125 0 -4.515625 0.625q-2.234375 0.625 -4.25 1.625q-2.015625 0.984375 -3.703125 2.0l-2.34375 -4.109375q1.75 -1.171875 4.28125 -2.375q2.53125 -1.21875 5.46875 -1.984375q2.9375 -0.765625 6.078125 -0.765625q4.921875 0 8.109375 1.84375q3.1875 1.828125 4.765625 5.09375q1.578125 3.25 1.578125 7.71875l0 21.859375l-4.921875 0l-0.5 -4.84375l-0.21875 0q-2.9375 2.34375 -6.609375 4.03125q-3.65625 1.6875 -7.484375 1.6875zm1.625 -4.828125q3.078125 0 6.078125 -1.390625q3.015625 -1.40625 6.015625 -3.890625l0 -9.390625q-7.625 0.65625 -11.984375 1.828125q-4.359375 1.171875 -6.15625 2.96875q-1.796875 1.796875 -1.796875 4.15625q0 1.96875 1.09375 3.25q1.09375 1.28125 2.890625 1.875q1.796875 0.59375 3.859375 0.59375zm47.07495 4.828125q-5.203125 0 -9.75 -1.6875q-4.546875 -1.6875 -7.78125 -3.875l2.796875 -3.96875q3.078125 2.203125 6.8125 3.53125q3.734375 1.3125 8.65625 1.3125q4.546875 0 6.78125 -1.6875q2.234375 -1.6875 2.234375 -3.890625q0 -1.015625 -0.40625 -1.890625q-0.40625 -0.890625 -1.546875 -1.6875q-1.125 -0.8125 -3.328125 -1.546875q-2.203125 -0.734375 -5.859375 -1.46875q-6.96875 -1.46875 -10.453125 -3.953125q-3.484375 -2.5 -3.484375 -6.453125q0 -4.328125 3.734375 -7.21875q3.75 -2.90625 11.078125 -2.90625q4.109375 0 7.921875 1.359375q3.8125 1.359375 6.453125 3.1875l-2.9375 3.890625q-2.421875 -1.765625 -5.5 -2.75q-3.078125 -1.0 -6.453125 -1.0q-3.078125 0 -4.875 0.703125q-1.796875 0.6875 -2.5625 1.875q-0.765625 1.171875 -0.765625 2.5625q0 2.265625 2.453125 3.546875q2.453125 1.28125 7.875 2.390625q5.9375 1.25 9.125 2.796875q3.203125 1.53125 4.40625 3.515625q1.21875 1.96875 1.21875 4.6875q0 2.9375 -1.84375 5.328125q-1.828125 2.375 -5.359375 3.84375q-3.515625 1.453125 -8.640625 1.453125zm43.996826 0q-5.203125 0 -9.75 -1.6875q-4.546875 -1.6875 -7.78125 -3.875l2.796875 -3.96875q3.078125 2.203125 6.8125 3.53125q3.734375 1.3125 8.65625 1.3125q4.546875 0 6.78125 -1.6875q2.234375 -1.6875 2.234375 -3.890625q0 -1.015625 -0.40625 -1.890625q-0.40625 -0.890625 -1.546875 -1.6875q-1.125 -0.8125 -3.328125 -1.546875q-2.203125 -0.734375 -5.859375 -1.46875q-6.96875 -1.46875 -10.453125 -3.953125q-3.484375 -2.5 -3.484375 -6.453125q0 -4.328125 3.734375 -7.21875q3.75 -2.90625 11.078125 -2.90625q4.109375 0 7.921875 1.359375q3.8125 1.359375 6.453125 3.1875l-2.9375 3.890625q-2.421875 -1.765625 -5.5 -2.75q-3.078125 -1.0 -6.453125 -1.0q-3.078125 0 -4.875 0.703125q-1.796875 0.6875 -2.5625 1.875q-0.765625 1.171875 -0.765625 2.5625q0 2.265625 2.453125 3.546875q2.453125 1.28125 7.875 2.390625q5.9375 1.25 9.125 2.796875q3.203125 1.53125 4.40625 3.515625q1.21875 1.96875 1.21875 4.6875q0 2.9375 -1.84375 5.328125q-1.828125 2.375 -5.359375 3.84375q-3.515625 1.453125 -8.640625 1.453125z" fill-rule="nonzero"/><path fill="#000000" d="m1849.8557 799.6171q-5.28125 0 -9.71875 -1.9375q-4.421875 -1.9375 -7.734375 -5.171875l3.671875 -4.25q2.71875 2.71875 6.34375 4.375q3.625 1.640625 7.734375 1.640625q4.984375 0 7.734375 -2.125q2.75 -2.125 2.75 -5.5q0 -2.578125 -1.140625 -4.109375q-1.125 -1.546875 -3.078125 -2.5625q-1.9375 -1.03125 -4.4375 -2.0625l-6.890625 -3.0q-2.421875 -1.03125 -4.8125 -2.5625q-2.375 -1.546875 -3.984375 -3.921875q-1.609375 -2.390625 -1.609375 -5.90625q0 -3.671875 2.015625 -6.5625q2.015625 -2.90625 5.609375 -4.546875q3.59375 -1.65625 8.140625 -1.65625q4.546875 0 8.359375 1.65625q3.8125 1.640625 6.453125 4.28125l-3.234375 3.96875q-2.34375 -2.125 -5.203125 -3.328125q-2.859375 -1.21875 -6.59375 -1.21875q-4.1875 0 -6.75 1.875q-2.5625 1.859375 -2.5625 5.15625q0 2.28125 1.28125 3.75q1.28125 1.453125 3.25 2.40625q1.984375 0.953125 4.046875 1.84375l6.75 2.921875q3.0 1.1875 5.421875 2.84375q2.421875 1.640625 3.8125 4.0625q1.390625 2.40625 1.390625 5.9375q0 3.8125 -2.0625 6.9375q-2.046875 3.109375 -5.859375 4.9375q-3.8125 1.828125 -9.09375 1.828125zm39.6687 0q-6.375 0 -9.390625 -3.65625q-3.0 -3.671875 -3.0 -10.71875l0 -22.140625l6.09375 0l0 21.34375q0 5.0625 1.859375 7.515625q1.875 2.453125 6.34375 2.453125q3.09375 0 5.609375 -1.578125q2.53125 -1.578125 5.46875 -5.015625l0 -24.71875l6.015625 0l0 35.640625l-4.90625 0l-0.515625 -6.234375l-0.296875 0q-2.71875 3.078125 -5.953125 5.09375q-3.21875 2.015625 -7.328125 2.015625zm49.434326 0q-2.640625 0 -5.609375 -1.28125q-2.96875 -1.28125 -5.46875 -3.546875l-0.21875 0l-0.515625 3.953125l-4.84375 0l0 -52.203125l6.015625 0l0 14.21875l-0.21875 6.890625l0.21875 0q2.421875 -2.484375 5.609375 -3.953125q3.1875 -1.46875 6.34375 -1.46875q4.84375 0 8.140625 2.234375q3.296875 2.234375 4.984375 6.3125q1.6875 4.0625 1.6875 9.5625q0 6.09375 -2.234375 10.421875q-2.234375 4.3125 -5.90625 6.59375q-3.65625 2.265625 -7.984375 2.265625zm-0.953125 -5.0625q3.078125 0 5.53125 -1.671875q2.453125 -1.6875 3.875 -4.875q1.4375 -3.203125 1.4375 -7.59375q0 -3.890625 -1.03125 -6.859375q-1.015625 -2.96875 -3.21875 -4.609375q-2.203125 -1.65625 -5.796875 -1.65625q-2.40625 0 -5.09375 1.28125q-2.671875 1.28125 -5.390625 4.0625l0 17.75q2.578125 2.265625 5.171875 3.21875q2.609375 0.953125 4.515625 0.953125zm31.231201 4.1875l0 -48.109375l29.546875 0l0 5.140625l-23.390625 0l0 16.28125l19.796875 0l0 5.125l-19.796875 0l0 21.5625l-6.15625 0zm56.246826 0.875q-4.6875 0 -8.6875 -2.1875q-4.0 -2.203125 -6.453125 -6.375q-2.453125 -4.1875 -2.453125 -10.0625q0 -6.015625 2.453125 -10.1875q2.453125 -4.1875 6.453125 -6.375q4.0 -2.203125 8.6875 -2.203125q4.6875 0 8.6875 2.203125q4.0 2.1875 6.453125 6.375q2.453125 4.171875 2.453125 10.1875q0 5.875 -2.453125 10.0625q-2.453125 4.171875 -6.453125 6.375q-4.0 2.1875 -8.6875 2.1875zm0 -4.984375q3.4375 0 6.0 -1.71875q2.578125 -1.71875 3.96875 -4.796875q1.390625 -3.09375 1.390625 -7.125q0 -4.109375 -1.390625 -7.21875q-1.390625 -3.109375 -3.96875 -4.828125q-2.5625 -1.734375 -6.0 -1.734375q-3.453125 0 -5.984375 1.734375q-2.515625 1.71875 -3.953125 4.828125q-1.4375 3.109375 -1.4375 7.21875q0 4.03125 1.4375 7.125q1.4375 3.078125 3.953125 4.796875q2.53125 1.71875 5.984375 1.71875zm43.996826 4.984375q-4.6875 0 -8.6875 -2.1875q-4.0 -2.203125 -6.453125 -6.375q-2.453125 -4.1875 -2.453125 -10.0625q0 -6.015625 2.453125 -10.1875q2.453125 -4.1875 6.453125 -6.375q4.0 -2.203125 8.6875 -2.203125q4.6875 0 8.6875 2.203125q4.0 2.1875 6.453125 6.375q2.453125 4.171875 2.453125 10.1875q0 5.875 -2.453125 10.0625q-2.453125 4.171875 -6.453125 6.375q-4.0 2.1875 -8.6875 2.1875zm0 -4.984375q3.4375 0 6.0 -1.71875q2.578125 -1.71875 3.96875 -4.796875q1.390625 -3.09375 1.390625 -7.125q0 -4.109375 -1.390625 -7.21875q-1.390625 -3.109375 -3.96875 -4.828125q-2.5625 -1.734375 -6.0 -1.734375q-3.453125 0 -5.984375 1.734375q-2.515625 1.71875 -3.953125 4.828125q-1.4375 3.109375 -1.4375 7.21875q0 4.03125 1.4375 7.125q1.4375 3.078125 3.953125 4.796875q2.53125 1.71875 5.984375 1.71875z" fill-rule="nonzero"/><path fill="#000000" d="m2094.3992 798.7421l0 -1.953125q4.3125 -3.8125 7.296875 -6.703125q2.984375 -2.90625 4.53125 -5.21875q1.5625 -2.328125 1.5625 -4.4375q0 -2.203125 -1.359375 -3.59375q-1.359375 -1.40625 -4.1875 -1.40625q-1.8125 0 -3.359375 0.875q-1.53125 0.875 -2.765625 2.203125l-1.875 -1.890625q1.71875 -1.75 3.6875 -2.8125q1.984375 -1.0625 4.703125 -1.0625q2.5625 0 4.421875 0.9375q1.859375 0.9375 2.875 2.625q1.03125 1.671875 1.03125 3.953125q0 2.40625 -1.484375 4.84375q-1.484375 2.4375 -4.140625 5.140625q-2.65625 2.703125 -6.140625 5.90625q1.203125 -0.125 2.390625 -0.1875q1.203125 -0.0625 2.375 -0.0625l8.390625 0l0 2.84375l-17.953125 0z" fill-rule="nonzero"/><path fill="#000000" d="m2148.993 810.289q-7.140625 0 -10.609375 -2.125q-3.453125 -2.125 -3.453125 -7.984375q0 -2.8125 0.15625 -5.15625q0.15625 -2.359375 0.34375 -4.671875q0.1875 -2.328125 0.1875 -4.828125q0 -1.53125 -0.875 -2.859375q-0.875 -1.328125 -3.265625 -2.203125q-2.390625 -0.875 -6.875 -0.875l0 -3.953125q4.484375 0 6.875 -0.875q2.390625 -0.875 3.265625 -2.234375q0.875 -1.375 0.875 -2.8125q0 -2.359375 -0.1875 -4.75q-0.1875 -2.390625 -0.34375 -4.828125q-0.15625 -2.4375 -0.15625 -5.09375q0 -5.84375 3.453125 -7.96875q3.46875 -2.140625 10.609375 -2.140625l4.640625 0l0 3.578125l-3.953125 0q-3.875 0 -5.890625 0.71875q-2.015625 0.71875 -2.78125 2.203125q-0.75 1.484375 -0.75 4.0q0 3.265625 0.21875 6.71875q0.234375 3.453125 0.234375 7.03125q0 3.640625 -1.484375 5.625q-1.484375 1.96875 -5.4375 2.65625l0 0.3125q3.953125 0.671875 5.4375 2.65625q1.484375 1.96875 1.484375 5.625q0 3.796875 -0.234375 7.03125q-0.21875 3.21875 -0.21875 6.71875q0 2.4375 0.75 3.953125q0.765625 1.515625 2.78125 2.234375q2.015625 0.734375 5.890625 0.734375l3.953125 0l0 3.5625l-4.640625 0z" fill-rule="nonzero"/><path fill="#d9ead3" d="m1563.5155 830.78217l547.1998 0l0 91.20001l-547.1998 0l0 -91.20001z" fill-rule="nonzero"/><path fill="#000000" fill-opacity="0.0" d="m1563.5155 828.9582l45.599976 0l0 95.53198l-45.599976 0l0 -95.53198z" fill-rule="nonzero"/><path fill="#38761d" d="m1583.8124 895.83594l0 -14.8125l-13.84375 0l0 -4.71875l13.84375 0l0 -14.8125l5.015625 0l0 14.8125l13.828125 0l0 4.71875l-13.828125 0l0 14.8125l-5.015625 0z" fill-rule="nonzero"/><path fill="#010000" fill-opacity="0.0" d="m1609.1155 828.9582l501.59985 0l0 95.53198l-501.59985 0l0 -95.53198z" fill-rule="nonzero"/><path fill="#000000" d="m1769.103 904.64844q-5.484375 0 -10.078125 -2.0q-4.59375 -2.015625 -8.015625 -5.359375l3.796875 -4.421875q2.8125 2.8125 6.578125 4.53125q3.765625 1.703125 8.015625 1.703125q5.171875 0 8.015625 -2.203125q2.859375 -2.203125 2.859375 -5.703125q0 -2.65625 -1.1875 -4.25q-1.171875 -1.59375 -3.1875 -2.65625q-2.015625 -1.0625 -4.59375 -2.125l-7.15625 -3.125q-2.5 -1.0625 -4.96875 -2.65625q-2.46875 -1.59375 -4.140625 -4.0625q-1.671875 -2.46875 -1.671875 -6.125q0 -3.796875 2.078125 -6.796875q2.09375 -3.0 5.8125 -4.703125q3.734375 -1.71875 8.4375 -1.71875q4.71875 0 8.671875 1.71875q3.953125 1.703125 6.6875 4.4375l-3.34375 4.09375q-2.4375 -2.203125 -5.40625 -3.453125q-2.953125 -1.25 -6.828125 -1.25q-4.328125 0 -7.0 1.9375q-2.65625 1.9375 -2.65625 5.359375q0 2.359375 1.328125 3.875q1.328125 1.515625 3.375 2.515625q2.0625 0.984375 4.1875 1.890625l7.0 3.046875q3.109375 1.203125 5.609375 2.921875q2.515625 1.703125 3.953125 4.21875q1.453125 2.5 1.453125 6.15625q0 3.953125 -2.125 7.1875q-2.125 3.21875 -6.078125 5.125q-3.953125 1.890625 -9.421875 1.890625zm52.349976 0q-5.390625 0 -8.515625 -1.9375q-3.109375 -1.9375 -4.4375 -5.34375q-1.328125 -3.421875 -1.328125 -7.984375l0 -17.484375l-10.40625 0l0 -4.71875l10.640625 -0.375l0.828125 -11.859375l5.171875 0l0 11.859375l18.15625 0l0 5.09375l-18.15625 0l0 17.5625q0 3.265625 0.828125 5.546875q0.84375 2.28125 2.890625 3.421875q2.046875 1.125 5.625 1.125q2.65625 0 4.78125 -0.453125q2.140625 -0.453125 4.109375 -1.21875l1.375 4.5625q-2.515625 0.921875 -5.296875 1.5625q-2.765625 0.640625 -6.265625 0.640625zm26.756226 -0.90625l0 -36.9375l5.171875 0l0.53125 8.734375l0.234375 0q2.875 -4.484375 7.125 -7.0625q4.265625 -2.578125 9.359375 -2.578125q2.046875 0 3.828125 0.34375q1.796875 0.34375 3.46875 1.171875l-1.4375 5.390625q-1.90625 -0.671875 -3.28125 -0.96875q-1.359375 -0.3125 -3.5625 -0.3125q-4.1875 0 -8.03125 2.390625q-3.828125 2.390625 -7.171875 8.171875l0 21.65625l-6.234375 0zm58.52185 0l0 -31.84375l-17.171875 0l0 -5.09375l23.40625 0l0 36.9375l-6.234375 0zm2.421875 -44.6875q-2.125 0 -3.578125 -1.328125q-1.4375 -1.328125 -1.4375 -3.53125q0 -2.203125 1.4375 -3.53125q1.453125 -1.34375 3.578125 -1.34375q2.125 0 3.5625 1.34375q1.453125 1.328125 1.453125 3.53125q0 2.203125 -1.453125 3.53125q-1.4375 1.328125 -3.5625 1.328125zm26.224976 44.6875l0 -36.9375l5.171875 0l0.53125 6.3125l0.3125 0q2.875 -3.125 6.21875 -5.171875q3.34375 -2.046875 7.6875 -2.046875q6.53125 0 9.640625 3.796875q3.125 3.796875 3.125 11.09375l0 22.953125l-6.234375 0l0 -22.109375q0 -5.25 -1.984375 -7.796875q-1.96875 -2.546875 -6.53125 -2.546875q-3.265625 0 -5.859375 1.671875q-2.578125 1.671875 -5.84375 5.015625l0 25.765625l-6.234375 0zm61.037476 17.03125q-5.40625 0 -9.203125 -1.21875q-3.796875 -1.21875 -5.8125 -3.5q-2.015625 -2.28125 -2.015625 -5.546875q0 -2.203125 1.5625 -4.375q1.5625 -2.15625 4.515625 -3.828125l0 -0.3125q-1.4375 -0.828125 -2.625 -2.265625q-1.171875 -1.453125 -1.171875 -3.8125q0 -1.75 1.140625 -3.609375q1.140625 -1.859375 3.265625 -3.3125l0 -0.296875q-1.890625 -1.4375 -3.234375 -3.875q-1.328125 -2.4375 -1.328125 -5.703125q0 -4.03125 2.015625 -6.984375q2.015625 -2.96875 5.3125 -4.59375q3.3125 -1.640625 7.1875 -1.640625q3.125 0 5.484375 0.90625l15.265625 0l0 5.09375l-9.578125 0q1.296875 1.296875 2.203125 3.28125q0.921875 1.96875 0.921875 4.171875q0 3.953125 -1.90625 6.796875q-1.890625 2.84375 -5.125 4.375q-3.234375 1.515625 -7.265625 1.515625q-1.4375 0 -3.078125 -0.34375q-1.625 -0.34375 -3.140625 -1.03125q-1.375 0.84375 -2.140625 1.90625q-0.75 1.0625 -0.75 2.359375q0 2.125 2.015625 3.1875q2.015625 1.0625 5.65625 1.0625l8.28125 0q7.140625 0 10.59375 1.984375q3.46875 1.96875 3.46875 6.6875q0 3.421875 -2.515625 6.375q-2.5 2.96875 -7.109375 4.75q-4.59375 1.796875 -10.890625 1.796875zm-0.390625 -32.921875q2.359375 0 4.296875 -1.0625q1.9375 -1.0625 3.078125 -3.03125q1.140625 -1.984375 1.140625 -4.640625q0 -2.578125 -1.140625 -4.515625q-1.140625 -1.9375 -3.078125 -3.03125q-1.9375 -1.109375 -4.296875 -1.109375q-2.265625 0 -4.21875 1.109375q-1.9375 1.09375 -3.109375 3.03125q-1.171875 1.9375 -1.171875 4.515625q0 2.65625 1.171875 4.640625q1.171875 1.96875 3.109375 3.03125q1.953125 1.0625 4.21875 1.0625zm0.84375 28.359375q4.328125 0 7.4375 -1.0625q3.125 -1.0625 4.796875 -2.75q1.671875 -1.671875 1.671875 -3.5625q0 -2.65625 -2.09375 -3.578125q-2.078125 -0.90625 -6.34375 -0.90625l-7.21875 0q-1.59375 0 -3.0 -0.15625q-1.40625 -0.15625 -2.625 -0.453125q-2.578125 1.4375 -3.640625 3.0q-1.0625 1.5625 -1.0625 3.15625q0 2.890625 3.078125 4.59375q3.078125 1.71875 9.0 1.71875zm86.95007 -11.5625q-3.421875 0 -6.3125 -1.25q-2.890625 -1.25 -4.5625 -3.609375q-1.671875 -2.359375 -1.671875 -5.625q0 -6.234375 6.234375 -9.453125q6.234375 -3.234375 20.515625 -4.375q-0.078125 -2.515625 -1.03125 -4.640625q-0.9375 -2.125 -3.078125 -3.375q-2.125 -1.265625 -5.6875 -1.265625q-2.359375 0 -4.6875 0.65625q-2.3125 0.640625 -4.40625 1.671875q-2.078125 1.015625 -3.828125 2.09375l-2.4375 -4.265625q1.828125 -1.21875 4.4375 -2.46875q2.625 -1.25 5.671875 -2.046875q3.046875 -0.796875 6.3125 -0.796875q5.09375 0 8.390625 1.90625q3.3125 1.890625 4.9375 5.28125q1.640625 3.375 1.640625 8.015625l0 22.640625l-5.09375 0l-0.53125 -5.015625l-0.234375 0q-3.03125 2.4375 -6.84375 4.1875q-3.796875 1.734375 -7.734375 1.734375zm1.671875 -5.015625q3.1875 0 6.296875 -1.4375q3.125 -1.4375 6.234375 -4.03125l0 -9.71875q-7.90625 0.671875 -12.4375 1.890625q-4.515625 1.21875 -6.375 3.078125q-1.859375 1.859375 -1.859375 4.296875q0 2.046875 1.140625 3.390625q1.140625 1.328125 3.0 1.9375q1.859375 0.59375 4.0 0.59375z" fill-rule="nonzero"/><path fill="#000000" d="m1677.5123 1009.64844q-2.5 0 -4.328125 -1.78125q-1.828125 -1.78125 -1.828125 -4.59375q0 -2.890625 1.828125 -4.671875q1.828125 -1.796875 4.328125 -1.796875q2.59375 0 4.375 1.796875q1.78125 1.78125 1.78125 4.671875q0 2.8125 -1.78125 4.59375q-1.78125 1.78125 -4.375 1.78125zm45.600098 0q-2.5 0 -4.328125 -1.78125q-1.828125 -1.78125 -1.828125 -4.59375q0 -2.890625 1.828125 -4.671875q1.828125 -1.796875 4.328125 -1.796875q2.59375 0 4.375 1.796875q1.78125 1.78125 1.78125 4.671875q0 2.8125 -1.78125 4.59375q-1.78125 1.78125 -4.375 1.78125zm45.599976 0q-2.5 0 -4.328125 -1.78125q-1.828125 -1.78125 -1.828125 -4.59375q0 -2.890625 1.828125 -4.671875q1.828125 -1.796875 4.328125 -1.796875q2.59375 0 4.375 1.796875q1.78125 1.78125 1.78125 4.671875q0 2.8125 -1.78125 4.59375q-1.78125 1.78125 -4.375 1.78125z" fill-rule="nonzero"/><path fill="#000000" d="m1571.0468 1125.2891l0 -3.5625l3.875 0q3.953125 0 5.953125 -0.734375q2.015625 -0.71875 2.78125 -2.234375q0.765625 -1.515625 0.765625 -3.953125q0 -3.5 -0.234375 -6.71875q-0.234375 -3.234375 -0.234375 -7.03125q0 -3.65625 1.4375 -5.625q1.453125 -1.984375 5.40625 -2.65625l0 -0.3125q-3.953125 -0.6875 -5.40625 -2.65625q-1.4375 -1.984375 -1.4375 -5.625q0 -3.578125 0.234375 -7.03125q0.234375 -3.453125 0.234375 -6.71875q0 -2.515625 -0.765625 -4.0q-0.765625 -1.484375 -2.78125 -2.203125q-2.0 -0.71875 -5.953125 -0.71875l-3.875 0l0 -3.578125l4.625 0q7.140625 0 10.5625 2.140625q3.421875 2.125 3.421875 7.96875q0 2.65625 -0.15625 5.09375q-0.140625 2.4375 -0.34375 4.828125q-0.1875 2.390625 -0.1875 4.75q0 1.4375 0.875 2.8125q0.875 1.359375 3.265625 2.234375q2.40625 0.875 6.890625 0.875l0 3.953125q-4.484375 0 -6.890625 0.875q-2.390625 0.875 -3.265625 2.203125q-0.875 1.328125 -0.875 2.859375q0 2.5 0.1875 4.828125q0.203125 2.3125 0.34375 4.671875q0.15625 2.34375 0.15625 5.15625q0 5.859375 -3.421875 7.984375q-3.421875 2.125 -10.5625 2.125l-4.625 0z" fill-rule="nonzero"/><path fill="#000000" fill-opacity="0.0" d="m624.0761 889.41205c57.60028 -0.39233398 282.2163 105.88104 345.6018 -2.354309c63.38556 -108.23535 13.583069 -530.5875 34.711365 -647.05774c21.128296 -116.47025 76.715454 -43.13649 92.05859 -51.76378" fill-rule="evenodd"/><path stroke="#999999" stroke-width="8.0" stroke-linejoin="round" stroke-linecap="butt" d="m651.2197 893.272l1.6442261 0.36566162c11.778198 2.6569214 25.524902 6.3532715 40.599 10.461609c30.148193 8.216797 65.60602 18.081848 101.24463 24.576782c71.27716 12.989807 143.27759 12.499329 174.97034 -41.618286c63.38556 -108.23529 13.583069 -530.58746 34.711365 -647.05774c21.128296 -116.47026 76.715454 -43.13649 92.05859 -51.76378" fill-rule="evenodd"/><path fill="#999999" stroke="#999999" stroke-width="8.0" stroke-linecap="butt" d="m651.2197 893.27203l10.173706 -7.640442l-25.738586 5.427002l23.205322 12.387085z" fill-rule="evenodd"/><path fill="#000000" fill-opacity="0.0" d="m1555.294 886.1154c-19.215698 -2.8267822 -89.41162 86.423035 -115.293945 -16.960571c-25.882324 -103.38367 -33.333374 -502.78433 -40.0 -603.3412" fill-rule="evenodd"/><path stroke="#999999" stroke-width="8.0" stroke-linejoin="round" stroke-linecap="butt" d="m1513.1531 909.0968l-0.13024902 0.07324219c-1.4034424 0.7811279 -2.8189697 1.5392456 -4.243286 2.265625c-2.849121 1.4528809 -5.734253 2.7787476 -8.632568 3.9082642c-23.186157 9.036133 -47.20569 5.5026855 -60.146973 -46.189087c-25.882324 -103.38367 -33.333374 -502.7843 -40.0 -603.3412" fill-rule="evenodd"/><path fill="#999999" stroke="#999999" stroke-width="8.0" stroke-linecap="butt" d="m1519.4796 920.69775l25.546753 -28.98291l-38.19983 5.781067z" fill-rule="evenodd"/><path fill="#000000" fill-opacity="0.0" d="m680.0369 540.8934l308.50397 0.25195312l0 69.13385l-308.50397 -0.25195312z" fill-rule="evenodd"/><path fill="#000000" d="m695.25635 612.0433l0 -36.859375l3.625 0.0029907227l0.375 3.3128052l0.171875 1.2207031E-4q1.8125 -1.7016602 4.171875 -2.824707q2.375 -1.1230469 4.78125 -1.1210938q3.515625 0.0028686523 5.890625 1.6454468q2.375 1.6269531 3.59375 4.5810547q1.234375 2.9541016 1.234375 7.0166016q0 4.375 -1.65625 7.514282q-1.65625 3.1392822 -4.328125 4.793335q-2.65625 1.6541138 -5.796875 1.6515503q-1.765625 -0.0014648438 -3.875 -0.8781738q-2.109375 -0.892334 -3.859375 -2.4875488l-0.15625 -1.2207031E-4l0.203125 4.906433l0 8.75l-4.375 -0.0036010742zm11.3125 -13.975098q2.296875 0.0018920898 4.109375 -1.2153931q1.8125 -1.2329102 2.84375 -3.5445557q1.046875 -2.3116455 1.046875 -5.5147705q0 -2.828125 -0.75 -4.9849854q-0.75 -2.1724854 -2.34375 -3.3613281q-1.59375 -1.2044067 -4.21875 -1.206543q-1.75 -0.0014648438 -3.703125 0.93444824q-1.9375 0.9202881 -3.921875 2.9499512l0 12.90625q1.875 1.6577759 3.765625 2.3468018q1.890625 0.6890869 3.171875 0.6901245zm28.856201 3.7110596q-4.640625 -0.0037841797 -6.828125 -2.6618042q-2.1875 -2.673706 -2.1875 -7.798706l0 -16.109375l4.421875 0.0036010742l0 15.515625q0 3.6875 1.359375 5.4855347q1.359375 1.7823486 4.609375 1.7849731q2.25 0.0018310547 4.078125 -1.1372681q1.84375 -1.1547241 3.984375 -3.6686401l0 -17.96875l4.375 0.0036010742l0 25.921875l-3.578125 -0.0029296875l-0.375 -4.531555l-0.21875 -1.8310547E-4q-1.96875 2.232788 -4.3125 3.699585q-2.34375 1.4668579 -5.328125 1.4644165zm35.403076 0.028930664q-3.78125 -0.003112793 -7.09375 -1.2245483q-3.3125 -1.2371216 -5.65625 -2.8327637l2.03125 -2.888977q2.234375 1.611206 4.953125 2.5822144q2.71875 0.95532227 6.296875 0.95825195q3.3125 0.0026855469 4.9375 -1.2147217q1.625 -1.2330322 1.625 -2.8424072q0 -0.75 -0.296875 -1.3908691q-0.296875 -0.64086914 -1.125 -1.2196655q-0.8125 -0.5944214 -2.421875 -1.1270142q-1.59375 -0.53253174 -4.265625 -1.065979q-5.0625 -1.0666504 -7.59375 -2.8812256q-2.53125 -1.8145142 -2.53125 -4.705139q0 -3.140686 2.71875 -5.2478027q2.71875 -2.1071777 8.046875 -2.1027832q2.984375 0.002380371 5.75 1.0046387q2.78125 0.98669434 4.703125 2.3163452l-2.125 2.826416q-1.765625 -1.2827148 -4.015625 -2.003296q-2.234375 -0.72058105 -4.6875 -0.7225342q-2.234375 -0.0018310547 -3.546875 0.5126953q-1.296875 0.4989624 -1.859375 1.3578491q-0.5625 0.84332275 -0.5625 1.8589478q0 1.640625 1.78125 2.5795898q1.796875 0.93896484 5.734375 1.7390137q4.328125 0.90979004 6.640625 2.0366821q2.328125 1.1112671 3.203125 2.5651245q0.875 1.4382324 0.875 3.4069824q0 2.140625 -1.328125 3.8739014q-1.328125 1.7176514 -3.890625 2.7937012q-2.5625 1.0604248 -6.296875 1.057373zm20.418701 -0.6239624l0 -37.96875l4.375 0.003540039l0 10.34375l-0.265625 6.140442l0.15625 1.2207031E-4q1.984375 -2.139038 4.328125 -3.605835q2.34375 -1.4668579 5.390625 -1.4643555q4.578125 0.0037231445 6.765625 2.6773682q2.1875 2.673706 2.1875 7.783081l0 16.109375l-4.375 -0.0036010742l0 -15.515625q0 -3.6875 -1.390625 -5.4698486q-1.375 -1.7824097 -4.578125 -1.7850342q-2.296875 -0.0018310547 -4.109375 1.1685181q-1.8125 1.1704102 -4.109375 3.512268l0 18.078125l-4.375 -0.003540039zm73.49359 0.70062256q-5.0625 -0.0040893555 -8.15625 -3.5535278q-3.09375 -3.5493774 -3.09375 -10.002502q0 -4.21875 1.671875 -7.279907q1.6875 -3.0610962 4.375 -4.715149q2.703125 -1.6540527 5.734375 -1.6516113q2.296875 0.0018920898 4.1875 0.89404297q1.890625 0.8765869 3.546875 2.4716797l0.15625 1.2207031E-4l-0.203125 -4.797058l0 -9.96875l4.359375 0.003540039l0 37.96881l-3.625 -0.0029907227l-0.375 -3.4065552l-0.15625 -1.2207031E-4q-1.546875 1.6393433 -3.765625 2.8406982q-2.203125 1.201294 -4.65625 1.1992798zm0.90625 -3.6867676q1.921875 0.0015869141 3.734375 -0.98132324q1.8125 -0.9828491 3.578125 -2.9033203l0 -12.90625q-1.765625 -1.6420288 -3.453125 -2.3309326q-1.671875 -0.7044678 -3.375 -0.7058716q-2.25 -0.0018310547 -4.09375 1.2466431q-1.828125 1.2485352 -2.921875 3.4663696q-1.09375 2.2178345 -1.09375 5.2022095q0 4.640625 2.015625 7.282898q2.03125 2.626709 5.609375 2.6295776zm32.63745 3.7141724q-3.421875 -0.0028076172 -6.328125 -1.598877q-2.90625 -1.6117554 -4.6875 -4.64447q-1.78125 -3.0483398 -1.78125 -7.313965q0 -4.375 1.78125 -7.404785q1.78125 -3.0454102 4.6875 -4.636841q2.90625 -1.6069946 6.328125 -1.604187q3.40625 0.0028076172 6.3125 1.614563q2.90625 1.5960693 4.6875 4.644409q1.796875 3.0327148 1.796875 7.407715q0 4.265625 -1.796875 7.311035q-1.78125 3.0298462 -4.6875 4.636841q-2.90625 1.5913696 -6.3125 1.588562zm0 -3.625q2.5 0.0020751953 4.359375 -1.2463989q1.875 -1.2640991 2.890625 -3.4976807q1.015625 -2.2335205 1.015625 -5.1710205q0 -2.984375 -1.015625 -5.2508545q-1.015625 -2.2664185 -2.890625 -3.5180054q-1.859375 -1.2670898 -4.359375 -1.269165q-2.515625 -0.0020751953 -4.359375 1.262085q-1.828125 1.2484741 -2.875 3.5132446q-1.03125 2.2648315 -1.03125 5.2492065q0 2.9375 1.03125 5.1726685q1.046875 2.2352295 2.875 3.5023804q1.84375 1.2515259 4.359375 1.25354zm22.074951 3.0024414l-5.65625 -25.926514l4.375 0.003540039l3.09375 15.049438q0.375 1.8128052 0.671875 3.5474243q0.296875 1.7346191 0.5 3.5941772l0.21875 1.2207031E-4q0.265625 -1.8591309 0.65625 -3.5932007q0.40625 -1.7340088 0.828125 -3.5462036l3.203125 -13.4348755l4.375 0.0036010742l3.09375 13.440002q0.421875 1.8128662 0.90625 3.5476074q0.484375 1.7348022 0.6875 3.5942993l0.21875 1.8310547E-4q0.328125 -1.8590698 0.5625 -3.5932617q0.234375 -1.7341919 0.609375 -3.5463867l3.09375 -15.044373l4.046875 0.0033569336l-5.53125 25.917358l-5.65625 -0.004638672l-2.984375 -12.377441q-0.328125 -1.3908691 -0.65625 -3.2974243q-0.3125 -1.9221191 -0.625 -4.3754883l-0.21875 -1.8310547E-4q-0.3125 2.4528809 -0.640625 4.3744507q-0.3125 1.9060059 -0.640625 3.2963867l-2.875 12.37262l-5.65625 -0.0045776367zm30.871826 0.02520752l0 -25.921875l3.625 0.0029296875l0.375 4.437805l0.21875 1.8310547E-4q2.03125 -2.185852 4.375 -3.621399q2.34375 -1.4512329 5.390625 -1.4487305q4.578125 0.0037231445 6.765625 2.6773682q2.1875 2.673706 2.1875 7.783081l0 16.109375l-4.375 -0.0036010742l0 -15.515625q0 -3.6875 -1.390625 -5.4699097q-1.375 -1.7823486 -4.578125 -1.7849731q-2.296875 -0.0018920898 -4.109375 1.1685181q-1.8125 1.1704102 -4.109375 3.512268l0 18.078125l-4.375 -0.003540039z" fill-rule="nonzero"/><path fill="#000000" fill-opacity="0.0" d="m1425.9583 531.1322l308.5039 0.25195312l0 69.13385l-308.5039 -0.25195312z" fill-rule="evenodd"/><path fill="#000000" d="m1441.1776 602.28217l0 -36.859375l3.625 0.0029296875l0.375 3.3128052l0.171875 1.2207031E-4q1.8125 -1.7015991 4.171875 -2.824707q2.375 -1.1230469 4.78125 -1.1210938q3.515625 0.0028686523 5.890625 1.6454468q2.375 1.6269531 3.59375 4.5810547q1.234375 2.9541626 1.234375 7.0166626q0 4.375 -1.65625 7.514282q-1.65625 3.1392212 -4.328125 4.793335q-2.65625 1.6540527 -5.796875 1.6514893q-1.765625 -0.0014648438 -3.875 -0.8781738q-2.109375 -0.892334 -3.859375 -2.4874878l-0.15625 -1.8310547E-4l0.203125 4.906433l0 8.75l-4.375 -0.003540039zm11.3125 -13.975159q2.296875 0.0018920898 4.109375 -1.2153931q1.8125 -1.2329102 2.84375 -3.5445557q1.046875 -2.3116455 1.046875 -5.5147705q0 -2.828125 -0.75 -4.9849854q-0.75 -2.1724854 -2.34375 -3.361267q-1.59375 -1.2044678 -4.21875 -1.206604q-1.75 -0.0014038086 -3.703125 0.9345093q-1.9375 0.9202881 -3.921875 2.9498901l0 12.90625q1.875 1.6577759 3.765625 2.3468628q1.890625 0.6890259 3.171875 0.6900635zm28.856201 3.7110596q-4.640625 -0.0037841797 -6.828125 -2.6618042q-2.1875 -2.673645 -2.1875 -7.798706l0 -16.109375l4.421875 0.0036621094l0 15.515625q0 3.6875 1.359375 5.4854736q1.359375 1.7823486 4.609375 1.7850342q2.25 0.0018310547 4.078125 -1.1373291q1.84375 -1.1547241 3.984375 -3.6686401l0 -17.96875l4.375 0.0036010742l0 25.921875l-3.578125 -0.0029296875l-0.375 -4.531555l-0.21875 -1.8310547E-4q-1.96875 2.232788 -4.3125 3.699585q-2.34375 1.4668579 -5.328125 1.4644165zm35.403076 0.028930664q-3.78125 -0.003112793 -7.09375 -1.2245483q-3.3125 -1.2370605 -5.65625 -2.8327637l2.03125 -2.888977q2.234375 1.611206 4.953125 2.5822144q2.71875 0.95532227 6.296875 0.95825195q3.3125 0.0026855469 4.9375 -1.2147217q1.625 -1.2330322 1.625 -2.8424072q0 -0.75 -0.296875 -1.3908691q-0.296875 -0.64086914 -1.125 -1.2196655q-0.8125 -0.5944214 -2.421875 -1.1270142q-1.59375 -0.53253174 -4.265625 -1.065979q-5.0625 -1.0665894 -7.59375 -2.8811646q-2.53125 -1.8145752 -2.53125 -4.7052q0 -3.140625 2.71875 -5.2478027q2.71875 -2.1071777 8.046875 -2.1027832q2.984375 0.0024414062 5.75 1.0046997q2.78125 0.9866333 4.703125 2.3163452l-2.125 2.826355q-1.765625 -1.2826538 -4.015625 -2.003296q-2.234375 -0.72052 -4.6875 -0.7225342q-2.234375 -0.0018310547 -3.546875 0.5126953q-1.296875 0.4989624 -1.859375 1.3578491q-0.5625 0.84332275 -0.5625 1.8589478q0 1.640625 1.78125 2.5795898q1.796875 0.93896484 5.734375 1.7390747q4.328125 0.909729 6.640625 2.036621q2.328125 1.1113281 3.203125 2.5651245q0.875 1.4382324 0.875 3.4069824q0 2.140625 -1.328125 3.8739014q-1.328125 1.7176514 -3.890625 2.7937012q-2.5625 1.0604248 -6.296875 1.057373zm20.418701 -0.6239624l0 -37.96875l4.375 0.003540039l0 10.343811l-0.265625 6.140381l0.15625 1.2207031E-4q1.984375 -2.138977 4.328125 -3.605835q2.34375 -1.4668579 5.390625 -1.4643555q4.578125 0.0037231445 6.765625 2.6774292q2.1875 2.673645 2.1875 7.78302l0 16.109375l-4.375 -0.003540039l0 -15.515686q0 -3.6875 -1.390625 -5.4698486q-1.375 -1.7824097 -4.578125 -1.7849731q-2.296875 -0.0018920898 -4.109375 1.1685181q-1.8125 1.1703491 -4.109375 3.512268l0 18.078125l-4.375 -0.0036010742zm73.49365 0.7006836q-5.0625 -0.0041503906 -8.15625 -3.5535889q-3.09375 -3.5493774 -3.09375 -10.002502q0 -4.21875 1.671875 -7.279907q1.6875 -3.0610962 4.375 -4.715149q2.703125 -1.6540527 5.734375 -1.6515503q2.296875 0.0018310547 4.1875 0.89404297q1.890625 0.8765259 3.546875 2.4716187l0.15625 1.2207031E-4l-0.203125 -4.797058l0 -9.96875l4.359375 0.0036010742l0 37.96875l-3.625 -0.0029907227l-0.375 -3.4065552l-0.15625 -1.2207031E-4q-1.546875 1.6394043 -3.765625 2.8406982q-2.203125 1.201294 -4.65625 1.1993408zm0.90625 -3.6867676q1.921875 0.0015258789 3.734375 -0.98132324q1.8125 -0.98291016 3.578125 -2.9033203l0 -12.906311q-1.765625 -1.6420288 -3.453125 -2.3309326q-1.671875 -0.7044678 -3.375 -0.7058716q-2.25 -0.0018310547 -4.09375 1.2466431q-1.828125 1.2485352 -2.921875 3.4663696q-1.09375 2.2178955 -1.09375 5.2022705q0 4.640625 2.015625 7.282898q2.03125 2.626648 5.609375 2.6295776zm32.63745 3.7141113q-3.421875 -0.002746582 -6.328125 -1.598877q-2.90625 -1.6117554 -4.6875 -4.64447q-1.78125 -3.0483398 -1.78125 -7.313965q0 -4.375 1.78125 -7.404785q1.78125 -3.0454102 4.6875 -4.63678q2.90625 -1.6069946 6.328125 -1.604248q3.40625 0.0028076172 6.312378 1.614563q2.90625 1.5961304 4.6875 4.64447q1.796875 3.0327148 1.796875 7.407715q0 4.265625 -1.796875 7.311035q-1.78125 3.0297852 -4.6875 4.63678q-2.906128 1.5913696 -6.312378 1.588562zm0 -3.625q2.5 0.0020751953 4.359375 -1.2463989q1.8748779 -1.2640991 2.890503 -3.4976807q1.015625 -2.2335205 1.015625 -5.1710205q0 -2.984375 -1.015625 -5.2508545q-1.015625 -2.2664185 -2.890503 -3.5179443q-1.859375 -1.2671509 -4.359375 -1.2692261q-2.515625 -0.0020141602 -4.359375 1.262085q-1.828125 1.2485352 -2.875 3.5133057q-1.03125 2.2647705 -1.03125 5.2491455q0 2.9375 1.03125 5.1727295q1.046875 2.2352295 2.875 3.5023193q1.84375 1.2515259 4.359375 1.25354zm22.07483 3.0024414l-5.65625 -25.926514l4.375 0.0036010742l3.09375 15.049377q0.375 1.8128052 0.671875 3.5474243q0.296875 1.7346191 0.5 3.5941772l0.21875 1.8310547E-4q0.265625 -1.8591919 0.65625 -3.5932617q0.40625 -1.7340088 0.828125 -3.5461426l3.203125 -13.434937l4.375 0.0036010742l3.09375 13.440002q0.421875 1.8128662 0.90625 3.5476074q0.484375 1.7348022 0.6875 3.5943604l0.21875 1.8310547E-4q0.328125 -1.8591309 0.5625 -3.5933228q0.234375 -1.7341919 0.609375 -3.5463867l3.09375 -15.044312l4.046875 0.0032958984l-5.53125 25.917358l-5.65625 -0.004638672l-2.984375 -12.377441q-0.328125 -1.3908691 -0.65625 -3.2974243q-0.3125 -1.9221191 -0.625 -4.3754883l-0.21875 -1.8310547E-4q-0.3125 2.4528809 -0.640625 4.3745117q-0.3125 1.9059448 -0.640625 3.2963257l-2.875 12.372681l-5.65625 -0.004638672zm30.871826 0.02520752l0 -25.921875l3.625 0.0029296875l0.375 4.437805l0.21875 1.8310547E-4q2.03125 -2.185852 4.375 -3.621399q2.34375 -1.4512329 5.390625 -1.4487305q4.578125 0.0037231445 6.765625 2.6774292q2.1875 2.673645 2.1875 7.78302l0 16.109375l-4.375 -0.0036010742l0 -15.515625q0 -3.6875 -1.390625 -5.4698486q-1.375 -1.7824097 -4.578125 -1.7850342q-2.296875 -0.0018310547 -4.109375 1.1685181q-1.8125 1.1704102 -4.109375 3.512268l0 18.078186l-4.375 -0.0036010742z" fill-rule="nonzero"/></g></svg>